G04 #@! TF.GenerationSoftware,KiCad,Pcbnew,9.0.9-9.0.9~ubuntu24.04.1*
G04 #@! TF.CreationDate,2026-10-09T05:53:49+00:00*
G04 #@! TF.ProjectId,power_jumper,706f7765-725f-46a7-956d-7065722e6b69,rev?*
G04 #@! TF.SameCoordinates,Original*
G04 #@! TF.FileFunction,Legend,Top*
G04 #@! TF.FilePolarity,Positive*
%FSLAX46Y46*%
G04 Gerber Fmt 4.6, Leading zero omitted, Abs format (unit mm)*
G04 Created by KiCad (PCBNEW 9.0.9-9.0.9~ubuntu24.04.1) date 2026-10-09 05:53:49*
%MOMM*%
%LPD*%
G01*
G04 APERTURE LIST*
%ADD10C,0.120000*%
%ADD11R,4.500000X1.800000*%
%ADD12R,7.000000X4.000000*%
%ADD13R,3.000000X0.300000*%
G04 APERTURE END LIST*
D10*
X4189047Y436145D02*
X4189047Y-135283D01*
X4189047Y-135283D02*
X4150952Y-249569D01*
X4150952Y-249569D02*
X4074761Y-325760D01*
X4074761Y-325760D02*
X3960476Y-363855D01*
X3960476Y-363855D02*
X3884285Y-363855D01*
X4989047Y-363855D02*
X4531904Y-363855D01*
X4760476Y-363855D02*
X4760476Y436145D01*
X4760476Y436145D02*
X4684285Y321860D01*
X4684285Y321860D02*
X4608095Y245669D01*
X4608095Y245669D02*
X4531904Y207574D01*
X5827143Y169479D02*
X6131905Y169479D01*
X5941429Y436145D02*
X5941429Y-249569D01*
X5941429Y-249569D02*
X5979524Y-325760D01*
X5979524Y-325760D02*
X6055714Y-363855D01*
X6055714Y-363855D02*
X6131905Y-363855D01*
X6512857Y-363855D02*
X6436667Y-325760D01*
X6436667Y-325760D02*
X6398572Y-287664D01*
X6398572Y-287664D02*
X6360476Y-211474D01*
X6360476Y-211474D02*
X6360476Y17098D01*
X6360476Y17098D02*
X6398572Y93288D01*
X6398572Y93288D02*
X6436667Y131383D01*
X6436667Y131383D02*
X6512857Y169479D01*
X6512857Y169479D02*
X6627143Y169479D01*
X6627143Y169479D02*
X6703334Y131383D01*
X6703334Y131383D02*
X6741429Y93288D01*
X6741429Y93288D02*
X6779524Y17098D01*
X6779524Y17098D02*
X6779524Y-211474D01*
X6779524Y-211474D02*
X6741429Y-287664D01*
X6741429Y-287664D02*
X6703334Y-325760D01*
X6703334Y-325760D02*
X6627143Y-363855D01*
X6627143Y-363855D02*
X6512857Y-363855D01*
X7998572Y55193D02*
X7731906Y55193D01*
X7731906Y-363855D02*
X7731906Y436145D01*
X7731906Y436145D02*
X8112858Y436145D01*
X8417620Y-363855D02*
X8417620Y436145D01*
X8417620Y55193D02*
X8874763Y55193D01*
X8874763Y-363855D02*
X8874763Y436145D01*
X9674762Y-363855D02*
X9217619Y-363855D01*
X9446191Y-363855D02*
X9446191Y436145D01*
X9446191Y436145D02*
X9370000Y321860D01*
X9370000Y321860D02*
X9293810Y245669D01*
X9293810Y245669D02*
X9217619Y207574D01*
X9979524Y359955D02*
X10017620Y398050D01*
X10017620Y398050D02*
X10093810Y436145D01*
X10093810Y436145D02*
X10284286Y436145D01*
X10284286Y436145D02*
X10360477Y398050D01*
X10360477Y398050D02*
X10398572Y359955D01*
X10398572Y359955D02*
X10436667Y283764D01*
X10436667Y283764D02*
X10436667Y207574D01*
X10436667Y207574D02*
X10398572Y93288D01*
X10398572Y93288D02*
X9941429Y-363855D01*
X9941429Y-363855D02*
X10436667Y-363855D01*
X10779525Y-59093D02*
X11389049Y-59093D01*
X12112858Y436145D02*
X11960477Y436145D01*
X11960477Y436145D02*
X11884286Y398050D01*
X11884286Y398050D02*
X11846191Y359955D01*
X11846191Y359955D02*
X11770001Y245669D01*
X11770001Y245669D02*
X11731905Y93288D01*
X11731905Y93288D02*
X11731905Y-211474D01*
X11731905Y-211474D02*
X11770001Y-287664D01*
X11770001Y-287664D02*
X11808096Y-325760D01*
X11808096Y-325760D02*
X11884286Y-363855D01*
X11884286Y-363855D02*
X12036667Y-363855D01*
X12036667Y-363855D02*
X12112858Y-325760D01*
X12112858Y-325760D02*
X12150953Y-287664D01*
X12150953Y-287664D02*
X12189048Y-211474D01*
X12189048Y-211474D02*
X12189048Y-20998D01*
X12189048Y-20998D02*
X12150953Y55193D01*
X12150953Y55193D02*
X12112858Y93288D01*
X12112858Y93288D02*
X12036667Y131383D01*
X12036667Y131383D02*
X11884286Y131383D01*
X11884286Y131383D02*
X11808096Y93288D01*
X11808096Y93288D02*
X11770001Y55193D01*
X11770001Y55193D02*
X11731905Y-20998D01*
X12493810Y-325760D02*
X12608096Y-363855D01*
X12608096Y-363855D02*
X12798572Y-363855D01*
X12798572Y-363855D02*
X12874763Y-325760D01*
X12874763Y-325760D02*
X12912858Y-287664D01*
X12912858Y-287664D02*
X12950953Y-211474D01*
X12950953Y-211474D02*
X12950953Y-135283D01*
X12950953Y-135283D02*
X12912858Y-59093D01*
X12912858Y-59093D02*
X12874763Y-20998D01*
X12874763Y-20998D02*
X12798572Y17098D01*
X12798572Y17098D02*
X12646191Y55193D01*
X12646191Y55193D02*
X12570001Y93288D01*
X12570001Y93288D02*
X12531906Y131383D01*
X12531906Y131383D02*
X12493810Y207574D01*
X12493810Y207574D02*
X12493810Y283764D01*
X12493810Y283764D02*
X12531906Y359955D01*
X12531906Y359955D02*
X12570001Y398050D01*
X12570001Y398050D02*
X12646191Y436145D01*
X12646191Y436145D02*
X12836668Y436145D01*
X12836668Y436145D02*
X12950953Y398050D01*
X13293811Y-287664D02*
X13331906Y-325760D01*
X13331906Y-325760D02*
X13293811Y-363855D01*
X13293811Y-363855D02*
X13255715Y-325760D01*
X13255715Y-325760D02*
X13293811Y-287664D01*
X13293811Y-287664D02*
X13293811Y-363855D01*
X13293811Y131383D02*
X13331906Y93288D01*
X13331906Y93288D02*
X13293811Y55193D01*
X13293811Y55193D02*
X13255715Y93288D01*
X13255715Y93288D02*
X13293811Y131383D01*
X13293811Y131383D02*
X13293811Y55193D01*
X14703334Y-363855D02*
X14246191Y-363855D01*
X14474763Y-363855D02*
X14474763Y436145D01*
X14474763Y436145D02*
X14398572Y321860D01*
X14398572Y321860D02*
X14322382Y245669D01*
X14322382Y245669D02*
X14246191Y207574D01*
X15046192Y-59093D02*
X15655716Y-59093D01*
X15960477Y436145D02*
X16455715Y436145D01*
X16455715Y436145D02*
X16189049Y131383D01*
X16189049Y131383D02*
X16303334Y131383D01*
X16303334Y131383D02*
X16379525Y93288D01*
X16379525Y93288D02*
X16417620Y55193D01*
X16417620Y55193D02*
X16455715Y-20998D01*
X16455715Y-20998D02*
X16455715Y-211474D01*
X16455715Y-211474D02*
X16417620Y-287664D01*
X16417620Y-287664D02*
X16379525Y-325760D01*
X16379525Y-325760D02*
X16303334Y-363855D01*
X16303334Y-363855D02*
X16074763Y-363855D01*
X16074763Y-363855D02*
X15998572Y-325760D01*
X15998572Y-325760D02*
X15960477Y-287664D01*
X17827144Y398050D02*
X17750954Y436145D01*
X17750954Y436145D02*
X17636668Y436145D01*
X17636668Y436145D02*
X17522382Y398050D01*
X17522382Y398050D02*
X17446192Y321860D01*
X17446192Y321860D02*
X17408097Y245669D01*
X17408097Y245669D02*
X17370001Y93288D01*
X17370001Y93288D02*
X17370001Y-20998D01*
X17370001Y-20998D02*
X17408097Y-173379D01*
X17408097Y-173379D02*
X17446192Y-249569D01*
X17446192Y-249569D02*
X17522382Y-325760D01*
X17522382Y-325760D02*
X17636668Y-363855D01*
X17636668Y-363855D02*
X17712859Y-363855D01*
X17712859Y-363855D02*
X17827144Y-325760D01*
X17827144Y-325760D02*
X17865240Y-287664D01*
X17865240Y-287664D02*
X17865240Y-20998D01*
X17865240Y-20998D02*
X17712859Y-20998D01*
X18208097Y-363855D02*
X18208097Y436145D01*
X18208097Y436145D02*
X18665240Y-363855D01*
X18665240Y-363855D02*
X18665240Y436145D01*
X19046192Y-363855D02*
X19046192Y436145D01*
X19046192Y436145D02*
X19236668Y436145D01*
X19236668Y436145D02*
X19350954Y398050D01*
X19350954Y398050D02*
X19427144Y321860D01*
X19427144Y321860D02*
X19465239Y245669D01*
X19465239Y245669D02*
X19503335Y93288D01*
X19503335Y93288D02*
X19503335Y-20998D01*
X19503335Y-20998D02*
X19465239Y-173379D01*
X19465239Y-173379D02*
X19427144Y-249569D01*
X19427144Y-249569D02*
X19350954Y-325760D01*
X19350954Y-325760D02*
X19236668Y-363855D01*
X19236668Y-363855D02*
X19046192Y-363855D01*
X20798573Y169479D02*
X20798573Y-363855D01*
X20608097Y474240D02*
X20417620Y-97188D01*
X20417620Y-97188D02*
X20912859Y-97188D01*
X21217621Y-59093D02*
X21827145Y-59093D01*
X22550954Y436145D02*
X22398573Y436145D01*
X22398573Y436145D02*
X22322382Y398050D01*
X22322382Y398050D02*
X22284287Y359955D01*
X22284287Y359955D02*
X22208097Y245669D01*
X22208097Y245669D02*
X22170001Y93288D01*
X22170001Y93288D02*
X22170001Y-211474D01*
X22170001Y-211474D02*
X22208097Y-287664D01*
X22208097Y-287664D02*
X22246192Y-325760D01*
X22246192Y-325760D02*
X22322382Y-363855D01*
X22322382Y-363855D02*
X22474763Y-363855D01*
X22474763Y-363855D02*
X22550954Y-325760D01*
X22550954Y-325760D02*
X22589049Y-287664D01*
X22589049Y-287664D02*
X22627144Y-211474D01*
X22627144Y-211474D02*
X22627144Y-20998D01*
X22627144Y-20998D02*
X22589049Y55193D01*
X22589049Y55193D02*
X22550954Y93288D01*
X22550954Y93288D02*
X22474763Y131383D01*
X22474763Y131383D02*
X22322382Y131383D01*
X22322382Y131383D02*
X22246192Y93288D01*
X22246192Y93288D02*
X22208097Y55193D01*
X22208097Y55193D02*
X22170001Y-20998D01*
X23579526Y-59093D02*
X24189050Y-59093D01*
X23884288Y-363855D02*
X23884288Y245669D01*
X24950954Y436145D02*
X24570002Y436145D01*
X24570002Y436145D02*
X24531906Y55193D01*
X24531906Y55193D02*
X24570002Y93288D01*
X24570002Y93288D02*
X24646192Y131383D01*
X24646192Y131383D02*
X24836668Y131383D01*
X24836668Y131383D02*
X24912859Y93288D01*
X24912859Y93288D02*
X24950954Y55193D01*
X24950954Y55193D02*
X24989049Y-20998D01*
X24989049Y-20998D02*
X24989049Y-211474D01*
X24989049Y-211474D02*
X24950954Y-287664D01*
X24950954Y-287664D02*
X24912859Y-325760D01*
X24912859Y-325760D02*
X24836668Y-363855D01*
X24836668Y-363855D02*
X24646192Y-363855D01*
X24646192Y-363855D02*
X24570002Y-325760D01*
X24570002Y-325760D02*
X24531906Y-287664D01*
X25217621Y436145D02*
X25484288Y-363855D01*
X25484288Y-363855D02*
X25750954Y436145D01*
X137324145Y932273D02*
X137781288Y932273D01*
X137552716Y132273D02*
X137552716Y932273D01*
X138047955Y132273D02*
X138047955Y932273D01*
X138047955Y932273D02*
X138352717Y932273D01*
X138352717Y932273D02*
X138428907Y894178D01*
X138428907Y894178D02*
X138467002Y856083D01*
X138467002Y856083D02*
X138505098Y779892D01*
X138505098Y779892D02*
X138505098Y665607D01*
X138505098Y665607D02*
X138467002Y589416D01*
X138467002Y589416D02*
X138428907Y551321D01*
X138428907Y551321D02*
X138352717Y513226D01*
X138352717Y513226D02*
X138047955Y513226D01*
X139267002Y132273D02*
X138809859Y132273D01*
X139038431Y132273D02*
X139038431Y932273D01*
X139038431Y932273D02*
X138962240Y817988D01*
X138962240Y817988D02*
X138886050Y741797D01*
X138886050Y741797D02*
X138809859Y703702D01*
X140219384Y437035D02*
X140828908Y437035D01*
X140524146Y132273D02*
X140524146Y741797D01*
X141590812Y932273D02*
X141209860Y932273D01*
X141209860Y932273D02*
X141171764Y551321D01*
X141171764Y551321D02*
X141209860Y589416D01*
X141209860Y589416D02*
X141286050Y627511D01*
X141286050Y627511D02*
X141476526Y627511D01*
X141476526Y627511D02*
X141552717Y589416D01*
X141552717Y589416D02*
X141590812Y551321D01*
X141590812Y551321D02*
X141628907Y475130D01*
X141628907Y475130D02*
X141628907Y284654D01*
X141628907Y284654D02*
X141590812Y208464D01*
X141590812Y208464D02*
X141552717Y170368D01*
X141552717Y170368D02*
X141476526Y132273D01*
X141476526Y132273D02*
X141286050Y132273D01*
X141286050Y132273D02*
X141209860Y170368D01*
X141209860Y170368D02*
X141171764Y208464D01*
X141857479Y932273D02*
X142124146Y132273D01*
X142124146Y132273D02*
X142390812Y932273D01*
X148466666Y-32313855D02*
X148923809Y-32313855D01*
X148695237Y-33113855D02*
X148695237Y-32313855D01*
X149190476Y-33113855D02*
X149190476Y-32313855D01*
X149190476Y-32313855D02*
X149495238Y-32313855D01*
X149495238Y-32313855D02*
X149571428Y-32351950D01*
X149571428Y-32351950D02*
X149609523Y-32390045D01*
X149609523Y-32390045D02*
X149647619Y-32466236D01*
X149647619Y-32466236D02*
X149647619Y-32580521D01*
X149647619Y-32580521D02*
X149609523Y-32656712D01*
X149609523Y-32656712D02*
X149571428Y-32694807D01*
X149571428Y-32694807D02*
X149495238Y-32732902D01*
X149495238Y-32732902D02*
X149190476Y-32732902D01*
X150333333Y-32580521D02*
X150333333Y-33113855D01*
X150142857Y-32275760D02*
X149952380Y-32847188D01*
X149952380Y-32847188D02*
X150447619Y-32847188D01*
X151780952Y-32351950D02*
X151704762Y-32313855D01*
X151704762Y-32313855D02*
X151590476Y-32313855D01*
X151590476Y-32313855D02*
X151476190Y-32351950D01*
X151476190Y-32351950D02*
X151400000Y-32428140D01*
X151400000Y-32428140D02*
X151361905Y-32504331D01*
X151361905Y-32504331D02*
X151323809Y-32656712D01*
X151323809Y-32656712D02*
X151323809Y-32770998D01*
X151323809Y-32770998D02*
X151361905Y-32923379D01*
X151361905Y-32923379D02*
X151400000Y-32999569D01*
X151400000Y-32999569D02*
X151476190Y-33075760D01*
X151476190Y-33075760D02*
X151590476Y-33113855D01*
X151590476Y-33113855D02*
X151666667Y-33113855D01*
X151666667Y-33113855D02*
X151780952Y-33075760D01*
X151780952Y-33075760D02*
X151819048Y-33037664D01*
X151819048Y-33037664D02*
X151819048Y-32770998D01*
X151819048Y-32770998D02*
X151666667Y-32770998D01*
X152161905Y-33113855D02*
X152161905Y-32313855D01*
X152161905Y-32313855D02*
X152619048Y-33113855D01*
X152619048Y-33113855D02*
X152619048Y-32313855D01*
X153000000Y-33113855D02*
X153000000Y-32313855D01*
X153000000Y-32313855D02*
X153190476Y-32313855D01*
X153190476Y-32313855D02*
X153304762Y-32351950D01*
X153304762Y-32351950D02*
X153380952Y-32428140D01*
X153380952Y-32428140D02*
X153419047Y-32504331D01*
X153419047Y-32504331D02*
X153457143Y-32656712D01*
X153457143Y-32656712D02*
X153457143Y-32770998D01*
X153457143Y-32770998D02*
X153419047Y-32923379D01*
X153419047Y-32923379D02*
X153380952Y-32999569D01*
X153380952Y-32999569D02*
X153304762Y-33075760D01*
X153304762Y-33075760D02*
X153190476Y-33113855D01*
X153190476Y-33113855D02*
X153000000Y-33113855D01*
X154374145Y-32321100D02*
X154831288Y-32321100D01*
X154602716Y-33121100D02*
X154602716Y-32321100D01*
X155097955Y-33121100D02*
X155097955Y-32321100D01*
X155097955Y-32321100D02*
X155402717Y-32321100D01*
X155402717Y-32321100D02*
X155478907Y-32359195D01*
X155478907Y-32359195D02*
X155517002Y-32397290D01*
X155517002Y-32397290D02*
X155555098Y-32473481D01*
X155555098Y-32473481D02*
X155555098Y-32587766D01*
X155555098Y-32587766D02*
X155517002Y-32663957D01*
X155517002Y-32663957D02*
X155478907Y-32702052D01*
X155478907Y-32702052D02*
X155402717Y-32740147D01*
X155402717Y-32740147D02*
X155097955Y-32740147D01*
X155821764Y-32321100D02*
X156317002Y-32321100D01*
X156317002Y-32321100D02*
X156050336Y-32625862D01*
X156050336Y-32625862D02*
X156164621Y-32625862D01*
X156164621Y-32625862D02*
X156240812Y-32663957D01*
X156240812Y-32663957D02*
X156278907Y-32702052D01*
X156278907Y-32702052D02*
X156317002Y-32778243D01*
X156317002Y-32778243D02*
X156317002Y-32968719D01*
X156317002Y-32968719D02*
X156278907Y-33044909D01*
X156278907Y-33044909D02*
X156240812Y-33083005D01*
X156240812Y-33083005D02*
X156164621Y-33121100D01*
X156164621Y-33121100D02*
X155936050Y-33121100D01*
X155936050Y-33121100D02*
X155859859Y-33083005D01*
X155859859Y-33083005D02*
X155821764Y-33044909D01*
X157269384Y-32816338D02*
X157878908Y-32816338D01*
X157574146Y-33121100D02*
X157574146Y-32511576D01*
X158640812Y-32321100D02*
X158259860Y-32321100D01*
X158259860Y-32321100D02*
X158221764Y-32702052D01*
X158221764Y-32702052D02*
X158259860Y-32663957D01*
X158259860Y-32663957D02*
X158336050Y-32625862D01*
X158336050Y-32625862D02*
X158526526Y-32625862D01*
X158526526Y-32625862D02*
X158602717Y-32663957D01*
X158602717Y-32663957D02*
X158640812Y-32702052D01*
X158640812Y-32702052D02*
X158678907Y-32778243D01*
X158678907Y-32778243D02*
X158678907Y-32968719D01*
X158678907Y-32968719D02*
X158640812Y-33044909D01*
X158640812Y-33044909D02*
X158602717Y-33083005D01*
X158602717Y-33083005D02*
X158526526Y-33121100D01*
X158526526Y-33121100D02*
X158336050Y-33121100D01*
X158336050Y-33121100D02*
X158259860Y-33083005D01*
X158259860Y-33083005D02*
X158221764Y-33044909D01*
X158907479Y-32321100D02*
X159174146Y-33121100D01*
X159174146Y-33121100D02*
X159440812Y-32321100D01*
X148752258Y-3837204D02*
X148752258Y-3380061D01*
X149552258Y-3608633D02*
X148752258Y-3608633D01*
X149552258Y-3113394D02*
X148752258Y-3113394D01*
X148752258Y-3113394D02*
X148752258Y-2808632D01*
X148752258Y-2808632D02*
X148790353Y-2732442D01*
X148790353Y-2732442D02*
X148828448Y-2694347D01*
X148828448Y-2694347D02*
X148904639Y-2656251D01*
X148904639Y-2656251D02*
X149018924Y-2656251D01*
X149018924Y-2656251D02*
X149095115Y-2694347D01*
X149095115Y-2694347D02*
X149133210Y-2732442D01*
X149133210Y-2732442D02*
X149171305Y-2808632D01*
X149171305Y-2808632D02*
X149171305Y-3113394D01*
X148828448Y-2351490D02*
X148790353Y-2313394D01*
X148790353Y-2313394D02*
X148752258Y-2237204D01*
X148752258Y-2237204D02*
X148752258Y-2046728D01*
X148752258Y-2046728D02*
X148790353Y-1970537D01*
X148790353Y-1970537D02*
X148828448Y-1932442D01*
X148828448Y-1932442D02*
X148904639Y-1894347D01*
X148904639Y-1894347D02*
X148980829Y-1894347D01*
X148980829Y-1894347D02*
X149095115Y-1932442D01*
X149095115Y-1932442D02*
X149552258Y-2389585D01*
X149552258Y-2389585D02*
X149552258Y-1894347D01*
X148790353Y-522918D02*
X148752258Y-599108D01*
X148752258Y-599108D02*
X148752258Y-713394D01*
X148752258Y-713394D02*
X148790353Y-827680D01*
X148790353Y-827680D02*
X148866543Y-903870D01*
X148866543Y-903870D02*
X148942734Y-941965D01*
X148942734Y-941965D02*
X149095115Y-980061D01*
X149095115Y-980061D02*
X149209401Y-980061D01*
X149209401Y-980061D02*
X149361782Y-941965D01*
X149361782Y-941965D02*
X149437972Y-903870D01*
X149437972Y-903870D02*
X149514163Y-827680D01*
X149514163Y-827680D02*
X149552258Y-713394D01*
X149552258Y-713394D02*
X149552258Y-637203D01*
X149552258Y-637203D02*
X149514163Y-522918D01*
X149514163Y-522918D02*
X149476067Y-484822D01*
X149476067Y-484822D02*
X149209401Y-484822D01*
X149209401Y-484822D02*
X149209401Y-637203D01*
X149552258Y-141965D02*
X148752258Y-141965D01*
X148752258Y-141965D02*
X149552258Y315178D01*
X149552258Y315178D02*
X148752258Y315178D01*
X149552258Y696130D02*
X148752258Y696130D01*
X148752258Y696130D02*
X148752258Y886606D01*
X148752258Y886606D02*
X148790353Y1000892D01*
X148790353Y1000892D02*
X148866543Y1077082D01*
X148866543Y1077082D02*
X148942734Y1115177D01*
X148942734Y1115177D02*
X149095115Y1153273D01*
X149095115Y1153273D02*
X149209401Y1153273D01*
X149209401Y1153273D02*
X149361782Y1115177D01*
X149361782Y1115177D02*
X149437972Y1077082D01*
X149437972Y1077082D02*
X149514163Y1000892D01*
X149514163Y1000892D02*
X149552258Y886606D01*
X149552258Y886606D02*
X149552258Y696130D01*
%LPC*%
D11*
G04 #@! TO.C,TP1*
X145287003Y496128D03*
G04 #@! TD*
D12*
G04 #@! TO.C,TP4*
X172587003Y-33357245D03*
G04 #@! TD*
G04 #@! TO.C,TP3*
X163587003Y-33357245D03*
G04 #@! TD*
D13*
G04 #@! TO.C,J1*
X1700000Y-1250000D03*
X1700000Y-750000D03*
X1700000Y-250000D03*
X1700000Y250000D03*
X1700000Y750000D03*
X1700000Y1250000D03*
G04 #@! TD*
D11*
G04 #@! TO.C,TP2*
X152587003Y496128D03*
G04 #@! TD*
%LPD*%
M02*
