%TF.GenerationSoftware,KiCad,Pcbnew,9.0.9-9.0.9~ubuntu24.04.1*%
%TF.CreationDate,2026-10-09T05:53:49+00:00*%
%TF.ProjectId,power_jumper,706f7765-725f-46a7-956d-7065722e6b69,rev?*%
%TF.SameCoordinates,Original*%
%TF.FileFunction,Drillmap*%
%TF.FilePolarity,Positive*%
%FSLAX45Y45*%
G04 Gerber Fmt 4.5, Leading zero omitted, Abs format (unit mm)*
G04 Created by KiCad (PCBNEW 9.0.9-9.0.9~ubuntu24.04.1) date 2026-10-09 05:53:49*
%MOMM*%
%LPD*%
G01*
G04 APERTURE LIST*
%ADD10C,0.050000*%
%ADD11C,0.200000*%
%ADD12C,0.100000*%
G04 APERTURE END LIST*
D10*
X0Y145000D02*
X0Y-145000D01*
X0Y145000D02*
G75*
G02*
X30000Y175000I30000J0D01*
G01*
X30000Y-175000D02*
G75*
G02*
X0Y-145000I0J30000D01*
G01*
X30000Y-175000D02*
X398132Y-175000D01*
X398132Y175000D02*
X30000Y175000D01*
X398132Y175000D02*
G75*
G02*
X401853Y174769I-2J-30090D01*
G01*
X401853Y-174768D02*
G75*
G02*
X398132Y-175001I-3723J29718D01*
G01*
X401853Y-174768D02*
X598147Y-150232D01*
X598147Y150232D02*
X401853Y174768D01*
X598147Y-150232D02*
G75*
G02*
X601868Y-150000I3723J-29748D01*
G01*
X601868Y150000D02*
G75*
G02*
X598147Y150232I2J30010D01*
G01*
X601868Y-150000D02*
X13656907Y-150000D01*
X13656907Y150000D02*
X601868Y150000D01*
X13656907Y-150000D02*
G75*
G02*
X13660481Y-150213I3J-29990D01*
G01*
X13660481Y150214D02*
G75*
G02*
X13656907Y150001I-3571J29806D01*
G01*
X13660481Y-150214D02*
X13856919Y-173786D01*
X13856919Y173786D02*
X13660481Y150214D01*
X13856919Y173786D02*
G75*
G02*
X13860494Y174000I3581J-29966D01*
G01*
X13860494Y-174000D02*
G75*
G02*
X13856919Y-173787I-14J29850D01*
G01*
X13860494Y-174000D02*
X14743700Y-174000D01*
X14743700Y-174000D02*
G75*
G02*
X14773700Y-204000I0J-30000D01*
G01*
X14773700Y-204000D02*
X14773700Y-3345724D01*
X14803700Y-3375724D02*
G75*
G02*
X14773705Y-3345724I0J29995D01*
G01*
X14803700Y-3375724D02*
X15948700Y-3375724D01*
X15013700Y-204000D02*
G75*
G02*
X15043700Y-174000I30000J0D01*
G01*
X15013700Y-3045724D02*
X15013700Y-204000D01*
X15043700Y-174000D02*
X15598700Y-174000D01*
X15043700Y-3075724D02*
G75*
G02*
X15013695Y-3045724I0J30005D01*
G01*
X15598700Y174000D02*
X13860494Y174000D01*
X15598700Y174000D02*
G75*
G02*
X15628700Y144000I0J-30000D01*
G01*
X15628700Y-144000D02*
G75*
G02*
X15598700Y-174000I-30000J0D01*
G01*
X15628700Y-144000D02*
X15628700Y144000D01*
X15948700Y-3375724D02*
G75*
G02*
X15978695Y-3405724I0J-29996D01*
G01*
X15974200Y-3075724D02*
X15043700Y-3075724D01*
X15974200Y-3075724D02*
G75*
G02*
X15978705Y-3080224I0J-4506D01*
G01*
X15978700Y-3081224D02*
X15978700Y-3080224D01*
X15978700Y-3405724D02*
X15978700Y-3555724D01*
X15983200Y-3085724D02*
G75*
G02*
X15978695Y-3081224I0J4505D01*
G01*
X16008700Y-3585724D02*
G75*
G02*
X15978705Y-3555724I0J29995D01*
G01*
X16008700Y-3585724D02*
X17678700Y-3585724D01*
X17678700Y-3085724D02*
X15983200Y-3085724D01*
X17678700Y-3085724D02*
G75*
G02*
X17708706Y-3115724I0J-30006D01*
G01*
X17708700Y-3555724D02*
G75*
G02*
X17678700Y-3585730I-30010J5D01*
G01*
X17708700Y-3555724D02*
X17708700Y-3115724D01*
D11*
D12*
X14933700Y64613D02*
X14963700Y34613D01*
X14963700Y64613D02*
X14933700Y34613D01*
X15843700Y-3140724D02*
X15873700Y-3170724D01*
X15873700Y-3140724D02*
X15843700Y-3170724D01*
X15843700Y-3300724D02*
X15873700Y-3330724D01*
X15873700Y-3300724D02*
X15843700Y-3330724D01*
X16843700Y-3320724D02*
X16873700Y-3350724D01*
X16873700Y-3320724D02*
X16843700Y-3350724D01*
D11*
X258277Y-3899708D02*
X258277Y-3699708D01*
X258277Y-3699708D02*
X305896Y-3699708D01*
X305896Y-3699708D02*
X334467Y-3709232D01*
X334467Y-3709232D02*
X353515Y-3728280D01*
X353515Y-3728280D02*
X363039Y-3747327D01*
X363039Y-3747327D02*
X372562Y-3785422D01*
X372562Y-3785422D02*
X372562Y-3813994D01*
X372562Y-3813994D02*
X363039Y-3852089D01*
X363039Y-3852089D02*
X353515Y-3871137D01*
X353515Y-3871137D02*
X334467Y-3890184D01*
X334467Y-3890184D02*
X305896Y-3899708D01*
X305896Y-3899708D02*
X258277Y-3899708D01*
X458277Y-3899708D02*
X458277Y-3766375D01*
X458277Y-3804470D02*
X467801Y-3785422D01*
X467801Y-3785422D02*
X477324Y-3775899D01*
X477324Y-3775899D02*
X496372Y-3766375D01*
X496372Y-3766375D02*
X515420Y-3766375D01*
X582086Y-3899708D02*
X582086Y-3766375D01*
X582086Y-3699708D02*
X572563Y-3709232D01*
X572563Y-3709232D02*
X582086Y-3718756D01*
X582086Y-3718756D02*
X591610Y-3709232D01*
X591610Y-3709232D02*
X582086Y-3699708D01*
X582086Y-3699708D02*
X582086Y-3718756D01*
X705896Y-3899708D02*
X686848Y-3890184D01*
X686848Y-3890184D02*
X677324Y-3871137D01*
X677324Y-3871137D02*
X677324Y-3699708D01*
X810658Y-3899708D02*
X791610Y-3890184D01*
X791610Y-3890184D02*
X782086Y-3871137D01*
X782086Y-3871137D02*
X782086Y-3699708D01*
X1039229Y-3899708D02*
X1039229Y-3699708D01*
X1039229Y-3699708D02*
X1105896Y-3842565D01*
X1105896Y-3842565D02*
X1172563Y-3699708D01*
X1172563Y-3699708D02*
X1172563Y-3899708D01*
X1353515Y-3899708D02*
X1353515Y-3794946D01*
X1353515Y-3794946D02*
X1343991Y-3775899D01*
X1343991Y-3775899D02*
X1324944Y-3766375D01*
X1324944Y-3766375D02*
X1286848Y-3766375D01*
X1286848Y-3766375D02*
X1267801Y-3775899D01*
X1353515Y-3890184D02*
X1334467Y-3899708D01*
X1334467Y-3899708D02*
X1286848Y-3899708D01*
X1286848Y-3899708D02*
X1267801Y-3890184D01*
X1267801Y-3890184D02*
X1258277Y-3871137D01*
X1258277Y-3871137D02*
X1258277Y-3852089D01*
X1258277Y-3852089D02*
X1267801Y-3833042D01*
X1267801Y-3833042D02*
X1286848Y-3823518D01*
X1286848Y-3823518D02*
X1334467Y-3823518D01*
X1334467Y-3823518D02*
X1353515Y-3813994D01*
X1448753Y-3766375D02*
X1448753Y-3966375D01*
X1448753Y-3775899D02*
X1467801Y-3766375D01*
X1467801Y-3766375D02*
X1505896Y-3766375D01*
X1505896Y-3766375D02*
X1524943Y-3775899D01*
X1524943Y-3775899D02*
X1534467Y-3785422D01*
X1534467Y-3785422D02*
X1543991Y-3804470D01*
X1543991Y-3804470D02*
X1543991Y-3861613D01*
X1543991Y-3861613D02*
X1534467Y-3880661D01*
X1534467Y-3880661D02*
X1524943Y-3890184D01*
X1524943Y-3890184D02*
X1505896Y-3899708D01*
X1505896Y-3899708D02*
X1467801Y-3899708D01*
X1467801Y-3899708D02*
X1448753Y-3890184D01*
X1629705Y-3880661D02*
X1639229Y-3890184D01*
X1639229Y-3890184D02*
X1629705Y-3899708D01*
X1629705Y-3899708D02*
X1620182Y-3890184D01*
X1620182Y-3890184D02*
X1629705Y-3880661D01*
X1629705Y-3880661D02*
X1629705Y-3899708D01*
X1629705Y-3775899D02*
X1639229Y-3785422D01*
X1639229Y-3785422D02*
X1629705Y-3794946D01*
X1629705Y-3794946D02*
X1620182Y-3785422D01*
X1620182Y-3785422D02*
X1629705Y-3775899D01*
X1629705Y-3775899D02*
X1629705Y-3794946D01*
D12*
X-32500Y-4213225D02*
X-2500Y-4243225D01*
X-2500Y-4213225D02*
X-32500Y-4243225D01*
D11*
X296372Y-4119708D02*
X315420Y-4119708D01*
X315420Y-4119708D02*
X334467Y-4129232D01*
X334467Y-4129232D02*
X343991Y-4138756D01*
X343991Y-4138756D02*
X353515Y-4157803D01*
X353515Y-4157803D02*
X363039Y-4195899D01*
X363039Y-4195899D02*
X363039Y-4243518D01*
X363039Y-4243518D02*
X353515Y-4281613D01*
X353515Y-4281613D02*
X343991Y-4300661D01*
X343991Y-4300661D02*
X334467Y-4310185D01*
X334467Y-4310185D02*
X315420Y-4319708D01*
X315420Y-4319708D02*
X296372Y-4319708D01*
X296372Y-4319708D02*
X277324Y-4310185D01*
X277324Y-4310185D02*
X267801Y-4300661D01*
X267801Y-4300661D02*
X258277Y-4281613D01*
X258277Y-4281613D02*
X248753Y-4243518D01*
X248753Y-4243518D02*
X248753Y-4195899D01*
X248753Y-4195899D02*
X258277Y-4157803D01*
X258277Y-4157803D02*
X267801Y-4138756D01*
X267801Y-4138756D02*
X277324Y-4129232D01*
X277324Y-4129232D02*
X296372Y-4119708D01*
X448753Y-4300661D02*
X458277Y-4310185D01*
X458277Y-4310185D02*
X448753Y-4319708D01*
X448753Y-4319708D02*
X439229Y-4310185D01*
X439229Y-4310185D02*
X448753Y-4300661D01*
X448753Y-4300661D02*
X448753Y-4319708D01*
X524944Y-4119708D02*
X648753Y-4119708D01*
X648753Y-4119708D02*
X582086Y-4195899D01*
X582086Y-4195899D02*
X610658Y-4195899D01*
X610658Y-4195899D02*
X629705Y-4205423D01*
X629705Y-4205423D02*
X639229Y-4214946D01*
X639229Y-4214946D02*
X648753Y-4233994D01*
X648753Y-4233994D02*
X648753Y-4281613D01*
X648753Y-4281613D02*
X639229Y-4300661D01*
X639229Y-4300661D02*
X629705Y-4310185D01*
X629705Y-4310185D02*
X610658Y-4319708D01*
X610658Y-4319708D02*
X553515Y-4319708D01*
X553515Y-4319708D02*
X534467Y-4310185D01*
X534467Y-4310185D02*
X524944Y-4300661D01*
X772562Y-4119708D02*
X791610Y-4119708D01*
X791610Y-4119708D02*
X810658Y-4129232D01*
X810658Y-4129232D02*
X820182Y-4138756D01*
X820182Y-4138756D02*
X829705Y-4157803D01*
X829705Y-4157803D02*
X839229Y-4195899D01*
X839229Y-4195899D02*
X839229Y-4243518D01*
X839229Y-4243518D02*
X829705Y-4281613D01*
X829705Y-4281613D02*
X820182Y-4300661D01*
X820182Y-4300661D02*
X810658Y-4310185D01*
X810658Y-4310185D02*
X791610Y-4319708D01*
X791610Y-4319708D02*
X772562Y-4319708D01*
X772562Y-4319708D02*
X753515Y-4310185D01*
X753515Y-4310185D02*
X743991Y-4300661D01*
X743991Y-4300661D02*
X734467Y-4281613D01*
X734467Y-4281613D02*
X724943Y-4243518D01*
X724943Y-4243518D02*
X724943Y-4195899D01*
X724943Y-4195899D02*
X734467Y-4157803D01*
X734467Y-4157803D02*
X743991Y-4138756D01*
X743991Y-4138756D02*
X753515Y-4129232D01*
X753515Y-4129232D02*
X772562Y-4119708D01*
X963039Y-4119708D02*
X982086Y-4119708D01*
X982086Y-4119708D02*
X1001134Y-4129232D01*
X1001134Y-4129232D02*
X1010658Y-4138756D01*
X1010658Y-4138756D02*
X1020182Y-4157803D01*
X1020182Y-4157803D02*
X1029705Y-4195899D01*
X1029705Y-4195899D02*
X1029705Y-4243518D01*
X1029705Y-4243518D02*
X1020182Y-4281613D01*
X1020182Y-4281613D02*
X1010658Y-4300661D01*
X1010658Y-4300661D02*
X1001134Y-4310185D01*
X1001134Y-4310185D02*
X982086Y-4319708D01*
X982086Y-4319708D02*
X963039Y-4319708D01*
X963039Y-4319708D02*
X943991Y-4310185D01*
X943991Y-4310185D02*
X934467Y-4300661D01*
X934467Y-4300661D02*
X924943Y-4281613D01*
X924943Y-4281613D02*
X915420Y-4243518D01*
X915420Y-4243518D02*
X915420Y-4195899D01*
X915420Y-4195899D02*
X924943Y-4157803D01*
X924943Y-4157803D02*
X934467Y-4138756D01*
X934467Y-4138756D02*
X943991Y-4129232D01*
X943991Y-4129232D02*
X963039Y-4119708D01*
X1115420Y-4319708D02*
X1115420Y-4186375D01*
X1115420Y-4205423D02*
X1124944Y-4195899D01*
X1124944Y-4195899D02*
X1143991Y-4186375D01*
X1143991Y-4186375D02*
X1172563Y-4186375D01*
X1172563Y-4186375D02*
X1191610Y-4195899D01*
X1191610Y-4195899D02*
X1201134Y-4214946D01*
X1201134Y-4214946D02*
X1201134Y-4319708D01*
X1201134Y-4214946D02*
X1210658Y-4195899D01*
X1210658Y-4195899D02*
X1229705Y-4186375D01*
X1229705Y-4186375D02*
X1258277Y-4186375D01*
X1258277Y-4186375D02*
X1277325Y-4195899D01*
X1277325Y-4195899D02*
X1286848Y-4214946D01*
X1286848Y-4214946D02*
X1286848Y-4319708D01*
X1382086Y-4319708D02*
X1382086Y-4186375D01*
X1382086Y-4205423D02*
X1391610Y-4195899D01*
X1391610Y-4195899D02*
X1410658Y-4186375D01*
X1410658Y-4186375D02*
X1439229Y-4186375D01*
X1439229Y-4186375D02*
X1458277Y-4195899D01*
X1458277Y-4195899D02*
X1467801Y-4214946D01*
X1467801Y-4214946D02*
X1467801Y-4319708D01*
X1467801Y-4214946D02*
X1477324Y-4195899D01*
X1477324Y-4195899D02*
X1496372Y-4186375D01*
X1496372Y-4186375D02*
X1524943Y-4186375D01*
X1524943Y-4186375D02*
X1543991Y-4195899D01*
X1543991Y-4195899D02*
X1553515Y-4214946D01*
X1553515Y-4214946D02*
X1553515Y-4319708D01*
X1943991Y-4110184D02*
X1772563Y-4367327D01*
X2201134Y-4119708D02*
X2220182Y-4119708D01*
X2220182Y-4119708D02*
X2239229Y-4129232D01*
X2239229Y-4129232D02*
X2248753Y-4138756D01*
X2248753Y-4138756D02*
X2258277Y-4157803D01*
X2258277Y-4157803D02*
X2267801Y-4195899D01*
X2267801Y-4195899D02*
X2267801Y-4243518D01*
X2267801Y-4243518D02*
X2258277Y-4281613D01*
X2258277Y-4281613D02*
X2248753Y-4300661D01*
X2248753Y-4300661D02*
X2239229Y-4310185D01*
X2239229Y-4310185D02*
X2220182Y-4319708D01*
X2220182Y-4319708D02*
X2201134Y-4319708D01*
X2201134Y-4319708D02*
X2182087Y-4310185D01*
X2182087Y-4310185D02*
X2172563Y-4300661D01*
X2172563Y-4300661D02*
X2163039Y-4281613D01*
X2163039Y-4281613D02*
X2153515Y-4243518D01*
X2153515Y-4243518D02*
X2153515Y-4195899D01*
X2153515Y-4195899D02*
X2163039Y-4157803D01*
X2163039Y-4157803D02*
X2172563Y-4138756D01*
X2172563Y-4138756D02*
X2182087Y-4129232D01*
X2182087Y-4129232D02*
X2201134Y-4119708D01*
X2353515Y-4300661D02*
X2363039Y-4310185D01*
X2363039Y-4310185D02*
X2353515Y-4319708D01*
X2353515Y-4319708D02*
X2343991Y-4310185D01*
X2343991Y-4310185D02*
X2353515Y-4300661D01*
X2353515Y-4300661D02*
X2353515Y-4319708D01*
X2486848Y-4119708D02*
X2505896Y-4119708D01*
X2505896Y-4119708D02*
X2524944Y-4129232D01*
X2524944Y-4129232D02*
X2534468Y-4138756D01*
X2534468Y-4138756D02*
X2543991Y-4157803D01*
X2543991Y-4157803D02*
X2553515Y-4195899D01*
X2553515Y-4195899D02*
X2553515Y-4243518D01*
X2553515Y-4243518D02*
X2543991Y-4281613D01*
X2543991Y-4281613D02*
X2534468Y-4300661D01*
X2534468Y-4300661D02*
X2524944Y-4310185D01*
X2524944Y-4310185D02*
X2505896Y-4319708D01*
X2505896Y-4319708D02*
X2486848Y-4319708D01*
X2486848Y-4319708D02*
X2467801Y-4310185D01*
X2467801Y-4310185D02*
X2458277Y-4300661D01*
X2458277Y-4300661D02*
X2448753Y-4281613D01*
X2448753Y-4281613D02*
X2439229Y-4243518D01*
X2439229Y-4243518D02*
X2439229Y-4195899D01*
X2439229Y-4195899D02*
X2448753Y-4157803D01*
X2448753Y-4157803D02*
X2458277Y-4138756D01*
X2458277Y-4138756D02*
X2467801Y-4129232D01*
X2467801Y-4129232D02*
X2486848Y-4119708D01*
X2743991Y-4319708D02*
X2629706Y-4319708D01*
X2686848Y-4319708D02*
X2686848Y-4119708D01*
X2686848Y-4119708D02*
X2667801Y-4148280D01*
X2667801Y-4148280D02*
X2648753Y-4167327D01*
X2648753Y-4167327D02*
X2629706Y-4176851D01*
X2934467Y-4319708D02*
X2820182Y-4319708D01*
X2877325Y-4319708D02*
X2877325Y-4119708D01*
X2877325Y-4119708D02*
X2858277Y-4148280D01*
X2858277Y-4148280D02*
X2839229Y-4167327D01*
X2839229Y-4167327D02*
X2820182Y-4176851D01*
X3048753Y-4205423D02*
X3029706Y-4195899D01*
X3029706Y-4195899D02*
X3020182Y-4186375D01*
X3020182Y-4186375D02*
X3010658Y-4167327D01*
X3010658Y-4167327D02*
X3010658Y-4157803D01*
X3010658Y-4157803D02*
X3020182Y-4138756D01*
X3020182Y-4138756D02*
X3029706Y-4129232D01*
X3029706Y-4129232D02*
X3048753Y-4119708D01*
X3048753Y-4119708D02*
X3086848Y-4119708D01*
X3086848Y-4119708D02*
X3105896Y-4129232D01*
X3105896Y-4129232D02*
X3115420Y-4138756D01*
X3115420Y-4138756D02*
X3124944Y-4157803D01*
X3124944Y-4157803D02*
X3124944Y-4167327D01*
X3124944Y-4167327D02*
X3115420Y-4186375D01*
X3115420Y-4186375D02*
X3105896Y-4195899D01*
X3105896Y-4195899D02*
X3086848Y-4205423D01*
X3086848Y-4205423D02*
X3048753Y-4205423D01*
X3048753Y-4205423D02*
X3029706Y-4214946D01*
X3029706Y-4214946D02*
X3020182Y-4224470D01*
X3020182Y-4224470D02*
X3010658Y-4243518D01*
X3010658Y-4243518D02*
X3010658Y-4281613D01*
X3010658Y-4281613D02*
X3020182Y-4300661D01*
X3020182Y-4300661D02*
X3029706Y-4310185D01*
X3029706Y-4310185D02*
X3048753Y-4319708D01*
X3048753Y-4319708D02*
X3086848Y-4319708D01*
X3086848Y-4319708D02*
X3105896Y-4310185D01*
X3105896Y-4310185D02*
X3115420Y-4300661D01*
X3115420Y-4300661D02*
X3124944Y-4281613D01*
X3124944Y-4281613D02*
X3124944Y-4243518D01*
X3124944Y-4243518D02*
X3115420Y-4224470D01*
X3115420Y-4224470D02*
X3105896Y-4214946D01*
X3105896Y-4214946D02*
X3086848Y-4205423D01*
X3201134Y-4119708D02*
X3201134Y-4157803D01*
X3277325Y-4119708D02*
X3277325Y-4157803D01*
X3572563Y-4395899D02*
X3563039Y-4386375D01*
X3563039Y-4386375D02*
X3543991Y-4357804D01*
X3543991Y-4357804D02*
X3534468Y-4338756D01*
X3534468Y-4338756D02*
X3524944Y-4310185D01*
X3524944Y-4310185D02*
X3515420Y-4262565D01*
X3515420Y-4262565D02*
X3515420Y-4224470D01*
X3515420Y-4224470D02*
X3524944Y-4176851D01*
X3524944Y-4176851D02*
X3534468Y-4148280D01*
X3534468Y-4148280D02*
X3543991Y-4129232D01*
X3543991Y-4129232D02*
X3563039Y-4100661D01*
X3563039Y-4100661D02*
X3572563Y-4091137D01*
X3734468Y-4186375D02*
X3734468Y-4319708D01*
X3686848Y-4110184D02*
X3639229Y-4253042D01*
X3639229Y-4253042D02*
X3763039Y-4253042D01*
X3991610Y-4319708D02*
X3991610Y-4119708D01*
X4077325Y-4319708D02*
X4077325Y-4214946D01*
X4077325Y-4214946D02*
X4067801Y-4195899D01*
X4067801Y-4195899D02*
X4048753Y-4186375D01*
X4048753Y-4186375D02*
X4020182Y-4186375D01*
X4020182Y-4186375D02*
X4001134Y-4195899D01*
X4001134Y-4195899D02*
X3991610Y-4205423D01*
X4201134Y-4319708D02*
X4182087Y-4310185D01*
X4182087Y-4310185D02*
X4172563Y-4300661D01*
X4172563Y-4300661D02*
X4163039Y-4281613D01*
X4163039Y-4281613D02*
X4163039Y-4224470D01*
X4163039Y-4224470D02*
X4172563Y-4205423D01*
X4172563Y-4205423D02*
X4182087Y-4195899D01*
X4182087Y-4195899D02*
X4201134Y-4186375D01*
X4201134Y-4186375D02*
X4229706Y-4186375D01*
X4229706Y-4186375D02*
X4248753Y-4195899D01*
X4248753Y-4195899D02*
X4258277Y-4205423D01*
X4258277Y-4205423D02*
X4267801Y-4224470D01*
X4267801Y-4224470D02*
X4267801Y-4281613D01*
X4267801Y-4281613D02*
X4258277Y-4300661D01*
X4258277Y-4300661D02*
X4248753Y-4310185D01*
X4248753Y-4310185D02*
X4229706Y-4319708D01*
X4229706Y-4319708D02*
X4201134Y-4319708D01*
X4382087Y-4319708D02*
X4363039Y-4310185D01*
X4363039Y-4310185D02*
X4353515Y-4291137D01*
X4353515Y-4291137D02*
X4353515Y-4119708D01*
X4534468Y-4310185D02*
X4515420Y-4319708D01*
X4515420Y-4319708D02*
X4477325Y-4319708D01*
X4477325Y-4319708D02*
X4458277Y-4310185D01*
X4458277Y-4310185D02*
X4448753Y-4291137D01*
X4448753Y-4291137D02*
X4448753Y-4214946D01*
X4448753Y-4214946D02*
X4458277Y-4195899D01*
X4458277Y-4195899D02*
X4477325Y-4186375D01*
X4477325Y-4186375D02*
X4515420Y-4186375D01*
X4515420Y-4186375D02*
X4534468Y-4195899D01*
X4534468Y-4195899D02*
X4543992Y-4214946D01*
X4543992Y-4214946D02*
X4543992Y-4233994D01*
X4543992Y-4233994D02*
X4448753Y-4253042D01*
X4620182Y-4310185D02*
X4639230Y-4319708D01*
X4639230Y-4319708D02*
X4677325Y-4319708D01*
X4677325Y-4319708D02*
X4696373Y-4310185D01*
X4696373Y-4310185D02*
X4705896Y-4291137D01*
X4705896Y-4291137D02*
X4705896Y-4281613D01*
X4705896Y-4281613D02*
X4696373Y-4262565D01*
X4696373Y-4262565D02*
X4677325Y-4253042D01*
X4677325Y-4253042D02*
X4648753Y-4253042D01*
X4648753Y-4253042D02*
X4629706Y-4243518D01*
X4629706Y-4243518D02*
X4620182Y-4224470D01*
X4620182Y-4224470D02*
X4620182Y-4214946D01*
X4620182Y-4214946D02*
X4629706Y-4195899D01*
X4629706Y-4195899D02*
X4648753Y-4186375D01*
X4648753Y-4186375D02*
X4677325Y-4186375D01*
X4677325Y-4186375D02*
X4696373Y-4195899D01*
X4772563Y-4395899D02*
X4782087Y-4386375D01*
X4782087Y-4386375D02*
X4801134Y-4357804D01*
X4801134Y-4357804D02*
X4810658Y-4338756D01*
X4810658Y-4338756D02*
X4820182Y-4310185D01*
X4820182Y-4310185D02*
X4829706Y-4262565D01*
X4829706Y-4262565D02*
X4829706Y-4224470D01*
X4829706Y-4224470D02*
X4820182Y-4176851D01*
X4820182Y-4176851D02*
X4810658Y-4148280D01*
X4810658Y-4148280D02*
X4801134Y-4129232D01*
X4801134Y-4129232D02*
X4782087Y-4100661D01*
X4782087Y-4100661D02*
X4772563Y-4091137D01*
M02*
