%TF.GenerationSoftware,KiCad,Pcbnew,9.0.9-9.0.9~ubuntu24.04.1*%
%TF.CreationDate,2026-10-09T06:39:34+00:00*%
%TF.ProjectId,eu_5v_board,65755f35-765f-4626-9f61-72642e6b6963,rev?*%
%TF.SameCoordinates,Original*%
%TF.FileFunction,Drillmap*%
%TF.FilePolarity,Positive*%
%FSLAX45Y45*%
G04 Gerber Fmt 4.5, Leading zero omitted, Abs format (unit mm)*
G04 Created by KiCad (PCBNEW 9.0.9-9.0.9~ubuntu24.04.1) date 2026-10-09 06:39:34*
%MOMM*%
%LPD*%
G01*
G04 APERTURE LIST*
%ADD10C,0.050000*%
%ADD11C,0.200000*%
%ADD12C,0.220000*%
G04 APERTURE END LIST*
D10*
X-2895827Y-411810D02*
X-2890002Y-410518D01*
X-2890002Y-410518D02*
X-2854641Y-399369D01*
X-2888988Y-457571D02*
X-2895827Y-411810D01*
X-2880563Y-507921D02*
X-2888988Y-457571D01*
X-2871259Y-558116D02*
X-2880563Y-507921D01*
X-2861082Y-608142D02*
X-2871259Y-558116D01*
X-2854641Y-399369D02*
X-2820387Y-385181D01*
X-2850032Y-657982D02*
X-2861082Y-608142D01*
X-2838115Y-707621D02*
X-2850032Y-657982D01*
X-2825333Y-757046D02*
X-2838115Y-707621D01*
X-2820387Y-385181D02*
X-2787500Y-368061D01*
X-2811690Y-806239D02*
X-2825333Y-757046D01*
X-2797191Y-855187D02*
X-2811690Y-806239D01*
X-2787500Y-368061D02*
X-2756230Y-348140D01*
X-2781840Y-903875D02*
X-2797191Y-855187D01*
X-2765642Y-952287D02*
X-2781840Y-903875D01*
X-2756230Y-348140D02*
X-2726815Y-325569D01*
X-2748601Y-1000409D02*
X-2765642Y-952287D01*
X-2730723Y-1048226D02*
X-2748601Y-1000409D01*
X-2726815Y-325569D02*
X-2699480Y-300520D01*
X-2712013Y-1095724D02*
X-2730723Y-1048226D01*
X-2699480Y-300520D02*
X-2674431Y-273185D01*
X-2692477Y-1142889D02*
X-2712013Y-1095724D01*
X-2674431Y-273185D02*
X-2651860Y-243770D01*
X-2672120Y-1189705D02*
X-2692477Y-1142889D01*
X-2651860Y-243770D02*
X-2631939Y-212500D01*
X-2650950Y-1236158D02*
X-2672120Y-1189705D01*
X-2631939Y-212500D02*
X-2614819Y-179613D01*
X-2628973Y-1282236D02*
X-2650950Y-1236158D01*
X-2614819Y-179613D02*
X-2600631Y-145359D01*
X-2606194Y-1327922D02*
X-2628973Y-1282236D01*
X-2600631Y-145359D02*
X-2589482Y-110000D01*
X-2589482Y-110000D02*
X2589482Y-110000D01*
X-2582622Y-1373204D02*
X-2606194Y-1327922D01*
X-2558263Y-1418068D02*
X-2582622Y-1373204D01*
X-2533124Y-1462500D02*
X-2558263Y-1418068D01*
X-2507214Y-1506486D02*
X-2533124Y-1462500D01*
X-2480541Y-1550014D02*
X-2507214Y-1506486D01*
X-2453111Y-1593069D02*
X-2480541Y-1550014D01*
X-2424935Y-1635639D02*
X-2453111Y-1593069D01*
X-2396020Y-1677711D02*
X-2424935Y-1635639D01*
X-2366375Y-1719272D02*
X-2396020Y-1677711D01*
X-2336009Y-1760309D02*
X-2366375Y-1719272D01*
X-2304931Y-1800810D02*
X-2336009Y-1760309D01*
X-2273152Y-1840762D02*
X-2304931Y-1800810D01*
X-2240680Y-1880154D02*
X-2273152Y-1840762D01*
X-2207526Y-1918973D02*
X-2240680Y-1880154D01*
X-2173699Y-1957207D02*
X-2207526Y-1918973D01*
X-2139210Y-1994845D02*
X-2173699Y-1957207D01*
X-2104069Y-2031876D02*
X-2139210Y-1994845D01*
X-2068287Y-2068287D02*
X-2104069Y-2031876D01*
X-2031876Y-2104069D02*
X-2068287Y-2068287D01*
X-1650000Y-1200000D02*
G75*
G02*
X-2350000Y-1200000I-350000J0D01*
G01*
X-2350000Y-1200000D02*
G75*
G02*
X-1650000Y-1200000I350000J0D01*
G01*
X-1994845Y-2139210D02*
X-2031876Y-2104069D01*
X-1957207Y-2173699D02*
X-1994845Y-2139210D01*
X-1918973Y-2207526D02*
X-1957207Y-2173699D01*
X-1880154Y-2240680D02*
X-1918973Y-2207526D01*
X-1840762Y-2273152D02*
X-1880154Y-2240680D01*
X-1800810Y-2304931D02*
X-1840762Y-2273152D01*
X-1760309Y-2336009D02*
X-1800810Y-2304931D01*
X-1719272Y-2366375D02*
X-1760309Y-2336009D01*
X-1677711Y-2396020D02*
X-1719272Y-2366375D01*
X-1635639Y-2424935D02*
X-1677711Y-2396020D01*
X-1593069Y-2453111D02*
X-1635639Y-2424935D01*
X-1550014Y-2480541D02*
X-1593069Y-2453111D01*
X-1506486Y-2507214D02*
X-1550014Y-2480541D01*
X-1462500Y-2533124D02*
X-1506486Y-2507214D01*
X-1418068Y-2558263D02*
X-1462500Y-2533124D01*
X-1373204Y-2582622D02*
X-1418068Y-2558263D01*
X-1327922Y-2606194D02*
X-1373204Y-2582622D01*
X-1282236Y-2628973D02*
X-1327922Y-2606194D01*
X-1236158Y-2650950D02*
X-1282236Y-2628973D01*
X-1189705Y-2672120D02*
X-1236158Y-2650950D01*
X-1142889Y-2692477D02*
X-1189705Y-2672120D01*
X-1095724Y-2712013D02*
X-1142889Y-2692477D01*
X-1048226Y-2730723D02*
X-1095724Y-2712013D01*
X-1000409Y-2748601D02*
X-1048226Y-2730723D01*
X-952287Y-2765642D02*
X-1000409Y-2748601D01*
X-903875Y-2781840D02*
X-952287Y-2765642D01*
X-855187Y-2797191D02*
X-903875Y-2781840D01*
X-806239Y-2811690D02*
X-855187Y-2797191D01*
X-757046Y-2825333D02*
X-806239Y-2811690D01*
X-707621Y-2838115D02*
X-757046Y-2825333D01*
X-657982Y-2850032D02*
X-707621Y-2838115D01*
X-608142Y-2861082D02*
X-657982Y-2850032D01*
X-558116Y-2871259D02*
X-608142Y-2861082D01*
X-507921Y-2880562D02*
X-558116Y-2871259D01*
X-457571Y-2888988D02*
X-507921Y-2880562D01*
X-411810Y-2895827D02*
X-457571Y-2888988D01*
X-410518Y-2890002D02*
X-411810Y-2895827D01*
X-399369Y-2854641D02*
X-410518Y-2890002D01*
X-385181Y-2820387D02*
X-399369Y-2854641D01*
X-368061Y-2787500D02*
X-385181Y-2820387D01*
X-348140Y-2756230D02*
X-368061Y-2787500D01*
X-325569Y-2726815D02*
X-348140Y-2756230D01*
X-300520Y-2699480D02*
X-325569Y-2726815D01*
X-273185Y-2674431D02*
X-300520Y-2699480D01*
X-243770Y-2651860D02*
X-273185Y-2674431D01*
X-212500Y-2631939D02*
X-243770Y-2651860D01*
X-179613Y-2614819D02*
X-212500Y-2631939D01*
X-145359Y-2600631D02*
X-179613Y-2614819D01*
X-109998Y-2589482D02*
X-145359Y-2600631D01*
X-73800Y-2581457D02*
X-109998Y-2589482D01*
X-37041Y-2576617D02*
X-73800Y-2581457D01*
X0Y-2575000D02*
X-37041Y-2576617D01*
X37041Y-2576617D02*
X0Y-2575000D01*
X73800Y-2581457D02*
X37041Y-2576617D01*
X109998Y-2589482D02*
X73800Y-2581457D01*
X145359Y-2600631D02*
X109998Y-2589482D01*
X179613Y-2614819D02*
X145359Y-2600631D01*
X212500Y-2631939D02*
X179613Y-2614819D01*
X243770Y-2651860D02*
X212500Y-2631939D01*
X273185Y-2674431D02*
X243770Y-2651860D01*
X300520Y-2699480D02*
X273185Y-2674431D01*
X325569Y-2726815D02*
X300520Y-2699480D01*
X348140Y-2756230D02*
X325569Y-2726815D01*
X368061Y-2787500D02*
X348140Y-2756230D01*
X385181Y-2820387D02*
X368061Y-2787500D01*
X399369Y-2854641D02*
X385181Y-2820387D01*
X410518Y-2890002D02*
X399369Y-2854641D01*
X411810Y-2895827D02*
X410518Y-2890002D01*
X457571Y-2888988D02*
X411810Y-2895827D01*
X507921Y-2880562D02*
X457571Y-2888988D01*
X558116Y-2871259D02*
X507921Y-2880562D01*
X608142Y-2861082D02*
X558116Y-2871259D01*
X657982Y-2850032D02*
X608142Y-2861082D01*
X707621Y-2838115D02*
X657982Y-2850032D01*
X757046Y-2825333D02*
X707621Y-2838115D01*
X806239Y-2811690D02*
X757046Y-2825333D01*
X855187Y-2797191D02*
X806239Y-2811690D01*
X903875Y-2781840D02*
X855187Y-2797191D01*
X952287Y-2765642D02*
X903875Y-2781840D01*
X1000409Y-2748601D02*
X952287Y-2765642D01*
X1048226Y-2730723D02*
X1000409Y-2748601D01*
X1095724Y-2712013D02*
X1048226Y-2730723D01*
X1142889Y-2692477D02*
X1095724Y-2712013D01*
X1189705Y-2672120D02*
X1142889Y-2692477D01*
X1236158Y-2650950D02*
X1189705Y-2672120D01*
X1282236Y-2628973D02*
X1236158Y-2650950D01*
X1327922Y-2606194D02*
X1282236Y-2628973D01*
X1373204Y-2582622D02*
X1327922Y-2606194D01*
X1418068Y-2558263D02*
X1373204Y-2582622D01*
X1462500Y-2533124D02*
X1418068Y-2558263D01*
X1506486Y-2507214D02*
X1462500Y-2533124D01*
X1550014Y-2480541D02*
X1506486Y-2507214D01*
X1593069Y-2453111D02*
X1550014Y-2480541D01*
X1635639Y-2424935D02*
X1593069Y-2453111D01*
X1677711Y-2396020D02*
X1635639Y-2424935D01*
X1719272Y-2366375D02*
X1677711Y-2396020D01*
X1760309Y-2336009D02*
X1719272Y-2366375D01*
X1800810Y-2304931D02*
X1760309Y-2336009D01*
X1840762Y-2273152D02*
X1800810Y-2304931D01*
X1880154Y-2240680D02*
X1840762Y-2273152D01*
X1918973Y-2207526D02*
X1880154Y-2240680D01*
X1957207Y-2173699D02*
X1918973Y-2207526D01*
X1994845Y-2139210D02*
X1957207Y-2173699D01*
X2031876Y-2104069D02*
X1994845Y-2139210D01*
X2068287Y-2068287D02*
X2031876Y-2104069D01*
X2104069Y-2031876D02*
X2068287Y-2068287D01*
X2139210Y-1994845D02*
X2104069Y-2031876D01*
X2173699Y-1957207D02*
X2139210Y-1994845D01*
X2207526Y-1918973D02*
X2173699Y-1957207D01*
X2240680Y-1880154D02*
X2207526Y-1918973D01*
X2273152Y-1840762D02*
X2240680Y-1880154D01*
X2304931Y-1800810D02*
X2273152Y-1840762D01*
X2336009Y-1760309D02*
X2304931Y-1800810D01*
X2366375Y-1719272D02*
X2336009Y-1760309D01*
X2396020Y-1677711D02*
X2366375Y-1719272D01*
X2424935Y-1635639D02*
X2396020Y-1677711D01*
X2453111Y-1593069D02*
X2424935Y-1635639D01*
X2480541Y-1550014D02*
X2453111Y-1593069D01*
X2507214Y-1506486D02*
X2480541Y-1550014D01*
X2533124Y-1462500D02*
X2507214Y-1506486D01*
X2558263Y-1418068D02*
X2533124Y-1462500D01*
X2582622Y-1373204D02*
X2558263Y-1418068D01*
X2589482Y-110000D02*
X2600631Y-145359D01*
X2600631Y-145359D02*
X2614819Y-179613D01*
X2606194Y-1327922D02*
X2582622Y-1373204D01*
X2614819Y-179613D02*
X2631939Y-212500D01*
X2628973Y-1282236D02*
X2606194Y-1327922D01*
X2631939Y-212500D02*
X2651860Y-243770D01*
X2650950Y-1236158D02*
X2628973Y-1282236D01*
X2651860Y-243770D02*
X2674431Y-273185D01*
X2672120Y-1189705D02*
X2650950Y-1236158D01*
X2674431Y-273185D02*
X2699480Y-300520D01*
X2692477Y-1142889D02*
X2672120Y-1189705D01*
X2699480Y-300520D02*
X2726815Y-325569D01*
X2712013Y-1095724D02*
X2692477Y-1142889D01*
X2726815Y-325569D02*
X2756230Y-348140D01*
X2730723Y-1048226D02*
X2712013Y-1095724D01*
X2748601Y-1000409D02*
X2730723Y-1048226D01*
X2756230Y-348140D02*
X2787500Y-368061D01*
X2765642Y-952287D02*
X2748601Y-1000409D01*
X2781840Y-903875D02*
X2765642Y-952287D01*
X2787500Y-368061D02*
X2820387Y-385181D01*
X2797191Y-855187D02*
X2781840Y-903875D01*
X2811690Y-806239D02*
X2797191Y-855187D01*
X2820387Y-385181D02*
X2854641Y-399369D01*
X2825333Y-757046D02*
X2811690Y-806239D01*
X2838115Y-707621D02*
X2825333Y-757046D01*
X2850032Y-657982D02*
X2838115Y-707621D01*
X2854641Y-399369D02*
X2890002Y-410518D01*
X2861082Y-608142D02*
X2850032Y-657982D01*
X2871259Y-558116D02*
X2861082Y-608142D01*
X2880562Y-507921D02*
X2871259Y-558116D01*
X2888988Y-457571D02*
X2880562Y-507921D01*
X2890002Y-410518D02*
X2895827Y-411810D01*
X2895827Y-411810D02*
X2888988Y-457571D01*
D11*
D12*
X-1310000Y-2090000D02*
X-1090000Y-2310000D01*
X-1090000Y-2090000D02*
X-1310000Y-2310000D01*
X1490000Y-1990000D02*
X1710000Y-2210000D01*
X1710000Y-1990000D02*
X1490000Y-2210000D01*
D11*
X-2637551Y-3209811D02*
X-2637551Y-3009811D01*
X-2637551Y-3009811D02*
X-2589932Y-3009811D01*
X-2589932Y-3009811D02*
X-2561360Y-3019335D01*
X-2561360Y-3019335D02*
X-2542313Y-3038382D01*
X-2542313Y-3038382D02*
X-2532789Y-3057430D01*
X-2532789Y-3057430D02*
X-2523265Y-3095525D01*
X-2523265Y-3095525D02*
X-2523265Y-3124097D01*
X-2523265Y-3124097D02*
X-2532789Y-3162192D01*
X-2532789Y-3162192D02*
X-2542313Y-3181240D01*
X-2542313Y-3181240D02*
X-2561360Y-3200287D01*
X-2561360Y-3200287D02*
X-2589932Y-3209811D01*
X-2589932Y-3209811D02*
X-2637551Y-3209811D01*
X-2437551Y-3209811D02*
X-2437551Y-3076478D01*
X-2437551Y-3114573D02*
X-2428027Y-3095525D01*
X-2428027Y-3095525D02*
X-2418503Y-3086001D01*
X-2418503Y-3086001D02*
X-2399455Y-3076478D01*
X-2399455Y-3076478D02*
X-2380408Y-3076478D01*
X-2313741Y-3209811D02*
X-2313741Y-3076478D01*
X-2313741Y-3009811D02*
X-2323265Y-3019335D01*
X-2323265Y-3019335D02*
X-2313741Y-3028859D01*
X-2313741Y-3028859D02*
X-2304217Y-3019335D01*
X-2304217Y-3019335D02*
X-2313741Y-3009811D01*
X-2313741Y-3009811D02*
X-2313741Y-3028859D01*
X-2189932Y-3209811D02*
X-2208979Y-3200287D01*
X-2208979Y-3200287D02*
X-2218503Y-3181240D01*
X-2218503Y-3181240D02*
X-2218503Y-3009811D01*
X-2085170Y-3209811D02*
X-2104217Y-3200287D01*
X-2104217Y-3200287D02*
X-2113741Y-3181240D01*
X-2113741Y-3181240D02*
X-2113741Y-3009811D01*
X-1856598Y-3209811D02*
X-1856598Y-3009811D01*
X-1856598Y-3009811D02*
X-1789931Y-3152668D01*
X-1789931Y-3152668D02*
X-1723265Y-3009811D01*
X-1723265Y-3009811D02*
X-1723265Y-3209811D01*
X-1542312Y-3209811D02*
X-1542312Y-3105049D01*
X-1542312Y-3105049D02*
X-1551836Y-3086001D01*
X-1551836Y-3086001D02*
X-1570884Y-3076478D01*
X-1570884Y-3076478D02*
X-1608979Y-3076478D01*
X-1608979Y-3076478D02*
X-1628027Y-3086001D01*
X-1542312Y-3200287D02*
X-1561360Y-3209811D01*
X-1561360Y-3209811D02*
X-1608979Y-3209811D01*
X-1608979Y-3209811D02*
X-1628027Y-3200287D01*
X-1628027Y-3200287D02*
X-1637551Y-3181240D01*
X-1637551Y-3181240D02*
X-1637551Y-3162192D01*
X-1637551Y-3162192D02*
X-1628027Y-3143144D01*
X-1628027Y-3143144D02*
X-1608979Y-3133621D01*
X-1608979Y-3133621D02*
X-1561360Y-3133621D01*
X-1561360Y-3133621D02*
X-1542312Y-3124097D01*
X-1447074Y-3076478D02*
X-1447074Y-3276478D01*
X-1447074Y-3086001D02*
X-1428027Y-3076478D01*
X-1428027Y-3076478D02*
X-1389932Y-3076478D01*
X-1389932Y-3076478D02*
X-1370884Y-3086001D01*
X-1370884Y-3086001D02*
X-1361360Y-3095525D01*
X-1361360Y-3095525D02*
X-1351836Y-3114573D01*
X-1351836Y-3114573D02*
X-1351836Y-3171716D01*
X-1351836Y-3171716D02*
X-1361360Y-3190763D01*
X-1361360Y-3190763D02*
X-1370884Y-3200287D01*
X-1370884Y-3200287D02*
X-1389932Y-3209811D01*
X-1389932Y-3209811D02*
X-1428027Y-3209811D01*
X-1428027Y-3209811D02*
X-1447074Y-3200287D01*
X-1266122Y-3190763D02*
X-1256598Y-3200287D01*
X-1256598Y-3200287D02*
X-1266122Y-3209811D01*
X-1266122Y-3209811D02*
X-1275646Y-3200287D01*
X-1275646Y-3200287D02*
X-1266122Y-3190763D01*
X-1266122Y-3190763D02*
X-1266122Y-3209811D01*
X-1266122Y-3086001D02*
X-1256598Y-3095525D01*
X-1256598Y-3095525D02*
X-1266122Y-3105049D01*
X-1266122Y-3105049D02*
X-1275646Y-3095525D01*
X-1275646Y-3095525D02*
X-1266122Y-3086001D01*
X-1266122Y-3086001D02*
X-1266122Y-3105049D01*
X-3098327Y-3438327D02*
X-2898327Y-3638327D01*
X-2898327Y-3438327D02*
X-3098327Y-3638327D01*
X-2647074Y-3448859D02*
X-2637551Y-3439335D01*
X-2637551Y-3439335D02*
X-2618503Y-3429811D01*
X-2618503Y-3429811D02*
X-2570884Y-3429811D01*
X-2570884Y-3429811D02*
X-2551836Y-3439335D01*
X-2551836Y-3439335D02*
X-2542313Y-3448859D01*
X-2542313Y-3448859D02*
X-2532789Y-3467906D01*
X-2532789Y-3467906D02*
X-2532789Y-3486954D01*
X-2532789Y-3486954D02*
X-2542313Y-3515525D01*
X-2542313Y-3515525D02*
X-2656598Y-3629811D01*
X-2656598Y-3629811D02*
X-2532789Y-3629811D01*
X-2447074Y-3610763D02*
X-2437551Y-3620287D01*
X-2437551Y-3620287D02*
X-2447074Y-3629811D01*
X-2447074Y-3629811D02*
X-2456598Y-3620287D01*
X-2456598Y-3620287D02*
X-2447074Y-3610763D01*
X-2447074Y-3610763D02*
X-2447074Y-3629811D01*
X-2361360Y-3448859D02*
X-2351836Y-3439335D01*
X-2351836Y-3439335D02*
X-2332789Y-3429811D01*
X-2332789Y-3429811D02*
X-2285170Y-3429811D01*
X-2285170Y-3429811D02*
X-2266122Y-3439335D01*
X-2266122Y-3439335D02*
X-2256598Y-3448859D01*
X-2256598Y-3448859D02*
X-2247074Y-3467906D01*
X-2247074Y-3467906D02*
X-2247074Y-3486954D01*
X-2247074Y-3486954D02*
X-2256598Y-3515525D01*
X-2256598Y-3515525D02*
X-2370884Y-3629811D01*
X-2370884Y-3629811D02*
X-2247074Y-3629811D01*
X-2123265Y-3429811D02*
X-2104217Y-3429811D01*
X-2104217Y-3429811D02*
X-2085170Y-3439335D01*
X-2085170Y-3439335D02*
X-2075646Y-3448859D01*
X-2075646Y-3448859D02*
X-2066122Y-3467906D01*
X-2066122Y-3467906D02*
X-2056598Y-3506001D01*
X-2056598Y-3506001D02*
X-2056598Y-3553621D01*
X-2056598Y-3553621D02*
X-2066122Y-3591716D01*
X-2066122Y-3591716D02*
X-2075646Y-3610763D01*
X-2075646Y-3610763D02*
X-2085170Y-3620287D01*
X-2085170Y-3620287D02*
X-2104217Y-3629811D01*
X-2104217Y-3629811D02*
X-2123265Y-3629811D01*
X-2123265Y-3629811D02*
X-2142313Y-3620287D01*
X-2142313Y-3620287D02*
X-2151836Y-3610763D01*
X-2151836Y-3610763D02*
X-2161360Y-3591716D01*
X-2161360Y-3591716D02*
X-2170884Y-3553621D01*
X-2170884Y-3553621D02*
X-2170884Y-3506001D01*
X-2170884Y-3506001D02*
X-2161360Y-3467906D01*
X-2161360Y-3467906D02*
X-2151836Y-3448859D01*
X-2151836Y-3448859D02*
X-2142313Y-3439335D01*
X-2142313Y-3439335D02*
X-2123265Y-3429811D01*
X-1932789Y-3429811D02*
X-1913741Y-3429811D01*
X-1913741Y-3429811D02*
X-1894693Y-3439335D01*
X-1894693Y-3439335D02*
X-1885170Y-3448859D01*
X-1885170Y-3448859D02*
X-1875646Y-3467906D01*
X-1875646Y-3467906D02*
X-1866122Y-3506001D01*
X-1866122Y-3506001D02*
X-1866122Y-3553621D01*
X-1866122Y-3553621D02*
X-1875646Y-3591716D01*
X-1875646Y-3591716D02*
X-1885170Y-3610763D01*
X-1885170Y-3610763D02*
X-1894693Y-3620287D01*
X-1894693Y-3620287D02*
X-1913741Y-3629811D01*
X-1913741Y-3629811D02*
X-1932789Y-3629811D01*
X-1932789Y-3629811D02*
X-1951836Y-3620287D01*
X-1951836Y-3620287D02*
X-1961360Y-3610763D01*
X-1961360Y-3610763D02*
X-1970884Y-3591716D01*
X-1970884Y-3591716D02*
X-1980408Y-3553621D01*
X-1980408Y-3553621D02*
X-1980408Y-3506001D01*
X-1980408Y-3506001D02*
X-1970884Y-3467906D01*
X-1970884Y-3467906D02*
X-1961360Y-3448859D01*
X-1961360Y-3448859D02*
X-1951836Y-3439335D01*
X-1951836Y-3439335D02*
X-1932789Y-3429811D01*
X-1780408Y-3629811D02*
X-1780408Y-3496478D01*
X-1780408Y-3515525D02*
X-1770884Y-3506001D01*
X-1770884Y-3506001D02*
X-1751836Y-3496478D01*
X-1751836Y-3496478D02*
X-1723265Y-3496478D01*
X-1723265Y-3496478D02*
X-1704217Y-3506001D01*
X-1704217Y-3506001D02*
X-1694693Y-3525049D01*
X-1694693Y-3525049D02*
X-1694693Y-3629811D01*
X-1694693Y-3525049D02*
X-1685170Y-3506001D01*
X-1685170Y-3506001D02*
X-1666122Y-3496478D01*
X-1666122Y-3496478D02*
X-1637551Y-3496478D01*
X-1637551Y-3496478D02*
X-1618503Y-3506001D01*
X-1618503Y-3506001D02*
X-1608979Y-3525049D01*
X-1608979Y-3525049D02*
X-1608979Y-3629811D01*
X-1513741Y-3629811D02*
X-1513741Y-3496478D01*
X-1513741Y-3515525D02*
X-1504217Y-3506001D01*
X-1504217Y-3506001D02*
X-1485170Y-3496478D01*
X-1485170Y-3496478D02*
X-1456598Y-3496478D01*
X-1456598Y-3496478D02*
X-1437550Y-3506001D01*
X-1437550Y-3506001D02*
X-1428027Y-3525049D01*
X-1428027Y-3525049D02*
X-1428027Y-3629811D01*
X-1428027Y-3525049D02*
X-1418503Y-3506001D01*
X-1418503Y-3506001D02*
X-1399455Y-3496478D01*
X-1399455Y-3496478D02*
X-1370884Y-3496478D01*
X-1370884Y-3496478D02*
X-1351836Y-3506001D01*
X-1351836Y-3506001D02*
X-1342312Y-3525049D01*
X-1342312Y-3525049D02*
X-1342312Y-3629811D01*
X-951836Y-3420287D02*
X-1123265Y-3677430D01*
X-694693Y-3429811D02*
X-675646Y-3429811D01*
X-675646Y-3429811D02*
X-656598Y-3439335D01*
X-656598Y-3439335D02*
X-647074Y-3448859D01*
X-647074Y-3448859D02*
X-637550Y-3467906D01*
X-637550Y-3467906D02*
X-628027Y-3506001D01*
X-628027Y-3506001D02*
X-628027Y-3553621D01*
X-628027Y-3553621D02*
X-637550Y-3591716D01*
X-637550Y-3591716D02*
X-647074Y-3610763D01*
X-647074Y-3610763D02*
X-656598Y-3620287D01*
X-656598Y-3620287D02*
X-675646Y-3629811D01*
X-675646Y-3629811D02*
X-694693Y-3629811D01*
X-694693Y-3629811D02*
X-713741Y-3620287D01*
X-713741Y-3620287D02*
X-723265Y-3610763D01*
X-723265Y-3610763D02*
X-732788Y-3591716D01*
X-732788Y-3591716D02*
X-742312Y-3553621D01*
X-742312Y-3553621D02*
X-742312Y-3506001D01*
X-742312Y-3506001D02*
X-732788Y-3467906D01*
X-732788Y-3467906D02*
X-723265Y-3448859D01*
X-723265Y-3448859D02*
X-713741Y-3439335D01*
X-713741Y-3439335D02*
X-694693Y-3429811D01*
X-542312Y-3610763D02*
X-532789Y-3620287D01*
X-532789Y-3620287D02*
X-542312Y-3629811D01*
X-542312Y-3629811D02*
X-551836Y-3620287D01*
X-551836Y-3620287D02*
X-542312Y-3610763D01*
X-542312Y-3610763D02*
X-542312Y-3629811D01*
X-408979Y-3429811D02*
X-389931Y-3429811D01*
X-389931Y-3429811D02*
X-370884Y-3439335D01*
X-370884Y-3439335D02*
X-361360Y-3448859D01*
X-361360Y-3448859D02*
X-351836Y-3467906D01*
X-351836Y-3467906D02*
X-342312Y-3506001D01*
X-342312Y-3506001D02*
X-342312Y-3553621D01*
X-342312Y-3553621D02*
X-351836Y-3591716D01*
X-351836Y-3591716D02*
X-361360Y-3610763D01*
X-361360Y-3610763D02*
X-370884Y-3620287D01*
X-370884Y-3620287D02*
X-389931Y-3629811D01*
X-389931Y-3629811D02*
X-408979Y-3629811D01*
X-408979Y-3629811D02*
X-428027Y-3620287D01*
X-428027Y-3620287D02*
X-437550Y-3610763D01*
X-437550Y-3610763D02*
X-447074Y-3591716D01*
X-447074Y-3591716D02*
X-456598Y-3553621D01*
X-456598Y-3553621D02*
X-456598Y-3506001D01*
X-456598Y-3506001D02*
X-447074Y-3467906D01*
X-447074Y-3467906D02*
X-437550Y-3448859D01*
X-437550Y-3448859D02*
X-428027Y-3439335D01*
X-428027Y-3439335D02*
X-408979Y-3429811D01*
X-228027Y-3515525D02*
X-247074Y-3506001D01*
X-247074Y-3506001D02*
X-256598Y-3496478D01*
X-256598Y-3496478D02*
X-266122Y-3477430D01*
X-266122Y-3477430D02*
X-266122Y-3467906D01*
X-266122Y-3467906D02*
X-256598Y-3448859D01*
X-256598Y-3448859D02*
X-247074Y-3439335D01*
X-247074Y-3439335D02*
X-228027Y-3429811D01*
X-228027Y-3429811D02*
X-189931Y-3429811D01*
X-189931Y-3429811D02*
X-170884Y-3439335D01*
X-170884Y-3439335D02*
X-161360Y-3448859D01*
X-161360Y-3448859D02*
X-151836Y-3467906D01*
X-151836Y-3467906D02*
X-151836Y-3477430D01*
X-151836Y-3477430D02*
X-161360Y-3496478D01*
X-161360Y-3496478D02*
X-170884Y-3506001D01*
X-170884Y-3506001D02*
X-189931Y-3515525D01*
X-189931Y-3515525D02*
X-228027Y-3515525D01*
X-228027Y-3515525D02*
X-247074Y-3525049D01*
X-247074Y-3525049D02*
X-256598Y-3534573D01*
X-256598Y-3534573D02*
X-266122Y-3553621D01*
X-266122Y-3553621D02*
X-266122Y-3591716D01*
X-266122Y-3591716D02*
X-256598Y-3610763D01*
X-256598Y-3610763D02*
X-247074Y-3620287D01*
X-247074Y-3620287D02*
X-228027Y-3629811D01*
X-228027Y-3629811D02*
X-189931Y-3629811D01*
X-189931Y-3629811D02*
X-170884Y-3620287D01*
X-170884Y-3620287D02*
X-161360Y-3610763D01*
X-161360Y-3610763D02*
X-151836Y-3591716D01*
X-151836Y-3591716D02*
X-151836Y-3553621D01*
X-151836Y-3553621D02*
X-161360Y-3534573D01*
X-161360Y-3534573D02*
X-170884Y-3525049D01*
X-170884Y-3525049D02*
X-189931Y-3515525D01*
X19593Y-3429811D02*
X-18503Y-3429811D01*
X-18503Y-3429811D02*
X-37550Y-3439335D01*
X-37550Y-3439335D02*
X-47074Y-3448859D01*
X-47074Y-3448859D02*
X-66122Y-3477430D01*
X-66122Y-3477430D02*
X-75646Y-3515525D01*
X-75646Y-3515525D02*
X-75646Y-3591716D01*
X-75646Y-3591716D02*
X-66122Y-3610763D01*
X-66122Y-3610763D02*
X-56598Y-3620287D01*
X-56598Y-3620287D02*
X-37550Y-3629811D01*
X-37550Y-3629811D02*
X545Y-3629811D01*
X545Y-3629811D02*
X19593Y-3620287D01*
X19593Y-3620287D02*
X29116Y-3610763D01*
X29116Y-3610763D02*
X38640Y-3591716D01*
X38640Y-3591716D02*
X38640Y-3544097D01*
X38640Y-3544097D02*
X29116Y-3525049D01*
X29116Y-3525049D02*
X19593Y-3515525D01*
X19593Y-3515525D02*
X545Y-3506001D01*
X545Y-3506001D02*
X-37550Y-3506001D01*
X-37550Y-3506001D02*
X-56598Y-3515525D01*
X-56598Y-3515525D02*
X-66122Y-3525049D01*
X-66122Y-3525049D02*
X-75646Y-3544097D01*
X210069Y-3429811D02*
X171973Y-3429811D01*
X171973Y-3429811D02*
X152926Y-3439335D01*
X152926Y-3439335D02*
X143402Y-3448859D01*
X143402Y-3448859D02*
X124354Y-3477430D01*
X124354Y-3477430D02*
X114831Y-3515525D01*
X114831Y-3515525D02*
X114831Y-3591716D01*
X114831Y-3591716D02*
X124354Y-3610763D01*
X124354Y-3610763D02*
X133878Y-3620287D01*
X133878Y-3620287D02*
X152926Y-3629811D01*
X152926Y-3629811D02*
X191021Y-3629811D01*
X191021Y-3629811D02*
X210069Y-3620287D01*
X210069Y-3620287D02*
X219592Y-3610763D01*
X219592Y-3610763D02*
X229116Y-3591716D01*
X229116Y-3591716D02*
X229116Y-3544097D01*
X229116Y-3544097D02*
X219592Y-3525049D01*
X219592Y-3525049D02*
X210069Y-3515525D01*
X210069Y-3515525D02*
X191021Y-3506001D01*
X191021Y-3506001D02*
X152926Y-3506001D01*
X152926Y-3506001D02*
X133878Y-3515525D01*
X133878Y-3515525D02*
X124354Y-3525049D01*
X124354Y-3525049D02*
X114831Y-3544097D01*
X305307Y-3429811D02*
X305307Y-3467906D01*
X381497Y-3429811D02*
X381497Y-3467906D01*
X676736Y-3706001D02*
X667212Y-3696478D01*
X667212Y-3696478D02*
X648164Y-3667906D01*
X648164Y-3667906D02*
X638640Y-3648859D01*
X638640Y-3648859D02*
X629116Y-3620287D01*
X629116Y-3620287D02*
X619593Y-3572668D01*
X619593Y-3572668D02*
X619593Y-3534573D01*
X619593Y-3534573D02*
X629116Y-3486954D01*
X629116Y-3486954D02*
X638640Y-3458382D01*
X638640Y-3458382D02*
X648164Y-3439335D01*
X648164Y-3439335D02*
X667212Y-3410763D01*
X667212Y-3410763D02*
X676736Y-3401240D01*
X743402Y-3448859D02*
X752926Y-3439335D01*
X752926Y-3439335D02*
X771973Y-3429811D01*
X771973Y-3429811D02*
X819593Y-3429811D01*
X819593Y-3429811D02*
X838640Y-3439335D01*
X838640Y-3439335D02*
X848164Y-3448859D01*
X848164Y-3448859D02*
X857688Y-3467906D01*
X857688Y-3467906D02*
X857688Y-3486954D01*
X857688Y-3486954D02*
X848164Y-3515525D01*
X848164Y-3515525D02*
X733878Y-3629811D01*
X733878Y-3629811D02*
X857688Y-3629811D01*
X1095783Y-3629811D02*
X1095783Y-3429811D01*
X1181497Y-3629811D02*
X1181497Y-3525049D01*
X1181497Y-3525049D02*
X1171974Y-3506001D01*
X1171974Y-3506001D02*
X1152926Y-3496478D01*
X1152926Y-3496478D02*
X1124355Y-3496478D01*
X1124355Y-3496478D02*
X1105307Y-3506001D01*
X1105307Y-3506001D02*
X1095783Y-3515525D01*
X1305307Y-3629811D02*
X1286259Y-3620287D01*
X1286259Y-3620287D02*
X1276736Y-3610763D01*
X1276736Y-3610763D02*
X1267212Y-3591716D01*
X1267212Y-3591716D02*
X1267212Y-3534573D01*
X1267212Y-3534573D02*
X1276736Y-3515525D01*
X1276736Y-3515525D02*
X1286259Y-3506001D01*
X1286259Y-3506001D02*
X1305307Y-3496478D01*
X1305307Y-3496478D02*
X1333878Y-3496478D01*
X1333878Y-3496478D02*
X1352926Y-3506001D01*
X1352926Y-3506001D02*
X1362450Y-3515525D01*
X1362450Y-3515525D02*
X1371974Y-3534573D01*
X1371974Y-3534573D02*
X1371974Y-3591716D01*
X1371974Y-3591716D02*
X1362450Y-3610763D01*
X1362450Y-3610763D02*
X1352926Y-3620287D01*
X1352926Y-3620287D02*
X1333878Y-3629811D01*
X1333878Y-3629811D02*
X1305307Y-3629811D01*
X1486259Y-3629811D02*
X1467212Y-3620287D01*
X1467212Y-3620287D02*
X1457688Y-3601240D01*
X1457688Y-3601240D02*
X1457688Y-3429811D01*
X1638640Y-3620287D02*
X1619593Y-3629811D01*
X1619593Y-3629811D02*
X1581497Y-3629811D01*
X1581497Y-3629811D02*
X1562450Y-3620287D01*
X1562450Y-3620287D02*
X1552926Y-3601240D01*
X1552926Y-3601240D02*
X1552926Y-3525049D01*
X1552926Y-3525049D02*
X1562450Y-3506001D01*
X1562450Y-3506001D02*
X1581497Y-3496478D01*
X1581497Y-3496478D02*
X1619593Y-3496478D01*
X1619593Y-3496478D02*
X1638640Y-3506001D01*
X1638640Y-3506001D02*
X1648164Y-3525049D01*
X1648164Y-3525049D02*
X1648164Y-3544097D01*
X1648164Y-3544097D02*
X1552926Y-3563144D01*
X1724355Y-3620287D02*
X1743402Y-3629811D01*
X1743402Y-3629811D02*
X1781497Y-3629811D01*
X1781497Y-3629811D02*
X1800545Y-3620287D01*
X1800545Y-3620287D02*
X1810069Y-3601240D01*
X1810069Y-3601240D02*
X1810069Y-3591716D01*
X1810069Y-3591716D02*
X1800545Y-3572668D01*
X1800545Y-3572668D02*
X1781497Y-3563144D01*
X1781497Y-3563144D02*
X1752926Y-3563144D01*
X1752926Y-3563144D02*
X1733878Y-3553621D01*
X1733878Y-3553621D02*
X1724355Y-3534573D01*
X1724355Y-3534573D02*
X1724355Y-3525049D01*
X1724355Y-3525049D02*
X1733878Y-3506001D01*
X1733878Y-3506001D02*
X1752926Y-3496478D01*
X1752926Y-3496478D02*
X1781497Y-3496478D01*
X1781497Y-3496478D02*
X1800545Y-3506001D01*
X1876736Y-3706001D02*
X1886259Y-3696478D01*
X1886259Y-3696478D02*
X1905307Y-3667906D01*
X1905307Y-3667906D02*
X1914831Y-3648859D01*
X1914831Y-3648859D02*
X1924355Y-3620287D01*
X1924355Y-3620287D02*
X1933878Y-3572668D01*
X1933878Y-3572668D02*
X1933878Y-3534573D01*
X1933878Y-3534573D02*
X1924355Y-3486954D01*
X1924355Y-3486954D02*
X1914831Y-3458382D01*
X1914831Y-3458382D02*
X1905307Y-3439335D01*
X1905307Y-3439335D02*
X1886259Y-3410763D01*
X1886259Y-3410763D02*
X1876736Y-3401240D01*
X2238640Y-3706001D02*
X2229117Y-3696478D01*
X2229117Y-3696478D02*
X2210069Y-3667906D01*
X2210069Y-3667906D02*
X2200545Y-3648859D01*
X2200545Y-3648859D02*
X2191021Y-3620287D01*
X2191021Y-3620287D02*
X2181498Y-3572668D01*
X2181498Y-3572668D02*
X2181498Y-3534573D01*
X2181498Y-3534573D02*
X2191021Y-3486954D01*
X2191021Y-3486954D02*
X2200545Y-3458382D01*
X2200545Y-3458382D02*
X2210069Y-3439335D01*
X2210069Y-3439335D02*
X2229117Y-3410763D01*
X2229117Y-3410763D02*
X2238640Y-3401240D01*
X2314831Y-3496478D02*
X2314831Y-3629811D01*
X2314831Y-3515525D02*
X2324355Y-3506001D01*
X2324355Y-3506001D02*
X2343402Y-3496478D01*
X2343402Y-3496478D02*
X2371974Y-3496478D01*
X2371974Y-3496478D02*
X2391021Y-3506001D01*
X2391021Y-3506001D02*
X2400545Y-3525049D01*
X2400545Y-3525049D02*
X2400545Y-3629811D01*
X2524355Y-3629811D02*
X2505307Y-3620287D01*
X2505307Y-3620287D02*
X2495783Y-3610763D01*
X2495783Y-3610763D02*
X2486259Y-3591716D01*
X2486259Y-3591716D02*
X2486259Y-3534573D01*
X2486259Y-3534573D02*
X2495783Y-3515525D01*
X2495783Y-3515525D02*
X2505307Y-3506001D01*
X2505307Y-3506001D02*
X2524355Y-3496478D01*
X2524355Y-3496478D02*
X2552926Y-3496478D01*
X2552926Y-3496478D02*
X2571974Y-3506001D01*
X2571974Y-3506001D02*
X2581498Y-3515525D01*
X2581498Y-3515525D02*
X2591021Y-3534573D01*
X2591021Y-3534573D02*
X2591021Y-3591716D01*
X2591021Y-3591716D02*
X2581498Y-3610763D01*
X2581498Y-3610763D02*
X2571974Y-3620287D01*
X2571974Y-3620287D02*
X2552926Y-3629811D01*
X2552926Y-3629811D02*
X2524355Y-3629811D01*
X2648164Y-3496478D02*
X2724355Y-3496478D01*
X2676736Y-3429811D02*
X2676736Y-3601240D01*
X2676736Y-3601240D02*
X2686259Y-3620287D01*
X2686259Y-3620287D02*
X2705307Y-3629811D01*
X2705307Y-3629811D02*
X2724355Y-3629811D01*
X2943402Y-3496478D02*
X2943402Y-3696478D01*
X2943402Y-3506001D02*
X2962450Y-3496478D01*
X2962450Y-3496478D02*
X3000545Y-3496478D01*
X3000545Y-3496478D02*
X3019593Y-3506001D01*
X3019593Y-3506001D02*
X3029117Y-3515525D01*
X3029117Y-3515525D02*
X3038640Y-3534573D01*
X3038640Y-3534573D02*
X3038640Y-3591716D01*
X3038640Y-3591716D02*
X3029117Y-3610763D01*
X3029117Y-3610763D02*
X3019593Y-3620287D01*
X3019593Y-3620287D02*
X3000545Y-3629811D01*
X3000545Y-3629811D02*
X2962450Y-3629811D01*
X2962450Y-3629811D02*
X2943402Y-3620287D01*
X3152926Y-3629811D02*
X3133878Y-3620287D01*
X3133878Y-3620287D02*
X3124355Y-3601240D01*
X3124355Y-3601240D02*
X3124355Y-3429811D01*
X3314831Y-3629811D02*
X3314831Y-3525049D01*
X3314831Y-3525049D02*
X3305307Y-3506001D01*
X3305307Y-3506001D02*
X3286259Y-3496478D01*
X3286259Y-3496478D02*
X3248164Y-3496478D01*
X3248164Y-3496478D02*
X3229117Y-3506001D01*
X3314831Y-3620287D02*
X3295783Y-3629811D01*
X3295783Y-3629811D02*
X3248164Y-3629811D01*
X3248164Y-3629811D02*
X3229117Y-3620287D01*
X3229117Y-3620287D02*
X3219593Y-3601240D01*
X3219593Y-3601240D02*
X3219593Y-3582192D01*
X3219593Y-3582192D02*
X3229117Y-3563144D01*
X3229117Y-3563144D02*
X3248164Y-3553621D01*
X3248164Y-3553621D02*
X3295783Y-3553621D01*
X3295783Y-3553621D02*
X3314831Y-3544097D01*
X3381498Y-3496478D02*
X3457688Y-3496478D01*
X3410069Y-3429811D02*
X3410069Y-3601240D01*
X3410069Y-3601240D02*
X3419593Y-3620287D01*
X3419593Y-3620287D02*
X3438640Y-3629811D01*
X3438640Y-3629811D02*
X3457688Y-3629811D01*
X3600545Y-3620287D02*
X3581498Y-3629811D01*
X3581498Y-3629811D02*
X3543402Y-3629811D01*
X3543402Y-3629811D02*
X3524355Y-3620287D01*
X3524355Y-3620287D02*
X3514831Y-3601240D01*
X3514831Y-3601240D02*
X3514831Y-3525049D01*
X3514831Y-3525049D02*
X3524355Y-3506001D01*
X3524355Y-3506001D02*
X3543402Y-3496478D01*
X3543402Y-3496478D02*
X3581498Y-3496478D01*
X3581498Y-3496478D02*
X3600545Y-3506001D01*
X3600545Y-3506001D02*
X3610069Y-3525049D01*
X3610069Y-3525049D02*
X3610069Y-3544097D01*
X3610069Y-3544097D02*
X3514831Y-3563144D01*
X3781498Y-3629811D02*
X3781498Y-3429811D01*
X3781498Y-3620287D02*
X3762450Y-3629811D01*
X3762450Y-3629811D02*
X3724355Y-3629811D01*
X3724355Y-3629811D02*
X3705307Y-3620287D01*
X3705307Y-3620287D02*
X3695783Y-3610763D01*
X3695783Y-3610763D02*
X3686259Y-3591716D01*
X3686259Y-3591716D02*
X3686259Y-3534573D01*
X3686259Y-3534573D02*
X3695783Y-3515525D01*
X3695783Y-3515525D02*
X3705307Y-3506001D01*
X3705307Y-3506001D02*
X3724355Y-3496478D01*
X3724355Y-3496478D02*
X3762450Y-3496478D01*
X3762450Y-3496478D02*
X3781498Y-3506001D01*
X3857688Y-3706001D02*
X3867212Y-3696478D01*
X3867212Y-3696478D02*
X3886259Y-3667906D01*
X3886259Y-3667906D02*
X3895783Y-3648859D01*
X3895783Y-3648859D02*
X3905307Y-3620287D01*
X3905307Y-3620287D02*
X3914831Y-3572668D01*
X3914831Y-3572668D02*
X3914831Y-3534573D01*
X3914831Y-3534573D02*
X3905307Y-3486954D01*
X3905307Y-3486954D02*
X3895783Y-3458382D01*
X3895783Y-3458382D02*
X3886259Y-3439335D01*
X3886259Y-3439335D02*
X3867212Y-3410763D01*
X3867212Y-3410763D02*
X3857688Y-3401240D01*
M02*
