G04 #@! TF.GenerationSoftware,KiCad,Pcbnew,9.0.9-9.0.9~ubuntu24.04.1*
G04 #@! TF.CreationDate,2026-10-07T08:43:51+00:00*
G04 #@! TF.ProjectId,wiring_board,77697269-6e67-45f6-926f-6172642e6b69,rev?*
G04 #@! TF.SameCoordinates,Original*
G04 #@! TF.FileFunction,Legend,Bot*
G04 #@! TF.FilePolarity,Positive*
%FSLAX46Y46*%
G04 Gerber Fmt 4.6, Leading zero omitted, Abs format (unit mm)*
G04 Created by KiCad (PCBNEW 9.0.9-9.0.9~ubuntu24.04.1) date 2026-10-07 08:43:51*
%MOMM*%
%LPD*%
G01*
G04 APERTURE LIST*
%ADD10C,0.120000*%
%ADD11C,0.150000*%
%ADD12C,3.600000*%
%ADD13C,2.400000*%
%ADD14C,2.600000*%
%ADD15R,2.000000X2.300000*%
%ADD16C,2.300000*%
%ADD17R,1.800000X2.600000*%
%ADD18O,1.800000X2.600000*%
G04 APERTURE END LIST*
D10*
X-8928572Y-7363855D02*
X-8928572Y-6563855D01*
X-8928572Y-6563855D02*
X-9233334Y-6563855D01*
X-9233334Y-6563855D02*
X-9309524Y-6601950D01*
X-9309524Y-6601950D02*
X-9347619Y-6640045D01*
X-9347619Y-6640045D02*
X-9385715Y-6716236D01*
X-9385715Y-6716236D02*
X-9385715Y-6830521D01*
X-9385715Y-6830521D02*
X-9347619Y-6906712D01*
X-9347619Y-6906712D02*
X-9309524Y-6944807D01*
X-9309524Y-6944807D02*
X-9233334Y-6982902D01*
X-9233334Y-6982902D02*
X-8928572Y-6982902D01*
X-9728572Y-6944807D02*
X-9995238Y-6944807D01*
X-10109524Y-7363855D02*
X-9728572Y-7363855D01*
X-9728572Y-7363855D02*
X-9728572Y-6563855D01*
X-9728572Y-6563855D02*
X-10109524Y-6563855D01*
X-3000000Y25136145D02*
X-2619048Y25136145D01*
X-2619048Y25136145D02*
X-2619048Y25936145D01*
X-3266667Y25136145D02*
X-3266667Y25936145D01*
X-4066666Y25898050D02*
X-3990476Y25936145D01*
X-3990476Y25936145D02*
X-3876190Y25936145D01*
X-3876190Y25936145D02*
X-3761904Y25898050D01*
X-3761904Y25898050D02*
X-3685714Y25821860D01*
X-3685714Y25821860D02*
X-3647619Y25745669D01*
X-3647619Y25745669D02*
X-3609523Y25593288D01*
X-3609523Y25593288D02*
X-3609523Y25479002D01*
X-3609523Y25479002D02*
X-3647619Y25326621D01*
X-3647619Y25326621D02*
X-3685714Y25250431D01*
X-3685714Y25250431D02*
X-3761904Y25174240D01*
X-3761904Y25174240D02*
X-3876190Y25136145D01*
X-3876190Y25136145D02*
X-3952381Y25136145D01*
X-3952381Y25136145D02*
X-4066666Y25174240D01*
X-4066666Y25174240D02*
X-4104762Y25212336D01*
X-4104762Y25212336D02*
X-4104762Y25479002D01*
X-4104762Y25479002D02*
X-3952381Y25479002D01*
X-4447619Y25136145D02*
X-4447619Y25936145D01*
X-4447619Y25555193D02*
X-4904762Y25555193D01*
X-4904762Y25136145D02*
X-4904762Y25936145D01*
X-5171428Y25936145D02*
X-5628571Y25936145D01*
X-5399999Y25136145D02*
X-5399999Y25936145D01*
X-5857142Y25174240D02*
X-5971428Y25136145D01*
X-5971428Y25136145D02*
X-6161904Y25136145D01*
X-6161904Y25136145D02*
X-6238095Y25174240D01*
X-6238095Y25174240D02*
X-6276190Y25212336D01*
X-6276190Y25212336D02*
X-6314285Y25288526D01*
X-6314285Y25288526D02*
X-6314285Y25364717D01*
X-6314285Y25364717D02*
X-6276190Y25440907D01*
X-6276190Y25440907D02*
X-6238095Y25479002D01*
X-6238095Y25479002D02*
X-6161904Y25517098D01*
X-6161904Y25517098D02*
X-6009523Y25555193D01*
X-6009523Y25555193D02*
X-5933333Y25593288D01*
X-5933333Y25593288D02*
X-5895238Y25631383D01*
X-5895238Y25631383D02*
X-5857142Y25707574D01*
X-5857142Y25707574D02*
X-5857142Y25783764D01*
X-5857142Y25783764D02*
X-5895238Y25859955D01*
X-5895238Y25859955D02*
X-5933333Y25898050D01*
X-5933333Y25898050D02*
X-6009523Y25936145D01*
X-6009523Y25936145D02*
X-6200000Y25936145D01*
X-6200000Y25936145D02*
X-6314285Y25898050D01*
X-6657143Y25212336D02*
X-6695238Y25174240D01*
X-6695238Y25174240D02*
X-6657143Y25136145D01*
X-6657143Y25136145D02*
X-6619047Y25174240D01*
X-6619047Y25174240D02*
X-6657143Y25212336D01*
X-6657143Y25212336D02*
X-6657143Y25136145D01*
X-6657143Y25631383D02*
X-6695238Y25593288D01*
X-6695238Y25593288D02*
X-6657143Y25555193D01*
X-6657143Y25555193D02*
X-6619047Y25593288D01*
X-6619047Y25593288D02*
X-6657143Y25631383D01*
X-6657143Y25631383D02*
X-6657143Y25555193D01*
X-8028571Y25136145D02*
X-7647619Y25136145D01*
X-7647619Y25136145D02*
X-7647619Y25936145D01*
X-8866666Y25174240D02*
X-8980952Y25136145D01*
X-8980952Y25136145D02*
X-9171428Y25136145D01*
X-9171428Y25136145D02*
X-9247619Y25174240D01*
X-9247619Y25174240D02*
X-9285714Y25212336D01*
X-9285714Y25212336D02*
X-9323809Y25288526D01*
X-9323809Y25288526D02*
X-9323809Y25364717D01*
X-9323809Y25364717D02*
X-9285714Y25440907D01*
X-9285714Y25440907D02*
X-9247619Y25479002D01*
X-9247619Y25479002D02*
X-9171428Y25517098D01*
X-9171428Y25517098D02*
X-9019047Y25555193D01*
X-9019047Y25555193D02*
X-8942857Y25593288D01*
X-8942857Y25593288D02*
X-8904762Y25631383D01*
X-8904762Y25631383D02*
X-8866666Y25707574D01*
X-8866666Y25707574D02*
X-8866666Y25783764D01*
X-8866666Y25783764D02*
X-8904762Y25859955D01*
X-8904762Y25859955D02*
X-8942857Y25898050D01*
X-8942857Y25898050D02*
X-9019047Y25936145D01*
X-9019047Y25936145D02*
X-9209524Y25936145D01*
X-9209524Y25936145D02*
X-9323809Y25898050D01*
X-9590476Y25936145D02*
X-9780952Y25136145D01*
X-9780952Y25136145D02*
X-9933333Y25707574D01*
X-9933333Y25707574D02*
X-10085714Y25136145D01*
X-10085714Y25136145D02*
X-10276190Y25936145D01*
X-11761905Y25974240D02*
X-11076191Y24945669D01*
X-12638096Y25136145D02*
X-12638096Y25936145D01*
X-12638096Y25936145D02*
X-13095239Y25136145D01*
X-13095239Y25136145D02*
X-13095239Y25936145D01*
X-14047619Y25174240D02*
X-14161905Y25136145D01*
X-14161905Y25136145D02*
X-14352381Y25136145D01*
X-14352381Y25136145D02*
X-14428572Y25174240D01*
X-14428572Y25174240D02*
X-14466667Y25212336D01*
X-14466667Y25212336D02*
X-14504762Y25288526D01*
X-14504762Y25288526D02*
X-14504762Y25364717D01*
X-14504762Y25364717D02*
X-14466667Y25440907D01*
X-14466667Y25440907D02*
X-14428572Y25479002D01*
X-14428572Y25479002D02*
X-14352381Y25517098D01*
X-14352381Y25517098D02*
X-14200000Y25555193D01*
X-14200000Y25555193D02*
X-14123810Y25593288D01*
X-14123810Y25593288D02*
X-14085715Y25631383D01*
X-14085715Y25631383D02*
X-14047619Y25707574D01*
X-14047619Y25707574D02*
X-14047619Y25783764D01*
X-14047619Y25783764D02*
X-14085715Y25859955D01*
X-14085715Y25859955D02*
X-14123810Y25898050D01*
X-14123810Y25898050D02*
X-14200000Y25936145D01*
X-14200000Y25936145D02*
X-14390477Y25936145D01*
X-14390477Y25936145D02*
X-14504762Y25898050D01*
X-14771429Y25936145D02*
X-14961905Y25136145D01*
X-14961905Y25136145D02*
X-15114286Y25707574D01*
X-15114286Y25707574D02*
X-15266667Y25136145D01*
X-15266667Y25136145D02*
X-15457143Y25936145D01*
X-3833334Y-7363855D02*
X-3452382Y-7363855D01*
X-3452382Y-7363855D02*
X-3452382Y-6563855D01*
X-4709525Y-7363855D02*
X-4709525Y-6563855D01*
X-5090477Y-7363855D02*
X-5090477Y-6563855D01*
X-5090477Y-6563855D02*
X-5547620Y-7363855D01*
X-5547620Y-7363855D02*
X-5547620Y-6563855D01*
X11123811Y18169479D02*
X11123811Y17521860D01*
X11123811Y17521860D02*
X11161906Y17445669D01*
X11161906Y17445669D02*
X11200002Y17407574D01*
X11200002Y17407574D02*
X11276192Y17369479D01*
X11276192Y17369479D02*
X11390478Y17369479D01*
X11390478Y17369479D02*
X11466668Y17407574D01*
X11123811Y17674240D02*
X11200002Y17636145D01*
X11200002Y17636145D02*
X11352383Y17636145D01*
X11352383Y17636145D02*
X11428573Y17674240D01*
X11428573Y17674240D02*
X11466668Y17712336D01*
X11466668Y17712336D02*
X11504764Y17788526D01*
X11504764Y17788526D02*
X11504764Y18017098D01*
X11504764Y18017098D02*
X11466668Y18093288D01*
X11466668Y18093288D02*
X11428573Y18131383D01*
X11428573Y18131383D02*
X11352383Y18169479D01*
X11352383Y18169479D02*
X11200002Y18169479D01*
X11200002Y18169479D02*
X11123811Y18131383D01*
X10742858Y17636145D02*
X10742858Y18169479D01*
X10742858Y18436145D02*
X10780954Y18398050D01*
X10780954Y18398050D02*
X10742858Y18359955D01*
X10742858Y18359955D02*
X10704763Y18398050D01*
X10704763Y18398050D02*
X10742858Y18436145D01*
X10742858Y18436145D02*
X10742858Y18359955D01*
X10476192Y18169479D02*
X10171430Y18169479D01*
X10361906Y18436145D02*
X10361906Y17750431D01*
X10361906Y17750431D02*
X10323811Y17674240D01*
X10323811Y17674240D02*
X10247621Y17636145D01*
X10247621Y17636145D02*
X10171430Y17636145D01*
X9904763Y17636145D02*
X9904763Y18436145D01*
X9561906Y17636145D02*
X9561906Y18055193D01*
X9561906Y18055193D02*
X9600001Y18131383D01*
X9600001Y18131383D02*
X9676192Y18169479D01*
X9676192Y18169479D02*
X9790478Y18169479D01*
X9790478Y18169479D02*
X9866668Y18131383D01*
X9866668Y18131383D02*
X9904763Y18093288D01*
X8838096Y18169479D02*
X8838096Y17636145D01*
X9180953Y18169479D02*
X9180953Y17750431D01*
X9180953Y17750431D02*
X9142858Y17674240D01*
X9142858Y17674240D02*
X9066668Y17636145D01*
X9066668Y17636145D02*
X8952382Y17636145D01*
X8952382Y17636145D02*
X8876191Y17674240D01*
X8876191Y17674240D02*
X8838096Y17712336D01*
X8457143Y17636145D02*
X8457143Y18436145D01*
X8457143Y18131383D02*
X8380953Y18169479D01*
X8380953Y18169479D02*
X8228572Y18169479D01*
X8228572Y18169479D02*
X8152381Y18131383D01*
X8152381Y18131383D02*
X8114286Y18093288D01*
X8114286Y18093288D02*
X8076191Y18017098D01*
X8076191Y18017098D02*
X8076191Y17788526D01*
X8076191Y17788526D02*
X8114286Y17712336D01*
X8114286Y17712336D02*
X8152381Y17674240D01*
X8152381Y17674240D02*
X8228572Y17636145D01*
X8228572Y17636145D02*
X8380953Y17636145D01*
X8380953Y17636145D02*
X8457143Y17674240D01*
X7733333Y17712336D02*
X7695238Y17674240D01*
X7695238Y17674240D02*
X7733333Y17636145D01*
X7733333Y17636145D02*
X7771429Y17674240D01*
X7771429Y17674240D02*
X7733333Y17712336D01*
X7733333Y17712336D02*
X7733333Y17636145D01*
X7009524Y17674240D02*
X7085715Y17636145D01*
X7085715Y17636145D02*
X7238096Y17636145D01*
X7238096Y17636145D02*
X7314286Y17674240D01*
X7314286Y17674240D02*
X7352381Y17712336D01*
X7352381Y17712336D02*
X7390477Y17788526D01*
X7390477Y17788526D02*
X7390477Y18017098D01*
X7390477Y18017098D02*
X7352381Y18093288D01*
X7352381Y18093288D02*
X7314286Y18131383D01*
X7314286Y18131383D02*
X7238096Y18169479D01*
X7238096Y18169479D02*
X7085715Y18169479D01*
X7085715Y18169479D02*
X7009524Y18131383D01*
X6552382Y17636145D02*
X6628572Y17674240D01*
X6628572Y17674240D02*
X6666667Y17712336D01*
X6666667Y17712336D02*
X6704763Y17788526D01*
X6704763Y17788526D02*
X6704763Y18017098D01*
X6704763Y18017098D02*
X6666667Y18093288D01*
X6666667Y18093288D02*
X6628572Y18131383D01*
X6628572Y18131383D02*
X6552382Y18169479D01*
X6552382Y18169479D02*
X6438096Y18169479D01*
X6438096Y18169479D02*
X6361905Y18131383D01*
X6361905Y18131383D02*
X6323810Y18093288D01*
X6323810Y18093288D02*
X6285715Y18017098D01*
X6285715Y18017098D02*
X6285715Y17788526D01*
X6285715Y17788526D02*
X6323810Y17712336D01*
X6323810Y17712336D02*
X6361905Y17674240D01*
X6361905Y17674240D02*
X6438096Y17636145D01*
X6438096Y17636145D02*
X6552382Y17636145D01*
X5942857Y17636145D02*
X5942857Y18169479D01*
X5942857Y18093288D02*
X5904762Y18131383D01*
X5904762Y18131383D02*
X5828572Y18169479D01*
X5828572Y18169479D02*
X5714286Y18169479D01*
X5714286Y18169479D02*
X5638095Y18131383D01*
X5638095Y18131383D02*
X5600000Y18055193D01*
X5600000Y18055193D02*
X5600000Y17636145D01*
X5600000Y18055193D02*
X5561905Y18131383D01*
X5561905Y18131383D02*
X5485714Y18169479D01*
X5485714Y18169479D02*
X5371429Y18169479D01*
X5371429Y18169479D02*
X5295238Y18131383D01*
X5295238Y18131383D02*
X5257143Y18055193D01*
X5257143Y18055193D02*
X5257143Y17636145D01*
X4304762Y18474240D02*
X4990476Y17445669D01*
X3695238Y17636145D02*
X3695238Y18055193D01*
X3695238Y18055193D02*
X3733333Y18131383D01*
X3733333Y18131383D02*
X3809524Y18169479D01*
X3809524Y18169479D02*
X3961905Y18169479D01*
X3961905Y18169479D02*
X4038095Y18131383D01*
X3695238Y17674240D02*
X3771429Y17636145D01*
X3771429Y17636145D02*
X3961905Y17636145D01*
X3961905Y17636145D02*
X4038095Y17674240D01*
X4038095Y17674240D02*
X4076191Y17750431D01*
X4076191Y17750431D02*
X4076191Y17826621D01*
X4076191Y17826621D02*
X4038095Y17902812D01*
X4038095Y17902812D02*
X3961905Y17940907D01*
X3961905Y17940907D02*
X3771429Y17940907D01*
X3771429Y17940907D02*
X3695238Y17979002D01*
X3314285Y18169479D02*
X3314285Y17636145D01*
X3314285Y18093288D02*
X3276190Y18131383D01*
X3276190Y18131383D02*
X3200000Y18169479D01*
X3200000Y18169479D02*
X3085714Y18169479D01*
X3085714Y18169479D02*
X3009523Y18131383D01*
X3009523Y18131383D02*
X2971428Y18055193D01*
X2971428Y18055193D02*
X2971428Y17636145D01*
X2704761Y18169479D02*
X2399999Y18169479D01*
X2590475Y18436145D02*
X2590475Y17750431D01*
X2590475Y17750431D02*
X2552380Y17674240D01*
X2552380Y17674240D02*
X2476190Y17636145D01*
X2476190Y17636145D02*
X2399999Y17636145D01*
X1828570Y17674240D02*
X1904761Y17636145D01*
X1904761Y17636145D02*
X2057142Y17636145D01*
X2057142Y17636145D02*
X2133332Y17674240D01*
X2133332Y17674240D02*
X2171428Y17750431D01*
X2171428Y17750431D02*
X2171428Y18055193D01*
X2171428Y18055193D02*
X2133332Y18131383D01*
X2133332Y18131383D02*
X2057142Y18169479D01*
X2057142Y18169479D02*
X1904761Y18169479D01*
X1904761Y18169479D02*
X1828570Y18131383D01*
X1828570Y18131383D02*
X1790475Y18055193D01*
X1790475Y18055193D02*
X1790475Y17979002D01*
X1790475Y17979002D02*
X2171428Y17902812D01*
X1523809Y18169479D02*
X1333333Y17636145D01*
X1333333Y17636145D02*
X1142856Y18169479D01*
X533332Y17674240D02*
X609523Y17636145D01*
X609523Y17636145D02*
X761904Y17636145D01*
X761904Y17636145D02*
X838094Y17674240D01*
X838094Y17674240D02*
X876190Y17750431D01*
X876190Y17750431D02*
X876190Y18055193D01*
X876190Y18055193D02*
X838094Y18131383D01*
X838094Y18131383D02*
X761904Y18169479D01*
X761904Y18169479D02*
X609523Y18169479D01*
X609523Y18169479D02*
X533332Y18131383D01*
X533332Y18131383D02*
X495237Y18055193D01*
X495237Y18055193D02*
X495237Y17979002D01*
X495237Y17979002D02*
X876190Y17902812D01*
X152380Y18169479D02*
X152380Y17636145D01*
X152380Y18093288D02*
X114285Y18131383D01*
X114285Y18131383D02*
X38095Y18169479D01*
X38095Y18169479D02*
X-76191Y18169479D01*
X-76191Y18169479D02*
X-152382Y18131383D01*
X-152382Y18131383D02*
X-190477Y18055193D01*
X-190477Y18055193D02*
X-190477Y17636145D01*
X-533334Y17674240D02*
X-609525Y17636145D01*
X-609525Y17636145D02*
X-761906Y17636145D01*
X-761906Y17636145D02*
X-838096Y17674240D01*
X-838096Y17674240D02*
X-876192Y17750431D01*
X-876192Y17750431D02*
X-876192Y17788526D01*
X-876192Y17788526D02*
X-838096Y17864717D01*
X-838096Y17864717D02*
X-761906Y17902812D01*
X-761906Y17902812D02*
X-647620Y17902812D01*
X-647620Y17902812D02*
X-571430Y17940907D01*
X-571430Y17940907D02*
X-533334Y18017098D01*
X-533334Y18017098D02*
X-533334Y18055193D01*
X-533334Y18055193D02*
X-571430Y18131383D01*
X-571430Y18131383D02*
X-647620Y18169479D01*
X-647620Y18169479D02*
X-761906Y18169479D01*
X-761906Y18169479D02*
X-838096Y18131383D01*
X-1790477Y18474240D02*
X-1104763Y17445669D01*
X-2019048Y17674240D02*
X-2095239Y17636145D01*
X-2095239Y17636145D02*
X-2247620Y17636145D01*
X-2247620Y17636145D02*
X-2323810Y17674240D01*
X-2323810Y17674240D02*
X-2361906Y17750431D01*
X-2361906Y17750431D02*
X-2361906Y17788526D01*
X-2361906Y17788526D02*
X-2323810Y17864717D01*
X-2323810Y17864717D02*
X-2247620Y17902812D01*
X-2247620Y17902812D02*
X-2133334Y17902812D01*
X-2133334Y17902812D02*
X-2057144Y17940907D01*
X-2057144Y17940907D02*
X-2019048Y18017098D01*
X-2019048Y18017098D02*
X-2019048Y18055193D01*
X-2019048Y18055193D02*
X-2057144Y18131383D01*
X-2057144Y18131383D02*
X-2133334Y18169479D01*
X-2133334Y18169479D02*
X-2247620Y18169479D01*
X-2247620Y18169479D02*
X-2323810Y18131383D01*
X-2704763Y17636145D02*
X-2704763Y18169479D01*
X-2704763Y18093288D02*
X-2742858Y18131383D01*
X-2742858Y18131383D02*
X-2819048Y18169479D01*
X-2819048Y18169479D02*
X-2933334Y18169479D01*
X-2933334Y18169479D02*
X-3009525Y18131383D01*
X-3009525Y18131383D02*
X-3047620Y18055193D01*
X-3047620Y18055193D02*
X-3047620Y17636145D01*
X-3047620Y18055193D02*
X-3085715Y18131383D01*
X-3085715Y18131383D02*
X-3161906Y18169479D01*
X-3161906Y18169479D02*
X-3276191Y18169479D01*
X-3276191Y18169479D02*
X-3352382Y18131383D01*
X-3352382Y18131383D02*
X-3390477Y18055193D01*
X-3390477Y18055193D02*
X-3390477Y17636145D01*
X-4114287Y17636145D02*
X-4114287Y18055193D01*
X-4114287Y18055193D02*
X-4076192Y18131383D01*
X-4076192Y18131383D02*
X-4000001Y18169479D01*
X-4000001Y18169479D02*
X-3847620Y18169479D01*
X-3847620Y18169479D02*
X-3771430Y18131383D01*
X-4114287Y17674240D02*
X-4038096Y17636145D01*
X-4038096Y17636145D02*
X-3847620Y17636145D01*
X-3847620Y17636145D02*
X-3771430Y17674240D01*
X-3771430Y17674240D02*
X-3733334Y17750431D01*
X-3733334Y17750431D02*
X-3733334Y17826621D01*
X-3733334Y17826621D02*
X-3771430Y17902812D01*
X-3771430Y17902812D02*
X-3847620Y17940907D01*
X-3847620Y17940907D02*
X-4038096Y17940907D01*
X-4038096Y17940907D02*
X-4114287Y17979002D01*
X-4495240Y17636145D02*
X-4495240Y18169479D01*
X-4495240Y18017098D02*
X-4533335Y18093288D01*
X-4533335Y18093288D02*
X-4571430Y18131383D01*
X-4571430Y18131383D02*
X-4647621Y18169479D01*
X-4647621Y18169479D02*
X-4723811Y18169479D01*
X-4876192Y18169479D02*
X-5180954Y18169479D01*
X-4990478Y18436145D02*
X-4990478Y17750431D01*
X-4990478Y17750431D02*
X-5028573Y17674240D01*
X-5028573Y17674240D02*
X-5104763Y17636145D01*
X-5104763Y17636145D02*
X-5180954Y17636145D01*
X-5447621Y17940907D02*
X-6057144Y17940907D01*
X-6361906Y18169479D02*
X-6514287Y17636145D01*
X-6514287Y17636145D02*
X-6666668Y18017098D01*
X-6666668Y18017098D02*
X-6819049Y17636145D01*
X-6819049Y17636145D02*
X-6971430Y18169479D01*
X-7619049Y17636145D02*
X-7619049Y18055193D01*
X-7619049Y18055193D02*
X-7580954Y18131383D01*
X-7580954Y18131383D02*
X-7504763Y18169479D01*
X-7504763Y18169479D02*
X-7352382Y18169479D01*
X-7352382Y18169479D02*
X-7276192Y18131383D01*
X-7619049Y17674240D02*
X-7542858Y17636145D01*
X-7542858Y17636145D02*
X-7352382Y17636145D01*
X-7352382Y17636145D02*
X-7276192Y17674240D01*
X-7276192Y17674240D02*
X-7238096Y17750431D01*
X-7238096Y17750431D02*
X-7238096Y17826621D01*
X-7238096Y17826621D02*
X-7276192Y17902812D01*
X-7276192Y17902812D02*
X-7352382Y17940907D01*
X-7352382Y17940907D02*
X-7542858Y17940907D01*
X-7542858Y17940907D02*
X-7619049Y17979002D01*
X-8114287Y17636145D02*
X-8038097Y17674240D01*
X-8038097Y17674240D02*
X-8000002Y17750431D01*
X-8000002Y17750431D02*
X-8000002Y18436145D01*
X-8533335Y17636145D02*
X-8457145Y17674240D01*
X-8457145Y17674240D02*
X-8419050Y17750431D01*
X-8419050Y17750431D02*
X-8419050Y18436145D01*
X-8838098Y18169479D02*
X-8838098Y17369479D01*
X-8838098Y18131383D02*
X-8914288Y18169479D01*
X-8914288Y18169479D02*
X-9066669Y18169479D01*
X-9066669Y18169479D02*
X-9142860Y18131383D01*
X-9142860Y18131383D02*
X-9180955Y18093288D01*
X-9180955Y18093288D02*
X-9219050Y18017098D01*
X-9219050Y18017098D02*
X-9219050Y17788526D01*
X-9219050Y17788526D02*
X-9180955Y17712336D01*
X-9180955Y17712336D02*
X-9142860Y17674240D01*
X-9142860Y17674240D02*
X-9066669Y17636145D01*
X-9066669Y17636145D02*
X-8914288Y17636145D01*
X-8914288Y17636145D02*
X-8838098Y17674240D01*
X-9676193Y17636145D02*
X-9600003Y17674240D01*
X-9600003Y17674240D02*
X-9561908Y17750431D01*
X-9561908Y17750431D02*
X-9561908Y18436145D01*
X-10323813Y17636145D02*
X-10323813Y18055193D01*
X-10323813Y18055193D02*
X-10285718Y18131383D01*
X-10285718Y18131383D02*
X-10209527Y18169479D01*
X-10209527Y18169479D02*
X-10057146Y18169479D01*
X-10057146Y18169479D02*
X-9980956Y18131383D01*
X-10323813Y17674240D02*
X-10247622Y17636145D01*
X-10247622Y17636145D02*
X-10057146Y17636145D01*
X-10057146Y17636145D02*
X-9980956Y17674240D01*
X-9980956Y17674240D02*
X-9942860Y17750431D01*
X-9942860Y17750431D02*
X-9942860Y17826621D01*
X-9942860Y17826621D02*
X-9980956Y17902812D01*
X-9980956Y17902812D02*
X-10057146Y17940907D01*
X-10057146Y17940907D02*
X-10247622Y17940907D01*
X-10247622Y17940907D02*
X-10323813Y17979002D01*
X-10590480Y18169479D02*
X-10895242Y18169479D01*
X-10704766Y18436145D02*
X-10704766Y17750431D01*
X-10704766Y17750431D02*
X-10742861Y17674240D01*
X-10742861Y17674240D02*
X-10819051Y17636145D01*
X-10819051Y17636145D02*
X-10895242Y17636145D01*
X-11466671Y17674240D02*
X-11390480Y17636145D01*
X-11390480Y17636145D02*
X-11238099Y17636145D01*
X-11238099Y17636145D02*
X-11161909Y17674240D01*
X-11161909Y17674240D02*
X-11123813Y17750431D01*
X-11123813Y17750431D02*
X-11123813Y18055193D01*
X-11123813Y18055193D02*
X-11161909Y18131383D01*
X-11161909Y18131383D02*
X-11238099Y18169479D01*
X-11238099Y18169479D02*
X-11390480Y18169479D01*
X-11390480Y18169479D02*
X-11466671Y18131383D01*
X-11466671Y18131383D02*
X-11504766Y18055193D01*
X-11504766Y18055193D02*
X-11504766Y17979002D01*
X-11504766Y17979002D02*
X-11123813Y17902812D01*
X1395238Y-7363855D02*
X1776190Y-7363855D01*
X1776190Y-7363855D02*
X1776190Y-6563855D01*
X557143Y-7325760D02*
X442857Y-7363855D01*
X442857Y-7363855D02*
X252381Y-7363855D01*
X252381Y-7363855D02*
X176190Y-7325760D01*
X176190Y-7325760D02*
X138095Y-7287664D01*
X138095Y-7287664D02*
X100000Y-7211474D01*
X100000Y-7211474D02*
X100000Y-7135283D01*
X100000Y-7135283D02*
X138095Y-7059093D01*
X138095Y-7059093D02*
X176190Y-7020998D01*
X176190Y-7020998D02*
X252381Y-6982902D01*
X252381Y-6982902D02*
X404762Y-6944807D01*
X404762Y-6944807D02*
X480952Y-6906712D01*
X480952Y-6906712D02*
X519047Y-6868617D01*
X519047Y-6868617D02*
X557143Y-6792426D01*
X557143Y-6792426D02*
X557143Y-6716236D01*
X557143Y-6716236D02*
X519047Y-6640045D01*
X519047Y-6640045D02*
X480952Y-6601950D01*
X480952Y-6601950D02*
X404762Y-6563855D01*
X404762Y-6563855D02*
X214285Y-6563855D01*
X214285Y-6563855D02*
X100000Y-6601950D01*
X-166667Y-6563855D02*
X-357143Y-7363855D01*
X-357143Y-7363855D02*
X-509524Y-6792426D01*
X-509524Y-6792426D02*
X-661905Y-7363855D01*
X-661905Y-7363855D02*
X-852381Y-6563855D01*
X6642856Y-7363855D02*
X6642856Y-6563855D01*
X6642856Y-6563855D02*
X6185713Y-7363855D01*
X6185713Y-7363855D02*
X6185713Y-6563855D01*
X5195237Y-7363855D02*
X5195237Y-6563855D01*
X4814285Y-7363855D02*
X4814285Y-6563855D01*
X4814285Y-6563855D02*
X4357142Y-7363855D01*
X4357142Y-7363855D02*
X4357142Y-6563855D01*
X11871428Y-7363855D02*
X11871428Y-6563855D01*
X11871428Y-6563855D02*
X11414285Y-7363855D01*
X11414285Y-7363855D02*
X11414285Y-6563855D01*
X10461905Y-7325760D02*
X10347619Y-7363855D01*
X10347619Y-7363855D02*
X10157143Y-7363855D01*
X10157143Y-7363855D02*
X10080952Y-7325760D01*
X10080952Y-7325760D02*
X10042857Y-7287664D01*
X10042857Y-7287664D02*
X10004762Y-7211474D01*
X10004762Y-7211474D02*
X10004762Y-7135283D01*
X10004762Y-7135283D02*
X10042857Y-7059093D01*
X10042857Y-7059093D02*
X10080952Y-7020998D01*
X10080952Y-7020998D02*
X10157143Y-6982902D01*
X10157143Y-6982902D02*
X10309524Y-6944807D01*
X10309524Y-6944807D02*
X10385714Y-6906712D01*
X10385714Y-6906712D02*
X10423809Y-6868617D01*
X10423809Y-6868617D02*
X10461905Y-6792426D01*
X10461905Y-6792426D02*
X10461905Y-6716236D01*
X10461905Y-6716236D02*
X10423809Y-6640045D01*
X10423809Y-6640045D02*
X10385714Y-6601950D01*
X10385714Y-6601950D02*
X10309524Y-6563855D01*
X10309524Y-6563855D02*
X10119047Y-6563855D01*
X10119047Y-6563855D02*
X10004762Y-6601950D01*
X9738095Y-6563855D02*
X9547619Y-7363855D01*
X9547619Y-7363855D02*
X9395238Y-6792426D01*
X9395238Y-6792426D02*
X9242857Y-7363855D01*
X9242857Y-7363855D02*
X9052381Y-6563855D01*
X14885715Y27859955D02*
X14847619Y27898050D01*
X14847619Y27898050D02*
X14771429Y27936145D01*
X14771429Y27936145D02*
X14580953Y27936145D01*
X14580953Y27936145D02*
X14504762Y27898050D01*
X14504762Y27898050D02*
X14466667Y27859955D01*
X14466667Y27859955D02*
X14428572Y27783764D01*
X14428572Y27783764D02*
X14428572Y27707574D01*
X14428572Y27707574D02*
X14466667Y27593288D01*
X14466667Y27593288D02*
X14923810Y27136145D01*
X14923810Y27136145D02*
X14428572Y27136145D01*
X13933333Y27936145D02*
X13857143Y27936145D01*
X13857143Y27936145D02*
X13780952Y27898050D01*
X13780952Y27898050D02*
X13742857Y27859955D01*
X13742857Y27859955D02*
X13704762Y27783764D01*
X13704762Y27783764D02*
X13666667Y27631383D01*
X13666667Y27631383D02*
X13666667Y27440907D01*
X13666667Y27440907D02*
X13704762Y27288526D01*
X13704762Y27288526D02*
X13742857Y27212336D01*
X13742857Y27212336D02*
X13780952Y27174240D01*
X13780952Y27174240D02*
X13857143Y27136145D01*
X13857143Y27136145D02*
X13933333Y27136145D01*
X13933333Y27136145D02*
X14009524Y27174240D01*
X14009524Y27174240D02*
X14047619Y27212336D01*
X14047619Y27212336D02*
X14085714Y27288526D01*
X14085714Y27288526D02*
X14123810Y27440907D01*
X14123810Y27440907D02*
X14123810Y27631383D01*
X14123810Y27631383D02*
X14085714Y27783764D01*
X14085714Y27783764D02*
X14047619Y27859955D01*
X14047619Y27859955D02*
X14009524Y27898050D01*
X14009524Y27898050D02*
X13933333Y27936145D01*
X13361905Y27859955D02*
X13323809Y27898050D01*
X13323809Y27898050D02*
X13247619Y27936145D01*
X13247619Y27936145D02*
X13057143Y27936145D01*
X13057143Y27936145D02*
X12980952Y27898050D01*
X12980952Y27898050D02*
X12942857Y27859955D01*
X12942857Y27859955D02*
X12904762Y27783764D01*
X12904762Y27783764D02*
X12904762Y27707574D01*
X12904762Y27707574D02*
X12942857Y27593288D01*
X12942857Y27593288D02*
X13400000Y27136145D01*
X13400000Y27136145D02*
X12904762Y27136145D01*
X12219047Y27936145D02*
X12371428Y27936145D01*
X12371428Y27936145D02*
X12447619Y27898050D01*
X12447619Y27898050D02*
X12485714Y27859955D01*
X12485714Y27859955D02*
X12561904Y27745669D01*
X12561904Y27745669D02*
X12600000Y27593288D01*
X12600000Y27593288D02*
X12600000Y27288526D01*
X12600000Y27288526D02*
X12561904Y27212336D01*
X12561904Y27212336D02*
X12523809Y27174240D01*
X12523809Y27174240D02*
X12447619Y27136145D01*
X12447619Y27136145D02*
X12295238Y27136145D01*
X12295238Y27136145D02*
X12219047Y27174240D01*
X12219047Y27174240D02*
X12180952Y27212336D01*
X12180952Y27212336D02*
X12142857Y27288526D01*
X12142857Y27288526D02*
X12142857Y27479002D01*
X12142857Y27479002D02*
X12180952Y27555193D01*
X12180952Y27555193D02*
X12219047Y27593288D01*
X12219047Y27593288D02*
X12295238Y27631383D01*
X12295238Y27631383D02*
X12447619Y27631383D01*
X12447619Y27631383D02*
X12523809Y27593288D01*
X12523809Y27593288D02*
X12561904Y27555193D01*
X12561904Y27555193D02*
X12600000Y27479002D01*
X11799999Y27440907D02*
X11190476Y27440907D01*
X10390476Y27136145D02*
X10847619Y27136145D01*
X10619047Y27136145D02*
X10619047Y27936145D01*
X10619047Y27936145D02*
X10695238Y27821860D01*
X10695238Y27821860D02*
X10771428Y27745669D01*
X10771428Y27745669D02*
X10847619Y27707574D01*
X9895237Y27936145D02*
X9819047Y27936145D01*
X9819047Y27936145D02*
X9742856Y27898050D01*
X9742856Y27898050D02*
X9704761Y27859955D01*
X9704761Y27859955D02*
X9666666Y27783764D01*
X9666666Y27783764D02*
X9628571Y27631383D01*
X9628571Y27631383D02*
X9628571Y27440907D01*
X9628571Y27440907D02*
X9666666Y27288526D01*
X9666666Y27288526D02*
X9704761Y27212336D01*
X9704761Y27212336D02*
X9742856Y27174240D01*
X9742856Y27174240D02*
X9819047Y27136145D01*
X9819047Y27136145D02*
X9895237Y27136145D01*
X9895237Y27136145D02*
X9971428Y27174240D01*
X9971428Y27174240D02*
X10009523Y27212336D01*
X10009523Y27212336D02*
X10047618Y27288526D01*
X10047618Y27288526D02*
X10085714Y27440907D01*
X10085714Y27440907D02*
X10085714Y27631383D01*
X10085714Y27631383D02*
X10047618Y27783764D01*
X10047618Y27783764D02*
X10009523Y27859955D01*
X10009523Y27859955D02*
X9971428Y27898050D01*
X9971428Y27898050D02*
X9895237Y27936145D01*
X9285713Y27440907D02*
X8676190Y27440907D01*
X8142856Y27936145D02*
X8066666Y27936145D01*
X8066666Y27936145D02*
X7990475Y27898050D01*
X7990475Y27898050D02*
X7952380Y27859955D01*
X7952380Y27859955D02*
X7914285Y27783764D01*
X7914285Y27783764D02*
X7876190Y27631383D01*
X7876190Y27631383D02*
X7876190Y27440907D01*
X7876190Y27440907D02*
X7914285Y27288526D01*
X7914285Y27288526D02*
X7952380Y27212336D01*
X7952380Y27212336D02*
X7990475Y27174240D01*
X7990475Y27174240D02*
X8066666Y27136145D01*
X8066666Y27136145D02*
X8142856Y27136145D01*
X8142856Y27136145D02*
X8219047Y27174240D01*
X8219047Y27174240D02*
X8257142Y27212336D01*
X8257142Y27212336D02*
X8295237Y27288526D01*
X8295237Y27288526D02*
X8333333Y27440907D01*
X8333333Y27440907D02*
X8333333Y27631383D01*
X8333333Y27631383D02*
X8295237Y27783764D01*
X8295237Y27783764D02*
X8257142Y27859955D01*
X8257142Y27859955D02*
X8219047Y27898050D01*
X8219047Y27898050D02*
X8142856Y27936145D01*
X7609523Y27936145D02*
X7076189Y27936145D01*
X7076189Y27936145D02*
X7419047Y27136145D01*
X16071428Y-7363855D02*
X16071428Y-6563855D01*
X16071428Y-6563855D02*
X15766666Y-6563855D01*
X15766666Y-6563855D02*
X15690476Y-6601950D01*
X15690476Y-6601950D02*
X15652381Y-6640045D01*
X15652381Y-6640045D02*
X15614285Y-6716236D01*
X15614285Y-6716236D02*
X15614285Y-6830521D01*
X15614285Y-6830521D02*
X15652381Y-6906712D01*
X15652381Y-6906712D02*
X15690476Y-6944807D01*
X15690476Y-6944807D02*
X15766666Y-6982902D01*
X15766666Y-6982902D02*
X16071428Y-6982902D01*
X15271428Y-6944807D02*
X15004762Y-6944807D01*
X14890476Y-7363855D02*
X15271428Y-7363855D01*
X15271428Y-7363855D02*
X15271428Y-6563855D01*
X15271428Y-6563855D02*
X14890476Y-6563855D01*
D11*
X-2476191Y30211848D02*
X-2666667Y29545181D01*
X-2666667Y29545181D02*
X-2857143Y30021372D01*
X-2857143Y30021372D02*
X-3047619Y29545181D01*
X-3047619Y29545181D02*
X-3238095Y30211848D01*
X-3619048Y29545181D02*
X-3619048Y30211848D01*
X-3619048Y30545181D02*
X-3571429Y30497562D01*
X-3571429Y30497562D02*
X-3619048Y30449943D01*
X-3619048Y30449943D02*
X-3666667Y30497562D01*
X-3666667Y30497562D02*
X-3619048Y30545181D01*
X-3619048Y30545181D02*
X-3619048Y30449943D01*
X-4095238Y29545181D02*
X-4095238Y30211848D01*
X-4095238Y30021372D02*
X-4142857Y30116610D01*
X-4142857Y30116610D02*
X-4190476Y30164229D01*
X-4190476Y30164229D02*
X-4285714Y30211848D01*
X-4285714Y30211848D02*
X-4380952Y30211848D01*
X-4714286Y29545181D02*
X-4714286Y30211848D01*
X-4714286Y30545181D02*
X-4666667Y30497562D01*
X-4666667Y30497562D02*
X-4714286Y30449943D01*
X-4714286Y30449943D02*
X-4761905Y30497562D01*
X-4761905Y30497562D02*
X-4714286Y30545181D01*
X-4714286Y30545181D02*
X-4714286Y30449943D01*
X-5190476Y30211848D02*
X-5190476Y29545181D01*
X-5190476Y30116610D02*
X-5238095Y30164229D01*
X-5238095Y30164229D02*
X-5333333Y30211848D01*
X-5333333Y30211848D02*
X-5476190Y30211848D01*
X-5476190Y30211848D02*
X-5571428Y30164229D01*
X-5571428Y30164229D02*
X-5619047Y30068991D01*
X-5619047Y30068991D02*
X-5619047Y29545181D01*
X-6523809Y30211848D02*
X-6523809Y29402324D01*
X-6523809Y29402324D02*
X-6476190Y29307086D01*
X-6476190Y29307086D02*
X-6428571Y29259467D01*
X-6428571Y29259467D02*
X-6333333Y29211848D01*
X-6333333Y29211848D02*
X-6190476Y29211848D01*
X-6190476Y29211848D02*
X-6095238Y29259467D01*
X-6523809Y29592800D02*
X-6428571Y29545181D01*
X-6428571Y29545181D02*
X-6238095Y29545181D01*
X-6238095Y29545181D02*
X-6142857Y29592800D01*
X-6142857Y29592800D02*
X-6095238Y29640420D01*
X-6095238Y29640420D02*
X-6047619Y29735658D01*
X-6047619Y29735658D02*
X-6047619Y30021372D01*
X-6047619Y30021372D02*
X-6095238Y30116610D01*
X-6095238Y30116610D02*
X-6142857Y30164229D01*
X-6142857Y30164229D02*
X-6238095Y30211848D01*
X-6238095Y30211848D02*
X-6428571Y30211848D01*
X-6428571Y30211848D02*
X-6523809Y30164229D01*
X-6761904Y29449943D02*
X-7523809Y29449943D01*
X-7761905Y29545181D02*
X-7761905Y30545181D01*
X-7761905Y30164229D02*
X-7857143Y30211848D01*
X-7857143Y30211848D02*
X-8047619Y30211848D01*
X-8047619Y30211848D02*
X-8142857Y30164229D01*
X-8142857Y30164229D02*
X-8190476Y30116610D01*
X-8190476Y30116610D02*
X-8238095Y30021372D01*
X-8238095Y30021372D02*
X-8238095Y29735658D01*
X-8238095Y29735658D02*
X-8190476Y29640420D01*
X-8190476Y29640420D02*
X-8142857Y29592800D01*
X-8142857Y29592800D02*
X-8047619Y29545181D01*
X-8047619Y29545181D02*
X-7857143Y29545181D01*
X-7857143Y29545181D02*
X-7761905Y29592800D01*
X-8809524Y29545181D02*
X-8714286Y29592800D01*
X-8714286Y29592800D02*
X-8666667Y29640420D01*
X-8666667Y29640420D02*
X-8619048Y29735658D01*
X-8619048Y29735658D02*
X-8619048Y30021372D01*
X-8619048Y30021372D02*
X-8666667Y30116610D01*
X-8666667Y30116610D02*
X-8714286Y30164229D01*
X-8714286Y30164229D02*
X-8809524Y30211848D01*
X-8809524Y30211848D02*
X-8952381Y30211848D01*
X-8952381Y30211848D02*
X-9047619Y30164229D01*
X-9047619Y30164229D02*
X-9095238Y30116610D01*
X-9095238Y30116610D02*
X-9142857Y30021372D01*
X-9142857Y30021372D02*
X-9142857Y29735658D01*
X-9142857Y29735658D02*
X-9095238Y29640420D01*
X-9095238Y29640420D02*
X-9047619Y29592800D01*
X-9047619Y29592800D02*
X-8952381Y29545181D01*
X-8952381Y29545181D02*
X-8809524Y29545181D01*
X-10000000Y29545181D02*
X-10000000Y30068991D01*
X-10000000Y30068991D02*
X-9952381Y30164229D01*
X-9952381Y30164229D02*
X-9857143Y30211848D01*
X-9857143Y30211848D02*
X-9666667Y30211848D01*
X-9666667Y30211848D02*
X-9571429Y30164229D01*
X-10000000Y29592800D02*
X-9904762Y29545181D01*
X-9904762Y29545181D02*
X-9666667Y29545181D01*
X-9666667Y29545181D02*
X-9571429Y29592800D01*
X-9571429Y29592800D02*
X-9523810Y29688039D01*
X-9523810Y29688039D02*
X-9523810Y29783277D01*
X-9523810Y29783277D02*
X-9571429Y29878515D01*
X-9571429Y29878515D02*
X-9666667Y29926134D01*
X-9666667Y29926134D02*
X-9904762Y29926134D01*
X-9904762Y29926134D02*
X-10000000Y29973753D01*
X-10476191Y29545181D02*
X-10476191Y30211848D01*
X-10476191Y30021372D02*
X-10523810Y30116610D01*
X-10523810Y30116610D02*
X-10571429Y30164229D01*
X-10571429Y30164229D02*
X-10666667Y30211848D01*
X-10666667Y30211848D02*
X-10761905Y30211848D01*
X-11523810Y29545181D02*
X-11523810Y30545181D01*
X-11523810Y29592800D02*
X-11428572Y29545181D01*
X-11428572Y29545181D02*
X-11238096Y29545181D01*
X-11238096Y29545181D02*
X-11142858Y29592800D01*
X-11142858Y29592800D02*
X-11095239Y29640420D01*
X-11095239Y29640420D02*
X-11047620Y29735658D01*
X-11047620Y29735658D02*
X-11047620Y30021372D01*
X-11047620Y30021372D02*
X-11095239Y30116610D01*
X-11095239Y30116610D02*
X-11142858Y30164229D01*
X-11142858Y30164229D02*
X-11238096Y30211848D01*
X-11238096Y30211848D02*
X-11428572Y30211848D01*
X-11428572Y30211848D02*
X-11523810Y30164229D01*
X-12666668Y30211848D02*
X-12904763Y29545181D01*
X-12904763Y29545181D02*
X-13142858Y30211848D01*
X-13714287Y30545181D02*
X-13809525Y30545181D01*
X-13809525Y30545181D02*
X-13904763Y30497562D01*
X-13904763Y30497562D02*
X-13952382Y30449943D01*
X-13952382Y30449943D02*
X-14000001Y30354705D01*
X-14000001Y30354705D02*
X-14047620Y30164229D01*
X-14047620Y30164229D02*
X-14047620Y29926134D01*
X-14047620Y29926134D02*
X-14000001Y29735658D01*
X-14000001Y29735658D02*
X-13952382Y29640420D01*
X-13952382Y29640420D02*
X-13904763Y29592800D01*
X-13904763Y29592800D02*
X-13809525Y29545181D01*
X-13809525Y29545181D02*
X-13714287Y29545181D01*
X-13714287Y29545181D02*
X-13619049Y29592800D01*
X-13619049Y29592800D02*
X-13571430Y29640420D01*
X-13571430Y29640420D02*
X-13523811Y29735658D01*
X-13523811Y29735658D02*
X-13476192Y29926134D01*
X-13476192Y29926134D02*
X-13476192Y30164229D01*
X-13476192Y30164229D02*
X-13523811Y30354705D01*
X-13523811Y30354705D02*
X-13571430Y30449943D01*
X-13571430Y30449943D02*
X-13619049Y30497562D01*
X-13619049Y30497562D02*
X-13714287Y30545181D01*
X-14476192Y29640420D02*
X-14523811Y29592800D01*
X-14523811Y29592800D02*
X-14476192Y29545181D01*
X-14476192Y29545181D02*
X-14428573Y29592800D01*
X-14428573Y29592800D02*
X-14476192Y29640420D01*
X-14476192Y29640420D02*
X-14476192Y29545181D01*
X-14857144Y30545181D02*
X-15476191Y30545181D01*
X-15476191Y30545181D02*
X-15142858Y30164229D01*
X-15142858Y30164229D02*
X-15285715Y30164229D01*
X-15285715Y30164229D02*
X-15380953Y30116610D01*
X-15380953Y30116610D02*
X-15428572Y30068991D01*
X-15428572Y30068991D02*
X-15476191Y29973753D01*
X-15476191Y29973753D02*
X-15476191Y29735658D01*
X-15476191Y29735658D02*
X-15428572Y29640420D01*
X-15428572Y29640420D02*
X-15380953Y29592800D01*
X-15380953Y29592800D02*
X-15285715Y29545181D01*
X-15285715Y29545181D02*
X-15000001Y29545181D01*
X-15000001Y29545181D02*
X-14904763Y29592800D01*
X-14904763Y29592800D02*
X-14857144Y29640420D01*
X-1595239Y27045181D02*
X-1595239Y28045181D01*
X-1595239Y28045181D02*
X-1928572Y27330896D01*
X-1928572Y27330896D02*
X-2261905Y28045181D01*
X-2261905Y28045181D02*
X-2261905Y27045181D01*
X-2690477Y27330896D02*
X-3166667Y27330896D01*
X-2595239Y27045181D02*
X-2928572Y28045181D01*
X-2928572Y28045181D02*
X-3261905Y27045181D01*
X-3595239Y27045181D02*
X-3595239Y28045181D01*
X-4071429Y27045181D02*
X-4071429Y28045181D01*
X-4071429Y28045181D02*
X-4642857Y27045181D01*
X-4642857Y27045181D02*
X-4642857Y28045181D01*
X-5071429Y27092800D02*
X-5214286Y27045181D01*
X-5214286Y27045181D02*
X-5452381Y27045181D01*
X-5452381Y27045181D02*
X-5547619Y27092800D01*
X-5547619Y27092800D02*
X-5595238Y27140420D01*
X-5595238Y27140420D02*
X-5642857Y27235658D01*
X-5642857Y27235658D02*
X-5642857Y27330896D01*
X-5642857Y27330896D02*
X-5595238Y27426134D01*
X-5595238Y27426134D02*
X-5547619Y27473753D01*
X-5547619Y27473753D02*
X-5452381Y27521372D01*
X-5452381Y27521372D02*
X-5261905Y27568991D01*
X-5261905Y27568991D02*
X-5166667Y27616610D01*
X-5166667Y27616610D02*
X-5119048Y27664229D01*
X-5119048Y27664229D02*
X-5071429Y27759467D01*
X-5071429Y27759467D02*
X-5071429Y27854705D01*
X-5071429Y27854705D02*
X-5119048Y27949943D01*
X-5119048Y27949943D02*
X-5166667Y27997562D01*
X-5166667Y27997562D02*
X-5261905Y28045181D01*
X-5261905Y28045181D02*
X-5500000Y28045181D01*
X-5500000Y28045181D02*
X-5642857Y27997562D01*
X-6785715Y27949943D02*
X-6833334Y27997562D01*
X-6833334Y27997562D02*
X-6928572Y28045181D01*
X-6928572Y28045181D02*
X-7166667Y28045181D01*
X-7166667Y28045181D02*
X-7261905Y27997562D01*
X-7261905Y27997562D02*
X-7309524Y27949943D01*
X-7309524Y27949943D02*
X-7357143Y27854705D01*
X-7357143Y27854705D02*
X-7357143Y27759467D01*
X-7357143Y27759467D02*
X-7309524Y27616610D01*
X-7309524Y27616610D02*
X-6738096Y27045181D01*
X-6738096Y27045181D02*
X-7357143Y27045181D01*
X-7690477Y28045181D02*
X-8357143Y28045181D01*
X-8357143Y28045181D02*
X-7928572Y27045181D01*
X-8928572Y28045181D02*
X-9023810Y28045181D01*
X-9023810Y28045181D02*
X-9119048Y27997562D01*
X-9119048Y27997562D02*
X-9166667Y27949943D01*
X-9166667Y27949943D02*
X-9214286Y27854705D01*
X-9214286Y27854705D02*
X-9261905Y27664229D01*
X-9261905Y27664229D02*
X-9261905Y27426134D01*
X-9261905Y27426134D02*
X-9214286Y27235658D01*
X-9214286Y27235658D02*
X-9166667Y27140420D01*
X-9166667Y27140420D02*
X-9119048Y27092800D01*
X-9119048Y27092800D02*
X-9023810Y27045181D01*
X-9023810Y27045181D02*
X-8928572Y27045181D01*
X-8928572Y27045181D02*
X-8833334Y27092800D01*
X-8833334Y27092800D02*
X-8785715Y27140420D01*
X-8785715Y27140420D02*
X-8738096Y27235658D01*
X-8738096Y27235658D02*
X-8690477Y27426134D01*
X-8690477Y27426134D02*
X-8690477Y27664229D01*
X-8690477Y27664229D02*
X-8738096Y27854705D01*
X-8738096Y27854705D02*
X-8785715Y27949943D01*
X-8785715Y27949943D02*
X-8833334Y27997562D01*
X-8833334Y27997562D02*
X-8928572Y28045181D01*
X-10309525Y28045181D02*
X-10642858Y27045181D01*
X-10642858Y27045181D02*
X-10976191Y28045181D01*
X-11261906Y27330896D02*
X-11738096Y27330896D01*
X-11166668Y27045181D02*
X-11500001Y28045181D01*
X-11500001Y28045181D02*
X-11833334Y27045181D01*
X-12738096Y27140420D02*
X-12690477Y27092800D01*
X-12690477Y27092800D02*
X-12547620Y27045181D01*
X-12547620Y27045181D02*
X-12452382Y27045181D01*
X-12452382Y27045181D02*
X-12309525Y27092800D01*
X-12309525Y27092800D02*
X-12214287Y27188039D01*
X-12214287Y27188039D02*
X-12166668Y27283277D01*
X-12166668Y27283277D02*
X-12119049Y27473753D01*
X-12119049Y27473753D02*
X-12119049Y27616610D01*
X-12119049Y27616610D02*
X-12166668Y27807086D01*
X-12166668Y27807086D02*
X-12214287Y27902324D01*
X-12214287Y27902324D02*
X-12309525Y27997562D01*
X-12309525Y27997562D02*
X-12452382Y28045181D01*
X-12452382Y28045181D02*
X-12547620Y28045181D01*
X-12547620Y28045181D02*
X-12690477Y27997562D01*
X-12690477Y27997562D02*
X-12738096Y27949943D01*
X-13928573Y27045181D02*
X-13928573Y28045181D01*
X-13928573Y28045181D02*
X-14261906Y27330896D01*
X-14261906Y27330896D02*
X-14595239Y28045181D01*
X-14595239Y28045181D02*
X-14595239Y27045181D01*
X-15023811Y27330896D02*
X-15500001Y27330896D01*
X-14928573Y27045181D02*
X-15261906Y28045181D01*
X-15261906Y28045181D02*
X-15595239Y27045181D01*
X-15833335Y28045181D02*
X-16500001Y27045181D01*
X-16500001Y28045181D02*
X-15833335Y27045181D01*
D10*
G04 #@! TO.C,PS1*
X-18620000Y-9270000D02*
X18620000Y-9270000D01*
X-18620000Y-33510000D02*
X-18620000Y-9270000D01*
X-18620000Y-33510000D02*
X0Y-33510000D01*
X-17240000Y-8890000D02*
X-11240000Y-8890000D01*
X6000000Y-33510000D02*
X18620000Y-33510000D01*
X18620000Y-9270000D02*
X18620000Y-33510000D01*
G04 #@! TO.C,J1*
X19320000Y13220000D02*
X-13320000Y13220000D01*
X-13320000Y-6220000D01*
X19320000Y-6220000D01*
X19320000Y13220000D01*
G04 #@! TD*
%LPC*%
D12*
G04 #@! TO.C,MH2*
X-21000000Y-33500000D03*
G04 #@! TD*
D13*
G04 #@! TO.C,S1*
X-5100000Y14500000D03*
X-5100000Y21500000D03*
X5100000Y14500000D03*
X5100000Y21500000D03*
G04 #@! TD*
D12*
G04 #@! TO.C,MH1*
X-21000000Y33500000D03*
G04 #@! TD*
D14*
G04 #@! TO.C,MH4*
X21000000Y-33500000D03*
G04 #@! TD*
D12*
G04 #@! TO.C,MH3*
X21000000Y24770000D03*
G04 #@! TD*
D15*
G04 #@! TO.C,PS1*
X-15240000Y-12500000D03*
D16*
X-10160000Y-12500000D03*
X15240000Y-12500000D03*
X15240000Y-30280000D03*
X10160000Y-30280000D03*
G04 #@! TD*
D17*
G04 #@! TO.C,J1*
X15500000Y930000D03*
D18*
X15500000Y5930000D03*
X10500000Y930000D03*
X10500000Y5930000D03*
X5500000Y930000D03*
X5500000Y5930000D03*
X500000Y930000D03*
X500000Y5930000D03*
X-4500000Y930000D03*
X-4500000Y5930000D03*
X-9500000Y930000D03*
X-9500000Y5930000D03*
G04 #@! TD*
%LPD*%
M02*
