G04 #@! TF.GenerationSoftware,KiCad,Pcbnew,9.0.9-9.0.9~ubuntu24.04.1*
G04 #@! TF.CreationDate,2026-10-09T05:53:30+00:00*
G04 #@! TF.ProjectId,wiring_board,77697269-6e67-45f6-926f-6172642e6b69,rev?*
G04 #@! TF.SameCoordinates,Original*
G04 #@! TF.FileFunction,Legend,Bot*
G04 #@! TF.FilePolarity,Positive*
%FSLAX46Y46*%
G04 Gerber Fmt 4.6, Leading zero omitted, Abs format (unit mm)*
G04 Created by KiCad (PCBNEW 9.0.9-9.0.9~ubuntu24.04.1) date 2026-10-09 05:53:30*
%MOMM*%
%LPD*%
G01*
G04 APERTURE LIST*
%ADD10C,0.120000*%
%ADD11C,0.150000*%
%ADD12C,2.600000*%
%ADD13C,2.400000*%
%ADD14C,2.200000*%
%ADD15R,2.200000X2.200000*%
%ADD16R,2.000000X2.300000*%
%ADD17C,2.300000*%
G04 APERTURE END LIST*
D10*
X-2885475Y-35027455D02*
X-2885475Y-34227455D01*
X-2885475Y-34227455D02*
X-3190237Y-34227455D01*
X-3190237Y-34227455D02*
X-3266427Y-34265550D01*
X-3266427Y-34265550D02*
X-3304522Y-34303645D01*
X-3304522Y-34303645D02*
X-3342618Y-34379836D01*
X-3342618Y-34379836D02*
X-3342618Y-34494121D01*
X-3342618Y-34494121D02*
X-3304522Y-34570312D01*
X-3304522Y-34570312D02*
X-3266427Y-34608407D01*
X-3266427Y-34608407D02*
X-3190237Y-34646502D01*
X-3190237Y-34646502D02*
X-2885475Y-34646502D01*
X-3647379Y-34989360D02*
X-3761665Y-35027455D01*
X-3761665Y-35027455D02*
X-3952141Y-35027455D01*
X-3952141Y-35027455D02*
X-4028332Y-34989360D01*
X-4028332Y-34989360D02*
X-4066427Y-34951264D01*
X-4066427Y-34951264D02*
X-4104522Y-34875074D01*
X-4104522Y-34875074D02*
X-4104522Y-34798883D01*
X-4104522Y-34798883D02*
X-4066427Y-34722693D01*
X-4066427Y-34722693D02*
X-4028332Y-34684598D01*
X-4028332Y-34684598D02*
X-3952141Y-34646502D01*
X-3952141Y-34646502D02*
X-3799760Y-34608407D01*
X-3799760Y-34608407D02*
X-3723570Y-34570312D01*
X-3723570Y-34570312D02*
X-3685475Y-34532217D01*
X-3685475Y-34532217D02*
X-3647379Y-34456026D01*
X-3647379Y-34456026D02*
X-3647379Y-34379836D01*
X-3647379Y-34379836D02*
X-3685475Y-34303645D01*
X-3685475Y-34303645D02*
X-3723570Y-34265550D01*
X-3723570Y-34265550D02*
X-3799760Y-34227455D01*
X-3799760Y-34227455D02*
X-3990237Y-34227455D01*
X-3990237Y-34227455D02*
X-4104522Y-34265550D01*
X-4866427Y-35027455D02*
X-4409284Y-35027455D01*
X-4637856Y-35027455D02*
X-4637856Y-34227455D01*
X-4637856Y-34227455D02*
X-4561665Y-34341740D01*
X-4561665Y-34341740D02*
X-4485475Y-34417931D01*
X-4485475Y-34417931D02*
X-4409284Y-34456026D01*
X-5818809Y-35027455D02*
X-5818809Y-34227455D01*
X-5818809Y-34227455D02*
X-6085475Y-34798883D01*
X-6085475Y-34798883D02*
X-6352142Y-34227455D01*
X-6352142Y-34227455D02*
X-6352142Y-35027455D01*
X-7037857Y-34989360D02*
X-6961666Y-35027455D01*
X-6961666Y-35027455D02*
X-6809285Y-35027455D01*
X-6809285Y-35027455D02*
X-6733095Y-34989360D01*
X-6733095Y-34989360D02*
X-6694999Y-34913169D01*
X-6694999Y-34913169D02*
X-6694999Y-34608407D01*
X-6694999Y-34608407D02*
X-6733095Y-34532217D01*
X-6733095Y-34532217D02*
X-6809285Y-34494121D01*
X-6809285Y-34494121D02*
X-6961666Y-34494121D01*
X-6961666Y-34494121D02*
X-7037857Y-34532217D01*
X-7037857Y-34532217D02*
X-7075952Y-34608407D01*
X-7075952Y-34608407D02*
X-7075952Y-34684598D01*
X-7075952Y-34684598D02*
X-6694999Y-34760788D01*
X-7761666Y-35027455D02*
X-7761666Y-34608407D01*
X-7761666Y-34608407D02*
X-7723571Y-34532217D01*
X-7723571Y-34532217D02*
X-7647380Y-34494121D01*
X-7647380Y-34494121D02*
X-7494999Y-34494121D01*
X-7494999Y-34494121D02*
X-7418809Y-34532217D01*
X-7761666Y-34989360D02*
X-7685475Y-35027455D01*
X-7685475Y-35027455D02*
X-7494999Y-35027455D01*
X-7494999Y-35027455D02*
X-7418809Y-34989360D01*
X-7418809Y-34989360D02*
X-7380713Y-34913169D01*
X-7380713Y-34913169D02*
X-7380713Y-34836979D01*
X-7380713Y-34836979D02*
X-7418809Y-34760788D01*
X-7418809Y-34760788D02*
X-7494999Y-34722693D01*
X-7494999Y-34722693D02*
X-7685475Y-34722693D01*
X-7685475Y-34722693D02*
X-7761666Y-34684598D01*
X-8142619Y-34494121D02*
X-8142619Y-35027455D01*
X-8142619Y-34570312D02*
X-8180714Y-34532217D01*
X-8180714Y-34532217D02*
X-8256904Y-34494121D01*
X-8256904Y-34494121D02*
X-8371190Y-34494121D01*
X-8371190Y-34494121D02*
X-8447381Y-34532217D01*
X-8447381Y-34532217D02*
X-8485476Y-34608407D01*
X-8485476Y-34608407D02*
X-8485476Y-35027455D01*
X-9399762Y-34227455D02*
X-9590238Y-35027455D01*
X-9590238Y-35027455D02*
X-9742619Y-34456026D01*
X-9742619Y-34456026D02*
X-9895000Y-35027455D01*
X-9895000Y-35027455D02*
X-10085476Y-34227455D01*
X-10695001Y-34989360D02*
X-10618810Y-35027455D01*
X-10618810Y-35027455D02*
X-10466429Y-35027455D01*
X-10466429Y-35027455D02*
X-10390239Y-34989360D01*
X-10390239Y-34989360D02*
X-10352143Y-34913169D01*
X-10352143Y-34913169D02*
X-10352143Y-34608407D01*
X-10352143Y-34608407D02*
X-10390239Y-34532217D01*
X-10390239Y-34532217D02*
X-10466429Y-34494121D01*
X-10466429Y-34494121D02*
X-10618810Y-34494121D01*
X-10618810Y-34494121D02*
X-10695001Y-34532217D01*
X-10695001Y-34532217D02*
X-10733096Y-34608407D01*
X-10733096Y-34608407D02*
X-10733096Y-34684598D01*
X-10733096Y-34684598D02*
X-10352143Y-34760788D01*
X-11190238Y-35027455D02*
X-11114048Y-34989360D01*
X-11114048Y-34989360D02*
X-11075953Y-34913169D01*
X-11075953Y-34913169D02*
X-11075953Y-34227455D01*
X-11609286Y-35027455D02*
X-11533096Y-34989360D01*
X-11533096Y-34989360D02*
X-11495001Y-34913169D01*
X-11495001Y-34913169D02*
X-11495001Y-34227455D01*
X-12523573Y-35027455D02*
X-12523573Y-34227455D01*
X-13361668Y-35027455D02*
X-13095001Y-34646502D01*
X-12904525Y-35027455D02*
X-12904525Y-34227455D01*
X-12904525Y-34227455D02*
X-13209287Y-34227455D01*
X-13209287Y-34227455D02*
X-13285477Y-34265550D01*
X-13285477Y-34265550D02*
X-13323572Y-34303645D01*
X-13323572Y-34303645D02*
X-13361668Y-34379836D01*
X-13361668Y-34379836D02*
X-13361668Y-34494121D01*
X-13361668Y-34494121D02*
X-13323572Y-34570312D01*
X-13323572Y-34570312D02*
X-13285477Y-34608407D01*
X-13285477Y-34608407D02*
X-13209287Y-34646502D01*
X-13209287Y-34646502D02*
X-12904525Y-34646502D01*
X-13704525Y-35027455D02*
X-13704525Y-34227455D01*
X-13704525Y-34227455D02*
X-13971191Y-34798883D01*
X-13971191Y-34798883D02*
X-14237858Y-34227455D01*
X-14237858Y-34227455D02*
X-14237858Y-35027455D01*
X-14618811Y-34722693D02*
X-15228334Y-34722693D01*
X-15761668Y-34227455D02*
X-15837858Y-34227455D01*
X-15837858Y-34227455D02*
X-15914049Y-34265550D01*
X-15914049Y-34265550D02*
X-15952144Y-34303645D01*
X-15952144Y-34303645D02*
X-15990239Y-34379836D01*
X-15990239Y-34379836D02*
X-16028334Y-34532217D01*
X-16028334Y-34532217D02*
X-16028334Y-34722693D01*
X-16028334Y-34722693D02*
X-15990239Y-34875074D01*
X-15990239Y-34875074D02*
X-15952144Y-34951264D01*
X-15952144Y-34951264D02*
X-15914049Y-34989360D01*
X-15914049Y-34989360D02*
X-15837858Y-35027455D01*
X-15837858Y-35027455D02*
X-15761668Y-35027455D01*
X-15761668Y-35027455D02*
X-15685477Y-34989360D01*
X-15685477Y-34989360D02*
X-15647382Y-34951264D01*
X-15647382Y-34951264D02*
X-15609287Y-34875074D01*
X-15609287Y-34875074D02*
X-15571191Y-34722693D01*
X-15571191Y-34722693D02*
X-15571191Y-34532217D01*
X-15571191Y-34532217D02*
X-15609287Y-34379836D01*
X-15609287Y-34379836D02*
X-15647382Y-34303645D01*
X-15647382Y-34303645D02*
X-15685477Y-34265550D01*
X-15685477Y-34265550D02*
X-15761668Y-34227455D01*
X-16295001Y-34227455D02*
X-16790239Y-34227455D01*
X-16790239Y-34227455D02*
X-16523573Y-34532217D01*
X-16523573Y-34532217D02*
X-16637858Y-34532217D01*
X-16637858Y-34532217D02*
X-16714049Y-34570312D01*
X-16714049Y-34570312D02*
X-16752144Y-34608407D01*
X-16752144Y-34608407D02*
X-16790239Y-34684598D01*
X-16790239Y-34684598D02*
X-16790239Y-34875074D01*
X-16790239Y-34875074D02*
X-16752144Y-34951264D01*
X-16752144Y-34951264D02*
X-16714049Y-34989360D01*
X-16714049Y-34989360D02*
X-16637858Y-35027455D01*
X-16637858Y-35027455D02*
X-16409287Y-35027455D01*
X-16409287Y-35027455D02*
X-16333096Y-34989360D01*
X-16333096Y-34989360D02*
X-16295001Y-34951264D01*
X-17133097Y-34722693D02*
X-17742620Y-34722693D01*
X-18504525Y-34227455D02*
X-18123573Y-34227455D01*
X-18123573Y-34227455D02*
X-18085477Y-34608407D01*
X-18085477Y-34608407D02*
X-18123573Y-34570312D01*
X-18123573Y-34570312D02*
X-18199763Y-34532217D01*
X-18199763Y-34532217D02*
X-18390239Y-34532217D01*
X-18390239Y-34532217D02*
X-18466430Y-34570312D01*
X-18466430Y-34570312D02*
X-18504525Y-34608407D01*
X-18504525Y-34608407D02*
X-18542620Y-34684598D01*
X-18542620Y-34684598D02*
X-18542620Y-34875074D01*
X-18542620Y-34875074D02*
X-18504525Y-34951264D01*
X-18504525Y-34951264D02*
X-18466430Y-34989360D01*
X-18466430Y-34989360D02*
X-18390239Y-35027455D01*
X-18390239Y-35027455D02*
X-18199763Y-35027455D01*
X-18199763Y-35027455D02*
X-18123573Y-34989360D01*
X-18123573Y-34989360D02*
X-18085477Y-34951264D01*
X-8928572Y-7363855D02*
X-8928572Y-6563855D01*
X-8928572Y-6563855D02*
X-9233334Y-6563855D01*
X-9233334Y-6563855D02*
X-9309524Y-6601950D01*
X-9309524Y-6601950D02*
X-9347619Y-6640045D01*
X-9347619Y-6640045D02*
X-9385715Y-6716236D01*
X-9385715Y-6716236D02*
X-9385715Y-6830521D01*
X-9385715Y-6830521D02*
X-9347619Y-6906712D01*
X-9347619Y-6906712D02*
X-9309524Y-6944807D01*
X-9309524Y-6944807D02*
X-9233334Y-6982902D01*
X-9233334Y-6982902D02*
X-8928572Y-6982902D01*
X-9728572Y-6944807D02*
X-9995238Y-6944807D01*
X-10109524Y-7363855D02*
X-9728572Y-7363855D01*
X-9728572Y-7363855D02*
X-9728572Y-6563855D01*
X-9728572Y-6563855D02*
X-10109524Y-6563855D01*
X-3833334Y-7363855D02*
X-3452382Y-7363855D01*
X-3452382Y-7363855D02*
X-3452382Y-6563855D01*
X-4709525Y-7363855D02*
X-4709525Y-6563855D01*
X-5090477Y-7363855D02*
X-5090477Y-6563855D01*
X-5090477Y-6563855D02*
X-5547620Y-7363855D01*
X-5547620Y-7363855D02*
X-5547620Y-6563855D01*
X5466666Y15836145D02*
X5847618Y15836145D01*
X5847618Y15836145D02*
X5847618Y16636145D01*
X5047618Y16636145D02*
X4895237Y16636145D01*
X4895237Y16636145D02*
X4819047Y16598050D01*
X4819047Y16598050D02*
X4742856Y16521860D01*
X4742856Y16521860D02*
X4704761Y16369479D01*
X4704761Y16369479D02*
X4704761Y16102812D01*
X4704761Y16102812D02*
X4742856Y15950431D01*
X4742856Y15950431D02*
X4819047Y15874240D01*
X4819047Y15874240D02*
X4895237Y15836145D01*
X4895237Y15836145D02*
X5047618Y15836145D01*
X5047618Y15836145D02*
X5123809Y15874240D01*
X5123809Y15874240D02*
X5199999Y15950431D01*
X5199999Y15950431D02*
X5238095Y16102812D01*
X5238095Y16102812D02*
X5238095Y16369479D01*
X5238095Y16369479D02*
X5199999Y16521860D01*
X5199999Y16521860D02*
X5123809Y16598050D01*
X5123809Y16598050D02*
X5047618Y16636145D01*
X4400000Y16064717D02*
X4019047Y16064717D01*
X4476190Y15836145D02*
X4209523Y16636145D01*
X4209523Y16636145D02*
X3942857Y15836145D01*
X3676190Y15836145D02*
X3676190Y16636145D01*
X3676190Y16636145D02*
X3485714Y16636145D01*
X3485714Y16636145D02*
X3371428Y16598050D01*
X3371428Y16598050D02*
X3295238Y16521860D01*
X3295238Y16521860D02*
X3257143Y16445669D01*
X3257143Y16445669D02*
X3219047Y16293288D01*
X3219047Y16293288D02*
X3219047Y16179002D01*
X3219047Y16179002D02*
X3257143Y16026621D01*
X3257143Y16026621D02*
X3295238Y15950431D01*
X3295238Y15950431D02*
X3371428Y15874240D01*
X3371428Y15874240D02*
X3485714Y15836145D01*
X3485714Y15836145D02*
X3676190Y15836145D01*
X2876190Y15912336D02*
X2838095Y15874240D01*
X2838095Y15874240D02*
X2876190Y15836145D01*
X2876190Y15836145D02*
X2914286Y15874240D01*
X2914286Y15874240D02*
X2876190Y15912336D01*
X2876190Y15912336D02*
X2876190Y15836145D01*
X2876190Y16331383D02*
X2838095Y16293288D01*
X2838095Y16293288D02*
X2876190Y16255193D01*
X2876190Y16255193D02*
X2914286Y16293288D01*
X2914286Y16293288D02*
X2876190Y16331383D01*
X2876190Y16331383D02*
X2876190Y16255193D01*
X1504762Y15836145D02*
X1885714Y15836145D01*
X1885714Y15836145D02*
X1885714Y16636145D01*
X666667Y15874240D02*
X552381Y15836145D01*
X552381Y15836145D02*
X361905Y15836145D01*
X361905Y15836145D02*
X285714Y15874240D01*
X285714Y15874240D02*
X247619Y15912336D01*
X247619Y15912336D02*
X209524Y15988526D01*
X209524Y15988526D02*
X209524Y16064717D01*
X209524Y16064717D02*
X247619Y16140907D01*
X247619Y16140907D02*
X285714Y16179002D01*
X285714Y16179002D02*
X361905Y16217098D01*
X361905Y16217098D02*
X514286Y16255193D01*
X514286Y16255193D02*
X590476Y16293288D01*
X590476Y16293288D02*
X628571Y16331383D01*
X628571Y16331383D02*
X666667Y16407574D01*
X666667Y16407574D02*
X666667Y16483764D01*
X666667Y16483764D02*
X628571Y16559955D01*
X628571Y16559955D02*
X590476Y16598050D01*
X590476Y16598050D02*
X514286Y16636145D01*
X514286Y16636145D02*
X323809Y16636145D01*
X323809Y16636145D02*
X209524Y16598050D01*
X-57143Y16636145D02*
X-247619Y15836145D01*
X-247619Y15836145D02*
X-400000Y16407574D01*
X-400000Y16407574D02*
X-552381Y15836145D01*
X-552381Y15836145D02*
X-742857Y16636145D01*
X-2228572Y16674240D02*
X-1542858Y15645669D01*
X-3104763Y15836145D02*
X-3104763Y16636145D01*
X-3104763Y16636145D02*
X-3561906Y15836145D01*
X-3561906Y15836145D02*
X-3561906Y16636145D01*
X-4514286Y15874240D02*
X-4628572Y15836145D01*
X-4628572Y15836145D02*
X-4819048Y15836145D01*
X-4819048Y15836145D02*
X-4895239Y15874240D01*
X-4895239Y15874240D02*
X-4933334Y15912336D01*
X-4933334Y15912336D02*
X-4971429Y15988526D01*
X-4971429Y15988526D02*
X-4971429Y16064717D01*
X-4971429Y16064717D02*
X-4933334Y16140907D01*
X-4933334Y16140907D02*
X-4895239Y16179002D01*
X-4895239Y16179002D02*
X-4819048Y16217098D01*
X-4819048Y16217098D02*
X-4666667Y16255193D01*
X-4666667Y16255193D02*
X-4590477Y16293288D01*
X-4590477Y16293288D02*
X-4552382Y16331383D01*
X-4552382Y16331383D02*
X-4514286Y16407574D01*
X-4514286Y16407574D02*
X-4514286Y16483764D01*
X-4514286Y16483764D02*
X-4552382Y16559955D01*
X-4552382Y16559955D02*
X-4590477Y16598050D01*
X-4590477Y16598050D02*
X-4666667Y16636145D01*
X-4666667Y16636145D02*
X-4857144Y16636145D01*
X-4857144Y16636145D02*
X-4971429Y16598050D01*
X-5238096Y16636145D02*
X-5428572Y15836145D01*
X-5428572Y15836145D02*
X-5580953Y16407574D01*
X-5580953Y16407574D02*
X-5733334Y15836145D01*
X-5733334Y15836145D02*
X-5923810Y16636145D01*
X11123811Y14769479D02*
X11123811Y14121860D01*
X11123811Y14121860D02*
X11161906Y14045669D01*
X11161906Y14045669D02*
X11200002Y14007574D01*
X11200002Y14007574D02*
X11276192Y13969479D01*
X11276192Y13969479D02*
X11390478Y13969479D01*
X11390478Y13969479D02*
X11466668Y14007574D01*
X11123811Y14274240D02*
X11200002Y14236145D01*
X11200002Y14236145D02*
X11352383Y14236145D01*
X11352383Y14236145D02*
X11428573Y14274240D01*
X11428573Y14274240D02*
X11466668Y14312336D01*
X11466668Y14312336D02*
X11504764Y14388526D01*
X11504764Y14388526D02*
X11504764Y14617098D01*
X11504764Y14617098D02*
X11466668Y14693288D01*
X11466668Y14693288D02*
X11428573Y14731383D01*
X11428573Y14731383D02*
X11352383Y14769479D01*
X11352383Y14769479D02*
X11200002Y14769479D01*
X11200002Y14769479D02*
X11123811Y14731383D01*
X10742858Y14236145D02*
X10742858Y14769479D01*
X10742858Y15036145D02*
X10780954Y14998050D01*
X10780954Y14998050D02*
X10742858Y14959955D01*
X10742858Y14959955D02*
X10704763Y14998050D01*
X10704763Y14998050D02*
X10742858Y15036145D01*
X10742858Y15036145D02*
X10742858Y14959955D01*
X10476192Y14769479D02*
X10171430Y14769479D01*
X10361906Y15036145D02*
X10361906Y14350431D01*
X10361906Y14350431D02*
X10323811Y14274240D01*
X10323811Y14274240D02*
X10247621Y14236145D01*
X10247621Y14236145D02*
X10171430Y14236145D01*
X9904763Y14236145D02*
X9904763Y15036145D01*
X9561906Y14236145D02*
X9561906Y14655193D01*
X9561906Y14655193D02*
X9600001Y14731383D01*
X9600001Y14731383D02*
X9676192Y14769479D01*
X9676192Y14769479D02*
X9790478Y14769479D01*
X9790478Y14769479D02*
X9866668Y14731383D01*
X9866668Y14731383D02*
X9904763Y14693288D01*
X8838096Y14769479D02*
X8838096Y14236145D01*
X9180953Y14769479D02*
X9180953Y14350431D01*
X9180953Y14350431D02*
X9142858Y14274240D01*
X9142858Y14274240D02*
X9066668Y14236145D01*
X9066668Y14236145D02*
X8952382Y14236145D01*
X8952382Y14236145D02*
X8876191Y14274240D01*
X8876191Y14274240D02*
X8838096Y14312336D01*
X8457143Y14236145D02*
X8457143Y15036145D01*
X8457143Y14731383D02*
X8380953Y14769479D01*
X8380953Y14769479D02*
X8228572Y14769479D01*
X8228572Y14769479D02*
X8152381Y14731383D01*
X8152381Y14731383D02*
X8114286Y14693288D01*
X8114286Y14693288D02*
X8076191Y14617098D01*
X8076191Y14617098D02*
X8076191Y14388526D01*
X8076191Y14388526D02*
X8114286Y14312336D01*
X8114286Y14312336D02*
X8152381Y14274240D01*
X8152381Y14274240D02*
X8228572Y14236145D01*
X8228572Y14236145D02*
X8380953Y14236145D01*
X8380953Y14236145D02*
X8457143Y14274240D01*
X7733333Y14312336D02*
X7695238Y14274240D01*
X7695238Y14274240D02*
X7733333Y14236145D01*
X7733333Y14236145D02*
X7771429Y14274240D01*
X7771429Y14274240D02*
X7733333Y14312336D01*
X7733333Y14312336D02*
X7733333Y14236145D01*
X7009524Y14274240D02*
X7085715Y14236145D01*
X7085715Y14236145D02*
X7238096Y14236145D01*
X7238096Y14236145D02*
X7314286Y14274240D01*
X7314286Y14274240D02*
X7352381Y14312336D01*
X7352381Y14312336D02*
X7390477Y14388526D01*
X7390477Y14388526D02*
X7390477Y14617098D01*
X7390477Y14617098D02*
X7352381Y14693288D01*
X7352381Y14693288D02*
X7314286Y14731383D01*
X7314286Y14731383D02*
X7238096Y14769479D01*
X7238096Y14769479D02*
X7085715Y14769479D01*
X7085715Y14769479D02*
X7009524Y14731383D01*
X6552382Y14236145D02*
X6628572Y14274240D01*
X6628572Y14274240D02*
X6666667Y14312336D01*
X6666667Y14312336D02*
X6704763Y14388526D01*
X6704763Y14388526D02*
X6704763Y14617098D01*
X6704763Y14617098D02*
X6666667Y14693288D01*
X6666667Y14693288D02*
X6628572Y14731383D01*
X6628572Y14731383D02*
X6552382Y14769479D01*
X6552382Y14769479D02*
X6438096Y14769479D01*
X6438096Y14769479D02*
X6361905Y14731383D01*
X6361905Y14731383D02*
X6323810Y14693288D01*
X6323810Y14693288D02*
X6285715Y14617098D01*
X6285715Y14617098D02*
X6285715Y14388526D01*
X6285715Y14388526D02*
X6323810Y14312336D01*
X6323810Y14312336D02*
X6361905Y14274240D01*
X6361905Y14274240D02*
X6438096Y14236145D01*
X6438096Y14236145D02*
X6552382Y14236145D01*
X5942857Y14236145D02*
X5942857Y14769479D01*
X5942857Y14693288D02*
X5904762Y14731383D01*
X5904762Y14731383D02*
X5828572Y14769479D01*
X5828572Y14769479D02*
X5714286Y14769479D01*
X5714286Y14769479D02*
X5638095Y14731383D01*
X5638095Y14731383D02*
X5600000Y14655193D01*
X5600000Y14655193D02*
X5600000Y14236145D01*
X5600000Y14655193D02*
X5561905Y14731383D01*
X5561905Y14731383D02*
X5485714Y14769479D01*
X5485714Y14769479D02*
X5371429Y14769479D01*
X5371429Y14769479D02*
X5295238Y14731383D01*
X5295238Y14731383D02*
X5257143Y14655193D01*
X5257143Y14655193D02*
X5257143Y14236145D01*
X4304762Y15074240D02*
X4990476Y14045669D01*
X3695238Y14236145D02*
X3695238Y14655193D01*
X3695238Y14655193D02*
X3733333Y14731383D01*
X3733333Y14731383D02*
X3809524Y14769479D01*
X3809524Y14769479D02*
X3961905Y14769479D01*
X3961905Y14769479D02*
X4038095Y14731383D01*
X3695238Y14274240D02*
X3771429Y14236145D01*
X3771429Y14236145D02*
X3961905Y14236145D01*
X3961905Y14236145D02*
X4038095Y14274240D01*
X4038095Y14274240D02*
X4076191Y14350431D01*
X4076191Y14350431D02*
X4076191Y14426621D01*
X4076191Y14426621D02*
X4038095Y14502812D01*
X4038095Y14502812D02*
X3961905Y14540907D01*
X3961905Y14540907D02*
X3771429Y14540907D01*
X3771429Y14540907D02*
X3695238Y14579002D01*
X3314285Y14769479D02*
X3314285Y14236145D01*
X3314285Y14693288D02*
X3276190Y14731383D01*
X3276190Y14731383D02*
X3200000Y14769479D01*
X3200000Y14769479D02*
X3085714Y14769479D01*
X3085714Y14769479D02*
X3009523Y14731383D01*
X3009523Y14731383D02*
X2971428Y14655193D01*
X2971428Y14655193D02*
X2971428Y14236145D01*
X2704761Y14769479D02*
X2399999Y14769479D01*
X2590475Y15036145D02*
X2590475Y14350431D01*
X2590475Y14350431D02*
X2552380Y14274240D01*
X2552380Y14274240D02*
X2476190Y14236145D01*
X2476190Y14236145D02*
X2399999Y14236145D01*
X1828570Y14274240D02*
X1904761Y14236145D01*
X1904761Y14236145D02*
X2057142Y14236145D01*
X2057142Y14236145D02*
X2133332Y14274240D01*
X2133332Y14274240D02*
X2171428Y14350431D01*
X2171428Y14350431D02*
X2171428Y14655193D01*
X2171428Y14655193D02*
X2133332Y14731383D01*
X2133332Y14731383D02*
X2057142Y14769479D01*
X2057142Y14769479D02*
X1904761Y14769479D01*
X1904761Y14769479D02*
X1828570Y14731383D01*
X1828570Y14731383D02*
X1790475Y14655193D01*
X1790475Y14655193D02*
X1790475Y14579002D01*
X1790475Y14579002D02*
X2171428Y14502812D01*
X1523809Y14769479D02*
X1333333Y14236145D01*
X1333333Y14236145D02*
X1142856Y14769479D01*
X533332Y14274240D02*
X609523Y14236145D01*
X609523Y14236145D02*
X761904Y14236145D01*
X761904Y14236145D02*
X838094Y14274240D01*
X838094Y14274240D02*
X876190Y14350431D01*
X876190Y14350431D02*
X876190Y14655193D01*
X876190Y14655193D02*
X838094Y14731383D01*
X838094Y14731383D02*
X761904Y14769479D01*
X761904Y14769479D02*
X609523Y14769479D01*
X609523Y14769479D02*
X533332Y14731383D01*
X533332Y14731383D02*
X495237Y14655193D01*
X495237Y14655193D02*
X495237Y14579002D01*
X495237Y14579002D02*
X876190Y14502812D01*
X152380Y14769479D02*
X152380Y14236145D01*
X152380Y14693288D02*
X114285Y14731383D01*
X114285Y14731383D02*
X38095Y14769479D01*
X38095Y14769479D02*
X-76191Y14769479D01*
X-76191Y14769479D02*
X-152382Y14731383D01*
X-152382Y14731383D02*
X-190477Y14655193D01*
X-190477Y14655193D02*
X-190477Y14236145D01*
X-533334Y14274240D02*
X-609525Y14236145D01*
X-609525Y14236145D02*
X-761906Y14236145D01*
X-761906Y14236145D02*
X-838096Y14274240D01*
X-838096Y14274240D02*
X-876192Y14350431D01*
X-876192Y14350431D02*
X-876192Y14388526D01*
X-876192Y14388526D02*
X-838096Y14464717D01*
X-838096Y14464717D02*
X-761906Y14502812D01*
X-761906Y14502812D02*
X-647620Y14502812D01*
X-647620Y14502812D02*
X-571430Y14540907D01*
X-571430Y14540907D02*
X-533334Y14617098D01*
X-533334Y14617098D02*
X-533334Y14655193D01*
X-533334Y14655193D02*
X-571430Y14731383D01*
X-571430Y14731383D02*
X-647620Y14769479D01*
X-647620Y14769479D02*
X-761906Y14769479D01*
X-761906Y14769479D02*
X-838096Y14731383D01*
X-1790477Y15074240D02*
X-1104763Y14045669D01*
X-2019048Y14274240D02*
X-2095239Y14236145D01*
X-2095239Y14236145D02*
X-2247620Y14236145D01*
X-2247620Y14236145D02*
X-2323810Y14274240D01*
X-2323810Y14274240D02*
X-2361906Y14350431D01*
X-2361906Y14350431D02*
X-2361906Y14388526D01*
X-2361906Y14388526D02*
X-2323810Y14464717D01*
X-2323810Y14464717D02*
X-2247620Y14502812D01*
X-2247620Y14502812D02*
X-2133334Y14502812D01*
X-2133334Y14502812D02*
X-2057144Y14540907D01*
X-2057144Y14540907D02*
X-2019048Y14617098D01*
X-2019048Y14617098D02*
X-2019048Y14655193D01*
X-2019048Y14655193D02*
X-2057144Y14731383D01*
X-2057144Y14731383D02*
X-2133334Y14769479D01*
X-2133334Y14769479D02*
X-2247620Y14769479D01*
X-2247620Y14769479D02*
X-2323810Y14731383D01*
X-2704763Y14236145D02*
X-2704763Y14769479D01*
X-2704763Y14693288D02*
X-2742858Y14731383D01*
X-2742858Y14731383D02*
X-2819048Y14769479D01*
X-2819048Y14769479D02*
X-2933334Y14769479D01*
X-2933334Y14769479D02*
X-3009525Y14731383D01*
X-3009525Y14731383D02*
X-3047620Y14655193D01*
X-3047620Y14655193D02*
X-3047620Y14236145D01*
X-3047620Y14655193D02*
X-3085715Y14731383D01*
X-3085715Y14731383D02*
X-3161906Y14769479D01*
X-3161906Y14769479D02*
X-3276191Y14769479D01*
X-3276191Y14769479D02*
X-3352382Y14731383D01*
X-3352382Y14731383D02*
X-3390477Y14655193D01*
X-3390477Y14655193D02*
X-3390477Y14236145D01*
X-4114287Y14236145D02*
X-4114287Y14655193D01*
X-4114287Y14655193D02*
X-4076192Y14731383D01*
X-4076192Y14731383D02*
X-4000001Y14769479D01*
X-4000001Y14769479D02*
X-3847620Y14769479D01*
X-3847620Y14769479D02*
X-3771430Y14731383D01*
X-4114287Y14274240D02*
X-4038096Y14236145D01*
X-4038096Y14236145D02*
X-3847620Y14236145D01*
X-3847620Y14236145D02*
X-3771430Y14274240D01*
X-3771430Y14274240D02*
X-3733334Y14350431D01*
X-3733334Y14350431D02*
X-3733334Y14426621D01*
X-3733334Y14426621D02*
X-3771430Y14502812D01*
X-3771430Y14502812D02*
X-3847620Y14540907D01*
X-3847620Y14540907D02*
X-4038096Y14540907D01*
X-4038096Y14540907D02*
X-4114287Y14579002D01*
X-4495240Y14236145D02*
X-4495240Y14769479D01*
X-4495240Y14617098D02*
X-4533335Y14693288D01*
X-4533335Y14693288D02*
X-4571430Y14731383D01*
X-4571430Y14731383D02*
X-4647621Y14769479D01*
X-4647621Y14769479D02*
X-4723811Y14769479D01*
X-4876192Y14769479D02*
X-5180954Y14769479D01*
X-4990478Y15036145D02*
X-4990478Y14350431D01*
X-4990478Y14350431D02*
X-5028573Y14274240D01*
X-5028573Y14274240D02*
X-5104763Y14236145D01*
X-5104763Y14236145D02*
X-5180954Y14236145D01*
X-5447621Y14540907D02*
X-6057144Y14540907D01*
X-6361906Y14769479D02*
X-6514287Y14236145D01*
X-6514287Y14236145D02*
X-6666668Y14617098D01*
X-6666668Y14617098D02*
X-6819049Y14236145D01*
X-6819049Y14236145D02*
X-6971430Y14769479D01*
X-7619049Y14236145D02*
X-7619049Y14655193D01*
X-7619049Y14655193D02*
X-7580954Y14731383D01*
X-7580954Y14731383D02*
X-7504763Y14769479D01*
X-7504763Y14769479D02*
X-7352382Y14769479D01*
X-7352382Y14769479D02*
X-7276192Y14731383D01*
X-7619049Y14274240D02*
X-7542858Y14236145D01*
X-7542858Y14236145D02*
X-7352382Y14236145D01*
X-7352382Y14236145D02*
X-7276192Y14274240D01*
X-7276192Y14274240D02*
X-7238096Y14350431D01*
X-7238096Y14350431D02*
X-7238096Y14426621D01*
X-7238096Y14426621D02*
X-7276192Y14502812D01*
X-7276192Y14502812D02*
X-7352382Y14540907D01*
X-7352382Y14540907D02*
X-7542858Y14540907D01*
X-7542858Y14540907D02*
X-7619049Y14579002D01*
X-8114287Y14236145D02*
X-8038097Y14274240D01*
X-8038097Y14274240D02*
X-8000002Y14350431D01*
X-8000002Y14350431D02*
X-8000002Y15036145D01*
X-8533335Y14236145D02*
X-8457145Y14274240D01*
X-8457145Y14274240D02*
X-8419050Y14350431D01*
X-8419050Y14350431D02*
X-8419050Y15036145D01*
X-8838098Y14769479D02*
X-8838098Y13969479D01*
X-8838098Y14731383D02*
X-8914288Y14769479D01*
X-8914288Y14769479D02*
X-9066669Y14769479D01*
X-9066669Y14769479D02*
X-9142860Y14731383D01*
X-9142860Y14731383D02*
X-9180955Y14693288D01*
X-9180955Y14693288D02*
X-9219050Y14617098D01*
X-9219050Y14617098D02*
X-9219050Y14388526D01*
X-9219050Y14388526D02*
X-9180955Y14312336D01*
X-9180955Y14312336D02*
X-9142860Y14274240D01*
X-9142860Y14274240D02*
X-9066669Y14236145D01*
X-9066669Y14236145D02*
X-8914288Y14236145D01*
X-8914288Y14236145D02*
X-8838098Y14274240D01*
X-9676193Y14236145D02*
X-9600003Y14274240D01*
X-9600003Y14274240D02*
X-9561908Y14350431D01*
X-9561908Y14350431D02*
X-9561908Y15036145D01*
X-10323813Y14236145D02*
X-10323813Y14655193D01*
X-10323813Y14655193D02*
X-10285718Y14731383D01*
X-10285718Y14731383D02*
X-10209527Y14769479D01*
X-10209527Y14769479D02*
X-10057146Y14769479D01*
X-10057146Y14769479D02*
X-9980956Y14731383D01*
X-10323813Y14274240D02*
X-10247622Y14236145D01*
X-10247622Y14236145D02*
X-10057146Y14236145D01*
X-10057146Y14236145D02*
X-9980956Y14274240D01*
X-9980956Y14274240D02*
X-9942860Y14350431D01*
X-9942860Y14350431D02*
X-9942860Y14426621D01*
X-9942860Y14426621D02*
X-9980956Y14502812D01*
X-9980956Y14502812D02*
X-10057146Y14540907D01*
X-10057146Y14540907D02*
X-10247622Y14540907D01*
X-10247622Y14540907D02*
X-10323813Y14579002D01*
X-10590480Y14769479D02*
X-10895242Y14769479D01*
X-10704766Y15036145D02*
X-10704766Y14350431D01*
X-10704766Y14350431D02*
X-10742861Y14274240D01*
X-10742861Y14274240D02*
X-10819051Y14236145D01*
X-10819051Y14236145D02*
X-10895242Y14236145D01*
X-11466671Y14274240D02*
X-11390480Y14236145D01*
X-11390480Y14236145D02*
X-11238099Y14236145D01*
X-11238099Y14236145D02*
X-11161909Y14274240D01*
X-11161909Y14274240D02*
X-11123813Y14350431D01*
X-11123813Y14350431D02*
X-11123813Y14655193D01*
X-11123813Y14655193D02*
X-11161909Y14731383D01*
X-11161909Y14731383D02*
X-11238099Y14769479D01*
X-11238099Y14769479D02*
X-11390480Y14769479D01*
X-11390480Y14769479D02*
X-11466671Y14731383D01*
X-11466671Y14731383D02*
X-11504766Y14655193D01*
X-11504766Y14655193D02*
X-11504766Y14579002D01*
X-11504766Y14579002D02*
X-11123813Y14502812D01*
X1395238Y-7363855D02*
X1776190Y-7363855D01*
X1776190Y-7363855D02*
X1776190Y-6563855D01*
X557143Y-7325760D02*
X442857Y-7363855D01*
X442857Y-7363855D02*
X252381Y-7363855D01*
X252381Y-7363855D02*
X176190Y-7325760D01*
X176190Y-7325760D02*
X138095Y-7287664D01*
X138095Y-7287664D02*
X100000Y-7211474D01*
X100000Y-7211474D02*
X100000Y-7135283D01*
X100000Y-7135283D02*
X138095Y-7059093D01*
X138095Y-7059093D02*
X176190Y-7020998D01*
X176190Y-7020998D02*
X252381Y-6982902D01*
X252381Y-6982902D02*
X404762Y-6944807D01*
X404762Y-6944807D02*
X480952Y-6906712D01*
X480952Y-6906712D02*
X519047Y-6868617D01*
X519047Y-6868617D02*
X557143Y-6792426D01*
X557143Y-6792426D02*
X557143Y-6716236D01*
X557143Y-6716236D02*
X519047Y-6640045D01*
X519047Y-6640045D02*
X480952Y-6601950D01*
X480952Y-6601950D02*
X404762Y-6563855D01*
X404762Y-6563855D02*
X214285Y-6563855D01*
X214285Y-6563855D02*
X100000Y-6601950D01*
X-166667Y-6563855D02*
X-357143Y-7363855D01*
X-357143Y-7363855D02*
X-509524Y-6792426D01*
X-509524Y-6792426D02*
X-661905Y-7363855D01*
X-661905Y-7363855D02*
X-852381Y-6563855D01*
X9038096Y-3837455D02*
X9038096Y-4408883D01*
X9038096Y-4408883D02*
X9076191Y-4523169D01*
X9076191Y-4523169D02*
X9152382Y-4599360D01*
X9152382Y-4599360D02*
X9266667Y-4637455D01*
X9266667Y-4637455D02*
X9342858Y-4637455D01*
X8238096Y-4637455D02*
X8695239Y-4637455D01*
X8466667Y-4637455D02*
X8466667Y-3837455D01*
X8466667Y-3837455D02*
X8542858Y-3951740D01*
X8542858Y-3951740D02*
X8619048Y-4027931D01*
X8619048Y-4027931D02*
X8695239Y-4066026D01*
X7361905Y-3837455D02*
X7171429Y-4637455D01*
X7171429Y-4637455D02*
X7019048Y-4066026D01*
X7019048Y-4066026D02*
X6866667Y-4637455D01*
X6866667Y-4637455D02*
X6676191Y-3837455D01*
X6409524Y-4408883D02*
X6028571Y-4408883D01*
X6485714Y-4637455D02*
X6219047Y-3837455D01*
X6219047Y-3837455D02*
X5952381Y-4637455D01*
X5266667Y-3875550D02*
X5342857Y-3837455D01*
X5342857Y-3837455D02*
X5457143Y-3837455D01*
X5457143Y-3837455D02*
X5571429Y-3875550D01*
X5571429Y-3875550D02*
X5647619Y-3951740D01*
X5647619Y-3951740D02*
X5685714Y-4027931D01*
X5685714Y-4027931D02*
X5723810Y-4180312D01*
X5723810Y-4180312D02*
X5723810Y-4294598D01*
X5723810Y-4294598D02*
X5685714Y-4446979D01*
X5685714Y-4446979D02*
X5647619Y-4523169D01*
X5647619Y-4523169D02*
X5571429Y-4599360D01*
X5571429Y-4599360D02*
X5457143Y-4637455D01*
X5457143Y-4637455D02*
X5380952Y-4637455D01*
X5380952Y-4637455D02*
X5266667Y-4599360D01*
X5266667Y-4599360D02*
X5228571Y-4561264D01*
X5228571Y-4561264D02*
X5228571Y-4294598D01*
X5228571Y-4294598D02*
X5380952Y-4294598D01*
X4733333Y-3837455D02*
X4580952Y-3837455D01*
X4580952Y-3837455D02*
X4504762Y-3875550D01*
X4504762Y-3875550D02*
X4428571Y-3951740D01*
X4428571Y-3951740D02*
X4390476Y-4104121D01*
X4390476Y-4104121D02*
X4390476Y-4370788D01*
X4390476Y-4370788D02*
X4428571Y-4523169D01*
X4428571Y-4523169D02*
X4504762Y-4599360D01*
X4504762Y-4599360D02*
X4580952Y-4637455D01*
X4580952Y-4637455D02*
X4733333Y-4637455D01*
X4733333Y-4637455D02*
X4809524Y-4599360D01*
X4809524Y-4599360D02*
X4885714Y-4523169D01*
X4885714Y-4523169D02*
X4923810Y-4370788D01*
X4923810Y-4370788D02*
X4923810Y-4104121D01*
X4923810Y-4104121D02*
X4885714Y-3951740D01*
X4885714Y-3951740D02*
X4809524Y-3875550D01*
X4809524Y-3875550D02*
X4733333Y-3837455D01*
X3476191Y-3913645D02*
X3438095Y-3875550D01*
X3438095Y-3875550D02*
X3361905Y-3837455D01*
X3361905Y-3837455D02*
X3171429Y-3837455D01*
X3171429Y-3837455D02*
X3095238Y-3875550D01*
X3095238Y-3875550D02*
X3057143Y-3913645D01*
X3057143Y-3913645D02*
X3019048Y-3989836D01*
X3019048Y-3989836D02*
X3019048Y-4066026D01*
X3019048Y-4066026D02*
X3057143Y-4180312D01*
X3057143Y-4180312D02*
X3514286Y-4637455D01*
X3514286Y-4637455D02*
X3019048Y-4637455D01*
X2333333Y-3837455D02*
X2485714Y-3837455D01*
X2485714Y-3837455D02*
X2561905Y-3875550D01*
X2561905Y-3875550D02*
X2600000Y-3913645D01*
X2600000Y-3913645D02*
X2676190Y-4027931D01*
X2676190Y-4027931D02*
X2714286Y-4180312D01*
X2714286Y-4180312D02*
X2714286Y-4485074D01*
X2714286Y-4485074D02*
X2676190Y-4561264D01*
X2676190Y-4561264D02*
X2638095Y-4599360D01*
X2638095Y-4599360D02*
X2561905Y-4637455D01*
X2561905Y-4637455D02*
X2409524Y-4637455D01*
X2409524Y-4637455D02*
X2333333Y-4599360D01*
X2333333Y-4599360D02*
X2295238Y-4561264D01*
X2295238Y-4561264D02*
X2257143Y-4485074D01*
X2257143Y-4485074D02*
X2257143Y-4294598D01*
X2257143Y-4294598D02*
X2295238Y-4218407D01*
X2295238Y-4218407D02*
X2333333Y-4180312D01*
X2333333Y-4180312D02*
X2409524Y-4142217D01*
X2409524Y-4142217D02*
X2561905Y-4142217D01*
X2561905Y-4142217D02*
X2638095Y-4180312D01*
X2638095Y-4180312D02*
X2676190Y-4218407D01*
X2676190Y-4218407D02*
X2714286Y-4294598D01*
X1761904Y-3837455D02*
X1685714Y-3837455D01*
X1685714Y-3837455D02*
X1609523Y-3875550D01*
X1609523Y-3875550D02*
X1571428Y-3913645D01*
X1571428Y-3913645D02*
X1533333Y-3989836D01*
X1533333Y-3989836D02*
X1495238Y-4142217D01*
X1495238Y-4142217D02*
X1495238Y-4332693D01*
X1495238Y-4332693D02*
X1533333Y-4485074D01*
X1533333Y-4485074D02*
X1571428Y-4561264D01*
X1571428Y-4561264D02*
X1609523Y-4599360D01*
X1609523Y-4599360D02*
X1685714Y-4637455D01*
X1685714Y-4637455D02*
X1761904Y-4637455D01*
X1761904Y-4637455D02*
X1838095Y-4599360D01*
X1838095Y-4599360D02*
X1876190Y-4561264D01*
X1876190Y-4561264D02*
X1914285Y-4485074D01*
X1914285Y-4485074D02*
X1952381Y-4332693D01*
X1952381Y-4332693D02*
X1952381Y-4142217D01*
X1952381Y-4142217D02*
X1914285Y-3989836D01*
X1914285Y-3989836D02*
X1876190Y-3913645D01*
X1876190Y-3913645D02*
X1838095Y-3875550D01*
X1838095Y-3875550D02*
X1761904Y-3837455D01*
X809523Y-4104121D02*
X809523Y-4637455D01*
X999999Y-3799360D02*
X1190476Y-4370788D01*
X1190476Y-4370788D02*
X695237Y-4370788D01*
X390475Y-4332693D02*
X-219048Y-4332693D01*
X-1019048Y-4637455D02*
X-561905Y-4637455D01*
X-790477Y-4637455D02*
X-790477Y-3837455D01*
X-790477Y-3837455D02*
X-714286Y-3951740D01*
X-714286Y-3951740D02*
X-638096Y-4027931D01*
X-638096Y-4027931D02*
X-561905Y-4066026D01*
X-1780953Y-4637455D02*
X-1323810Y-4637455D01*
X-1552382Y-4637455D02*
X-1552382Y-3837455D01*
X-1552382Y-3837455D02*
X-1476191Y-3951740D01*
X-1476191Y-3951740D02*
X-1400001Y-4027931D01*
X-1400001Y-4027931D02*
X-1323810Y-4066026D01*
X-2276192Y-3837455D02*
X-2352382Y-3837455D01*
X-2352382Y-3837455D02*
X-2428573Y-3875550D01*
X-2428573Y-3875550D02*
X-2466668Y-3913645D01*
X-2466668Y-3913645D02*
X-2504763Y-3989836D01*
X-2504763Y-3989836D02*
X-2542858Y-4142217D01*
X-2542858Y-4142217D02*
X-2542858Y-4332693D01*
X-2542858Y-4332693D02*
X-2504763Y-4485074D01*
X-2504763Y-4485074D02*
X-2466668Y-4561264D01*
X-2466668Y-4561264D02*
X-2428573Y-4599360D01*
X-2428573Y-4599360D02*
X-2352382Y-4637455D01*
X-2352382Y-4637455D02*
X-2276192Y-4637455D01*
X-2276192Y-4637455D02*
X-2200001Y-4599360D01*
X-2200001Y-4599360D02*
X-2161906Y-4561264D01*
X-2161906Y-4561264D02*
X-2123811Y-4485074D01*
X-2123811Y-4485074D02*
X-2085715Y-4332693D01*
X-2085715Y-4332693D02*
X-2085715Y-4142217D01*
X-2085715Y-4142217D02*
X-2123811Y-3989836D01*
X-2123811Y-3989836D02*
X-2161906Y-3913645D01*
X-2161906Y-3913645D02*
X-2200001Y-3875550D01*
X-2200001Y-3875550D02*
X-2276192Y-3837455D01*
X-3228573Y-3837455D02*
X-3076192Y-3837455D01*
X-3076192Y-3837455D02*
X-3000001Y-3875550D01*
X-3000001Y-3875550D02*
X-2961906Y-3913645D01*
X-2961906Y-3913645D02*
X-2885716Y-4027931D01*
X-2885716Y-4027931D02*
X-2847620Y-4180312D01*
X-2847620Y-4180312D02*
X-2847620Y-4485074D01*
X-2847620Y-4485074D02*
X-2885716Y-4561264D01*
X-2885716Y-4561264D02*
X-2923811Y-4599360D01*
X-2923811Y-4599360D02*
X-3000001Y-4637455D01*
X-3000001Y-4637455D02*
X-3152382Y-4637455D01*
X-3152382Y-4637455D02*
X-3228573Y-4599360D01*
X-3228573Y-4599360D02*
X-3266668Y-4561264D01*
X-3266668Y-4561264D02*
X-3304763Y-4485074D01*
X-3304763Y-4485074D02*
X-3304763Y-4294598D01*
X-3304763Y-4294598D02*
X-3266668Y-4218407D01*
X-3266668Y-4218407D02*
X-3228573Y-4180312D01*
X-3228573Y-4180312D02*
X-3152382Y-4142217D01*
X-3152382Y-4142217D02*
X-3000001Y-4142217D01*
X-3000001Y-4142217D02*
X-2923811Y-4180312D01*
X-2923811Y-4180312D02*
X-2885716Y-4218407D01*
X-2885716Y-4218407D02*
X-2847620Y-4294598D01*
X6642856Y-7363855D02*
X6642856Y-6563855D01*
X6642856Y-6563855D02*
X6185713Y-7363855D01*
X6185713Y-7363855D02*
X6185713Y-6563855D01*
X5195237Y-7363855D02*
X5195237Y-6563855D01*
X4814285Y-7363855D02*
X4814285Y-6563855D01*
X4814285Y-6563855D02*
X4357142Y-7363855D01*
X4357142Y-7363855D02*
X4357142Y-6563855D01*
X11871428Y-7363855D02*
X11871428Y-6563855D01*
X11871428Y-6563855D02*
X11414285Y-7363855D01*
X11414285Y-7363855D02*
X11414285Y-6563855D01*
X10461905Y-7325760D02*
X10347619Y-7363855D01*
X10347619Y-7363855D02*
X10157143Y-7363855D01*
X10157143Y-7363855D02*
X10080952Y-7325760D01*
X10080952Y-7325760D02*
X10042857Y-7287664D01*
X10042857Y-7287664D02*
X10004762Y-7211474D01*
X10004762Y-7211474D02*
X10004762Y-7135283D01*
X10004762Y-7135283D02*
X10042857Y-7059093D01*
X10042857Y-7059093D02*
X10080952Y-7020998D01*
X10080952Y-7020998D02*
X10157143Y-6982902D01*
X10157143Y-6982902D02*
X10309524Y-6944807D01*
X10309524Y-6944807D02*
X10385714Y-6906712D01*
X10385714Y-6906712D02*
X10423809Y-6868617D01*
X10423809Y-6868617D02*
X10461905Y-6792426D01*
X10461905Y-6792426D02*
X10461905Y-6716236D01*
X10461905Y-6716236D02*
X10423809Y-6640045D01*
X10423809Y-6640045D02*
X10385714Y-6601950D01*
X10385714Y-6601950D02*
X10309524Y-6563855D01*
X10309524Y-6563855D02*
X10119047Y-6563855D01*
X10119047Y-6563855D02*
X10004762Y-6601950D01*
X9738095Y-6563855D02*
X9547619Y-7363855D01*
X9547619Y-7363855D02*
X9395238Y-6792426D01*
X9395238Y-6792426D02*
X9242857Y-7363855D01*
X9242857Y-7363855D02*
X9052381Y-6563855D01*
X14885715Y27859955D02*
X14847619Y27898050D01*
X14847619Y27898050D02*
X14771429Y27936145D01*
X14771429Y27936145D02*
X14580953Y27936145D01*
X14580953Y27936145D02*
X14504762Y27898050D01*
X14504762Y27898050D02*
X14466667Y27859955D01*
X14466667Y27859955D02*
X14428572Y27783764D01*
X14428572Y27783764D02*
X14428572Y27707574D01*
X14428572Y27707574D02*
X14466667Y27593288D01*
X14466667Y27593288D02*
X14923810Y27136145D01*
X14923810Y27136145D02*
X14428572Y27136145D01*
X13933333Y27936145D02*
X13857143Y27936145D01*
X13857143Y27936145D02*
X13780952Y27898050D01*
X13780952Y27898050D02*
X13742857Y27859955D01*
X13742857Y27859955D02*
X13704762Y27783764D01*
X13704762Y27783764D02*
X13666667Y27631383D01*
X13666667Y27631383D02*
X13666667Y27440907D01*
X13666667Y27440907D02*
X13704762Y27288526D01*
X13704762Y27288526D02*
X13742857Y27212336D01*
X13742857Y27212336D02*
X13780952Y27174240D01*
X13780952Y27174240D02*
X13857143Y27136145D01*
X13857143Y27136145D02*
X13933333Y27136145D01*
X13933333Y27136145D02*
X14009524Y27174240D01*
X14009524Y27174240D02*
X14047619Y27212336D01*
X14047619Y27212336D02*
X14085714Y27288526D01*
X14085714Y27288526D02*
X14123810Y27440907D01*
X14123810Y27440907D02*
X14123810Y27631383D01*
X14123810Y27631383D02*
X14085714Y27783764D01*
X14085714Y27783764D02*
X14047619Y27859955D01*
X14047619Y27859955D02*
X14009524Y27898050D01*
X14009524Y27898050D02*
X13933333Y27936145D01*
X13361905Y27859955D02*
X13323809Y27898050D01*
X13323809Y27898050D02*
X13247619Y27936145D01*
X13247619Y27936145D02*
X13057143Y27936145D01*
X13057143Y27936145D02*
X12980952Y27898050D01*
X12980952Y27898050D02*
X12942857Y27859955D01*
X12942857Y27859955D02*
X12904762Y27783764D01*
X12904762Y27783764D02*
X12904762Y27707574D01*
X12904762Y27707574D02*
X12942857Y27593288D01*
X12942857Y27593288D02*
X13400000Y27136145D01*
X13400000Y27136145D02*
X12904762Y27136145D01*
X12219047Y27936145D02*
X12371428Y27936145D01*
X12371428Y27936145D02*
X12447619Y27898050D01*
X12447619Y27898050D02*
X12485714Y27859955D01*
X12485714Y27859955D02*
X12561904Y27745669D01*
X12561904Y27745669D02*
X12600000Y27593288D01*
X12600000Y27593288D02*
X12600000Y27288526D01*
X12600000Y27288526D02*
X12561904Y27212336D01*
X12561904Y27212336D02*
X12523809Y27174240D01*
X12523809Y27174240D02*
X12447619Y27136145D01*
X12447619Y27136145D02*
X12295238Y27136145D01*
X12295238Y27136145D02*
X12219047Y27174240D01*
X12219047Y27174240D02*
X12180952Y27212336D01*
X12180952Y27212336D02*
X12142857Y27288526D01*
X12142857Y27288526D02*
X12142857Y27479002D01*
X12142857Y27479002D02*
X12180952Y27555193D01*
X12180952Y27555193D02*
X12219047Y27593288D01*
X12219047Y27593288D02*
X12295238Y27631383D01*
X12295238Y27631383D02*
X12447619Y27631383D01*
X12447619Y27631383D02*
X12523809Y27593288D01*
X12523809Y27593288D02*
X12561904Y27555193D01*
X12561904Y27555193D02*
X12600000Y27479002D01*
X11799999Y27440907D02*
X11190476Y27440907D01*
X10390476Y27136145D02*
X10847619Y27136145D01*
X10619047Y27136145D02*
X10619047Y27936145D01*
X10619047Y27936145D02*
X10695238Y27821860D01*
X10695238Y27821860D02*
X10771428Y27745669D01*
X10771428Y27745669D02*
X10847619Y27707574D01*
X9895237Y27936145D02*
X9819047Y27936145D01*
X9819047Y27936145D02*
X9742856Y27898050D01*
X9742856Y27898050D02*
X9704761Y27859955D01*
X9704761Y27859955D02*
X9666666Y27783764D01*
X9666666Y27783764D02*
X9628571Y27631383D01*
X9628571Y27631383D02*
X9628571Y27440907D01*
X9628571Y27440907D02*
X9666666Y27288526D01*
X9666666Y27288526D02*
X9704761Y27212336D01*
X9704761Y27212336D02*
X9742856Y27174240D01*
X9742856Y27174240D02*
X9819047Y27136145D01*
X9819047Y27136145D02*
X9895237Y27136145D01*
X9895237Y27136145D02*
X9971428Y27174240D01*
X9971428Y27174240D02*
X10009523Y27212336D01*
X10009523Y27212336D02*
X10047618Y27288526D01*
X10047618Y27288526D02*
X10085714Y27440907D01*
X10085714Y27440907D02*
X10085714Y27631383D01*
X10085714Y27631383D02*
X10047618Y27783764D01*
X10047618Y27783764D02*
X10009523Y27859955D01*
X10009523Y27859955D02*
X9971428Y27898050D01*
X9971428Y27898050D02*
X9895237Y27936145D01*
X9285713Y27440907D02*
X8676190Y27440907D01*
X8142856Y27936145D02*
X8066666Y27936145D01*
X8066666Y27936145D02*
X7990475Y27898050D01*
X7990475Y27898050D02*
X7952380Y27859955D01*
X7952380Y27859955D02*
X7914285Y27783764D01*
X7914285Y27783764D02*
X7876190Y27631383D01*
X7876190Y27631383D02*
X7876190Y27440907D01*
X7876190Y27440907D02*
X7914285Y27288526D01*
X7914285Y27288526D02*
X7952380Y27212336D01*
X7952380Y27212336D02*
X7990475Y27174240D01*
X7990475Y27174240D02*
X8066666Y27136145D01*
X8066666Y27136145D02*
X8142856Y27136145D01*
X8142856Y27136145D02*
X8219047Y27174240D01*
X8219047Y27174240D02*
X8257142Y27212336D01*
X8257142Y27212336D02*
X8295237Y27288526D01*
X8295237Y27288526D02*
X8333333Y27440907D01*
X8333333Y27440907D02*
X8333333Y27631383D01*
X8333333Y27631383D02*
X8295237Y27783764D01*
X8295237Y27783764D02*
X8257142Y27859955D01*
X8257142Y27859955D02*
X8219047Y27898050D01*
X8219047Y27898050D02*
X8142856Y27936145D01*
X7495237Y27136145D02*
X7342856Y27136145D01*
X7342856Y27136145D02*
X7266666Y27174240D01*
X7266666Y27174240D02*
X7228570Y27212336D01*
X7228570Y27212336D02*
X7152380Y27326621D01*
X7152380Y27326621D02*
X7114285Y27479002D01*
X7114285Y27479002D02*
X7114285Y27783764D01*
X7114285Y27783764D02*
X7152380Y27859955D01*
X7152380Y27859955D02*
X7190475Y27898050D01*
X7190475Y27898050D02*
X7266666Y27936145D01*
X7266666Y27936145D02*
X7419047Y27936145D01*
X7419047Y27936145D02*
X7495237Y27898050D01*
X7495237Y27898050D02*
X7533332Y27859955D01*
X7533332Y27859955D02*
X7571428Y27783764D01*
X7571428Y27783764D02*
X7571428Y27593288D01*
X7571428Y27593288D02*
X7533332Y27517098D01*
X7533332Y27517098D02*
X7495237Y27479002D01*
X7495237Y27479002D02*
X7419047Y27440907D01*
X7419047Y27440907D02*
X7266666Y27440907D01*
X7266666Y27440907D02*
X7190475Y27479002D01*
X7190475Y27479002D02*
X7152380Y27517098D01*
X7152380Y27517098D02*
X7114285Y27593288D01*
X16071428Y-7363855D02*
X16071428Y-6563855D01*
X16071428Y-6563855D02*
X15766666Y-6563855D01*
X15766666Y-6563855D02*
X15690476Y-6601950D01*
X15690476Y-6601950D02*
X15652381Y-6640045D01*
X15652381Y-6640045D02*
X15614285Y-6716236D01*
X15614285Y-6716236D02*
X15614285Y-6830521D01*
X15614285Y-6830521D02*
X15652381Y-6906712D01*
X15652381Y-6906712D02*
X15690476Y-6944807D01*
X15690476Y-6944807D02*
X15766666Y-6982902D01*
X15766666Y-6982902D02*
X16071428Y-6982902D01*
X15271428Y-6944807D02*
X15004762Y-6944807D01*
X14890476Y-7363855D02*
X15271428Y-7363855D01*
X15271428Y-7363855D02*
X15271428Y-6563855D01*
X15271428Y-6563855D02*
X14890476Y-6563855D01*
D11*
X-2476191Y31211848D02*
X-2666667Y30545181D01*
X-2666667Y30545181D02*
X-2857143Y31021372D01*
X-2857143Y31021372D02*
X-3047619Y30545181D01*
X-3047619Y30545181D02*
X-3238095Y31211848D01*
X-3619048Y30545181D02*
X-3619048Y31211848D01*
X-3619048Y31545181D02*
X-3571429Y31497562D01*
X-3571429Y31497562D02*
X-3619048Y31449943D01*
X-3619048Y31449943D02*
X-3666667Y31497562D01*
X-3666667Y31497562D02*
X-3619048Y31545181D01*
X-3619048Y31545181D02*
X-3619048Y31449943D01*
X-4095238Y30545181D02*
X-4095238Y31211848D01*
X-4095238Y31021372D02*
X-4142857Y31116610D01*
X-4142857Y31116610D02*
X-4190476Y31164229D01*
X-4190476Y31164229D02*
X-4285714Y31211848D01*
X-4285714Y31211848D02*
X-4380952Y31211848D01*
X-4714286Y30545181D02*
X-4714286Y31211848D01*
X-4714286Y31545181D02*
X-4666667Y31497562D01*
X-4666667Y31497562D02*
X-4714286Y31449943D01*
X-4714286Y31449943D02*
X-4761905Y31497562D01*
X-4761905Y31497562D02*
X-4714286Y31545181D01*
X-4714286Y31545181D02*
X-4714286Y31449943D01*
X-5190476Y31211848D02*
X-5190476Y30545181D01*
X-5190476Y31116610D02*
X-5238095Y31164229D01*
X-5238095Y31164229D02*
X-5333333Y31211848D01*
X-5333333Y31211848D02*
X-5476190Y31211848D01*
X-5476190Y31211848D02*
X-5571428Y31164229D01*
X-5571428Y31164229D02*
X-5619047Y31068991D01*
X-5619047Y31068991D02*
X-5619047Y30545181D01*
X-6523809Y31211848D02*
X-6523809Y30402324D01*
X-6523809Y30402324D02*
X-6476190Y30307086D01*
X-6476190Y30307086D02*
X-6428571Y30259467D01*
X-6428571Y30259467D02*
X-6333333Y30211848D01*
X-6333333Y30211848D02*
X-6190476Y30211848D01*
X-6190476Y30211848D02*
X-6095238Y30259467D01*
X-6523809Y30592800D02*
X-6428571Y30545181D01*
X-6428571Y30545181D02*
X-6238095Y30545181D01*
X-6238095Y30545181D02*
X-6142857Y30592800D01*
X-6142857Y30592800D02*
X-6095238Y30640420D01*
X-6095238Y30640420D02*
X-6047619Y30735658D01*
X-6047619Y30735658D02*
X-6047619Y31021372D01*
X-6047619Y31021372D02*
X-6095238Y31116610D01*
X-6095238Y31116610D02*
X-6142857Y31164229D01*
X-6142857Y31164229D02*
X-6238095Y31211848D01*
X-6238095Y31211848D02*
X-6428571Y31211848D01*
X-6428571Y31211848D02*
X-6523809Y31164229D01*
X-6761904Y30449943D02*
X-7523809Y30449943D01*
X-7761905Y30545181D02*
X-7761905Y31545181D01*
X-7761905Y31164229D02*
X-7857143Y31211848D01*
X-7857143Y31211848D02*
X-8047619Y31211848D01*
X-8047619Y31211848D02*
X-8142857Y31164229D01*
X-8142857Y31164229D02*
X-8190476Y31116610D01*
X-8190476Y31116610D02*
X-8238095Y31021372D01*
X-8238095Y31021372D02*
X-8238095Y30735658D01*
X-8238095Y30735658D02*
X-8190476Y30640420D01*
X-8190476Y30640420D02*
X-8142857Y30592800D01*
X-8142857Y30592800D02*
X-8047619Y30545181D01*
X-8047619Y30545181D02*
X-7857143Y30545181D01*
X-7857143Y30545181D02*
X-7761905Y30592800D01*
X-8809524Y30545181D02*
X-8714286Y30592800D01*
X-8714286Y30592800D02*
X-8666667Y30640420D01*
X-8666667Y30640420D02*
X-8619048Y30735658D01*
X-8619048Y30735658D02*
X-8619048Y31021372D01*
X-8619048Y31021372D02*
X-8666667Y31116610D01*
X-8666667Y31116610D02*
X-8714286Y31164229D01*
X-8714286Y31164229D02*
X-8809524Y31211848D01*
X-8809524Y31211848D02*
X-8952381Y31211848D01*
X-8952381Y31211848D02*
X-9047619Y31164229D01*
X-9047619Y31164229D02*
X-9095238Y31116610D01*
X-9095238Y31116610D02*
X-9142857Y31021372D01*
X-9142857Y31021372D02*
X-9142857Y30735658D01*
X-9142857Y30735658D02*
X-9095238Y30640420D01*
X-9095238Y30640420D02*
X-9047619Y30592800D01*
X-9047619Y30592800D02*
X-8952381Y30545181D01*
X-8952381Y30545181D02*
X-8809524Y30545181D01*
X-10000000Y30545181D02*
X-10000000Y31068991D01*
X-10000000Y31068991D02*
X-9952381Y31164229D01*
X-9952381Y31164229D02*
X-9857143Y31211848D01*
X-9857143Y31211848D02*
X-9666667Y31211848D01*
X-9666667Y31211848D02*
X-9571429Y31164229D01*
X-10000000Y30592800D02*
X-9904762Y30545181D01*
X-9904762Y30545181D02*
X-9666667Y30545181D01*
X-9666667Y30545181D02*
X-9571429Y30592800D01*
X-9571429Y30592800D02*
X-9523810Y30688039D01*
X-9523810Y30688039D02*
X-9523810Y30783277D01*
X-9523810Y30783277D02*
X-9571429Y30878515D01*
X-9571429Y30878515D02*
X-9666667Y30926134D01*
X-9666667Y30926134D02*
X-9904762Y30926134D01*
X-9904762Y30926134D02*
X-10000000Y30973753D01*
X-10476191Y30545181D02*
X-10476191Y31211848D01*
X-10476191Y31021372D02*
X-10523810Y31116610D01*
X-10523810Y31116610D02*
X-10571429Y31164229D01*
X-10571429Y31164229D02*
X-10666667Y31211848D01*
X-10666667Y31211848D02*
X-10761905Y31211848D01*
X-11523810Y30545181D02*
X-11523810Y31545181D01*
X-11523810Y30592800D02*
X-11428572Y30545181D01*
X-11428572Y30545181D02*
X-11238096Y30545181D01*
X-11238096Y30545181D02*
X-11142858Y30592800D01*
X-11142858Y30592800D02*
X-11095239Y30640420D01*
X-11095239Y30640420D02*
X-11047620Y30735658D01*
X-11047620Y30735658D02*
X-11047620Y31021372D01*
X-11047620Y31021372D02*
X-11095239Y31116610D01*
X-11095239Y31116610D02*
X-11142858Y31164229D01*
X-11142858Y31164229D02*
X-11238096Y31211848D01*
X-11238096Y31211848D02*
X-11428572Y31211848D01*
X-11428572Y31211848D02*
X-11523810Y31164229D01*
X-12666668Y31211848D02*
X-12904763Y30545181D01*
X-12904763Y30545181D02*
X-13142858Y31211848D01*
X-13714287Y31545181D02*
X-13809525Y31545181D01*
X-13809525Y31545181D02*
X-13904763Y31497562D01*
X-13904763Y31497562D02*
X-13952382Y31449943D01*
X-13952382Y31449943D02*
X-14000001Y31354705D01*
X-14000001Y31354705D02*
X-14047620Y31164229D01*
X-14047620Y31164229D02*
X-14047620Y30926134D01*
X-14047620Y30926134D02*
X-14000001Y30735658D01*
X-14000001Y30735658D02*
X-13952382Y30640420D01*
X-13952382Y30640420D02*
X-13904763Y30592800D01*
X-13904763Y30592800D02*
X-13809525Y30545181D01*
X-13809525Y30545181D02*
X-13714287Y30545181D01*
X-13714287Y30545181D02*
X-13619049Y30592800D01*
X-13619049Y30592800D02*
X-13571430Y30640420D01*
X-13571430Y30640420D02*
X-13523811Y30735658D01*
X-13523811Y30735658D02*
X-13476192Y30926134D01*
X-13476192Y30926134D02*
X-13476192Y31164229D01*
X-13476192Y31164229D02*
X-13523811Y31354705D01*
X-13523811Y31354705D02*
X-13571430Y31449943D01*
X-13571430Y31449943D02*
X-13619049Y31497562D01*
X-13619049Y31497562D02*
X-13714287Y31545181D01*
X-14476192Y30640420D02*
X-14523811Y30592800D01*
X-14523811Y30592800D02*
X-14476192Y30545181D01*
X-14476192Y30545181D02*
X-14428573Y30592800D01*
X-14428573Y30592800D02*
X-14476192Y30640420D01*
X-14476192Y30640420D02*
X-14476192Y30545181D01*
X-14857144Y31545181D02*
X-15476191Y31545181D01*
X-15476191Y31545181D02*
X-15142858Y31164229D01*
X-15142858Y31164229D02*
X-15285715Y31164229D01*
X-15285715Y31164229D02*
X-15380953Y31116610D01*
X-15380953Y31116610D02*
X-15428572Y31068991D01*
X-15428572Y31068991D02*
X-15476191Y30973753D01*
X-15476191Y30973753D02*
X-15476191Y30735658D01*
X-15476191Y30735658D02*
X-15428572Y30640420D01*
X-15428572Y30640420D02*
X-15380953Y30592800D01*
X-15380953Y30592800D02*
X-15285715Y30545181D01*
X-15285715Y30545181D02*
X-15000001Y30545181D01*
X-15000001Y30545181D02*
X-14904763Y30592800D01*
X-14904763Y30592800D02*
X-14857144Y30640420D01*
X-1595239Y28745181D02*
X-1595239Y29745181D01*
X-1595239Y29745181D02*
X-1928572Y29030896D01*
X-1928572Y29030896D02*
X-2261905Y29745181D01*
X-2261905Y29745181D02*
X-2261905Y28745181D01*
X-2690477Y29030896D02*
X-3166667Y29030896D01*
X-2595239Y28745181D02*
X-2928572Y29745181D01*
X-2928572Y29745181D02*
X-3261905Y28745181D01*
X-3595239Y28745181D02*
X-3595239Y29745181D01*
X-4071429Y28745181D02*
X-4071429Y29745181D01*
X-4071429Y29745181D02*
X-4642857Y28745181D01*
X-4642857Y28745181D02*
X-4642857Y29745181D01*
X-5071429Y28792800D02*
X-5214286Y28745181D01*
X-5214286Y28745181D02*
X-5452381Y28745181D01*
X-5452381Y28745181D02*
X-5547619Y28792800D01*
X-5547619Y28792800D02*
X-5595238Y28840420D01*
X-5595238Y28840420D02*
X-5642857Y28935658D01*
X-5642857Y28935658D02*
X-5642857Y29030896D01*
X-5642857Y29030896D02*
X-5595238Y29126134D01*
X-5595238Y29126134D02*
X-5547619Y29173753D01*
X-5547619Y29173753D02*
X-5452381Y29221372D01*
X-5452381Y29221372D02*
X-5261905Y29268991D01*
X-5261905Y29268991D02*
X-5166667Y29316610D01*
X-5166667Y29316610D02*
X-5119048Y29364229D01*
X-5119048Y29364229D02*
X-5071429Y29459467D01*
X-5071429Y29459467D02*
X-5071429Y29554705D01*
X-5071429Y29554705D02*
X-5119048Y29649943D01*
X-5119048Y29649943D02*
X-5166667Y29697562D01*
X-5166667Y29697562D02*
X-5261905Y29745181D01*
X-5261905Y29745181D02*
X-5500000Y29745181D01*
X-5500000Y29745181D02*
X-5642857Y29697562D01*
X-6785715Y29649943D02*
X-6833334Y29697562D01*
X-6833334Y29697562D02*
X-6928572Y29745181D01*
X-6928572Y29745181D02*
X-7166667Y29745181D01*
X-7166667Y29745181D02*
X-7261905Y29697562D01*
X-7261905Y29697562D02*
X-7309524Y29649943D01*
X-7309524Y29649943D02*
X-7357143Y29554705D01*
X-7357143Y29554705D02*
X-7357143Y29459467D01*
X-7357143Y29459467D02*
X-7309524Y29316610D01*
X-7309524Y29316610D02*
X-6738096Y28745181D01*
X-6738096Y28745181D02*
X-7357143Y28745181D01*
X-7690477Y29745181D02*
X-8357143Y29745181D01*
X-8357143Y29745181D02*
X-7928572Y28745181D01*
X-8928572Y29745181D02*
X-9023810Y29745181D01*
X-9023810Y29745181D02*
X-9119048Y29697562D01*
X-9119048Y29697562D02*
X-9166667Y29649943D01*
X-9166667Y29649943D02*
X-9214286Y29554705D01*
X-9214286Y29554705D02*
X-9261905Y29364229D01*
X-9261905Y29364229D02*
X-9261905Y29126134D01*
X-9261905Y29126134D02*
X-9214286Y28935658D01*
X-9214286Y28935658D02*
X-9166667Y28840420D01*
X-9166667Y28840420D02*
X-9119048Y28792800D01*
X-9119048Y28792800D02*
X-9023810Y28745181D01*
X-9023810Y28745181D02*
X-8928572Y28745181D01*
X-8928572Y28745181D02*
X-8833334Y28792800D01*
X-8833334Y28792800D02*
X-8785715Y28840420D01*
X-8785715Y28840420D02*
X-8738096Y28935658D01*
X-8738096Y28935658D02*
X-8690477Y29126134D01*
X-8690477Y29126134D02*
X-8690477Y29364229D01*
X-8690477Y29364229D02*
X-8738096Y29554705D01*
X-8738096Y29554705D02*
X-8785715Y29649943D01*
X-8785715Y29649943D02*
X-8833334Y29697562D01*
X-8833334Y29697562D02*
X-8928572Y29745181D01*
X-10309525Y29745181D02*
X-10642858Y28745181D01*
X-10642858Y28745181D02*
X-10976191Y29745181D01*
X-11261906Y29030896D02*
X-11738096Y29030896D01*
X-11166668Y28745181D02*
X-11500001Y29745181D01*
X-11500001Y29745181D02*
X-11833334Y28745181D01*
X-12738096Y28840420D02*
X-12690477Y28792800D01*
X-12690477Y28792800D02*
X-12547620Y28745181D01*
X-12547620Y28745181D02*
X-12452382Y28745181D01*
X-12452382Y28745181D02*
X-12309525Y28792800D01*
X-12309525Y28792800D02*
X-12214287Y28888039D01*
X-12214287Y28888039D02*
X-12166668Y28983277D01*
X-12166668Y28983277D02*
X-12119049Y29173753D01*
X-12119049Y29173753D02*
X-12119049Y29316610D01*
X-12119049Y29316610D02*
X-12166668Y29507086D01*
X-12166668Y29507086D02*
X-12214287Y29602324D01*
X-12214287Y29602324D02*
X-12309525Y29697562D01*
X-12309525Y29697562D02*
X-12452382Y29745181D01*
X-12452382Y29745181D02*
X-12547620Y29745181D01*
X-12547620Y29745181D02*
X-12690477Y29697562D01*
X-12690477Y29697562D02*
X-12738096Y29649943D01*
X-13928573Y28745181D02*
X-13928573Y29745181D01*
X-13928573Y29745181D02*
X-14261906Y29030896D01*
X-14261906Y29030896D02*
X-14595239Y29745181D01*
X-14595239Y29745181D02*
X-14595239Y28745181D01*
X-15023811Y29030896D02*
X-15500001Y29030896D01*
X-14928573Y28745181D02*
X-15261906Y29745181D01*
X-15261906Y29745181D02*
X-15595239Y28745181D01*
X-15833335Y29745181D02*
X-16500001Y28745181D01*
X-16500001Y29745181D02*
X-15833335Y28745181D01*
G04 #@! TO.C,J1*
D10*
X19320000Y13220000D02*
X-13320000Y13220000D01*
X-13320000Y-3120000D01*
X19320000Y-3120000D01*
X19320000Y13220000D01*
G04 #@! TO.C,PS1*
X-18620000Y-9270000D02*
X18620000Y-9270000D01*
X-18620000Y-33510000D02*
X-18620000Y-9270000D01*
X-18620000Y-33510000D02*
X0Y-33510000D01*
X-17240000Y-8890000D02*
X-11240000Y-8890000D01*
X6000000Y-33510000D02*
X18620000Y-33510000D01*
X18620000Y-9270000D02*
X18620000Y-33510000D01*
G04 #@! TD*
%LPC*%
D12*
G04 #@! TO.C,MH3*
X21000000Y24770000D03*
G04 #@! TD*
G04 #@! TO.C,MH2*
X-21000000Y-33500000D03*
G04 #@! TD*
G04 #@! TO.C,MH4*
X21000000Y-33500000D03*
G04 #@! TD*
D13*
G04 #@! TO.C,S1*
X-5100000Y19500000D03*
X-5100000Y26500000D03*
X5100000Y19500000D03*
X5100000Y26500000D03*
G04 #@! TD*
D12*
G04 #@! TO.C,MH1*
X-21000000Y33500000D03*
G04 #@! TD*
D14*
G04 #@! TO.C,J1*
X15500000Y-100000D03*
D15*
X15500000Y8100000D03*
D14*
X10500000Y-100000D03*
X10500000Y8100000D03*
X5500000Y-100000D03*
X5500000Y8100000D03*
X500000Y-100000D03*
X500000Y8100000D03*
X-4500000Y-100000D03*
X-4500000Y8100000D03*
X-9500000Y-100000D03*
X-9500000Y8100000D03*
G04 #@! TD*
D16*
G04 #@! TO.C,PS1*
X-15240000Y-12500000D03*
D17*
X-10160000Y-12500000D03*
X15240000Y-12500000D03*
X15240000Y-30280000D03*
X10160000Y-30280000D03*
G04 #@! TD*
%LPD*%
M02*
