G04 #@! TF.GenerationSoftware,KiCad,Pcbnew,9.0.9-9.0.9~ubuntu24.04.1*
G04 #@! TF.CreationDate,2026-10-09T05:53:30+00:00*
G04 #@! TF.ProjectId,wiring_board,77697269-6e67-45f6-926f-6172642e6b69,rev?*
G04 #@! TF.SameCoordinates,Original*
G04 #@! TF.FileFunction,Legend,Top*
G04 #@! TF.FilePolarity,Positive*
%FSLAX46Y46*%
G04 Gerber Fmt 4.6, Leading zero omitted, Abs format (unit mm)*
G04 Created by KiCad (PCBNEW 9.0.9-9.0.9~ubuntu24.04.1) date 2026-10-09 05:53:30*
%MOMM*%
%LPD*%
G01*
G04 APERTURE LIST*
G04 Aperture macros list*
%AMRoundRect*
0 Rectangle with rounded corners*
0 $1 Rounding radius*
0 $2 $3 $4 $5 $6 $7 $8 $9 X,Y pos of 4 corners*
0 Add a 4 corners polygon primitive as box body*
4,1,4,$2,$3,$4,$5,$6,$7,$8,$9,$2,$3,0*
0 Add four circle primitives for the rounded corners*
1,1,$1+$1,$2,$3*
1,1,$1+$1,$4,$5*
1,1,$1+$1,$6,$7*
1,1,$1+$1,$8,$9*
0 Add four rect primitives between the rounded corners*
20,1,$1+$1,$2,$3,$4,$5,0*
20,1,$1+$1,$4,$5,$6,$7,0*
20,1,$1+$1,$6,$7,$8,$9,0*
20,1,$1+$1,$8,$9,$2,$3,0*%
G04 Aperture macros list end*
%ADD10C,0.120000*%
%ADD11C,0.010000*%
%ADD12C,0.498700*%
%ADD13R,3.500000X2.800000*%
%ADD14C,2.600000*%
%ADD15RoundRect,0.250000X1.625000X-0.750000X1.625000X0.750000X-1.625000X0.750000X-1.625000X-0.750000X0*%
%ADD16R,0.300000X1.300000*%
%ADD17R,1.800000X2.200000*%
%ADD18RoundRect,0.250000X-0.325000X-0.650000X0.325000X-0.650000X0.325000X0.650000X-0.325000X0.650000X0*%
%ADD19C,2.400000*%
%ADD20C,2.200000*%
%ADD21R,2.200000X2.200000*%
%ADD22R,2.000000X2.300000*%
%ADD23C,2.300000*%
G04 APERTURE END LIST*
D10*
X-21647621Y-29668407D02*
X-21914287Y-29668407D01*
X-21914287Y-30087455D02*
X-21914287Y-29287455D01*
X-21914287Y-29287455D02*
X-21533335Y-29287455D01*
X-20809526Y-30087455D02*
X-21266669Y-30087455D01*
X-21038097Y-30087455D02*
X-21038097Y-29287455D01*
X-21038097Y-29287455D02*
X-21114288Y-29401740D01*
X-21114288Y-29401740D02*
X-21190478Y-29477931D01*
X-21190478Y-29477931D02*
X-21266669Y-29516026D01*
X-19895240Y-30049360D02*
X-19780954Y-30087455D01*
X-19780954Y-30087455D02*
X-19590478Y-30087455D01*
X-19590478Y-30087455D02*
X-19514287Y-30049360D01*
X-19514287Y-30049360D02*
X-19476192Y-30011264D01*
X-19476192Y-30011264D02*
X-19438097Y-29935074D01*
X-19438097Y-29935074D02*
X-19438097Y-29858883D01*
X-19438097Y-29858883D02*
X-19476192Y-29782693D01*
X-19476192Y-29782693D02*
X-19514287Y-29744598D01*
X-19514287Y-29744598D02*
X-19590478Y-29706502D01*
X-19590478Y-29706502D02*
X-19742859Y-29668407D01*
X-19742859Y-29668407D02*
X-19819049Y-29630312D01*
X-19819049Y-29630312D02*
X-19857144Y-29592217D01*
X-19857144Y-29592217D02*
X-19895240Y-29516026D01*
X-19895240Y-29516026D02*
X-19895240Y-29439836D01*
X-19895240Y-29439836D02*
X-19857144Y-29363645D01*
X-19857144Y-29363645D02*
X-19819049Y-29325550D01*
X-19819049Y-29325550D02*
X-19742859Y-29287455D01*
X-19742859Y-29287455D02*
X-19552382Y-29287455D01*
X-19552382Y-29287455D02*
X-19438097Y-29325550D01*
X-18752382Y-30049360D02*
X-18828573Y-30087455D01*
X-18828573Y-30087455D02*
X-18980954Y-30087455D01*
X-18980954Y-30087455D02*
X-19057144Y-30049360D01*
X-19057144Y-30049360D02*
X-19095239Y-30011264D01*
X-19095239Y-30011264D02*
X-19133335Y-29935074D01*
X-19133335Y-29935074D02*
X-19133335Y-29706502D01*
X-19133335Y-29706502D02*
X-19095239Y-29630312D01*
X-19095239Y-29630312D02*
X-19057144Y-29592217D01*
X-19057144Y-29592217D02*
X-18980954Y-29554121D01*
X-18980954Y-29554121D02*
X-18828573Y-29554121D01*
X-18828573Y-29554121D02*
X-18752382Y-29592217D01*
X-18409525Y-30087455D02*
X-18409525Y-29287455D01*
X-18066668Y-30087455D02*
X-18066668Y-29668407D01*
X-18066668Y-29668407D02*
X-18104763Y-29592217D01*
X-18104763Y-29592217D02*
X-18180954Y-29554121D01*
X-18180954Y-29554121D02*
X-18295240Y-29554121D01*
X-18295240Y-29554121D02*
X-18371430Y-29592217D01*
X-18371430Y-29592217D02*
X-18409525Y-29630312D01*
X-17342858Y-29554121D02*
X-17342858Y-30087455D01*
X-17685715Y-29554121D02*
X-17685715Y-29973169D01*
X-17685715Y-29973169D02*
X-17647620Y-30049360D01*
X-17647620Y-30049360D02*
X-17571430Y-30087455D01*
X-17571430Y-30087455D02*
X-17457144Y-30087455D01*
X-17457144Y-30087455D02*
X-17380953Y-30049360D01*
X-17380953Y-30049360D02*
X-17342858Y-30011264D01*
X-16961905Y-30087455D02*
X-16961905Y-29554121D01*
X-16961905Y-29706502D02*
X-16923810Y-29630312D01*
X-16923810Y-29630312D02*
X-16885715Y-29592217D01*
X-16885715Y-29592217D02*
X-16809524Y-29554121D01*
X-16809524Y-29554121D02*
X-16733334Y-29554121D01*
X-16580953Y-29554121D02*
X-16276191Y-29554121D01*
X-16466667Y-29287455D02*
X-16466667Y-29973169D01*
X-16466667Y-29973169D02*
X-16428572Y-30049360D01*
X-16428572Y-30049360D02*
X-16352382Y-30087455D01*
X-16352382Y-30087455D02*
X-16276191Y-30087455D01*
X-15704762Y-30049360D02*
X-15780953Y-30087455D01*
X-15780953Y-30087455D02*
X-15933334Y-30087455D01*
X-15933334Y-30087455D02*
X-16009524Y-30049360D01*
X-16009524Y-30049360D02*
X-16047620Y-29973169D01*
X-16047620Y-29973169D02*
X-16047620Y-29668407D01*
X-16047620Y-29668407D02*
X-16009524Y-29592217D01*
X-16009524Y-29592217D02*
X-15933334Y-29554121D01*
X-15933334Y-29554121D02*
X-15780953Y-29554121D01*
X-15780953Y-29554121D02*
X-15704762Y-29592217D01*
X-15704762Y-29592217D02*
X-15666667Y-29668407D01*
X-15666667Y-29668407D02*
X-15666667Y-29744598D01*
X-15666667Y-29744598D02*
X-16047620Y-29820788D01*
X-15323810Y-30087455D02*
X-15323810Y-29554121D01*
X-15323810Y-29706502D02*
X-15285715Y-29630312D01*
X-15285715Y-29630312D02*
X-15247620Y-29592217D01*
X-15247620Y-29592217D02*
X-15171429Y-29554121D01*
X-15171429Y-29554121D02*
X-15095239Y-29554121D01*
X-14219048Y-29287455D02*
X-14219048Y-29935074D01*
X-14219048Y-29935074D02*
X-14180953Y-30011264D01*
X-14180953Y-30011264D02*
X-14142858Y-30049360D01*
X-14142858Y-30049360D02*
X-14066667Y-30087455D01*
X-14066667Y-30087455D02*
X-13914286Y-30087455D01*
X-13914286Y-30087455D02*
X-13838096Y-30049360D01*
X-13838096Y-30049360D02*
X-13800001Y-30011264D01*
X-13800001Y-30011264D02*
X-13761905Y-29935074D01*
X-13761905Y-29935074D02*
X-13761905Y-29287455D01*
X-13380953Y-30087455D02*
X-13380953Y-29287455D01*
X-13380953Y-29287455D02*
X-13114287Y-29858883D01*
X-13114287Y-29858883D02*
X-12847620Y-29287455D01*
X-12847620Y-29287455D02*
X-12847620Y-30087455D01*
X-12580953Y-29287455D02*
X-12123810Y-29287455D01*
X-12352382Y-30087455D02*
X-12352382Y-29287455D01*
X-11895239Y-29363645D02*
X-11857143Y-29325550D01*
X-11857143Y-29325550D02*
X-11780953Y-29287455D01*
X-11780953Y-29287455D02*
X-11590477Y-29287455D01*
X-11590477Y-29287455D02*
X-11514286Y-29325550D01*
X-11514286Y-29325550D02*
X-11476191Y-29363645D01*
X-11476191Y-29363645D02*
X-11438096Y-29439836D01*
X-11438096Y-29439836D02*
X-11438096Y-29516026D01*
X-11438096Y-29516026D02*
X-11476191Y-29630312D01*
X-11476191Y-29630312D02*
X-11933334Y-30087455D01*
X-11933334Y-30087455D02*
X-11438096Y-30087455D01*
X-10714286Y-29287455D02*
X-11095238Y-29287455D01*
X-11095238Y-29287455D02*
X-11133334Y-29668407D01*
X-11133334Y-29668407D02*
X-11095238Y-29630312D01*
X-11095238Y-29630312D02*
X-11019048Y-29592217D01*
X-11019048Y-29592217D02*
X-10828572Y-29592217D01*
X-10828572Y-29592217D02*
X-10752381Y-29630312D01*
X-10752381Y-29630312D02*
X-10714286Y-29668407D01*
X-10714286Y-29668407D02*
X-10676191Y-29744598D01*
X-10676191Y-29744598D02*
X-10676191Y-29935074D01*
X-10676191Y-29935074D02*
X-10714286Y-30011264D01*
X-10714286Y-30011264D02*
X-10752381Y-30049360D01*
X-10752381Y-30049360D02*
X-10828572Y-30087455D01*
X-10828572Y-30087455D02*
X-11019048Y-30087455D01*
X-11019048Y-30087455D02*
X-11095238Y-30049360D01*
X-11095238Y-30049360D02*
X-11133334Y-30011264D01*
X-10180952Y-29287455D02*
X-10104762Y-29287455D01*
X-10104762Y-29287455D02*
X-10028571Y-29325550D01*
X-10028571Y-29325550D02*
X-9990476Y-29363645D01*
X-9990476Y-29363645D02*
X-9952381Y-29439836D01*
X-9952381Y-29439836D02*
X-9914286Y-29592217D01*
X-9914286Y-29592217D02*
X-9914286Y-29782693D01*
X-9914286Y-29782693D02*
X-9952381Y-29935074D01*
X-9952381Y-29935074D02*
X-9990476Y-30011264D01*
X-9990476Y-30011264D02*
X-10028571Y-30049360D01*
X-10028571Y-30049360D02*
X-10104762Y-30087455D01*
X-10104762Y-30087455D02*
X-10180952Y-30087455D01*
X-10180952Y-30087455D02*
X-10257143Y-30049360D01*
X-10257143Y-30049360D02*
X-10295238Y-30011264D01*
X-10295238Y-30011264D02*
X-10333333Y-29935074D01*
X-10333333Y-29935074D02*
X-10371429Y-29782693D01*
X-10371429Y-29782693D02*
X-10371429Y-29592217D01*
X-10371429Y-29592217D02*
X-10333333Y-29439836D01*
X-10333333Y-29439836D02*
X-10295238Y-29363645D01*
X-10295238Y-29363645D02*
X-10257143Y-29325550D01*
X-10257143Y-29325550D02*
X-10180952Y-29287455D01*
X-9076190Y-29287455D02*
X-8619047Y-29287455D01*
X-8847619Y-30087455D02*
X-8847619Y-29287455D01*
X-7933333Y-30087455D02*
X-8390476Y-30087455D01*
X-8161904Y-30087455D02*
X-8161904Y-29287455D01*
X-8161904Y-29287455D02*
X-8238095Y-29401740D01*
X-8238095Y-29401740D02*
X-8314285Y-29477931D01*
X-8314285Y-29477931D02*
X-8390476Y-29516026D01*
X-7628571Y-29858883D02*
X-7247618Y-29858883D01*
X-7704761Y-30087455D02*
X-7438094Y-29287455D01*
X-7438094Y-29287455D02*
X-7171428Y-30087455D01*
X-7447622Y30747840D02*
X-7333336Y30709745D01*
X-7333336Y30709745D02*
X-7142860Y30709745D01*
X-7142860Y30709745D02*
X-7066669Y30747840D01*
X-7066669Y30747840D02*
X-7028574Y30785936D01*
X-7028574Y30785936D02*
X-6990479Y30862126D01*
X-6990479Y30862126D02*
X-6990479Y30938317D01*
X-6990479Y30938317D02*
X-7028574Y31014507D01*
X-7028574Y31014507D02*
X-7066669Y31052602D01*
X-7066669Y31052602D02*
X-7142860Y31090698D01*
X-7142860Y31090698D02*
X-7295241Y31128793D01*
X-7295241Y31128793D02*
X-7371431Y31166888D01*
X-7371431Y31166888D02*
X-7409526Y31204983D01*
X-7409526Y31204983D02*
X-7447622Y31281174D01*
X-7447622Y31281174D02*
X-7447622Y31357364D01*
X-7447622Y31357364D02*
X-7409526Y31433555D01*
X-7409526Y31433555D02*
X-7371431Y31471650D01*
X-7371431Y31471650D02*
X-7295241Y31509745D01*
X-7295241Y31509745D02*
X-7104764Y31509745D01*
X-7104764Y31509745D02*
X-6990479Y31471650D01*
X-6228574Y30709745D02*
X-6685717Y30709745D01*
X-6457145Y30709745D02*
X-6457145Y31509745D01*
X-6457145Y31509745D02*
X-6533336Y31395460D01*
X-6533336Y31395460D02*
X-6609526Y31319269D01*
X-6609526Y31319269D02*
X-6685717Y31281174D01*
X-5276192Y30709745D02*
X-5276192Y31509745D01*
X-5276192Y31509745D02*
X-5009526Y30938317D01*
X-5009526Y30938317D02*
X-4742859Y31509745D01*
X-4742859Y31509745D02*
X-4742859Y30709745D01*
X-4019049Y30709745D02*
X-4019049Y31128793D01*
X-4019049Y31128793D02*
X-4057144Y31204983D01*
X-4057144Y31204983D02*
X-4133335Y31243079D01*
X-4133335Y31243079D02*
X-4285716Y31243079D01*
X-4285716Y31243079D02*
X-4361906Y31204983D01*
X-4019049Y30747840D02*
X-4095240Y30709745D01*
X-4095240Y30709745D02*
X-4285716Y30709745D01*
X-4285716Y30709745D02*
X-4361906Y30747840D01*
X-4361906Y30747840D02*
X-4400002Y30824031D01*
X-4400002Y30824031D02*
X-4400002Y30900221D01*
X-4400002Y30900221D02*
X-4361906Y30976412D01*
X-4361906Y30976412D02*
X-4285716Y31014507D01*
X-4285716Y31014507D02*
X-4095240Y31014507D01*
X-4095240Y31014507D02*
X-4019049Y31052602D01*
X-3638096Y30709745D02*
X-3638096Y31243079D01*
X-3638096Y31090698D02*
X-3600001Y31166888D01*
X-3600001Y31166888D02*
X-3561906Y31204983D01*
X-3561906Y31204983D02*
X-3485715Y31243079D01*
X-3485715Y31243079D02*
X-3409525Y31243079D01*
X-2800001Y31243079D02*
X-2800001Y30443079D01*
X-2800001Y30747840D02*
X-2876192Y30709745D01*
X-2876192Y30709745D02*
X-3028573Y30709745D01*
X-3028573Y30709745D02*
X-3104763Y30747840D01*
X-3104763Y30747840D02*
X-3142858Y30785936D01*
X-3142858Y30785936D02*
X-3180954Y30862126D01*
X-3180954Y30862126D02*
X-3180954Y31090698D01*
X-3180954Y31090698D02*
X-3142858Y31166888D01*
X-3142858Y31166888D02*
X-3104763Y31204983D01*
X-3104763Y31204983D02*
X-3028573Y31243079D01*
X-3028573Y31243079D02*
X-2876192Y31243079D01*
X-2876192Y31243079D02*
X-2800001Y31204983D01*
X-2076191Y31243079D02*
X-2076191Y30709745D01*
X-2419048Y31243079D02*
X-2419048Y30824031D01*
X-2419048Y30824031D02*
X-2380953Y30747840D01*
X-2380953Y30747840D02*
X-2304763Y30709745D01*
X-2304763Y30709745D02*
X-2190477Y30709745D01*
X-2190477Y30709745D02*
X-2114286Y30747840D01*
X-2114286Y30747840D02*
X-2076191Y30785936D01*
X-1352381Y30709745D02*
X-1352381Y31128793D01*
X-1352381Y31128793D02*
X-1390476Y31204983D01*
X-1390476Y31204983D02*
X-1466667Y31243079D01*
X-1466667Y31243079D02*
X-1619048Y31243079D01*
X-1619048Y31243079D02*
X-1695238Y31204983D01*
X-1352381Y30747840D02*
X-1428572Y30709745D01*
X-1428572Y30709745D02*
X-1619048Y30709745D01*
X-1619048Y30709745D02*
X-1695238Y30747840D01*
X-1695238Y30747840D02*
X-1733334Y30824031D01*
X-1733334Y30824031D02*
X-1733334Y30900221D01*
X-1733334Y30900221D02*
X-1695238Y30976412D01*
X-1695238Y30976412D02*
X-1619048Y31014507D01*
X-1619048Y31014507D02*
X-1428572Y31014507D01*
X-1428572Y31014507D02*
X-1352381Y31052602D01*
X-971428Y30709745D02*
X-971428Y31243079D01*
X-971428Y31090698D02*
X-933333Y31166888D01*
X-933333Y31166888D02*
X-895238Y31204983D01*
X-895238Y31204983D02*
X-819047Y31243079D01*
X-819047Y31243079D02*
X-742857Y31243079D01*
X-133333Y30709745D02*
X-133333Y31509745D01*
X-133333Y30747840D02*
X-209524Y30709745D01*
X-209524Y30709745D02*
X-361905Y30709745D01*
X-361905Y30709745D02*
X-438095Y30747840D01*
X-438095Y30747840D02*
X-476190Y30785936D01*
X-476190Y30785936D02*
X-514286Y30862126D01*
X-514286Y30862126D02*
X-514286Y31090698D01*
X-514286Y31090698D02*
X-476190Y31166888D01*
X-476190Y31166888D02*
X-438095Y31204983D01*
X-438095Y31204983D02*
X-361905Y31243079D01*
X-361905Y31243079D02*
X-209524Y31243079D01*
X-209524Y31243079D02*
X-133333Y31204983D01*
X133334Y31243079D02*
X438096Y31243079D01*
X247620Y31509745D02*
X247620Y30824031D01*
X247620Y30824031D02*
X285715Y30747840D01*
X285715Y30747840D02*
X361905Y30709745D01*
X361905Y30709745D02*
X438096Y30709745D01*
X1733334Y30709745D02*
X1276191Y30709745D01*
X1504763Y30709745D02*
X1504763Y31509745D01*
X1504763Y31509745D02*
X1428572Y31395460D01*
X1428572Y31395460D02*
X1352382Y31319269D01*
X1352382Y31319269D02*
X1276191Y31281174D01*
X2190477Y31166888D02*
X2114287Y31204983D01*
X2114287Y31204983D02*
X2076192Y31243079D01*
X2076192Y31243079D02*
X2038096Y31319269D01*
X2038096Y31319269D02*
X2038096Y31357364D01*
X2038096Y31357364D02*
X2076192Y31433555D01*
X2076192Y31433555D02*
X2114287Y31471650D01*
X2114287Y31471650D02*
X2190477Y31509745D01*
X2190477Y31509745D02*
X2342858Y31509745D01*
X2342858Y31509745D02*
X2419049Y31471650D01*
X2419049Y31471650D02*
X2457144Y31433555D01*
X2457144Y31433555D02*
X2495239Y31357364D01*
X2495239Y31357364D02*
X2495239Y31319269D01*
X2495239Y31319269D02*
X2457144Y31243079D01*
X2457144Y31243079D02*
X2419049Y31204983D01*
X2419049Y31204983D02*
X2342858Y31166888D01*
X2342858Y31166888D02*
X2190477Y31166888D01*
X2190477Y31166888D02*
X2114287Y31128793D01*
X2114287Y31128793D02*
X2076192Y31090698D01*
X2076192Y31090698D02*
X2038096Y31014507D01*
X2038096Y31014507D02*
X2038096Y30862126D01*
X2038096Y30862126D02*
X2076192Y30785936D01*
X2076192Y30785936D02*
X2114287Y30747840D01*
X2114287Y30747840D02*
X2190477Y30709745D01*
X2190477Y30709745D02*
X2342858Y30709745D01*
X2342858Y30709745D02*
X2419049Y30747840D01*
X2419049Y30747840D02*
X2457144Y30785936D01*
X2457144Y30785936D02*
X2495239Y30862126D01*
X2495239Y30862126D02*
X2495239Y31014507D01*
X2495239Y31014507D02*
X2457144Y31090698D01*
X2457144Y31090698D02*
X2419049Y31128793D01*
X2419049Y31128793D02*
X2342858Y31166888D01*
X2990478Y31509745D02*
X3066668Y31509745D01*
X3066668Y31509745D02*
X3142859Y31471650D01*
X3142859Y31471650D02*
X3180954Y31433555D01*
X3180954Y31433555D02*
X3219049Y31357364D01*
X3219049Y31357364D02*
X3257144Y31204983D01*
X3257144Y31204983D02*
X3257144Y31014507D01*
X3257144Y31014507D02*
X3219049Y30862126D01*
X3219049Y30862126D02*
X3180954Y30785936D01*
X3180954Y30785936D02*
X3142859Y30747840D01*
X3142859Y30747840D02*
X3066668Y30709745D01*
X3066668Y30709745D02*
X2990478Y30709745D01*
X2990478Y30709745D02*
X2914287Y30747840D01*
X2914287Y30747840D02*
X2876192Y30785936D01*
X2876192Y30785936D02*
X2838097Y30862126D01*
X2838097Y30862126D02*
X2800001Y31014507D01*
X2800001Y31014507D02*
X2800001Y31204983D01*
X2800001Y31204983D02*
X2838097Y31357364D01*
X2838097Y31357364D02*
X2876192Y31433555D01*
X2876192Y31433555D02*
X2914287Y31471650D01*
X2914287Y31471650D02*
X2990478Y31509745D01*
X3561906Y31433555D02*
X3600002Y31471650D01*
X3600002Y31471650D02*
X3676192Y31509745D01*
X3676192Y31509745D02*
X3866668Y31509745D01*
X3866668Y31509745D02*
X3942859Y31471650D01*
X3942859Y31471650D02*
X3980954Y31433555D01*
X3980954Y31433555D02*
X4019049Y31357364D01*
X4019049Y31357364D02*
X4019049Y31281174D01*
X4019049Y31281174D02*
X3980954Y31166888D01*
X3980954Y31166888D02*
X3523811Y30709745D01*
X3523811Y30709745D02*
X4019049Y30709745D01*
X4361907Y30785936D02*
X4400002Y30747840D01*
X4400002Y30747840D02*
X4361907Y30709745D01*
X4361907Y30709745D02*
X4323811Y30747840D01*
X4323811Y30747840D02*
X4361907Y30785936D01*
X4361907Y30785936D02*
X4361907Y30709745D01*
X4704763Y31433555D02*
X4742859Y31471650D01*
X4742859Y31471650D02*
X4819049Y31509745D01*
X4819049Y31509745D02*
X5009525Y31509745D01*
X5009525Y31509745D02*
X5085716Y31471650D01*
X5085716Y31471650D02*
X5123811Y31433555D01*
X5123811Y31433555D02*
X5161906Y31357364D01*
X5161906Y31357364D02*
X5161906Y31281174D01*
X5161906Y31281174D02*
X5123811Y31166888D01*
X5123811Y31166888D02*
X4666668Y30709745D01*
X4666668Y30709745D02*
X5161906Y30709745D01*
X5885716Y31509745D02*
X5504764Y31509745D01*
X5504764Y31509745D02*
X5466668Y31128793D01*
X5466668Y31128793D02*
X5504764Y31166888D01*
X5504764Y31166888D02*
X5580954Y31204983D01*
X5580954Y31204983D02*
X5771430Y31204983D01*
X5771430Y31204983D02*
X5847621Y31166888D01*
X5847621Y31166888D02*
X5885716Y31128793D01*
X5885716Y31128793D02*
X5923811Y31052602D01*
X5923811Y31052602D02*
X5923811Y30862126D01*
X5923811Y30862126D02*
X5885716Y30785936D01*
X5885716Y30785936D02*
X5847621Y30747840D01*
X5847621Y30747840D02*
X5771430Y30709745D01*
X5771430Y30709745D02*
X5580954Y30709745D01*
X5580954Y30709745D02*
X5504764Y30747840D01*
X5504764Y30747840D02*
X5466668Y30785936D01*
X6419050Y31509745D02*
X6495240Y31509745D01*
X6495240Y31509745D02*
X6571431Y31471650D01*
X6571431Y31471650D02*
X6609526Y31433555D01*
X6609526Y31433555D02*
X6647621Y31357364D01*
X6647621Y31357364D02*
X6685716Y31204983D01*
X6685716Y31204983D02*
X6685716Y31014507D01*
X6685716Y31014507D02*
X6647621Y30862126D01*
X6647621Y30862126D02*
X6609526Y30785936D01*
X6609526Y30785936D02*
X6571431Y30747840D01*
X6571431Y30747840D02*
X6495240Y30709745D01*
X6495240Y30709745D02*
X6419050Y30709745D01*
X6419050Y30709745D02*
X6342859Y30747840D01*
X6342859Y30747840D02*
X6304764Y30785936D01*
X6304764Y30785936D02*
X6266669Y30862126D01*
X6266669Y30862126D02*
X6228573Y31014507D01*
X6228573Y31014507D02*
X6228573Y31204983D01*
X6228573Y31204983D02*
X6266669Y31357364D01*
X6266669Y31357364D02*
X6304764Y31433555D01*
X6304764Y31433555D02*
X6342859Y31471650D01*
X6342859Y31471650D02*
X6419050Y31509745D01*
X7371431Y31243079D02*
X7371431Y30709745D01*
X7180955Y31547840D02*
X6990478Y30976412D01*
X6990478Y30976412D02*
X7485717Y30976412D01*
X9842857Y-32759092D02*
X10452381Y-32759092D01*
X10147619Y-33063854D02*
X10147619Y-32454330D01*
X11214285Y-32263854D02*
X10833333Y-32263854D01*
X10833333Y-32263854D02*
X10795237Y-32644806D01*
X10795237Y-32644806D02*
X10833333Y-32606711D01*
X10833333Y-32606711D02*
X10909523Y-32568616D01*
X10909523Y-32568616D02*
X11099999Y-32568616D01*
X11099999Y-32568616D02*
X11176190Y-32606711D01*
X11176190Y-32606711D02*
X11214285Y-32644806D01*
X11214285Y-32644806D02*
X11252380Y-32720997D01*
X11252380Y-32720997D02*
X11252380Y-32911473D01*
X11252380Y-32911473D02*
X11214285Y-32987663D01*
X11214285Y-32987663D02*
X11176190Y-33025759D01*
X11176190Y-33025759D02*
X11099999Y-33063854D01*
X11099999Y-33063854D02*
X10909523Y-33063854D01*
X10909523Y-33063854D02*
X10833333Y-33025759D01*
X10833333Y-33025759D02*
X10795237Y-32987663D01*
X11480952Y-32263854D02*
X11747619Y-33063854D01*
X11747619Y-33063854D02*
X12014285Y-32263854D01*
X13919047Y-32301949D02*
X13842857Y-32263854D01*
X13842857Y-32263854D02*
X13728571Y-32263854D01*
X13728571Y-32263854D02*
X13614285Y-32301949D01*
X13614285Y-32301949D02*
X13538095Y-32378139D01*
X13538095Y-32378139D02*
X13500000Y-32454330D01*
X13500000Y-32454330D02*
X13461904Y-32606711D01*
X13461904Y-32606711D02*
X13461904Y-32720997D01*
X13461904Y-32720997D02*
X13500000Y-32873378D01*
X13500000Y-32873378D02*
X13538095Y-32949568D01*
X13538095Y-32949568D02*
X13614285Y-33025759D01*
X13614285Y-33025759D02*
X13728571Y-33063854D01*
X13728571Y-33063854D02*
X13804762Y-33063854D01*
X13804762Y-33063854D02*
X13919047Y-33025759D01*
X13919047Y-33025759D02*
X13957143Y-32987663D01*
X13957143Y-32987663D02*
X13957143Y-32720997D01*
X13957143Y-32720997D02*
X13804762Y-32720997D01*
X14300000Y-33063854D02*
X14300000Y-32263854D01*
X14300000Y-32263854D02*
X14757143Y-33063854D01*
X14757143Y-33063854D02*
X14757143Y-32263854D01*
X15138095Y-33063854D02*
X15138095Y-32263854D01*
X15138095Y-32263854D02*
X15328571Y-32263854D01*
X15328571Y-32263854D02*
X15442857Y-32301949D01*
X15442857Y-32301949D02*
X15519047Y-32378139D01*
X15519047Y-32378139D02*
X15557142Y-32454330D01*
X15557142Y-32454330D02*
X15595238Y-32606711D01*
X15595238Y-32606711D02*
X15595238Y-32720997D01*
X15595238Y-32720997D02*
X15557142Y-32873378D01*
X15557142Y-32873378D02*
X15519047Y-32949568D01*
X15519047Y-32949568D02*
X15442857Y-33025759D01*
X15442857Y-33025759D02*
X15328571Y-33063854D01*
X15328571Y-33063854D02*
X15138095Y-33063854D01*
X6390475Y-24114064D02*
X6352379Y-24152160D01*
X6352379Y-24152160D02*
X6238094Y-24190255D01*
X6238094Y-24190255D02*
X6161903Y-24190255D01*
X6161903Y-24190255D02*
X6047617Y-24152160D01*
X6047617Y-24152160D02*
X5971427Y-24075969D01*
X5971427Y-24075969D02*
X5933332Y-23999779D01*
X5933332Y-23999779D02*
X5895236Y-23847398D01*
X5895236Y-23847398D02*
X5895236Y-23733112D01*
X5895236Y-23733112D02*
X5933332Y-23580731D01*
X5933332Y-23580731D02*
X5971427Y-23504540D01*
X5971427Y-23504540D02*
X6047617Y-23428350D01*
X6047617Y-23428350D02*
X6161903Y-23390255D01*
X6161903Y-23390255D02*
X6238094Y-23390255D01*
X6238094Y-23390255D02*
X6352379Y-23428350D01*
X6352379Y-23428350D02*
X6390475Y-23466445D01*
X7152379Y-24190255D02*
X6695236Y-24190255D01*
X6923808Y-24190255D02*
X6923808Y-23390255D01*
X6923808Y-23390255D02*
X6847617Y-23504540D01*
X6847617Y-23504540D02*
X6771427Y-23580731D01*
X6771427Y-23580731D02*
X6695236Y-23618826D01*
X8066665Y-23466445D02*
X8104761Y-23428350D01*
X8104761Y-23428350D02*
X8180951Y-23390255D01*
X8180951Y-23390255D02*
X8371427Y-23390255D01*
X8371427Y-23390255D02*
X8447618Y-23428350D01*
X8447618Y-23428350D02*
X8485713Y-23466445D01*
X8485713Y-23466445D02*
X8523808Y-23542636D01*
X8523808Y-23542636D02*
X8523808Y-23618826D01*
X8523808Y-23618826D02*
X8485713Y-23733112D01*
X8485713Y-23733112D02*
X8028570Y-24190255D01*
X8028570Y-24190255D02*
X8523808Y-24190255D01*
X8828570Y-23466445D02*
X8866666Y-23428350D01*
X8866666Y-23428350D02*
X8942856Y-23390255D01*
X8942856Y-23390255D02*
X9133332Y-23390255D01*
X9133332Y-23390255D02*
X9209523Y-23428350D01*
X9209523Y-23428350D02*
X9247618Y-23466445D01*
X9247618Y-23466445D02*
X9285713Y-23542636D01*
X9285713Y-23542636D02*
X9285713Y-23618826D01*
X9285713Y-23618826D02*
X9247618Y-23733112D01*
X9247618Y-23733112D02*
X8790475Y-24190255D01*
X8790475Y-24190255D02*
X9285713Y-24190255D01*
X9971428Y-23656921D02*
X9971428Y-24190255D01*
X9628571Y-23656921D02*
X9628571Y-24075969D01*
X9628571Y-24075969D02*
X9666666Y-24152160D01*
X9666666Y-24152160D02*
X9742856Y-24190255D01*
X9742856Y-24190255D02*
X9857142Y-24190255D01*
X9857142Y-24190255D02*
X9933333Y-24152160D01*
X9933333Y-24152160D02*
X9971428Y-24114064D01*
X10619047Y-23771207D02*
X10352381Y-23771207D01*
X10352381Y-24190255D02*
X10352381Y-23390255D01*
X10352381Y-23390255D02*
X10733333Y-23390255D01*
X12066666Y-24190255D02*
X11609523Y-24190255D01*
X11838095Y-24190255D02*
X11838095Y-23390255D01*
X11838095Y-23390255D02*
X11761904Y-23504540D01*
X11761904Y-23504540D02*
X11685714Y-23580731D01*
X11685714Y-23580731D02*
X11609523Y-23618826D01*
X12561905Y-23390255D02*
X12638095Y-23390255D01*
X12638095Y-23390255D02*
X12714286Y-23428350D01*
X12714286Y-23428350D02*
X12752381Y-23466445D01*
X12752381Y-23466445D02*
X12790476Y-23542636D01*
X12790476Y-23542636D02*
X12828571Y-23695017D01*
X12828571Y-23695017D02*
X12828571Y-23885493D01*
X12828571Y-23885493D02*
X12790476Y-24037874D01*
X12790476Y-24037874D02*
X12752381Y-24114064D01*
X12752381Y-24114064D02*
X12714286Y-24152160D01*
X12714286Y-24152160D02*
X12638095Y-24190255D01*
X12638095Y-24190255D02*
X12561905Y-24190255D01*
X12561905Y-24190255D02*
X12485714Y-24152160D01*
X12485714Y-24152160D02*
X12447619Y-24114064D01*
X12447619Y-24114064D02*
X12409524Y-24037874D01*
X12409524Y-24037874D02*
X12371428Y-23885493D01*
X12371428Y-23885493D02*
X12371428Y-23695017D01*
X12371428Y-23695017D02*
X12409524Y-23542636D01*
X12409524Y-23542636D02*
X12447619Y-23466445D01*
X12447619Y-23466445D02*
X12485714Y-23428350D01*
X12485714Y-23428350D02*
X12561905Y-23390255D01*
X13057143Y-23390255D02*
X13323810Y-24190255D01*
X13323810Y-24190255D02*
X13590476Y-23390255D01*
X14390476Y-23390255D02*
X14923810Y-24190255D01*
X14923810Y-23390255D02*
X14390476Y-24190255D01*
X15609524Y-23390255D02*
X15228572Y-23390255D01*
X15228572Y-23390255D02*
X15190476Y-23771207D01*
X15190476Y-23771207D02*
X15228572Y-23733112D01*
X15228572Y-23733112D02*
X15304762Y-23695017D01*
X15304762Y-23695017D02*
X15495238Y-23695017D01*
X15495238Y-23695017D02*
X15571429Y-23733112D01*
X15571429Y-23733112D02*
X15609524Y-23771207D01*
X15609524Y-23771207D02*
X15647619Y-23847398D01*
X15647619Y-23847398D02*
X15647619Y-24037874D01*
X15647619Y-24037874D02*
X15609524Y-24114064D01*
X15609524Y-24114064D02*
X15571429Y-24152160D01*
X15571429Y-24152160D02*
X15495238Y-24190255D01*
X15495238Y-24190255D02*
X15304762Y-24190255D01*
X15304762Y-24190255D02*
X15228572Y-24152160D01*
X15228572Y-24152160D02*
X15190476Y-24114064D01*
X16447620Y-24190255D02*
X16180953Y-23809302D01*
X15990477Y-24190255D02*
X15990477Y-23390255D01*
X15990477Y-23390255D02*
X16295239Y-23390255D01*
X16295239Y-23390255D02*
X16371429Y-23428350D01*
X16371429Y-23428350D02*
X16409524Y-23466445D01*
X16409524Y-23466445D02*
X16447620Y-23542636D01*
X16447620Y-23542636D02*
X16447620Y-23656921D01*
X16447620Y-23656921D02*
X16409524Y-23733112D01*
X16409524Y-23733112D02*
X16371429Y-23771207D01*
X16371429Y-23771207D02*
X16295239Y-23809302D01*
X16295239Y-23809302D02*
X15990477Y-23809302D01*
X17819048Y-24190255D02*
X17361905Y-24190255D01*
X17590477Y-24190255D02*
X17590477Y-23390255D01*
X17590477Y-23390255D02*
X17514286Y-23504540D01*
X17514286Y-23504540D02*
X17438096Y-23580731D01*
X17438096Y-23580731D02*
X17361905Y-23618826D01*
X18123810Y-23466445D02*
X18161906Y-23428350D01*
X18161906Y-23428350D02*
X18238096Y-23390255D01*
X18238096Y-23390255D02*
X18428572Y-23390255D01*
X18428572Y-23390255D02*
X18504763Y-23428350D01*
X18504763Y-23428350D02*
X18542858Y-23466445D01*
X18542858Y-23466445D02*
X18580953Y-23542636D01*
X18580953Y-23542636D02*
X18580953Y-23618826D01*
X18580953Y-23618826D02*
X18542858Y-23733112D01*
X18542858Y-23733112D02*
X18085715Y-24190255D01*
X18085715Y-24190255D02*
X18580953Y-24190255D01*
X19076192Y-23390255D02*
X19152382Y-23390255D01*
X19152382Y-23390255D02*
X19228573Y-23428350D01*
X19228573Y-23428350D02*
X19266668Y-23466445D01*
X19266668Y-23466445D02*
X19304763Y-23542636D01*
X19304763Y-23542636D02*
X19342858Y-23695017D01*
X19342858Y-23695017D02*
X19342858Y-23885493D01*
X19342858Y-23885493D02*
X19304763Y-24037874D01*
X19304763Y-24037874D02*
X19266668Y-24114064D01*
X19266668Y-24114064D02*
X19228573Y-24152160D01*
X19228573Y-24152160D02*
X19152382Y-24190255D01*
X19152382Y-24190255D02*
X19076192Y-24190255D01*
X19076192Y-24190255D02*
X19000001Y-24152160D01*
X19000001Y-24152160D02*
X18961906Y-24114064D01*
X18961906Y-24114064D02*
X18923811Y-24037874D01*
X18923811Y-24037874D02*
X18885715Y-23885493D01*
X18885715Y-23885493D02*
X18885715Y-23695017D01*
X18885715Y-23695017D02*
X18923811Y-23542636D01*
X18923811Y-23542636D02*
X18961906Y-23466445D01*
X18961906Y-23466445D02*
X19000001Y-23428350D01*
X19000001Y-23428350D02*
X19076192Y-23390255D01*
X20028573Y-23390255D02*
X19876192Y-23390255D01*
X19876192Y-23390255D02*
X19800001Y-23428350D01*
X19800001Y-23428350D02*
X19761906Y-23466445D01*
X19761906Y-23466445D02*
X19685716Y-23580731D01*
X19685716Y-23580731D02*
X19647620Y-23733112D01*
X19647620Y-23733112D02*
X19647620Y-24037874D01*
X19647620Y-24037874D02*
X19685716Y-24114064D01*
X19685716Y-24114064D02*
X19723811Y-24152160D01*
X19723811Y-24152160D02*
X19800001Y-24190255D01*
X19800001Y-24190255D02*
X19952382Y-24190255D01*
X19952382Y-24190255D02*
X20028573Y-24152160D01*
X20028573Y-24152160D02*
X20066668Y-24114064D01*
X20066668Y-24114064D02*
X20104763Y-24037874D01*
X20104763Y-24037874D02*
X20104763Y-23847398D01*
X20104763Y-23847398D02*
X20066668Y-23771207D01*
X20066668Y-23771207D02*
X20028573Y-23733112D01*
X20028573Y-23733112D02*
X19952382Y-23695017D01*
X19952382Y-23695017D02*
X19800001Y-23695017D01*
X19800001Y-23695017D02*
X19723811Y-23733112D01*
X19723811Y-23733112D02*
X19685716Y-23771207D01*
X19685716Y-23771207D02*
X19647620Y-23847398D01*
X387455Y-28857143D02*
X6502Y-29123810D01*
X387455Y-29314286D02*
X-412545Y-29314286D01*
X-412545Y-29314286D02*
X-412545Y-29009524D01*
X-412545Y-29009524D02*
X-374450Y-28933334D01*
X-374450Y-28933334D02*
X-336355Y-28895239D01*
X-336355Y-28895239D02*
X-260164Y-28857143D01*
X-260164Y-28857143D02*
X-145879Y-28857143D01*
X-145879Y-28857143D02*
X-69688Y-28895239D01*
X-69688Y-28895239D02*
X-31593Y-28933334D01*
X-31593Y-28933334D02*
X6502Y-29009524D01*
X6502Y-29009524D02*
X6502Y-29314286D01*
X-412545Y-28628572D02*
X387455Y-28361905D01*
X387455Y-28361905D02*
X-412545Y-28095239D01*
X387455Y-27409525D02*
X387455Y-27866668D01*
X387455Y-27638096D02*
X-412545Y-27638096D01*
X-412545Y-27638096D02*
X-298260Y-27714287D01*
X-298260Y-27714287D02*
X-222069Y-27790477D01*
X-222069Y-27790477D02*
X-183974Y-27866668D01*
X-412545Y-26571429D02*
X-412545Y-26114286D01*
X387455Y-26342858D02*
X-412545Y-26342858D01*
X387455Y-25847619D02*
X-412545Y-25847619D01*
X-412545Y-25847619D02*
X-412545Y-25657143D01*
X-412545Y-25657143D02*
X-374450Y-25542857D01*
X-374450Y-25542857D02*
X-298260Y-25466667D01*
X-298260Y-25466667D02*
X-222069Y-25428572D01*
X-222069Y-25428572D02*
X-69688Y-25390476D01*
X-69688Y-25390476D02*
X44598Y-25390476D01*
X44598Y-25390476D02*
X196979Y-25428572D01*
X196979Y-25428572D02*
X273169Y-25466667D01*
X273169Y-25466667D02*
X349360Y-25542857D01*
X349360Y-25542857D02*
X387455Y-25657143D01*
X387455Y-25657143D02*
X387455Y-25847619D01*
X387455Y-25047619D02*
X-412545Y-25047619D01*
X387455Y-24590476D02*
X-69688Y-24933334D01*
X-412545Y-24590476D02*
X44598Y-25047619D01*
X311264Y-23180952D02*
X349360Y-23219048D01*
X349360Y-23219048D02*
X387455Y-23333333D01*
X387455Y-23333333D02*
X387455Y-23409524D01*
X387455Y-23409524D02*
X349360Y-23523810D01*
X349360Y-23523810D02*
X273169Y-23600000D01*
X273169Y-23600000D02*
X196979Y-23638095D01*
X196979Y-23638095D02*
X44598Y-23676191D01*
X44598Y-23676191D02*
X-69688Y-23676191D01*
X-69688Y-23676191D02*
X-222069Y-23638095D01*
X-222069Y-23638095D02*
X-298260Y-23600000D01*
X-298260Y-23600000D02*
X-374450Y-23523810D01*
X-374450Y-23523810D02*
X-412545Y-23409524D01*
X-412545Y-23409524D02*
X-412545Y-23333333D01*
X-412545Y-23333333D02*
X-374450Y-23219048D01*
X-374450Y-23219048D02*
X-336355Y-23180952D01*
X-412545Y-22838095D02*
X235074Y-22838095D01*
X235074Y-22838095D02*
X311264Y-22800000D01*
X311264Y-22800000D02*
X349360Y-22761905D01*
X349360Y-22761905D02*
X387455Y-22685714D01*
X387455Y-22685714D02*
X387455Y-22533333D01*
X387455Y-22533333D02*
X349360Y-22457143D01*
X349360Y-22457143D02*
X311264Y-22419048D01*
X311264Y-22419048D02*
X235074Y-22380952D01*
X235074Y-22380952D02*
X-412545Y-22380952D01*
X-145879Y-21657143D02*
X387455Y-21657143D01*
X-450640Y-21847619D02*
X120788Y-22038096D01*
X120788Y-22038096D02*
X120788Y-21542857D01*
X-412545Y-21085714D02*
X-412545Y-21009524D01*
X-412545Y-21009524D02*
X-374450Y-20933333D01*
X-374450Y-20933333D02*
X-336355Y-20895238D01*
X-336355Y-20895238D02*
X-260164Y-20857143D01*
X-260164Y-20857143D02*
X-107783Y-20819048D01*
X-107783Y-20819048D02*
X82693Y-20819048D01*
X82693Y-20819048D02*
X235074Y-20857143D01*
X235074Y-20857143D02*
X311264Y-20895238D01*
X311264Y-20895238D02*
X349360Y-20933333D01*
X349360Y-20933333D02*
X387455Y-21009524D01*
X387455Y-21009524D02*
X387455Y-21085714D01*
X387455Y-21085714D02*
X349360Y-21161905D01*
X349360Y-21161905D02*
X311264Y-21200000D01*
X311264Y-21200000D02*
X235074Y-21238095D01*
X235074Y-21238095D02*
X82693Y-21276191D01*
X82693Y-21276191D02*
X-107783Y-21276191D01*
X-107783Y-21276191D02*
X-260164Y-21238095D01*
X-260164Y-21238095D02*
X-336355Y-21200000D01*
X-336355Y-21200000D02*
X-374450Y-21161905D01*
X-374450Y-21161905D02*
X-412545Y-21085714D01*
X-412545Y-20552381D02*
X-412545Y-20057143D01*
X-412545Y-20057143D02*
X-107783Y-20323809D01*
X-107783Y-20323809D02*
X-107783Y-20209524D01*
X-107783Y-20209524D02*
X-69688Y-20133333D01*
X-69688Y-20133333D02*
X-31593Y-20095238D01*
X-31593Y-20095238D02*
X44598Y-20057143D01*
X44598Y-20057143D02*
X235074Y-20057143D01*
X235074Y-20057143D02*
X311264Y-20095238D01*
X311264Y-20095238D02*
X349360Y-20133333D01*
X349360Y-20133333D02*
X387455Y-20209524D01*
X387455Y-20209524D02*
X387455Y-20438095D01*
X387455Y-20438095D02*
X349360Y-20514286D01*
X349360Y-20514286D02*
X311264Y-20552381D01*
X-336355Y-19752381D02*
X-374450Y-19714285D01*
X-374450Y-19714285D02*
X-412545Y-19638095D01*
X-412545Y-19638095D02*
X-412545Y-19447619D01*
X-412545Y-19447619D02*
X-374450Y-19371428D01*
X-374450Y-19371428D02*
X-336355Y-19333333D01*
X-336355Y-19333333D02*
X-260164Y-19295238D01*
X-260164Y-19295238D02*
X-183974Y-19295238D01*
X-183974Y-19295238D02*
X-69688Y-19333333D01*
X-69688Y-19333333D02*
X387455Y-19790476D01*
X387455Y-19790476D02*
X387455Y-19295238D01*
X387455Y-18952380D02*
X-412545Y-18952380D01*
X387455Y-18495237D02*
X-69688Y-18838095D01*
X-412545Y-18495237D02*
X44598Y-18952380D01*
X-336355Y-18190476D02*
X-374450Y-18152380D01*
X-374450Y-18152380D02*
X-412545Y-18076190D01*
X-412545Y-18076190D02*
X-412545Y-17885714D01*
X-412545Y-17885714D02*
X-374450Y-17809523D01*
X-374450Y-17809523D02*
X-336355Y-17771428D01*
X-336355Y-17771428D02*
X-260164Y-17733333D01*
X-260164Y-17733333D02*
X-183974Y-17733333D01*
X-183974Y-17733333D02*
X-69688Y-17771428D01*
X-69688Y-17771428D02*
X387455Y-18228571D01*
X387455Y-18228571D02*
X387455Y-17733333D01*
X-412545Y-17466666D02*
X-412545Y-16933332D01*
X-412545Y-16933332D02*
X387455Y-17276190D01*
X-412545Y-16247618D02*
X-412545Y-16628570D01*
X-412545Y-16628570D02*
X-31593Y-16666666D01*
X-31593Y-16666666D02*
X-69688Y-16628570D01*
X-69688Y-16628570D02*
X-107783Y-16552380D01*
X-107783Y-16552380D02*
X-107783Y-16361904D01*
X-107783Y-16361904D02*
X-69688Y-16285713D01*
X-69688Y-16285713D02*
X-31593Y-16247618D01*
X-31593Y-16247618D02*
X44598Y-16209523D01*
X44598Y-16209523D02*
X235074Y-16209523D01*
X235074Y-16209523D02*
X311264Y-16247618D01*
X311264Y-16247618D02*
X349360Y-16285713D01*
X349360Y-16285713D02*
X387455Y-16361904D01*
X387455Y-16361904D02*
X387455Y-16552380D01*
X387455Y-16552380D02*
X349360Y-16628570D01*
X349360Y-16628570D02*
X311264Y-16666666D01*
X-374450Y-15447618D02*
X-412545Y-15523808D01*
X-412545Y-15523808D02*
X-412545Y-15638094D01*
X-412545Y-15638094D02*
X-374450Y-15752380D01*
X-374450Y-15752380D02*
X-298260Y-15828570D01*
X-298260Y-15828570D02*
X-222069Y-15866665D01*
X-222069Y-15866665D02*
X-69688Y-15904761D01*
X-69688Y-15904761D02*
X44598Y-15904761D01*
X44598Y-15904761D02*
X196979Y-15866665D01*
X196979Y-15866665D02*
X273169Y-15828570D01*
X273169Y-15828570D02*
X349360Y-15752380D01*
X349360Y-15752380D02*
X387455Y-15638094D01*
X387455Y-15638094D02*
X387455Y-15561903D01*
X387455Y-15561903D02*
X349360Y-15447618D01*
X349360Y-15447618D02*
X311264Y-15409522D01*
X311264Y-15409522D02*
X44598Y-15409522D01*
X44598Y-15409522D02*
X44598Y-15561903D01*
X-336355Y-15104761D02*
X-374450Y-15066665D01*
X-374450Y-15066665D02*
X-412545Y-14990475D01*
X-412545Y-14990475D02*
X-412545Y-14799999D01*
X-412545Y-14799999D02*
X-374450Y-14723808D01*
X-374450Y-14723808D02*
X-336355Y-14685713D01*
X-336355Y-14685713D02*
X-260164Y-14647618D01*
X-260164Y-14647618D02*
X-183974Y-14647618D01*
X-183974Y-14647618D02*
X-69688Y-14685713D01*
X-69688Y-14685713D02*
X387455Y-15142856D01*
X387455Y-15142856D02*
X387455Y-14647618D01*
X12563855Y-13735952D02*
X13135283Y-13735952D01*
X13135283Y-13735952D02*
X13249569Y-13774047D01*
X13249569Y-13774047D02*
X13325760Y-13850238D01*
X13325760Y-13850238D02*
X13363855Y-13964523D01*
X13363855Y-13964523D02*
X13363855Y-14040714D01*
X12640045Y-13393095D02*
X12601950Y-13354999D01*
X12601950Y-13354999D02*
X12563855Y-13278809D01*
X12563855Y-13278809D02*
X12563855Y-13088333D01*
X12563855Y-13088333D02*
X12601950Y-13012142D01*
X12601950Y-13012142D02*
X12640045Y-12974047D01*
X12640045Y-12974047D02*
X12716236Y-12935952D01*
X12716236Y-12935952D02*
X12792426Y-12935952D01*
X12792426Y-12935952D02*
X12906712Y-12974047D01*
X12906712Y-12974047D02*
X13363855Y-13431190D01*
X13363855Y-13431190D02*
X13363855Y-12935952D01*
X13363855Y-11983570D02*
X12563855Y-11983570D01*
X12944807Y-11983570D02*
X12944807Y-11526427D01*
X13363855Y-11526427D02*
X12563855Y-11526427D01*
X13363855Y-11145475D02*
X12830521Y-11145475D01*
X12563855Y-11145475D02*
X12601950Y-11183571D01*
X12601950Y-11183571D02*
X12640045Y-11145475D01*
X12640045Y-11145475D02*
X12601950Y-11107380D01*
X12601950Y-11107380D02*
X12563855Y-11145475D01*
X12563855Y-11145475D02*
X12640045Y-11145475D01*
X13363855Y-10764523D02*
X12830521Y-10764523D01*
X12982902Y-10764523D02*
X12906712Y-10726428D01*
X12906712Y-10726428D02*
X12868617Y-10688333D01*
X12868617Y-10688333D02*
X12830521Y-10612142D01*
X12830521Y-10612142D02*
X12830521Y-10535952D01*
X13363855Y-10155000D02*
X13325760Y-10231190D01*
X13325760Y-10231190D02*
X13287664Y-10269285D01*
X13287664Y-10269285D02*
X13211474Y-10307381D01*
X13211474Y-10307381D02*
X12982902Y-10307381D01*
X12982902Y-10307381D02*
X12906712Y-10269285D01*
X12906712Y-10269285D02*
X12868617Y-10231190D01*
X12868617Y-10231190D02*
X12830521Y-10155000D01*
X12830521Y-10155000D02*
X12830521Y-10040714D01*
X12830521Y-10040714D02*
X12868617Y-9964523D01*
X12868617Y-9964523D02*
X12906712Y-9926428D01*
X12906712Y-9926428D02*
X12982902Y-9888333D01*
X12982902Y-9888333D02*
X13211474Y-9888333D01*
X13211474Y-9888333D02*
X13287664Y-9926428D01*
X13287664Y-9926428D02*
X13325760Y-9964523D01*
X13325760Y-9964523D02*
X13363855Y-10040714D01*
X13363855Y-10040714D02*
X13363855Y-10155000D01*
X13325760Y-9583571D02*
X13363855Y-9507380D01*
X13363855Y-9507380D02*
X13363855Y-9354999D01*
X13363855Y-9354999D02*
X13325760Y-9278809D01*
X13325760Y-9278809D02*
X13249569Y-9240713D01*
X13249569Y-9240713D02*
X13211474Y-9240713D01*
X13211474Y-9240713D02*
X13135283Y-9278809D01*
X13135283Y-9278809D02*
X13097188Y-9354999D01*
X13097188Y-9354999D02*
X13097188Y-9469285D01*
X13097188Y-9469285D02*
X13059093Y-9545475D01*
X13059093Y-9545475D02*
X12982902Y-9583571D01*
X12982902Y-9583571D02*
X12944807Y-9583571D01*
X12944807Y-9583571D02*
X12868617Y-9545475D01*
X12868617Y-9545475D02*
X12830521Y-9469285D01*
X12830521Y-9469285D02*
X12830521Y-9354999D01*
X12830521Y-9354999D02*
X12868617Y-9278809D01*
X13325760Y-8593094D02*
X13363855Y-8669285D01*
X13363855Y-8669285D02*
X13363855Y-8821666D01*
X13363855Y-8821666D02*
X13325760Y-8897856D01*
X13325760Y-8897856D02*
X13249569Y-8935952D01*
X13249569Y-8935952D02*
X12944807Y-8935952D01*
X12944807Y-8935952D02*
X12868617Y-8897856D01*
X12868617Y-8897856D02*
X12830521Y-8821666D01*
X12830521Y-8821666D02*
X12830521Y-8669285D01*
X12830521Y-8669285D02*
X12868617Y-8593094D01*
X12868617Y-8593094D02*
X12944807Y-8554999D01*
X12944807Y-8554999D02*
X13020998Y-8554999D01*
X13020998Y-8554999D02*
X13097188Y-8935952D01*
X12944807Y-7335952D02*
X12944807Y-7602618D01*
X13363855Y-7602618D02*
X12563855Y-7602618D01*
X12563855Y-7602618D02*
X12563855Y-7221666D01*
X13363855Y-6916904D02*
X12563855Y-6916904D01*
X12944807Y-6916904D02*
X12944807Y-6459761D01*
X13363855Y-6459761D02*
X12563855Y-6459761D01*
X13363855Y-5659762D02*
X13363855Y-6116905D01*
X13363855Y-5888333D02*
X12563855Y-5888333D01*
X12563855Y-5888333D02*
X12678140Y-5964524D01*
X12678140Y-5964524D02*
X12754331Y-6040714D01*
X12754331Y-6040714D02*
X12792426Y-6116905D01*
X12640045Y-5355000D02*
X12601950Y-5316904D01*
X12601950Y-5316904D02*
X12563855Y-5240714D01*
X12563855Y-5240714D02*
X12563855Y-5050238D01*
X12563855Y-5050238D02*
X12601950Y-4974047D01*
X12601950Y-4974047D02*
X12640045Y-4935952D01*
X12640045Y-4935952D02*
X12716236Y-4897857D01*
X12716236Y-4897857D02*
X12792426Y-4897857D01*
X12792426Y-4897857D02*
X12906712Y-4935952D01*
X12906712Y-4935952D02*
X13363855Y-5393095D01*
X13363855Y-5393095D02*
X13363855Y-4897857D01*
X13059093Y-4554999D02*
X13059093Y-3945476D01*
X12563855Y-3221666D02*
X12563855Y-3374047D01*
X12563855Y-3374047D02*
X12601950Y-3450238D01*
X12601950Y-3450238D02*
X12640045Y-3488333D01*
X12640045Y-3488333D02*
X12754331Y-3564523D01*
X12754331Y-3564523D02*
X12906712Y-3602619D01*
X12906712Y-3602619D02*
X13211474Y-3602619D01*
X13211474Y-3602619D02*
X13287664Y-3564523D01*
X13287664Y-3564523D02*
X13325760Y-3526428D01*
X13325760Y-3526428D02*
X13363855Y-3450238D01*
X13363855Y-3450238D02*
X13363855Y-3297857D01*
X13363855Y-3297857D02*
X13325760Y-3221666D01*
X13325760Y-3221666D02*
X13287664Y-3183571D01*
X13287664Y-3183571D02*
X13211474Y-3145476D01*
X13211474Y-3145476D02*
X13020998Y-3145476D01*
X13020998Y-3145476D02*
X12944807Y-3183571D01*
X12944807Y-3183571D02*
X12906712Y-3221666D01*
X12906712Y-3221666D02*
X12868617Y-3297857D01*
X12868617Y-3297857D02*
X12868617Y-3450238D01*
X12868617Y-3450238D02*
X12906712Y-3526428D01*
X12906712Y-3526428D02*
X12944807Y-3564523D01*
X12944807Y-3564523D02*
X13020998Y-3602619D01*
X13325760Y-2840714D02*
X13363855Y-2726428D01*
X13363855Y-2726428D02*
X13363855Y-2535952D01*
X13363855Y-2535952D02*
X13325760Y-2459761D01*
X13325760Y-2459761D02*
X13287664Y-2421666D01*
X13287664Y-2421666D02*
X13211474Y-2383571D01*
X13211474Y-2383571D02*
X13135283Y-2383571D01*
X13135283Y-2383571D02*
X13059093Y-2421666D01*
X13059093Y-2421666D02*
X13020998Y-2459761D01*
X13020998Y-2459761D02*
X12982902Y-2535952D01*
X12982902Y-2535952D02*
X12944807Y-2688333D01*
X12944807Y-2688333D02*
X12906712Y-2764523D01*
X12906712Y-2764523D02*
X12868617Y-2802618D01*
X12868617Y-2802618D02*
X12792426Y-2840714D01*
X12792426Y-2840714D02*
X12716236Y-2840714D01*
X12716236Y-2840714D02*
X12640045Y-2802618D01*
X12640045Y-2802618D02*
X12601950Y-2764523D01*
X12601950Y-2764523D02*
X12563855Y-2688333D01*
X12563855Y-2688333D02*
X12563855Y-2497856D01*
X12563855Y-2497856D02*
X12601950Y-2383571D01*
G04 #@! TO.C,RV1*
X-9800000Y-28300000D02*
X-1200000Y-28300000D01*
X-1200000Y-15700000D01*
X-9800000Y-15700000D01*
X-9800000Y-28300000D01*
D11*
G04 #@! TO.C,LOGO2*
X18327830Y31238893D02*
X18401932Y31238529D01*
X18458704Y31237724D01*
X18500768Y31236313D01*
X18530748Y31234133D01*
X18551267Y31231021D01*
X18564949Y31226814D01*
X18574416Y31221348D01*
X18579082Y31217472D01*
X18599575Y31186034D01*
X18598739Y31150233D01*
X18581264Y31118873D01*
X18559684Y31092222D01*
X17912227Y31092222D01*
X17890647Y31118873D01*
X17874949Y31144594D01*
X17869067Y31165600D01*
X17875877Y31188614D01*
X17890647Y31212327D01*
X17912227Y31238978D01*
X18233773Y31238978D01*
X18327830Y31238893D01*
G36*
X18327830Y31238893D02*
G01*
X18401932Y31238529D01*
X18458704Y31237724D01*
X18500768Y31236313D01*
X18530748Y31234133D01*
X18551267Y31231021D01*
X18564949Y31226814D01*
X18574416Y31221348D01*
X18579082Y31217472D01*
X18599575Y31186034D01*
X18598739Y31150233D01*
X18581264Y31118873D01*
X18559684Y31092222D01*
X17912227Y31092222D01*
X17890647Y31118873D01*
X17874949Y31144594D01*
X17869067Y31165600D01*
X17875877Y31188614D01*
X17890647Y31212327D01*
X17912227Y31238978D01*
X18233773Y31238978D01*
X18327830Y31238893D01*
G37*
X18329802Y24098686D02*
X18403689Y24098362D01*
X18460232Y24097614D01*
X18502049Y24096268D01*
X18531757Y24094154D01*
X18551973Y24091100D01*
X18565314Y24086934D01*
X18574398Y24081484D01*
X18580267Y24076178D01*
X18599947Y24043174D01*
X18598181Y24008009D01*
X18576717Y23976545D01*
X18568337Y23969316D01*
X18558614Y23963666D01*
X18544861Y23959401D01*
X18524389Y23956327D01*
X18494512Y23954248D01*
X18452541Y23952970D01*
X18395789Y23952299D01*
X18321567Y23952041D01*
X18237537Y23952000D01*
X17924485Y23952000D01*
X17896776Y23979709D01*
X17873463Y24013863D01*
X17872623Y24046994D01*
X17891645Y24076178D01*
X17899218Y24082758D01*
X17908987Y24087921D01*
X17923571Y24091836D01*
X17945585Y24094676D01*
X17977648Y24096613D01*
X18022375Y24097817D01*
X18082385Y24098461D01*
X18160294Y24098716D01*
X18235956Y24098755D01*
X18329802Y24098686D01*
G36*
X18329802Y24098686D02*
G01*
X18403689Y24098362D01*
X18460232Y24097614D01*
X18502049Y24096268D01*
X18531757Y24094154D01*
X18551973Y24091100D01*
X18565314Y24086934D01*
X18574398Y24081484D01*
X18580267Y24076178D01*
X18599947Y24043174D01*
X18598181Y24008009D01*
X18576717Y23976545D01*
X18568337Y23969316D01*
X18558614Y23963666D01*
X18544861Y23959401D01*
X18524389Y23956327D01*
X18494512Y23954248D01*
X18452541Y23952970D01*
X18395789Y23952299D01*
X18321567Y23952041D01*
X18237537Y23952000D01*
X17924485Y23952000D01*
X17896776Y23979709D01*
X17873463Y24013863D01*
X17872623Y24046994D01*
X17891645Y24076178D01*
X17899218Y24082758D01*
X17908987Y24087921D01*
X17923571Y24091836D01*
X17945585Y24094676D01*
X17977648Y24096613D01*
X18022375Y24097817D01*
X18082385Y24098461D01*
X18160294Y24098716D01*
X18235956Y24098755D01*
X18329802Y24098686D01*
G37*
X13204654Y25107860D02*
X13292511Y25074160D01*
X13371770Y25023472D01*
X13439836Y24957655D01*
X13494112Y24878566D01*
X13532002Y24788066D01*
X13544426Y24736800D01*
X13551947Y24692302D01*
X13554919Y24658001D01*
X13553094Y24625040D01*
X13546225Y24584566D01*
X13539250Y24551469D01*
X13507741Y24458053D01*
X13456617Y24374381D01*
X13387429Y24302335D01*
X13301728Y24243800D01*
X13274489Y24229852D01*
X13238122Y24213414D01*
X13207582Y24203106D01*
X13175450Y24197540D01*
X13134307Y24195331D01*
X13088222Y24195052D01*
X13003865Y24199139D01*
X12934586Y24212554D01*
X12873961Y24237744D01*
X12815567Y24277154D01*
X12771302Y24315702D01*
X12705484Y24387594D01*
X12660053Y24462687D01*
X12632850Y24545438D01*
X12622576Y24623072D01*
X12626571Y24726957D01*
X12650809Y24823232D01*
X12693641Y24909816D01*
X12753419Y24984627D01*
X12828494Y25045582D01*
X12917220Y25090601D01*
X13013530Y25116864D01*
X13110795Y25122714D01*
X13204654Y25107860D01*
G36*
X13204654Y25107860D02*
G01*
X13292511Y25074160D01*
X13371770Y25023472D01*
X13439836Y24957655D01*
X13494112Y24878566D01*
X13532002Y24788066D01*
X13544426Y24736800D01*
X13551947Y24692302D01*
X13554919Y24658001D01*
X13553094Y24625040D01*
X13546225Y24584566D01*
X13539250Y24551469D01*
X13507741Y24458053D01*
X13456617Y24374381D01*
X13387429Y24302335D01*
X13301728Y24243800D01*
X13274489Y24229852D01*
X13238122Y24213414D01*
X13207582Y24203106D01*
X13175450Y24197540D01*
X13134307Y24195331D01*
X13088222Y24195052D01*
X13003865Y24199139D01*
X12934586Y24212554D01*
X12873961Y24237744D01*
X12815567Y24277154D01*
X12771302Y24315702D01*
X12705484Y24387594D01*
X12660053Y24462687D01*
X12632850Y24545438D01*
X12622576Y24623072D01*
X12626571Y24726957D01*
X12650809Y24823232D01*
X12693641Y24909816D01*
X12753419Y24984627D01*
X12828494Y25045582D01*
X12917220Y25090601D01*
X13013530Y25116864D01*
X13110795Y25122714D01*
X13204654Y25107860D01*
G37*
X17985826Y32248711D02*
X17998089Y32238348D01*
X18006450Y32227196D01*
X18011657Y32211035D01*
X18014457Y32185642D01*
X18015596Y32146798D01*
X18015821Y32090280D01*
X18015822Y32079180D01*
X18015822Y31933244D01*
X18286756Y31933244D01*
X18372154Y31933148D01*
X18437864Y31932711D01*
X18486774Y31931712D01*
X18521773Y31929928D01*
X18545749Y31927137D01*
X18561593Y31923117D01*
X18572191Y31917645D01*
X18580267Y31910666D01*
X18600112Y31877734D01*
X18598548Y31843354D01*
X18575906Y31812176D01*
X18573100Y31809886D01*
X18562492Y31802429D01*
X18550081Y31796747D01*
X18532850Y31792601D01*
X18507784Y31789750D01*
X18471867Y31787954D01*
X18422083Y31786972D01*
X18355417Y31786564D01*
X18279589Y31786489D01*
X18015822Y31786489D01*
X18015822Y31647127D01*
X18015418Y31587322D01*
X18013840Y31545918D01*
X18010547Y31518748D01*
X18004992Y31501646D01*
X17996631Y31490443D01*
X17995178Y31489083D01*
X17961939Y31472725D01*
X17924362Y31474172D01*
X17891645Y31492978D01*
X17885298Y31500250D01*
X17880266Y31509627D01*
X17876396Y31523609D01*
X17873537Y31544696D01*
X17871535Y31575389D01*
X17870239Y31618189D01*
X17869498Y31675595D01*
X17869158Y31750110D01*
X17869068Y31844233D01*
X17869067Y31864260D01*
X17869163Y31963065D01*
X17869542Y32041772D01*
X17870333Y32102863D01*
X17871670Y32148817D01*
X17873683Y32182114D01*
X17876506Y32205236D01*
X17880269Y32220662D01*
X17885105Y32230871D01*
X17888822Y32235813D01*
X17921358Y32261457D01*
X17955138Y32264559D01*
X17985826Y32248711D01*
G36*
X17985826Y32248711D02*
G01*
X17998089Y32238348D01*
X18006450Y32227196D01*
X18011657Y32211035D01*
X18014457Y32185642D01*
X18015596Y32146798D01*
X18015821Y32090280D01*
X18015822Y32079180D01*
X18015822Y31933244D01*
X18286756Y31933244D01*
X18372154Y31933148D01*
X18437864Y31932711D01*
X18486774Y31931712D01*
X18521773Y31929928D01*
X18545749Y31927137D01*
X18561593Y31923117D01*
X18572191Y31917645D01*
X18580267Y31910666D01*
X18600112Y31877734D01*
X18598548Y31843354D01*
X18575906Y31812176D01*
X18573100Y31809886D01*
X18562492Y31802429D01*
X18550081Y31796747D01*
X18532850Y31792601D01*
X18507784Y31789750D01*
X18471867Y31787954D01*
X18422083Y31786972D01*
X18355417Y31786564D01*
X18279589Y31786489D01*
X18015822Y31786489D01*
X18015822Y31647127D01*
X18015418Y31587322D01*
X18013840Y31545918D01*
X18010547Y31518748D01*
X18004992Y31501646D01*
X17996631Y31490443D01*
X17995178Y31489083D01*
X17961939Y31472725D01*
X17924362Y31474172D01*
X17891645Y31492978D01*
X17885298Y31500250D01*
X17880266Y31509627D01*
X17876396Y31523609D01*
X17873537Y31544696D01*
X17871535Y31575389D01*
X17870239Y31618189D01*
X17869498Y31675595D01*
X17869158Y31750110D01*
X17869068Y31844233D01*
X17869067Y31864260D01*
X17869163Y31963065D01*
X17869542Y32041772D01*
X17870333Y32102863D01*
X17871670Y32148817D01*
X17873683Y32182114D01*
X17876506Y32205236D01*
X17880269Y32220662D01*
X17885105Y32230871D01*
X17888822Y32235813D01*
X17921358Y32261457D01*
X17955138Y32264559D01*
X17985826Y32248711D01*
G37*
X18325799Y33287838D02*
X18397840Y33287495D01*
X18452780Y33286692D01*
X18493360Y33285241D01*
X18522317Y33282952D01*
X18542391Y33279636D01*
X18556321Y33275105D01*
X18566845Y33269169D01*
X18573100Y33264514D01*
X18597673Y33233783D01*
X18600341Y33198496D01*
X18585271Y33166245D01*
X18576374Y33155588D01*
X18564557Y33148464D01*
X18545526Y33144167D01*
X18514992Y33141991D01*
X18468662Y33141228D01*
X18432871Y33141155D01*
X18298045Y33141155D01*
X18298045Y32644444D01*
X18420700Y32644444D01*
X18476787Y32643931D01*
X18515333Y32641876D01*
X18541361Y32637508D01*
X18559897Y32630056D01*
X18573100Y32621047D01*
X18597604Y32590144D01*
X18600506Y32555196D01*
X18583089Y32521738D01*
X18573959Y32512604D01*
X18561855Y32506152D01*
X18543001Y32501897D01*
X18513620Y32499352D01*
X18469937Y32498029D01*
X18408175Y32497443D01*
X18394000Y32497375D01*
X18277631Y32496891D01*
X18181727Y32496641D01*
X18104177Y32496723D01*
X18042869Y32497231D01*
X17995690Y32498262D01*
X17960530Y32499913D01*
X17935276Y32502279D01*
X17917817Y32505457D01*
X17906041Y32509544D01*
X17897835Y32514634D01*
X17891645Y32520266D01*
X17871844Y32552128D01*
X17874533Y32585357D01*
X17896776Y32616735D01*
X17911126Y32629433D01*
X17926978Y32637526D01*
X17949554Y32642042D01*
X17984078Y32644006D01*
X18035776Y32644444D01*
X18151289Y32644444D01*
X18151289Y33141155D01*
X18032756Y33141155D01*
X17978148Y33141662D01*
X17941275Y33143698D01*
X17917307Y33148035D01*
X17901415Y33155447D01*
X17891645Y33163733D01*
X17871844Y33195594D01*
X17874533Y33228823D01*
X17896776Y33260202D01*
X17924485Y33287911D01*
X18233920Y33287911D01*
X18325799Y33287838D01*
G36*
X18325799Y33287838D02*
G01*
X18397840Y33287495D01*
X18452780Y33286692D01*
X18493360Y33285241D01*
X18522317Y33282952D01*
X18542391Y33279636D01*
X18556321Y33275105D01*
X18566845Y33269169D01*
X18573100Y33264514D01*
X18597673Y33233783D01*
X18600341Y33198496D01*
X18585271Y33166245D01*
X18576374Y33155588D01*
X18564557Y33148464D01*
X18545526Y33144167D01*
X18514992Y33141991D01*
X18468662Y33141228D01*
X18432871Y33141155D01*
X18298045Y33141155D01*
X18298045Y32644444D01*
X18420700Y32644444D01*
X18476787Y32643931D01*
X18515333Y32641876D01*
X18541361Y32637508D01*
X18559897Y32630056D01*
X18573100Y32621047D01*
X18597604Y32590144D01*
X18600506Y32555196D01*
X18583089Y32521738D01*
X18573959Y32512604D01*
X18561855Y32506152D01*
X18543001Y32501897D01*
X18513620Y32499352D01*
X18469937Y32498029D01*
X18408175Y32497443D01*
X18394000Y32497375D01*
X18277631Y32496891D01*
X18181727Y32496641D01*
X18104177Y32496723D01*
X18042869Y32497231D01*
X17995690Y32498262D01*
X17960530Y32499913D01*
X17935276Y32502279D01*
X17917817Y32505457D01*
X17906041Y32509544D01*
X17897835Y32514634D01*
X17891645Y32520266D01*
X17871844Y32552128D01*
X17874533Y32585357D01*
X17896776Y32616735D01*
X17911126Y32629433D01*
X17926978Y32637526D01*
X17949554Y32642042D01*
X17984078Y32644006D01*
X18035776Y32644444D01*
X18151289Y32644444D01*
X18151289Y33141155D01*
X18032756Y33141155D01*
X17978148Y33141662D01*
X17941275Y33143698D01*
X17917307Y33148035D01*
X17901415Y33155447D01*
X17891645Y33163733D01*
X17871844Y33195594D01*
X17874533Y33228823D01*
X17896776Y33260202D01*
X17924485Y33287911D01*
X18233920Y33287911D01*
X18325799Y33287838D01*
G37*
X18287887Y28606231D02*
X18351073Y28583654D01*
X18360689Y28579372D01*
X18416966Y28550172D01*
X18460451Y28517356D01*
X18497417Y28475002D01*
X18534135Y28417190D01*
X18536052Y28413831D01*
X18560227Y28363504D01*
X18578282Y28306621D01*
X18590839Y28239527D01*
X18598522Y28158565D01*
X18601953Y28060082D01*
X18602251Y28025286D01*
X18602845Y27859594D01*
X18573100Y27836197D01*
X18563319Y27829257D01*
X18551897Y27823842D01*
X18536095Y27819765D01*
X18513175Y27816837D01*
X18480396Y27814867D01*
X18456089Y27814225D01*
X18435021Y27813668D01*
X18374311Y27813050D01*
X18295526Y27812825D01*
X18233920Y27812800D01*
X17924485Y27812800D01*
X17896776Y27840509D01*
X17885544Y27852806D01*
X17877853Y27866103D01*
X17873040Y27884672D01*
X17870446Y27912786D01*
X17869410Y27954717D01*
X17869372Y27970844D01*
X18015822Y27970844D01*
X18456089Y27970844D01*
X18456089Y28064726D01*
X18454483Y28119664D01*
X18450255Y28176060D01*
X18444292Y28222345D01*
X18443790Y28225139D01*
X18421736Y28307348D01*
X18388600Y28371114D01*
X18342847Y28418452D01*
X18282939Y28451382D01*
X18267061Y28457108D01*
X18242333Y28462721D01*
X18217902Y28460291D01*
X18185400Y28448467D01*
X18169434Y28441340D01*
X18127006Y28418000D01*
X18097240Y28389880D01*
X18076511Y28358940D01*
X18049537Y28296966D01*
X18029998Y28217651D01*
X18018746Y28125253D01*
X18016270Y28058333D01*
X18015822Y27970844D01*
X17869372Y27970844D01*
X17869270Y28014737D01*
X17869275Y28018309D01*
X17873636Y28147288D01*
X17886861Y28256991D01*
X17909741Y28349226D01*
X17943070Y28425802D01*
X17987638Y28488527D01*
X18044236Y28539212D01*
X18113658Y28579663D01*
X18115351Y28580459D01*
X18177483Y28604601D01*
X18232509Y28613203D01*
X18287887Y28606231D01*
G36*
X18287887Y28606231D02*
G01*
X18351073Y28583654D01*
X18360689Y28579372D01*
X18416966Y28550172D01*
X18460451Y28517356D01*
X18497417Y28475002D01*
X18534135Y28417190D01*
X18536052Y28413831D01*
X18560227Y28363504D01*
X18578282Y28306621D01*
X18590839Y28239527D01*
X18598522Y28158565D01*
X18601953Y28060082D01*
X18602251Y28025286D01*
X18602845Y27859594D01*
X18573100Y27836197D01*
X18563319Y27829257D01*
X18551897Y27823842D01*
X18536095Y27819765D01*
X18513175Y27816837D01*
X18480396Y27814867D01*
X18456089Y27814225D01*
X18435021Y27813668D01*
X18374311Y27813050D01*
X18295526Y27812825D01*
X18233920Y27812800D01*
X17924485Y27812800D01*
X17896776Y27840509D01*
X17885544Y27852806D01*
X17877853Y27866103D01*
X17873040Y27884672D01*
X17870446Y27912786D01*
X17869410Y27954717D01*
X17869372Y27970844D01*
X18015822Y27970844D01*
X18456089Y27970844D01*
X18456089Y28064726D01*
X18454483Y28119664D01*
X18450255Y28176060D01*
X18444292Y28222345D01*
X18443790Y28225139D01*
X18421736Y28307348D01*
X18388600Y28371114D01*
X18342847Y28418452D01*
X18282939Y28451382D01*
X18267061Y28457108D01*
X18242333Y28462721D01*
X18217902Y28460291D01*
X18185400Y28448467D01*
X18169434Y28441340D01*
X18127006Y28418000D01*
X18097240Y28389880D01*
X18076511Y28358940D01*
X18049537Y28296966D01*
X18029998Y28217651D01*
X18018746Y28125253D01*
X18016270Y28058333D01*
X18015822Y27970844D01*
X17869372Y27970844D01*
X17869270Y28014737D01*
X17869275Y28018309D01*
X17873636Y28147288D01*
X17886861Y28256991D01*
X17909741Y28349226D01*
X17943070Y28425802D01*
X17987638Y28488527D01*
X18044236Y28539212D01*
X18113658Y28579663D01*
X18115351Y28580459D01*
X18177483Y28604601D01*
X18232509Y28613203D01*
X18287887Y28606231D01*
G37*
X18294769Y21505583D02*
X18359013Y21484101D01*
X18419821Y21453001D01*
X18468330Y21416134D01*
X18474182Y21410146D01*
X18515321Y21359421D01*
X18547435Y21303875D01*
X18571365Y21240304D01*
X18587953Y21165506D01*
X18598041Y21076278D01*
X18602469Y20969418D01*
X18602845Y20920472D01*
X18602545Y20858238D01*
X18601292Y20814472D01*
X18598554Y20785069D01*
X18593801Y20765921D01*
X18586501Y20752923D01*
X18580267Y20745955D01*
X18572694Y20739374D01*
X18562924Y20734212D01*
X18548340Y20730297D01*
X18526326Y20727457D01*
X18494264Y20725520D01*
X18449536Y20724316D01*
X18389526Y20723672D01*
X18311617Y20723417D01*
X18235956Y20723378D01*
X18135041Y20723130D01*
X18054427Y20723183D01*
X18015822Y20724143D01*
X17991851Y20724740D01*
X17945055Y20729002D01*
X17911778Y20737170D01*
X17889759Y20750444D01*
X17876739Y20770026D01*
X17870457Y20797117D01*
X17868653Y20832918D01*
X17869066Y20878629D01*
X17869467Y20918111D01*
X17870148Y20946333D01*
X18015808Y20946333D01*
X18015822Y20870133D01*
X18456089Y20870133D01*
X18456004Y20963266D01*
X18454396Y21019307D01*
X18450256Y21078001D01*
X18444464Y21126972D01*
X18444226Y21128462D01*
X18425090Y21207608D01*
X18395287Y21268998D01*
X18352878Y21315695D01*
X18306961Y21345365D01*
X18256026Y21363647D01*
X18208200Y21362229D01*
X18156933Y21341012D01*
X18103899Y21299511D01*
X18064600Y21242002D01*
X18038331Y21167250D01*
X18029035Y21117292D01*
X18022507Y21060584D01*
X18017782Y21000481D01*
X18015817Y20949361D01*
X18015808Y20946333D01*
X17870148Y20946333D01*
X17872259Y21033800D01*
X17880550Y21130689D01*
X17895232Y21212081D01*
X17917193Y21281277D01*
X17947322Y21341580D01*
X17986510Y21396292D01*
X18003532Y21415833D01*
X18043363Y21448250D01*
X18097413Y21477480D01*
X18157323Y21500009D01*
X18214739Y21512321D01*
X18235956Y21513600D01*
X18294769Y21505583D01*
G36*
X18294769Y21505583D02*
G01*
X18359013Y21484101D01*
X18419821Y21453001D01*
X18468330Y21416134D01*
X18474182Y21410146D01*
X18515321Y21359421D01*
X18547435Y21303875D01*
X18571365Y21240304D01*
X18587953Y21165506D01*
X18598041Y21076278D01*
X18602469Y20969418D01*
X18602845Y20920472D01*
X18602545Y20858238D01*
X18601292Y20814472D01*
X18598554Y20785069D01*
X18593801Y20765921D01*
X18586501Y20752923D01*
X18580267Y20745955D01*
X18572694Y20739374D01*
X18562924Y20734212D01*
X18548340Y20730297D01*
X18526326Y20727457D01*
X18494264Y20725520D01*
X18449536Y20724316D01*
X18389526Y20723672D01*
X18311617Y20723417D01*
X18235956Y20723378D01*
X18135041Y20723130D01*
X18054427Y20723183D01*
X18015822Y20724143D01*
X17991851Y20724740D01*
X17945055Y20729002D01*
X17911778Y20737170D01*
X17889759Y20750444D01*
X17876739Y20770026D01*
X17870457Y20797117D01*
X17868653Y20832918D01*
X17869066Y20878629D01*
X17869467Y20918111D01*
X17870148Y20946333D01*
X18015808Y20946333D01*
X18015822Y20870133D01*
X18456089Y20870133D01*
X18456004Y20963266D01*
X18454396Y21019307D01*
X18450256Y21078001D01*
X18444464Y21126972D01*
X18444226Y21128462D01*
X18425090Y21207608D01*
X18395287Y21268998D01*
X18352878Y21315695D01*
X18306961Y21345365D01*
X18256026Y21363647D01*
X18208200Y21362229D01*
X18156933Y21341012D01*
X18103899Y21299511D01*
X18064600Y21242002D01*
X18038331Y21167250D01*
X18029035Y21117292D01*
X18022507Y21060584D01*
X18017782Y21000481D01*
X18015817Y20949361D01*
X18015808Y20946333D01*
X17870148Y20946333D01*
X17872259Y21033800D01*
X17880550Y21130689D01*
X17895232Y21212081D01*
X17917193Y21281277D01*
X17947322Y21341580D01*
X17986510Y21396292D01*
X18003532Y21415833D01*
X18043363Y21448250D01*
X18097413Y21477480D01*
X18157323Y21500009D01*
X18214739Y21512321D01*
X18235956Y21513600D01*
X18294769Y21505583D01*
G37*
X18448161Y26411887D02*
X18489342Y26410968D01*
X18518803Y26409113D01*
X18539255Y26406161D01*
X18553413Y26401950D01*
X18563991Y26396318D01*
X18572474Y26390073D01*
X18588207Y26376561D01*
X18598636Y26363117D01*
X18602639Y26347876D01*
X18599094Y26328974D01*
X18586879Y26304545D01*
X18564871Y26272727D01*
X18531949Y26231652D01*
X18486991Y26179458D01*
X18428875Y26114278D01*
X18362099Y26040444D01*
X18121458Y25775155D01*
X18340589Y25769511D01*
X18416128Y25767469D01*
X18472354Y25765498D01*
X18512524Y25763161D01*
X18539896Y25760019D01*
X18557728Y25755636D01*
X18569279Y25749576D01*
X18577807Y25741400D01*
X18581282Y25737216D01*
X18600372Y25700235D01*
X18597493Y25665292D01*
X18573100Y25634864D01*
X18563286Y25627903D01*
X18551826Y25622477D01*
X18535968Y25618397D01*
X18512963Y25615471D01*
X18480062Y25613508D01*
X18434516Y25612317D01*
X18373573Y25611708D01*
X18294486Y25611489D01*
X18235956Y25611466D01*
X18144407Y25611540D01*
X18072687Y25611887D01*
X18018045Y25612699D01*
X17977732Y25614167D01*
X17948998Y25616481D01*
X17929093Y25619833D01*
X17915268Y25624412D01*
X17904772Y25630411D01*
X17898811Y25634864D01*
X17884691Y25646150D01*
X17874029Y25656699D01*
X17867892Y25668107D01*
X17867343Y25681970D01*
X17873448Y25699886D01*
X17887273Y25723452D01*
X17909881Y25754265D01*
X17942338Y25793922D01*
X17985708Y25844020D01*
X18041058Y25906157D01*
X18109451Y25981928D01*
X18188084Y26068666D01*
X18351878Y26249289D01*
X18132029Y26254933D01*
X18056351Y26256971D01*
X17999994Y26258937D01*
X17959706Y26261266D01*
X17932235Y26264394D01*
X17914329Y26268755D01*
X17902737Y26274784D01*
X17894208Y26282916D01*
X17890623Y26287228D01*
X17871670Y26321759D01*
X17874441Y26354617D01*
X17890633Y26380682D01*
X17912199Y26407333D01*
X18227151Y26410648D01*
X18319779Y26411565D01*
X18392544Y26412032D01*
X18448161Y26411887D01*
G36*
X18448161Y26411887D02*
G01*
X18489342Y26410968D01*
X18518803Y26409113D01*
X18539255Y26406161D01*
X18553413Y26401950D01*
X18563991Y26396318D01*
X18572474Y26390073D01*
X18588207Y26376561D01*
X18598636Y26363117D01*
X18602639Y26347876D01*
X18599094Y26328974D01*
X18586879Y26304545D01*
X18564871Y26272727D01*
X18531949Y26231652D01*
X18486991Y26179458D01*
X18428875Y26114278D01*
X18362099Y26040444D01*
X18121458Y25775155D01*
X18340589Y25769511D01*
X18416128Y25767469D01*
X18472354Y25765498D01*
X18512524Y25763161D01*
X18539896Y25760019D01*
X18557728Y25755636D01*
X18569279Y25749576D01*
X18577807Y25741400D01*
X18581282Y25737216D01*
X18600372Y25700235D01*
X18597493Y25665292D01*
X18573100Y25634864D01*
X18563286Y25627903D01*
X18551826Y25622477D01*
X18535968Y25618397D01*
X18512963Y25615471D01*
X18480062Y25613508D01*
X18434516Y25612317D01*
X18373573Y25611708D01*
X18294486Y25611489D01*
X18235956Y25611466D01*
X18144407Y25611540D01*
X18072687Y25611887D01*
X18018045Y25612699D01*
X17977732Y25614167D01*
X17948998Y25616481D01*
X17929093Y25619833D01*
X17915268Y25624412D01*
X17904772Y25630411D01*
X17898811Y25634864D01*
X17884691Y25646150D01*
X17874029Y25656699D01*
X17867892Y25668107D01*
X17867343Y25681970D01*
X17873448Y25699886D01*
X17887273Y25723452D01*
X17909881Y25754265D01*
X17942338Y25793922D01*
X17985708Y25844020D01*
X18041058Y25906157D01*
X18109451Y25981928D01*
X18188084Y26068666D01*
X18351878Y26249289D01*
X18132029Y26254933D01*
X18056351Y26256971D01*
X17999994Y26258937D01*
X17959706Y26261266D01*
X17932235Y26264394D01*
X17914329Y26268755D01*
X17902737Y26274784D01*
X17894208Y26282916D01*
X17890623Y26287228D01*
X17871670Y26321759D01*
X17874441Y26354617D01*
X17890633Y26380682D01*
X17912199Y26407333D01*
X18227151Y26410648D01*
X18319779Y26411565D01*
X18392544Y26412032D01*
X18448161Y26411887D01*
G37*
X18439535Y25271391D02*
X18486786Y25267152D01*
X18512012Y25260064D01*
X18513988Y25258689D01*
X18545508Y25219772D01*
X18570470Y25162714D01*
X18588340Y25091131D01*
X18598586Y25008642D01*
X18600673Y24918861D01*
X18594068Y24825408D01*
X18585956Y24770444D01*
X18561554Y24684234D01*
X18521662Y24604108D01*
X18469887Y24537023D01*
X18459539Y24526827D01*
X18416035Y24493698D01*
X18362118Y24463806D01*
X18305592Y24440643D01*
X18254259Y24427702D01*
X18234544Y24426142D01*
X18193419Y24432782D01*
X18142252Y24450432D01*
X18088394Y24475703D01*
X18039195Y24505211D01*
X18006334Y24531281D01*
X17957452Y24592235D01*
X17918545Y24671031D01*
X17890494Y24764843D01*
X17874179Y24870850D01*
X17870192Y24968000D01*
X17874599Y25049919D01*
X17886095Y25118435D01*
X17903967Y25171057D01*
X17927499Y25205292D01*
X17940924Y25214621D01*
X17972148Y25224107D01*
X18000395Y25217723D01*
X18027182Y25197570D01*
X18039713Y25166255D01*
X18038696Y25120817D01*
X18031906Y25085674D01*
X18018971Y25007581D01*
X18017742Y24927774D01*
X18028241Y24838445D01*
X18032690Y24813771D01*
X18056108Y24730709D01*
X18090945Y24665727D01*
X18136604Y24619539D01*
X18192494Y24592855D01*
X18221388Y24587337D01*
X18280012Y24590949D01*
X18331879Y24614271D01*
X18375978Y24655176D01*
X18411299Y24711541D01*
X18436829Y24781240D01*
X18451559Y24862148D01*
X18454478Y24952140D01*
X18444575Y25049090D01*
X18443641Y25054564D01*
X18436459Y25093125D01*
X18429521Y25114506D01*
X18419227Y25123773D01*
X18401976Y25125994D01*
X18392841Y25126044D01*
X18354489Y25126044D01*
X18354489Y25057569D01*
X18350347Y24997100D01*
X18337147Y24955835D01*
X18313730Y24931825D01*
X18278936Y24923123D01*
X18274394Y24923017D01*
X18244654Y24928108D01*
X18223419Y24945567D01*
X18209366Y24978061D01*
X18201173Y25028257D01*
X18198161Y25076877D01*
X18196433Y25147544D01*
X18199070Y25198802D01*
X18208800Y25233761D01*
X18228353Y25255530D01*
X18260456Y25267220D01*
X18307838Y25271940D01*
X18370071Y25272800D01*
X18439535Y25271391D01*
G36*
X18439535Y25271391D02*
G01*
X18486786Y25267152D01*
X18512012Y25260064D01*
X18513988Y25258689D01*
X18545508Y25219772D01*
X18570470Y25162714D01*
X18588340Y25091131D01*
X18598586Y25008642D01*
X18600673Y24918861D01*
X18594068Y24825408D01*
X18585956Y24770444D01*
X18561554Y24684234D01*
X18521662Y24604108D01*
X18469887Y24537023D01*
X18459539Y24526827D01*
X18416035Y24493698D01*
X18362118Y24463806D01*
X18305592Y24440643D01*
X18254259Y24427702D01*
X18234544Y24426142D01*
X18193419Y24432782D01*
X18142252Y24450432D01*
X18088394Y24475703D01*
X18039195Y24505211D01*
X18006334Y24531281D01*
X17957452Y24592235D01*
X17918545Y24671031D01*
X17890494Y24764843D01*
X17874179Y24870850D01*
X17870192Y24968000D01*
X17874599Y25049919D01*
X17886095Y25118435D01*
X17903967Y25171057D01*
X17927499Y25205292D01*
X17940924Y25214621D01*
X17972148Y25224107D01*
X18000395Y25217723D01*
X18027182Y25197570D01*
X18039713Y25166255D01*
X18038696Y25120817D01*
X18031906Y25085674D01*
X18018971Y25007581D01*
X18017742Y24927774D01*
X18028241Y24838445D01*
X18032690Y24813771D01*
X18056108Y24730709D01*
X18090945Y24665727D01*
X18136604Y24619539D01*
X18192494Y24592855D01*
X18221388Y24587337D01*
X18280012Y24590949D01*
X18331879Y24614271D01*
X18375978Y24655176D01*
X18411299Y24711541D01*
X18436829Y24781240D01*
X18451559Y24862148D01*
X18454478Y24952140D01*
X18444575Y25049090D01*
X18443641Y25054564D01*
X18436459Y25093125D01*
X18429521Y25114506D01*
X18419227Y25123773D01*
X18401976Y25125994D01*
X18392841Y25126044D01*
X18354489Y25126044D01*
X18354489Y25057569D01*
X18350347Y24997100D01*
X18337147Y24955835D01*
X18313730Y24931825D01*
X18278936Y24923123D01*
X18274394Y24923017D01*
X18244654Y24928108D01*
X18223419Y24945567D01*
X18209366Y24978061D01*
X18201173Y25028257D01*
X18198161Y25076877D01*
X18196433Y25147544D01*
X18199070Y25198802D01*
X18208800Y25233761D01*
X18228353Y25255530D01*
X18260456Y25267220D01*
X18307838Y25271940D01*
X18370071Y25272800D01*
X18439535Y25271391D01*
G37*
X17963992Y27473131D02*
X17981503Y27468396D01*
X17994574Y27457333D01*
X18003913Y27437348D01*
X18010227Y27405846D01*
X18014222Y27360232D01*
X18016606Y27297913D01*
X18018086Y27216293D01*
X18018414Y27191277D01*
X18021467Y26949200D01*
X18086378Y26945814D01*
X18151289Y26942429D01*
X18151289Y27110576D01*
X18151531Y27176266D01*
X18152556Y27223172D01*
X18154811Y27255083D01*
X18158742Y27275791D01*
X18164798Y27289084D01*
X18173424Y27298755D01*
X18173493Y27298817D01*
X18207112Y27316356D01*
X18243448Y27315722D01*
X18274423Y27297314D01*
X18277607Y27293671D01*
X18285812Y27280741D01*
X18291521Y27263024D01*
X18295162Y27236570D01*
X18297167Y27197432D01*
X18297964Y27141662D01*
X18298045Y27105994D01*
X18298045Y26943555D01*
X18456089Y26943555D01*
X18456089Y27190161D01*
X18456231Y27271580D01*
X18456814Y27333410D01*
X18458068Y27378637D01*
X18460227Y27410248D01*
X18463523Y27431231D01*
X18468189Y27444573D01*
X18474457Y27453261D01*
X18476733Y27455450D01*
X18508280Y27471614D01*
X18544168Y27472797D01*
X18575285Y27459536D01*
X18585271Y27449043D01*
X18590769Y27438129D01*
X18595022Y27421217D01*
X18598180Y27395633D01*
X18600392Y27358701D01*
X18601806Y27307746D01*
X18602572Y27240094D01*
X18602838Y27153069D01*
X18602845Y27133394D01*
X18602787Y27044911D01*
X18602467Y26976227D01*
X18601667Y26924564D01*
X18600167Y26887145D01*
X18597749Y26861190D01*
X18594194Y26843922D01*
X18589282Y26832562D01*
X18582795Y26824332D01*
X18578138Y26819817D01*
X18569889Y26813021D01*
X18559669Y26807712D01*
X18544800Y26803706D01*
X18522602Y26800821D01*
X18490393Y26798874D01*
X18445496Y26797681D01*
X18385228Y26797061D01*
X18306911Y26796829D01*
X18240994Y26796800D01*
X18148628Y26796871D01*
X18076117Y26797208D01*
X18020737Y26797998D01*
X17979765Y26799426D01*
X17950478Y26801679D01*
X17930153Y26804943D01*
X17916066Y26809404D01*
X17905495Y26815248D01*
X17898811Y26820197D01*
X17869067Y26843594D01*
X17869067Y27133774D01*
X17869260Y27230343D01*
X17870174Y27306701D01*
X17872311Y27365217D01*
X17876175Y27408255D01*
X17882267Y27438183D01*
X17891090Y27457368D01*
X17903146Y27468176D01*
X17918939Y27472973D01*
X17938970Y27474127D01*
X17941335Y27474133D01*
X17963992Y27473131D01*
G36*
X17963992Y27473131D02*
G01*
X17981503Y27468396D01*
X17994574Y27457333D01*
X18003913Y27437348D01*
X18010227Y27405846D01*
X18014222Y27360232D01*
X18016606Y27297913D01*
X18018086Y27216293D01*
X18018414Y27191277D01*
X18021467Y26949200D01*
X18086378Y26945814D01*
X18151289Y26942429D01*
X18151289Y27110576D01*
X18151531Y27176266D01*
X18152556Y27223172D01*
X18154811Y27255083D01*
X18158742Y27275791D01*
X18164798Y27289084D01*
X18173424Y27298755D01*
X18173493Y27298817D01*
X18207112Y27316356D01*
X18243448Y27315722D01*
X18274423Y27297314D01*
X18277607Y27293671D01*
X18285812Y27280741D01*
X18291521Y27263024D01*
X18295162Y27236570D01*
X18297167Y27197432D01*
X18297964Y27141662D01*
X18298045Y27105994D01*
X18298045Y26943555D01*
X18456089Y26943555D01*
X18456089Y27190161D01*
X18456231Y27271580D01*
X18456814Y27333410D01*
X18458068Y27378637D01*
X18460227Y27410248D01*
X18463523Y27431231D01*
X18468189Y27444573D01*
X18474457Y27453261D01*
X18476733Y27455450D01*
X18508280Y27471614D01*
X18544168Y27472797D01*
X18575285Y27459536D01*
X18585271Y27449043D01*
X18590769Y27438129D01*
X18595022Y27421217D01*
X18598180Y27395633D01*
X18600392Y27358701D01*
X18601806Y27307746D01*
X18602572Y27240094D01*
X18602838Y27153069D01*
X18602845Y27133394D01*
X18602787Y27044911D01*
X18602467Y26976227D01*
X18601667Y26924564D01*
X18600167Y26887145D01*
X18597749Y26861190D01*
X18594194Y26843922D01*
X18589282Y26832562D01*
X18582795Y26824332D01*
X18578138Y26819817D01*
X18569889Y26813021D01*
X18559669Y26807712D01*
X18544800Y26803706D01*
X18522602Y26800821D01*
X18490393Y26798874D01*
X18445496Y26797681D01*
X18385228Y26797061D01*
X18306911Y26796829D01*
X18240994Y26796800D01*
X18148628Y26796871D01*
X18076117Y26797208D01*
X18020737Y26797998D01*
X17979765Y26799426D01*
X17950478Y26801679D01*
X17930153Y26804943D01*
X17916066Y26809404D01*
X17905495Y26815248D01*
X17898811Y26820197D01*
X17869067Y26843594D01*
X17869067Y27133774D01*
X17869260Y27230343D01*
X17870174Y27306701D01*
X17872311Y27365217D01*
X17876175Y27408255D01*
X17882267Y27438183D01*
X17891090Y27457368D01*
X17903146Y27468176D01*
X17918939Y27472973D01*
X17938970Y27474127D01*
X17941335Y27474133D01*
X17963992Y27473131D01*
G37*
X18558667Y22533037D02*
X18580267Y22518311D01*
X18587066Y22510454D01*
X18592346Y22500312D01*
X18596298Y22485156D01*
X18599113Y22462259D01*
X18600982Y22428891D01*
X18602098Y22382325D01*
X18602651Y22319833D01*
X18602833Y22238686D01*
X18602845Y22196578D01*
X18602765Y22106402D01*
X18602398Y22036076D01*
X18601552Y21982871D01*
X18600036Y21944060D01*
X18597659Y21916913D01*
X18594229Y21898702D01*
X18589554Y21886700D01*
X18583444Y21878178D01*
X18580267Y21874844D01*
X18572670Y21868245D01*
X18562870Y21863073D01*
X18548239Y21859154D01*
X18526152Y21856316D01*
X18493982Y21854385D01*
X18449103Y21853188D01*
X18388889Y21852552D01*
X18310713Y21852303D01*
X18237923Y21852266D01*
X18144707Y21852300D01*
X18071431Y21852535D01*
X18015458Y21853170D01*
X17974151Y21854406D01*
X17944872Y21856444D01*
X17924984Y21859483D01*
X17911850Y21863723D01*
X17902832Y21869365D01*
X17895293Y21876609D01*
X17893612Y21878394D01*
X17886172Y21887055D01*
X17880409Y21897118D01*
X17876112Y21911375D01*
X17873064Y21932617D01*
X17871051Y21963636D01*
X17869860Y22007223D01*
X17869275Y22066169D01*
X17869083Y22143266D01*
X17869067Y22197999D01*
X17869146Y22287206D01*
X17869518Y22356614D01*
X17870385Y22409003D01*
X17871946Y22447153D01*
X17874403Y22473841D01*
X17877957Y22491847D01*
X17882810Y22503951D01*
X17889161Y22512931D01*
X17892084Y22516182D01*
X17923142Y22535957D01*
X17958828Y22539518D01*
X17990510Y22526509D01*
X17996913Y22520494D01*
X18003121Y22510765D01*
X18007910Y22495099D01*
X18011514Y22470592D01*
X18014164Y22434339D01*
X18016095Y22383435D01*
X18017539Y22314974D01*
X18018418Y22252383D01*
X18021467Y22004666D01*
X18086378Y22001281D01*
X18151289Y21997895D01*
X18151289Y22166042D01*
X18151919Y22239041D01*
X18154553Y22292483D01*
X18160309Y22329372D01*
X18170304Y22352712D01*
X18185656Y22365506D01*
X18207482Y22370758D01*
X18227738Y22371555D01*
X18252592Y22369077D01*
X18270906Y22359723D01*
X18283637Y22340617D01*
X18291741Y22308882D01*
X18296176Y22261641D01*
X18297899Y22196017D01*
X18298045Y22160199D01*
X18298045Y21999022D01*
X18456089Y21999022D01*
X18456089Y22247378D01*
X18456202Y22328787D01*
X18456712Y22390658D01*
X18457870Y22436032D01*
X18459930Y22467946D01*
X18463146Y22489441D01*
X18467772Y22503557D01*
X18474059Y22513332D01*
X18478667Y22518311D01*
X18505560Y22535390D01*
X18529467Y22540889D01*
X18558667Y22533037D01*
G36*
X18558667Y22533037D02*
G01*
X18580267Y22518311D01*
X18587066Y22510454D01*
X18592346Y22500312D01*
X18596298Y22485156D01*
X18599113Y22462259D01*
X18600982Y22428891D01*
X18602098Y22382325D01*
X18602651Y22319833D01*
X18602833Y22238686D01*
X18602845Y22196578D01*
X18602765Y22106402D01*
X18602398Y22036076D01*
X18601552Y21982871D01*
X18600036Y21944060D01*
X18597659Y21916913D01*
X18594229Y21898702D01*
X18589554Y21886700D01*
X18583444Y21878178D01*
X18580267Y21874844D01*
X18572670Y21868245D01*
X18562870Y21863073D01*
X18548239Y21859154D01*
X18526152Y21856316D01*
X18493982Y21854385D01*
X18449103Y21853188D01*
X18388889Y21852552D01*
X18310713Y21852303D01*
X18237923Y21852266D01*
X18144707Y21852300D01*
X18071431Y21852535D01*
X18015458Y21853170D01*
X17974151Y21854406D01*
X17944872Y21856444D01*
X17924984Y21859483D01*
X17911850Y21863723D01*
X17902832Y21869365D01*
X17895293Y21876609D01*
X17893612Y21878394D01*
X17886172Y21887055D01*
X17880409Y21897118D01*
X17876112Y21911375D01*
X17873064Y21932617D01*
X17871051Y21963636D01*
X17869860Y22007223D01*
X17869275Y22066169D01*
X17869083Y22143266D01*
X17869067Y22197999D01*
X17869146Y22287206D01*
X17869518Y22356614D01*
X17870385Y22409003D01*
X17871946Y22447153D01*
X17874403Y22473841D01*
X17877957Y22491847D01*
X17882810Y22503951D01*
X17889161Y22512931D01*
X17892084Y22516182D01*
X17923142Y22535957D01*
X17958828Y22539518D01*
X17990510Y22526509D01*
X17996913Y22520494D01*
X18003121Y22510765D01*
X18007910Y22495099D01*
X18011514Y22470592D01*
X18014164Y22434339D01*
X18016095Y22383435D01*
X18017539Y22314974D01*
X18018418Y22252383D01*
X18021467Y22004666D01*
X18086378Y22001281D01*
X18151289Y21997895D01*
X18151289Y22166042D01*
X18151919Y22239041D01*
X18154553Y22292483D01*
X18160309Y22329372D01*
X18170304Y22352712D01*
X18185656Y22365506D01*
X18207482Y22370758D01*
X18227738Y22371555D01*
X18252592Y22369077D01*
X18270906Y22359723D01*
X18283637Y22340617D01*
X18291741Y22308882D01*
X18296176Y22261641D01*
X18297899Y22196017D01*
X18298045Y22160199D01*
X18298045Y21999022D01*
X18456089Y21999022D01*
X18456089Y22247378D01*
X18456202Y22328787D01*
X18456712Y22390658D01*
X18457870Y22436032D01*
X18459930Y22467946D01*
X18463146Y22489441D01*
X18467772Y22503557D01*
X18474059Y22513332D01*
X18478667Y22518311D01*
X18505560Y22535390D01*
X18529467Y22540889D01*
X18558667Y22533037D01*
G37*
X17942361Y30808996D02*
X17960895Y30804961D01*
X17987257Y30796146D01*
X18023752Y30781669D01*
X18072687Y30760645D01*
X18136365Y30732188D01*
X18217093Y30695415D01*
X18261216Y30675175D01*
X18339985Y30638625D01*
X18412423Y30604315D01*
X18475880Y30573552D01*
X18527708Y30547648D01*
X18565259Y30527910D01*
X18585884Y30515650D01*
X18588733Y30513224D01*
X18601302Y30482183D01*
X18599619Y30447121D01*
X18584332Y30419000D01*
X18583089Y30417854D01*
X18566154Y30406668D01*
X18533170Y30387904D01*
X18488380Y30363875D01*
X18436032Y30336897D01*
X18416742Y30327201D01*
X18270150Y30254014D01*
X18429393Y30174240D01*
X18484415Y30145767D01*
X18532132Y30119350D01*
X18568893Y30097148D01*
X18591044Y30081319D01*
X18595741Y30075954D01*
X18602102Y30034257D01*
X18588733Y29999849D01*
X18574446Y29989728D01*
X18542692Y29972214D01*
X18496597Y29948735D01*
X18439285Y29920720D01*
X18373880Y29889599D01*
X18303507Y29856799D01*
X18231291Y29823750D01*
X18160355Y29791881D01*
X18093825Y29762619D01*
X18034826Y29737395D01*
X17986481Y29717636D01*
X17951915Y29704772D01*
X17934253Y29700231D01*
X17933613Y29700277D01*
X17911388Y29711326D01*
X17888753Y29733410D01*
X17887768Y29734710D01*
X17872425Y29761853D01*
X17872574Y29786958D01*
X17875466Y29796368D01*
X17881718Y29807834D01*
X17894014Y29820010D01*
X17914908Y29834357D01*
X17946949Y29852336D01*
X17992688Y29875407D01*
X18054677Y29905030D01*
X18111898Y29931745D01*
X18178226Y29962480D01*
X18237874Y29990021D01*
X18287725Y30012938D01*
X18324664Y30029798D01*
X18345573Y30039173D01*
X18348845Y30040540D01*
X18343497Y30046689D01*
X18321109Y30060822D01*
X18284946Y30081057D01*
X18238277Y30105515D01*
X18219022Y30115248D01*
X18154004Y30148217D01*
X18106654Y30173643D01*
X18074219Y30193612D01*
X18053946Y30210210D01*
X18043082Y30225524D01*
X18038875Y30241640D01*
X18038400Y30252143D01*
X18040042Y30270670D01*
X18046831Y30286904D01*
X18061566Y30303035D01*
X18087044Y30321251D01*
X18126061Y30343739D01*
X18181414Y30372689D01*
X18212903Y30388662D01*
X18263087Y30414570D01*
X18304704Y30437167D01*
X18334242Y30454458D01*
X18348189Y30464450D01*
X18348770Y30465809D01*
X18337793Y30472261D01*
X18309290Y30486708D01*
X18266244Y30507703D01*
X18211638Y30533797D01*
X18148454Y30563546D01*
X18117071Y30578180D01*
X18036078Y30616250D01*
X17973756Y30646905D01*
X17928071Y30671737D01*
X17896989Y30692337D01*
X17878478Y30710298D01*
X17870504Y30727210D01*
X17871034Y30744665D01*
X17878035Y30764255D01*
X17878377Y30765010D01*
X17898678Y30791613D01*
X17919561Y30806270D01*
X17929352Y30809138D01*
X17942361Y30808996D01*
G36*
X17942361Y30808996D02*
G01*
X17960895Y30804961D01*
X17987257Y30796146D01*
X18023752Y30781669D01*
X18072687Y30760645D01*
X18136365Y30732188D01*
X18217093Y30695415D01*
X18261216Y30675175D01*
X18339985Y30638625D01*
X18412423Y30604315D01*
X18475880Y30573552D01*
X18527708Y30547648D01*
X18565259Y30527910D01*
X18585884Y30515650D01*
X18588733Y30513224D01*
X18601302Y30482183D01*
X18599619Y30447121D01*
X18584332Y30419000D01*
X18583089Y30417854D01*
X18566154Y30406668D01*
X18533170Y30387904D01*
X18488380Y30363875D01*
X18436032Y30336897D01*
X18416742Y30327201D01*
X18270150Y30254014D01*
X18429393Y30174240D01*
X18484415Y30145767D01*
X18532132Y30119350D01*
X18568893Y30097148D01*
X18591044Y30081319D01*
X18595741Y30075954D01*
X18602102Y30034257D01*
X18588733Y29999849D01*
X18574446Y29989728D01*
X18542692Y29972214D01*
X18496597Y29948735D01*
X18439285Y29920720D01*
X18373880Y29889599D01*
X18303507Y29856799D01*
X18231291Y29823750D01*
X18160355Y29791881D01*
X18093825Y29762619D01*
X18034826Y29737395D01*
X17986481Y29717636D01*
X17951915Y29704772D01*
X17934253Y29700231D01*
X17933613Y29700277D01*
X17911388Y29711326D01*
X17888753Y29733410D01*
X17887768Y29734710D01*
X17872425Y29761853D01*
X17872574Y29786958D01*
X17875466Y29796368D01*
X17881718Y29807834D01*
X17894014Y29820010D01*
X17914908Y29834357D01*
X17946949Y29852336D01*
X17992688Y29875407D01*
X18054677Y29905030D01*
X18111898Y29931745D01*
X18178226Y29962480D01*
X18237874Y29990021D01*
X18287725Y30012938D01*
X18324664Y30029798D01*
X18345573Y30039173D01*
X18348845Y30040540D01*
X18343497Y30046689D01*
X18321109Y30060822D01*
X18284946Y30081057D01*
X18238277Y30105515D01*
X18219022Y30115248D01*
X18154004Y30148217D01*
X18106654Y30173643D01*
X18074219Y30193612D01*
X18053946Y30210210D01*
X18043082Y30225524D01*
X18038875Y30241640D01*
X18038400Y30252143D01*
X18040042Y30270670D01*
X18046831Y30286904D01*
X18061566Y30303035D01*
X18087044Y30321251D01*
X18126061Y30343739D01*
X18181414Y30372689D01*
X18212903Y30388662D01*
X18263087Y30414570D01*
X18304704Y30437167D01*
X18334242Y30454458D01*
X18348189Y30464450D01*
X18348770Y30465809D01*
X18337793Y30472261D01*
X18309290Y30486708D01*
X18266244Y30507703D01*
X18211638Y30533797D01*
X18148454Y30563546D01*
X18117071Y30578180D01*
X18036078Y30616250D01*
X17973756Y30646905D01*
X17928071Y30671737D01*
X17896989Y30692337D01*
X17878478Y30710298D01*
X17870504Y30727210D01*
X17871034Y30744665D01*
X17878035Y30764255D01*
X17878377Y30765010D01*
X17898678Y30791613D01*
X17919561Y30806270D01*
X17929352Y30809138D01*
X17942361Y30808996D01*
G37*
X18427712Y23610424D02*
X18457259Y23598798D01*
X18483486Y23578677D01*
X18523576Y23537784D01*
X18554149Y23492183D01*
X18576203Y23438487D01*
X18590735Y23373308D01*
X18598741Y23293256D01*
X18601218Y23194943D01*
X18601177Y23178711D01*
X18599818Y23113151D01*
X18596730Y23048134D01*
X18592356Y22990748D01*
X18587140Y22948078D01*
X18586541Y22944628D01*
X18576491Y22902204D01*
X18563796Y22866220D01*
X18552190Y22845850D01*
X18521572Y22826893D01*
X18485918Y22825573D01*
X18454144Y22841915D01*
X18450551Y22845571D01*
X18439876Y22860685D01*
X18435276Y22879585D01*
X18436059Y22908838D01*
X18440127Y22944349D01*
X18443762Y22984030D01*
X18446828Y23039655D01*
X18449053Y23104594D01*
X18450164Y23172215D01*
X18450237Y23190000D01*
X18449964Y23257872D01*
X18448646Y23307546D01*
X18445827Y23343390D01*
X18441050Y23369776D01*
X18433857Y23391074D01*
X18427867Y23403874D01*
X18411233Y23432000D01*
X18396168Y23449932D01*
X18391897Y23452553D01*
X18374263Y23447024D01*
X18357192Y23420740D01*
X18341458Y23375522D01*
X18327838Y23313192D01*
X18324804Y23294829D01*
X18309738Y23198910D01*
X18297146Y23122359D01*
X18286111Y23062220D01*
X18275720Y23015540D01*
X18265056Y22979363D01*
X18253205Y22950735D01*
X18239251Y22926702D01*
X18222281Y22904308D01*
X18201378Y22880598D01*
X18194049Y22872620D01*
X18166699Y22844647D01*
X18145029Y22829840D01*
X18120232Y22824048D01*
X18088983Y22823111D01*
X18027705Y22833425D01*
X17975640Y22864248D01*
X17932958Y22915405D01*
X17899825Y22986717D01*
X17884964Y23037600D01*
X17875366Y23092900D01*
X17869936Y23159147D01*
X17868367Y23232294D01*
X17870351Y23308297D01*
X17875581Y23383112D01*
X17883750Y23452694D01*
X17894550Y23512998D01*
X17907673Y23559980D01*
X17922813Y23589594D01*
X17927269Y23594140D01*
X17961850Y23609946D01*
X17997351Y23605153D01*
X18027725Y23580636D01*
X18028596Y23579466D01*
X18037954Y23565046D01*
X18042876Y23549992D01*
X18043473Y23528995D01*
X18039861Y23496743D01*
X18032154Y23447927D01*
X18031505Y23444000D01*
X18022569Y23371261D01*
X18018161Y23292783D01*
X18018119Y23214073D01*
X18022279Y23140639D01*
X18030479Y23077989D01*
X18042557Y23031630D01*
X18043771Y23028584D01*
X18062615Y22994952D01*
X18081685Y22983136D01*
X18100439Y22992386D01*
X18118337Y23021953D01*
X18134837Y23071089D01*
X18149396Y23139043D01*
X18156406Y23184355D01*
X18169889Y23278544D01*
X18182214Y23353456D01*
X18194449Y23412283D01*
X18207661Y23458215D01*
X18222917Y23494445D01*
X18241285Y23524162D01*
X18263831Y23550558D01*
X18285971Y23571770D01*
X18316819Y23596935D01*
X18343345Y23609319D01*
X18376026Y23613192D01*
X18387995Y23613333D01*
X18427712Y23610424D01*
G36*
X18427712Y23610424D02*
G01*
X18457259Y23598798D01*
X18483486Y23578677D01*
X18523576Y23537784D01*
X18554149Y23492183D01*
X18576203Y23438487D01*
X18590735Y23373308D01*
X18598741Y23293256D01*
X18601218Y23194943D01*
X18601177Y23178711D01*
X18599818Y23113151D01*
X18596730Y23048134D01*
X18592356Y22990748D01*
X18587140Y22948078D01*
X18586541Y22944628D01*
X18576491Y22902204D01*
X18563796Y22866220D01*
X18552190Y22845850D01*
X18521572Y22826893D01*
X18485918Y22825573D01*
X18454144Y22841915D01*
X18450551Y22845571D01*
X18439876Y22860685D01*
X18435276Y22879585D01*
X18436059Y22908838D01*
X18440127Y22944349D01*
X18443762Y22984030D01*
X18446828Y23039655D01*
X18449053Y23104594D01*
X18450164Y23172215D01*
X18450237Y23190000D01*
X18449964Y23257872D01*
X18448646Y23307546D01*
X18445827Y23343390D01*
X18441050Y23369776D01*
X18433857Y23391074D01*
X18427867Y23403874D01*
X18411233Y23432000D01*
X18396168Y23449932D01*
X18391897Y23452553D01*
X18374263Y23447024D01*
X18357192Y23420740D01*
X18341458Y23375522D01*
X18327838Y23313192D01*
X18324804Y23294829D01*
X18309738Y23198910D01*
X18297146Y23122359D01*
X18286111Y23062220D01*
X18275720Y23015540D01*
X18265056Y22979363D01*
X18253205Y22950735D01*
X18239251Y22926702D01*
X18222281Y22904308D01*
X18201378Y22880598D01*
X18194049Y22872620D01*
X18166699Y22844647D01*
X18145029Y22829840D01*
X18120232Y22824048D01*
X18088983Y22823111D01*
X18027705Y22833425D01*
X17975640Y22864248D01*
X17932958Y22915405D01*
X17899825Y22986717D01*
X17884964Y23037600D01*
X17875366Y23092900D01*
X17869936Y23159147D01*
X17868367Y23232294D01*
X17870351Y23308297D01*
X17875581Y23383112D01*
X17883750Y23452694D01*
X17894550Y23512998D01*
X17907673Y23559980D01*
X17922813Y23589594D01*
X17927269Y23594140D01*
X17961850Y23609946D01*
X17997351Y23605153D01*
X18027725Y23580636D01*
X18028596Y23579466D01*
X18037954Y23565046D01*
X18042876Y23549992D01*
X18043473Y23528995D01*
X18039861Y23496743D01*
X18032154Y23447927D01*
X18031505Y23444000D01*
X18022569Y23371261D01*
X18018161Y23292783D01*
X18018119Y23214073D01*
X18022279Y23140639D01*
X18030479Y23077989D01*
X18042557Y23031630D01*
X18043771Y23028584D01*
X18062615Y22994952D01*
X18081685Y22983136D01*
X18100439Y22992386D01*
X18118337Y23021953D01*
X18134837Y23071089D01*
X18149396Y23139043D01*
X18156406Y23184355D01*
X18169889Y23278544D01*
X18182214Y23353456D01*
X18194449Y23412283D01*
X18207661Y23458215D01*
X18222917Y23494445D01*
X18241285Y23524162D01*
X18263831Y23550558D01*
X18285971Y23571770D01*
X18316819Y23596935D01*
X18343345Y23609319D01*
X18376026Y23613192D01*
X18387995Y23613333D01*
X18427712Y23610424D01*
G37*
X16756718Y28258146D02*
X16773999Y28232567D01*
X16797283Y28192873D01*
X16824934Y28142297D01*
X16855315Y28084074D01*
X16886790Y28021437D01*
X16917722Y27957621D01*
X16946473Y27895860D01*
X16971408Y27839388D01*
X16990889Y27791438D01*
X16999318Y27767986D01*
X17037133Y27634221D01*
X17062136Y27496327D01*
X17075140Y27348622D01*
X17077468Y27221833D01*
X17076373Y27153878D01*
X17074275Y27088277D01*
X17071434Y27030847D01*
X17068106Y26987403D01*
X17066422Y26973298D01*
X17037587Y26834284D01*
X16992468Y26692757D01*
X16933750Y26555275D01*
X16864120Y26428394D01*
X16811441Y26350889D01*
X16703239Y26223481D01*
X16576671Y26105178D01*
X16434866Y25998172D01*
X16280951Y25904652D01*
X16118053Y25826810D01*
X16000756Y25782956D01*
X15817128Y25732708D01*
X15622581Y25699209D01*
X15421325Y25682449D01*
X15217568Y25682416D01*
X15015521Y25699101D01*
X14819392Y25732493D01*
X14633391Y25782580D01*
X14621803Y25786397D01*
X14459750Y25849281D01*
X14311832Y25926028D01*
X14173865Y26019242D01*
X14041661Y26131527D01*
X13996399Y26175392D01*
X13872457Y26311534D01*
X13769915Y26451491D01*
X13687656Y26597411D01*
X13624564Y26751442D01*
X13579523Y26915732D01*
X13562033Y27011289D01*
X13546466Y27170023D01*
X13549071Y27328429D01*
X13570245Y27488570D01*
X13610385Y27652510D01*
X13669889Y27822313D01*
X13749154Y28000043D01*
X13754699Y28011310D01*
X13782725Y28069005D01*
X13806802Y28120552D01*
X13825249Y28162191D01*
X13836386Y28190162D01*
X13838933Y28199733D01*
X13843941Y28218950D01*
X13848147Y28223561D01*
X13858580Y28218458D01*
X13884868Y28202418D01*
X13924257Y28177288D01*
X13973991Y28144914D01*
X14031315Y28107143D01*
X14093476Y28065822D01*
X14157718Y28022798D01*
X14221285Y27979917D01*
X14281425Y27939026D01*
X14335380Y27901971D01*
X14380397Y27870600D01*
X14413721Y27846759D01*
X14432597Y27832294D01*
X14434787Y27830309D01*
X14430138Y27820191D01*
X14412962Y27797850D01*
X14386440Y27767280D01*
X14371964Y27751536D01*
X14296682Y27655047D01*
X14241241Y27548336D01*
X14206141Y27432832D01*
X14191880Y27309962D01*
X14193051Y27240561D01*
X14210212Y27119423D01*
X14246094Y27010205D01*
X14300959Y26912582D01*
X14375070Y26826228D01*
X14468688Y26750815D01*
X14582076Y26686018D01*
X14668667Y26648601D01*
X14804366Y26604748D01*
X14951850Y26572428D01*
X15107314Y26551557D01*
X15266956Y26542051D01*
X15426973Y26543827D01*
X15583561Y26556803D01*
X15732918Y26580894D01*
X15871240Y26616018D01*
X15994724Y26662092D01*
X16028978Y26678373D01*
X16143064Y26746620D01*
X16239557Y26827079D01*
X16317670Y26918570D01*
X16376617Y27019911D01*
X16415612Y27129920D01*
X16433868Y27247415D01*
X16435211Y27288883D01*
X16424290Y27410441D01*
X16391474Y27530878D01*
X16337439Y27648666D01*
X16262865Y27762277D01*
X16184539Y27853685D01*
X16140008Y27900215D01*
X16437271Y28081483D01*
X16511433Y28126580D01*
X16579646Y28167819D01*
X16639459Y28203735D01*
X16688420Y28232866D01*
X16724079Y28253750D01*
X16743984Y28264924D01*
X16747079Y28266375D01*
X16756718Y28258146D01*
G36*
X16756718Y28258146D02*
G01*
X16773999Y28232567D01*
X16797283Y28192873D01*
X16824934Y28142297D01*
X16855315Y28084074D01*
X16886790Y28021437D01*
X16917722Y27957621D01*
X16946473Y27895860D01*
X16971408Y27839388D01*
X16990889Y27791438D01*
X16999318Y27767986D01*
X17037133Y27634221D01*
X17062136Y27496327D01*
X17075140Y27348622D01*
X17077468Y27221833D01*
X17076373Y27153878D01*
X17074275Y27088277D01*
X17071434Y27030847D01*
X17068106Y26987403D01*
X17066422Y26973298D01*
X17037587Y26834284D01*
X16992468Y26692757D01*
X16933750Y26555275D01*
X16864120Y26428394D01*
X16811441Y26350889D01*
X16703239Y26223481D01*
X16576671Y26105178D01*
X16434866Y25998172D01*
X16280951Y25904652D01*
X16118053Y25826810D01*
X16000756Y25782956D01*
X15817128Y25732708D01*
X15622581Y25699209D01*
X15421325Y25682449D01*
X15217568Y25682416D01*
X15015521Y25699101D01*
X14819392Y25732493D01*
X14633391Y25782580D01*
X14621803Y25786397D01*
X14459750Y25849281D01*
X14311832Y25926028D01*
X14173865Y26019242D01*
X14041661Y26131527D01*
X13996399Y26175392D01*
X13872457Y26311534D01*
X13769915Y26451491D01*
X13687656Y26597411D01*
X13624564Y26751442D01*
X13579523Y26915732D01*
X13562033Y27011289D01*
X13546466Y27170023D01*
X13549071Y27328429D01*
X13570245Y27488570D01*
X13610385Y27652510D01*
X13669889Y27822313D01*
X13749154Y28000043D01*
X13754699Y28011310D01*
X13782725Y28069005D01*
X13806802Y28120552D01*
X13825249Y28162191D01*
X13836386Y28190162D01*
X13838933Y28199733D01*
X13843941Y28218950D01*
X13848147Y28223561D01*
X13858580Y28218458D01*
X13884868Y28202418D01*
X13924257Y28177288D01*
X13973991Y28144914D01*
X14031315Y28107143D01*
X14093476Y28065822D01*
X14157718Y28022798D01*
X14221285Y27979917D01*
X14281425Y27939026D01*
X14335380Y27901971D01*
X14380397Y27870600D01*
X14413721Y27846759D01*
X14432597Y27832294D01*
X14434787Y27830309D01*
X14430138Y27820191D01*
X14412962Y27797850D01*
X14386440Y27767280D01*
X14371964Y27751536D01*
X14296682Y27655047D01*
X14241241Y27548336D01*
X14206141Y27432832D01*
X14191880Y27309962D01*
X14193051Y27240561D01*
X14210212Y27119423D01*
X14246094Y27010205D01*
X14300959Y26912582D01*
X14375070Y26826228D01*
X14468688Y26750815D01*
X14582076Y26686018D01*
X14668667Y26648601D01*
X14804366Y26604748D01*
X14951850Y26572428D01*
X15107314Y26551557D01*
X15266956Y26542051D01*
X15426973Y26543827D01*
X15583561Y26556803D01*
X15732918Y26580894D01*
X15871240Y26616018D01*
X15994724Y26662092D01*
X16028978Y26678373D01*
X16143064Y26746620D01*
X16239557Y26827079D01*
X16317670Y26918570D01*
X16376617Y27019911D01*
X16415612Y27129920D01*
X16433868Y27247415D01*
X16435211Y27288883D01*
X16424290Y27410441D01*
X16391474Y27530878D01*
X16337439Y27648666D01*
X16262865Y27762277D01*
X16184539Y27853685D01*
X16140008Y27900215D01*
X16437271Y28081483D01*
X16511433Y28126580D01*
X16579646Y28167819D01*
X16639459Y28203735D01*
X16688420Y28232866D01*
X16724079Y28253750D01*
X16743984Y28264924D01*
X16747079Y28266375D01*
X16756718Y28258146D01*
G37*
X17033689Y32429955D02*
X16937733Y32429955D01*
X16894370Y32429224D01*
X16861205Y32427272D01*
X16843424Y32424463D01*
X16841778Y32423221D01*
X16848662Y32411799D01*
X16866505Y32389084D01*
X16885879Y32366385D01*
X16926614Y32311800D01*
X16967617Y32242321D01*
X17005123Y32165270D01*
X17035364Y32087965D01*
X17045012Y32057113D01*
X17059578Y31988616D01*
X17069539Y31905764D01*
X17074583Y31816371D01*
X17074396Y31728248D01*
X17068666Y31649207D01*
X17062858Y31611511D01*
X17024797Y31473414D01*
X16967073Y31346113D01*
X16890211Y31230292D01*
X16794739Y31126637D01*
X16681179Y31035833D01*
X16570381Y30969031D01*
X16453625Y30914164D01*
X16334276Y30872163D01*
X16208283Y30842167D01*
X16071594Y30823311D01*
X15920158Y30814732D01*
X15842711Y30814006D01*
X15785934Y30816100D01*
X15629895Y30821857D01*
X15434059Y30843802D01*
X15255332Y30879786D01*
X15093845Y30929759D01*
X14949726Y30993668D01*
X14823106Y31071462D01*
X14714115Y31163089D01*
X14622883Y31268497D01*
X14591932Y31313662D01*
X14535785Y31414611D01*
X14496174Y31517901D01*
X14472014Y31627989D01*
X14462219Y31749330D01*
X14463265Y31841836D01*
X14474231Y31971490D01*
X14493231Y32069557D01*
X15047465Y32069557D01*
X15050722Y31988216D01*
X15069615Y31915380D01*
X15085184Y31883426D01*
X15128181Y31825501D01*
X15184953Y31776544D01*
X15257575Y31735390D01*
X15348121Y31700874D01*
X15458666Y31671833D01*
X15464533Y31670552D01*
X15526788Y31660381D01*
X15604594Y31652739D01*
X15692720Y31647670D01*
X15785934Y31645217D01*
X15879002Y31645424D01*
X15966692Y31648337D01*
X16043772Y31654000D01*
X16105009Y31662455D01*
X16117350Y31665038D01*
X16224633Y31696840D01*
X16311658Y31738498D01*
X16378642Y31790363D01*
X16425805Y31852781D01*
X16453365Y31926100D01*
X16461541Y32010669D01*
X16450551Y32106835D01*
X16434829Y32170311D01*
X16416639Y32219454D01*
X16390791Y32273583D01*
X16367089Y32314244D01*
X16320721Y32384800D01*
X15170530Y32384800D01*
X15126962Y32317392D01*
X15086040Y32238867D01*
X15059389Y32154681D01*
X15047465Y32069557D01*
X14493231Y32069557D01*
X14496046Y32084084D01*
X14529714Y32182875D01*
X14576236Y32271121D01*
X14610448Y32319986D01*
X14632362Y32349353D01*
X14647333Y32371043D01*
X14651733Y32379253D01*
X14640904Y32380868D01*
X14610251Y32382159D01*
X14562526Y32383138D01*
X14500479Y32383817D01*
X14426862Y32384210D01*
X14344427Y32384330D01*
X14255925Y32384188D01*
X14164107Y32383797D01*
X14071724Y32383171D01*
X13981528Y32382320D01*
X13896271Y32381260D01*
X13818703Y32380001D01*
X13751576Y32378556D01*
X13697641Y32376938D01*
X13659650Y32375161D01*
X13652667Y32374669D01*
X13582251Y32367092D01*
X13527102Y32355531D01*
X13479981Y32337792D01*
X13433647Y32311682D01*
X13424067Y32305415D01*
X13387378Y32280983D01*
X13387378Y33186311D01*
X15072245Y33186507D01*
X15306662Y33186526D01*
X15519603Y33186552D01*
X15712168Y33186625D01*
X15885459Y33186782D01*
X16040576Y33187064D01*
X16178620Y33187509D01*
X16300692Y33188156D01*
X16407894Y33189045D01*
X16501326Y33190213D01*
X16582090Y33191701D01*
X16651286Y33193546D01*
X16710015Y33195789D01*
X16759379Y33198469D01*
X16800478Y33201623D01*
X16834413Y33205292D01*
X16862286Y33209513D01*
X16885198Y33214327D01*
X16904249Y33219773D01*
X16920540Y33225888D01*
X16935173Y33232712D01*
X16949249Y33240285D01*
X16963868Y33248645D01*
X16972974Y33253839D01*
X17033689Y33288104D01*
X17033689Y32429955D01*
G36*
X17033689Y32429955D02*
G01*
X16937733Y32429955D01*
X16894370Y32429224D01*
X16861205Y32427272D01*
X16843424Y32424463D01*
X16841778Y32423221D01*
X16848662Y32411799D01*
X16866505Y32389084D01*
X16885879Y32366385D01*
X16926614Y32311800D01*
X16967617Y32242321D01*
X17005123Y32165270D01*
X17035364Y32087965D01*
X17045012Y32057113D01*
X17059578Y31988616D01*
X17069539Y31905764D01*
X17074583Y31816371D01*
X17074396Y31728248D01*
X17068666Y31649207D01*
X17062858Y31611511D01*
X17024797Y31473414D01*
X16967073Y31346113D01*
X16890211Y31230292D01*
X16794739Y31126637D01*
X16681179Y31035833D01*
X16570381Y30969031D01*
X16453625Y30914164D01*
X16334276Y30872163D01*
X16208283Y30842167D01*
X16071594Y30823311D01*
X15920158Y30814732D01*
X15842711Y30814006D01*
X15785934Y30816100D01*
X15629895Y30821857D01*
X15434059Y30843802D01*
X15255332Y30879786D01*
X15093845Y30929759D01*
X14949726Y30993668D01*
X14823106Y31071462D01*
X14714115Y31163089D01*
X14622883Y31268497D01*
X14591932Y31313662D01*
X14535785Y31414611D01*
X14496174Y31517901D01*
X14472014Y31627989D01*
X14462219Y31749330D01*
X14463265Y31841836D01*
X14474231Y31971490D01*
X14493231Y32069557D01*
X15047465Y32069557D01*
X15050722Y31988216D01*
X15069615Y31915380D01*
X15085184Y31883426D01*
X15128181Y31825501D01*
X15184953Y31776544D01*
X15257575Y31735390D01*
X15348121Y31700874D01*
X15458666Y31671833D01*
X15464533Y31670552D01*
X15526788Y31660381D01*
X15604594Y31652739D01*
X15692720Y31647670D01*
X15785934Y31645217D01*
X15879002Y31645424D01*
X15966692Y31648337D01*
X16043772Y31654000D01*
X16105009Y31662455D01*
X16117350Y31665038D01*
X16224633Y31696840D01*
X16311658Y31738498D01*
X16378642Y31790363D01*
X16425805Y31852781D01*
X16453365Y31926100D01*
X16461541Y32010669D01*
X16450551Y32106835D01*
X16434829Y32170311D01*
X16416639Y32219454D01*
X16390791Y32273583D01*
X16367089Y32314244D01*
X16320721Y32384800D01*
X15170530Y32384800D01*
X15126962Y32317392D01*
X15086040Y32238867D01*
X15059389Y32154681D01*
X15047465Y32069557D01*
X14493231Y32069557D01*
X14496046Y32084084D01*
X14529714Y32182875D01*
X14576236Y32271121D01*
X14610448Y32319986D01*
X14632362Y32349353D01*
X14647333Y32371043D01*
X14651733Y32379253D01*
X14640904Y32380868D01*
X14610251Y32382159D01*
X14562526Y32383138D01*
X14500479Y32383817D01*
X14426862Y32384210D01*
X14344427Y32384330D01*
X14255925Y32384188D01*
X14164107Y32383797D01*
X14071724Y32383171D01*
X13981528Y32382320D01*
X13896271Y32381260D01*
X13818703Y32380001D01*
X13751576Y32378556D01*
X13697641Y32376938D01*
X13659650Y32375161D01*
X13652667Y32374669D01*
X13582251Y32367092D01*
X13527102Y32355531D01*
X13479981Y32337792D01*
X13433647Y32311682D01*
X13424067Y32305415D01*
X13387378Y32280983D01*
X13387378Y33186311D01*
X15072245Y33186507D01*
X15306662Y33186526D01*
X15519603Y33186552D01*
X15712168Y33186625D01*
X15885459Y33186782D01*
X16040576Y33187064D01*
X16178620Y33187509D01*
X16300692Y33188156D01*
X16407894Y33189045D01*
X16501326Y33190213D01*
X16582090Y33191701D01*
X16651286Y33193546D01*
X16710015Y33195789D01*
X16759379Y33198469D01*
X16800478Y33201623D01*
X16834413Y33205292D01*
X16862286Y33209513D01*
X16885198Y33214327D01*
X16904249Y33219773D01*
X16920540Y33225888D01*
X16935173Y33232712D01*
X16949249Y33240285D01*
X16963868Y33248645D01*
X16972974Y33253839D01*
X17033689Y33288104D01*
X17033689Y32429955D01*
G37*
X17026121Y30601567D02*
X17028147Y30570582D01*
X17029942Y30521957D01*
X17031451Y30458163D01*
X17032616Y30381669D01*
X17033380Y30294944D01*
X17033686Y30200457D01*
X17033689Y30189550D01*
X17033689Y29766657D01*
X16937622Y29763395D01*
X16841556Y29760133D01*
X16892543Y29698044D01*
X16960057Y29600714D01*
X17014749Y29490813D01*
X17044978Y29404349D01*
X17059666Y29335278D01*
X17069659Y29251925D01*
X17074646Y29162159D01*
X17074313Y29073845D01*
X17068351Y28994851D01*
X17062638Y28958622D01*
X17024776Y28818603D01*
X16969932Y28692178D01*
X16898924Y28580260D01*
X16812568Y28483762D01*
X16711679Y28403600D01*
X16597076Y28340687D01*
X16470984Y28296312D01*
X16414401Y28283978D01*
X16352202Y28276368D01*
X16277363Y28272739D01*
X16243467Y28272245D01*
X16240282Y28272310D01*
X16149712Y28274178D01*
X16070812Y28282522D01*
X15999590Y28298768D01*
X15928864Y28324405D01*
X15876493Y28348401D01*
X15781196Y28407020D01*
X15693170Y28485117D01*
X15614017Y28580315D01*
X15545340Y28690238D01*
X15488741Y28812510D01*
X15445821Y28944755D01*
X15430882Y29009422D01*
X15408777Y29145604D01*
X15394194Y29294049D01*
X15387813Y29445505D01*
X15389110Y29546106D01*
X15911842Y29546106D01*
X15917096Y29425330D01*
X15933263Y29322660D01*
X15960961Y29236106D01*
X16000808Y29163681D01*
X16047758Y29108751D01*
X16105645Y29064204D01*
X16168693Y29039480D01*
X16240282Y29032248D01*
X16315333Y29041541D01*
X16379160Y29069728D01*
X16434798Y29118197D01*
X16439211Y29123254D01*
X16474037Y29171548D01*
X16496620Y29223257D01*
X16508540Y29283989D01*
X16511383Y29359352D01*
X16510978Y29377459D01*
X16508325Y29431278D01*
X16502909Y29471308D01*
X16492745Y29506324D01*
X16475850Y29545103D01*
X16470672Y29555745D01*
X16434844Y29616396D01*
X16392212Y29663215D01*
X16376973Y29675952D01*
X16320462Y29720622D01*
X16124586Y29720622D01*
X16045939Y29720086D01*
X15987988Y29718396D01*
X15948875Y29715428D01*
X15926741Y29711057D01*
X15920274Y29706972D01*
X15917111Y29691047D01*
X15914488Y29657264D01*
X15912655Y29610340D01*
X15911857Y29554993D01*
X15911842Y29546106D01*
X15389110Y29546106D01*
X15389445Y29572064D01*
X15396224Y29733950D01*
X15337245Y29726530D01*
X15238092Y29707238D01*
X15157372Y29676104D01*
X15094466Y29632269D01*
X15048756Y29574871D01*
X15019622Y29503048D01*
X15006447Y29415941D01*
X15008611Y29312686D01*
X15012612Y29274711D01*
X15037780Y29133520D01*
X15078814Y28996707D01*
X15116815Y28902178D01*
X15136190Y28857018D01*
X15151760Y28818585D01*
X15161405Y28792234D01*
X15163452Y28784546D01*
X15154374Y28774802D01*
X15125405Y28758083D01*
X15076217Y28734232D01*
X15006484Y28703093D01*
X14915879Y28664507D01*
X14900089Y28657910D01*
X14827772Y28627853D01*
X14762425Y28600874D01*
X14706906Y28578136D01*
X14664072Y28560806D01*
X14636781Y28550048D01*
X14627942Y28546941D01*
X14623187Y28556940D01*
X14617910Y28583217D01*
X14614231Y28611489D01*
X14609474Y28641646D01*
X14600028Y28689433D01*
X14586820Y28750612D01*
X14570776Y28820946D01*
X14552820Y28896194D01*
X14545797Y28924755D01*
X14520209Y29029816D01*
X14500147Y29117480D01*
X14484969Y29192068D01*
X14474035Y29257903D01*
X14466704Y29319307D01*
X14462335Y29380602D01*
X14460287Y29446110D01*
X14459889Y29504128D01*
X14466552Y29673574D01*
X14486567Y29825492D01*
X14520202Y29960756D01*
X14567725Y30080239D01*
X14629405Y30184815D01*
X14692965Y30262424D01*
X14767099Y30331265D01*
X14846871Y30385006D01*
X14939091Y30427910D01*
X14982161Y30443384D01*
X15021142Y30456244D01*
X15057289Y30467446D01*
X15092434Y30477120D01*
X15128410Y30485396D01*
X15167050Y30492403D01*
X15210185Y30498272D01*
X15259649Y30503131D01*
X15317273Y30507110D01*
X15384891Y30510340D01*
X15464334Y30512949D01*
X15557436Y30515067D01*
X15666027Y30516824D01*
X15791942Y30518349D01*
X15937012Y30519772D01*
X16079778Y30521025D01*
X16235968Y30522351D01*
X16371239Y30523556D01*
X16487246Y30524766D01*
X16585645Y30526106D01*
X16668093Y30527700D01*
X16736246Y30529675D01*
X16791760Y30532156D01*
X16836292Y30535269D01*
X16871498Y30539138D01*
X16899034Y30543889D01*
X16920556Y30549648D01*
X16937722Y30556539D01*
X16952186Y30564689D01*
X16965606Y30574223D01*
X16979638Y30585266D01*
X16985071Y30589566D01*
X17007910Y30605386D01*
X17023463Y30612422D01*
X17023922Y30612444D01*
X17026121Y30601567D01*
G36*
X17026121Y30601567D02*
G01*
X17028147Y30570582D01*
X17029942Y30521957D01*
X17031451Y30458163D01*
X17032616Y30381669D01*
X17033380Y30294944D01*
X17033686Y30200457D01*
X17033689Y30189550D01*
X17033689Y29766657D01*
X16937622Y29763395D01*
X16841556Y29760133D01*
X16892543Y29698044D01*
X16960057Y29600714D01*
X17014749Y29490813D01*
X17044978Y29404349D01*
X17059666Y29335278D01*
X17069659Y29251925D01*
X17074646Y29162159D01*
X17074313Y29073845D01*
X17068351Y28994851D01*
X17062638Y28958622D01*
X17024776Y28818603D01*
X16969932Y28692178D01*
X16898924Y28580260D01*
X16812568Y28483762D01*
X16711679Y28403600D01*
X16597076Y28340687D01*
X16470984Y28296312D01*
X16414401Y28283978D01*
X16352202Y28276368D01*
X16277363Y28272739D01*
X16243467Y28272245D01*
X16240282Y28272310D01*
X16149712Y28274178D01*
X16070812Y28282522D01*
X15999590Y28298768D01*
X15928864Y28324405D01*
X15876493Y28348401D01*
X15781196Y28407020D01*
X15693170Y28485117D01*
X15614017Y28580315D01*
X15545340Y28690238D01*
X15488741Y28812510D01*
X15445821Y28944755D01*
X15430882Y29009422D01*
X15408777Y29145604D01*
X15394194Y29294049D01*
X15387813Y29445505D01*
X15389110Y29546106D01*
X15911842Y29546106D01*
X15917096Y29425330D01*
X15933263Y29322660D01*
X15960961Y29236106D01*
X16000808Y29163681D01*
X16047758Y29108751D01*
X16105645Y29064204D01*
X16168693Y29039480D01*
X16240282Y29032248D01*
X16315333Y29041541D01*
X16379160Y29069728D01*
X16434798Y29118197D01*
X16439211Y29123254D01*
X16474037Y29171548D01*
X16496620Y29223257D01*
X16508540Y29283989D01*
X16511383Y29359352D01*
X16510978Y29377459D01*
X16508325Y29431278D01*
X16502909Y29471308D01*
X16492745Y29506324D01*
X16475850Y29545103D01*
X16470672Y29555745D01*
X16434844Y29616396D01*
X16392212Y29663215D01*
X16376973Y29675952D01*
X16320462Y29720622D01*
X16124586Y29720622D01*
X16045939Y29720086D01*
X15987988Y29718396D01*
X15948875Y29715428D01*
X15926741Y29711057D01*
X15920274Y29706972D01*
X15917111Y29691047D01*
X15914488Y29657264D01*
X15912655Y29610340D01*
X15911857Y29554993D01*
X15911842Y29546106D01*
X15389110Y29546106D01*
X15389445Y29572064D01*
X15396224Y29733950D01*
X15337245Y29726530D01*
X15238092Y29707238D01*
X15157372Y29676104D01*
X15094466Y29632269D01*
X15048756Y29574871D01*
X15019622Y29503048D01*
X15006447Y29415941D01*
X15008611Y29312686D01*
X15012612Y29274711D01*
X15037780Y29133520D01*
X15078814Y28996707D01*
X15116815Y28902178D01*
X15136190Y28857018D01*
X15151760Y28818585D01*
X15161405Y28792234D01*
X15163452Y28784546D01*
X15154374Y28774802D01*
X15125405Y28758083D01*
X15076217Y28734232D01*
X15006484Y28703093D01*
X14915879Y28664507D01*
X14900089Y28657910D01*
X14827772Y28627853D01*
X14762425Y28600874D01*
X14706906Y28578136D01*
X14664072Y28560806D01*
X14636781Y28550048D01*
X14627942Y28546941D01*
X14623187Y28556940D01*
X14617910Y28583217D01*
X14614231Y28611489D01*
X14609474Y28641646D01*
X14600028Y28689433D01*
X14586820Y28750612D01*
X14570776Y28820946D01*
X14552820Y28896194D01*
X14545797Y28924755D01*
X14520209Y29029816D01*
X14500147Y29117480D01*
X14484969Y29192068D01*
X14474035Y29257903D01*
X14466704Y29319307D01*
X14462335Y29380602D01*
X14460287Y29446110D01*
X14459889Y29504128D01*
X14466552Y29673574D01*
X14486567Y29825492D01*
X14520202Y29960756D01*
X14567725Y30080239D01*
X14629405Y30184815D01*
X14692965Y30262424D01*
X14767099Y30331265D01*
X14846871Y30385006D01*
X14939091Y30427910D01*
X14982161Y30443384D01*
X15021142Y30456244D01*
X15057289Y30467446D01*
X15092434Y30477120D01*
X15128410Y30485396D01*
X15167050Y30492403D01*
X15210185Y30498272D01*
X15259649Y30503131D01*
X15317273Y30507110D01*
X15384891Y30510340D01*
X15464334Y30512949D01*
X15557436Y30515067D01*
X15666027Y30516824D01*
X15791942Y30518349D01*
X15937012Y30519772D01*
X16079778Y30521025D01*
X16235968Y30522351D01*
X16371239Y30523556D01*
X16487246Y30524766D01*
X16585645Y30526106D01*
X16668093Y30527700D01*
X16736246Y30529675D01*
X16791760Y30532156D01*
X16836292Y30535269D01*
X16871498Y30539138D01*
X16899034Y30543889D01*
X16920556Y30549648D01*
X16937722Y30556539D01*
X16952186Y30564689D01*
X16965606Y30574223D01*
X16979638Y30585266D01*
X16985071Y30589566D01*
X17007910Y30605386D01*
X17023463Y30612422D01*
X17023922Y30612444D01*
X17026121Y30601567D01*
G37*
X15522739Y25442124D02*
X15763241Y25442092D01*
X15983048Y25442028D01*
X16183101Y25441924D01*
X16364344Y25441773D01*
X16527716Y25441566D01*
X16674160Y25441294D01*
X16804617Y25440950D01*
X16920029Y25440526D01*
X17021338Y25440013D01*
X17109484Y25439403D01*
X17185410Y25438688D01*
X17250057Y25437860D01*
X17304367Y25436911D01*
X17349280Y25435833D01*
X17385740Y25434617D01*
X17414687Y25433255D01*
X17437063Y25431739D01*
X17453809Y25430062D01*
X17465868Y25428214D01*
X17474180Y25426187D01*
X17479687Y25423975D01*
X17481537Y25422892D01*
X17488549Y25418729D01*
X17494996Y25415195D01*
X17500900Y25411365D01*
X17506286Y25406318D01*
X17511178Y25399129D01*
X17515598Y25388877D01*
X17519572Y25374636D01*
X17523121Y25355486D01*
X17526270Y25330501D01*
X17529042Y25298760D01*
X17531461Y25259338D01*
X17533551Y25211314D01*
X17535335Y25153763D01*
X17536837Y25085763D01*
X17538080Y25006390D01*
X17539089Y24914721D01*
X17539885Y24809834D01*
X17540494Y24690804D01*
X17540939Y24556710D01*
X17541243Y24406627D01*
X17541430Y24239633D01*
X17541524Y24054804D01*
X17541548Y23851217D01*
X17541525Y23627950D01*
X17541480Y23384078D01*
X17541437Y23118679D01*
X17541432Y23080296D01*
X17541389Y22813318D01*
X17541318Y22567998D01*
X17541213Y22343417D01*
X17541066Y22138655D01*
X17540869Y21952794D01*
X17540616Y21784912D01*
X17540300Y21634092D01*
X17539913Y21499413D01*
X17539447Y21379956D01*
X17538897Y21274801D01*
X17538253Y21183029D01*
X17537511Y21103721D01*
X17536661Y21035957D01*
X17535697Y20978818D01*
X17534611Y20931383D01*
X17533397Y20892734D01*
X17532047Y20861951D01*
X17530555Y20838115D01*
X17528911Y20820306D01*
X17527111Y20807605D01*
X17525145Y20799092D01*
X17523477Y20794734D01*
X17519906Y20786272D01*
X17517270Y20778503D01*
X17514634Y20771398D01*
X17511062Y20764927D01*
X17505621Y20759061D01*
X17497375Y20753771D01*
X17485390Y20749026D01*
X17468731Y20744798D01*
X17446463Y20741057D01*
X17417652Y20737773D01*
X17381363Y20734917D01*
X17336661Y20732460D01*
X17282611Y20730371D01*
X17218279Y20728622D01*
X17142730Y20727183D01*
X17055030Y20726024D01*
X16954243Y20725117D01*
X16839434Y20724431D01*
X16709670Y20723937D01*
X16564015Y20723605D01*
X16401535Y20723407D01*
X16221295Y20723313D01*
X16022360Y20723292D01*
X15803796Y20723315D01*
X15564668Y20723354D01*
X15304040Y20723378D01*
X15261889Y20723378D01*
X14998992Y20723364D01*
X14757732Y20723339D01*
X14537165Y20723329D01*
X14336352Y20723358D01*
X14154349Y20723452D01*
X13990216Y20723638D01*
X13843011Y20723941D01*
X13711792Y20724386D01*
X13601867Y20724966D01*
X13595617Y20724999D01*
X13493544Y20725805D01*
X13404633Y20726830D01*
X13327941Y20728100D01*
X13262527Y20729640D01*
X13207449Y20731476D01*
X13161765Y20733633D01*
X13124534Y20736137D01*
X13094813Y20739013D01*
X13071662Y20742287D01*
X13054139Y20745985D01*
X13041301Y20750131D01*
X13032208Y20754753D01*
X13025918Y20759874D01*
X13021488Y20765522D01*
X13017978Y20771721D01*
X13014445Y20778496D01*
X13010876Y20784492D01*
X13008300Y20789725D01*
X13005972Y20797901D01*
X13003878Y20810114D01*
X13002007Y20827459D01*
X13000347Y20851031D01*
X12998884Y20881923D01*
X12997608Y20921232D01*
X12996504Y20970050D01*
X12995561Y21029473D01*
X12994767Y21100596D01*
X12994109Y21184512D01*
X12993575Y21282317D01*
X12993153Y21395106D01*
X12992829Y21523971D01*
X12992592Y21670009D01*
X12992430Y21834314D01*
X12992330Y22017980D01*
X12992280Y22222103D01*
X12992267Y22433247D01*
X12992267Y22825884D01*
X13601867Y22825884D01*
X13649844Y22831173D01*
X13707188Y22827870D01*
X13775463Y22806339D01*
X13855212Y22766365D01*
X13927495Y22721057D01*
X13950140Y22704839D01*
X13987696Y22676786D01*
X14038021Y22638570D01*
X14098973Y22591863D01*
X14168411Y22538339D01*
X14244194Y22479669D01*
X14324180Y22417525D01*
X14406228Y22353579D01*
X14488196Y22289505D01*
X14567943Y22226973D01*
X14643327Y22167657D01*
X14712207Y22113229D01*
X14772442Y22065361D01*
X14821889Y22025725D01*
X14858408Y21995994D01*
X14879858Y21977839D01*
X14883156Y21974780D01*
X14875149Y21971921D01*
X14844855Y21969707D01*
X14792556Y21968143D01*
X14718531Y21967233D01*
X14623063Y21966980D01*
X14506434Y21967387D01*
X14386445Y21968296D01*
X14254333Y21969618D01*
X14142594Y21971143D01*
X14049025Y21973119D01*
X13971419Y21975794D01*
X13907574Y21979418D01*
X13855283Y21984239D01*
X13812344Y21990506D01*
X13776551Y21998468D01*
X13745700Y22008373D01*
X13717586Y22020469D01*
X13690005Y22035007D01*
X13664966Y22049689D01*
X13601867Y22087686D01*
X13601867Y21027803D01*
X13659711Y21067593D01*
X13675479Y21078764D01*
X13689441Y21088834D01*
X13702784Y21097862D01*
X13716693Y21105903D01*
X13732356Y21113014D01*
X13750958Y21119253D01*
X13773686Y21124675D01*
X13801727Y21129338D01*
X13836267Y21133299D01*
X13878492Y21136615D01*
X13929589Y21139341D01*
X13990744Y21141536D01*
X14063144Y21143255D01*
X14147975Y21144556D01*
X14246422Y21145495D01*
X14359674Y21146130D01*
X14488916Y21146516D01*
X14635334Y21146712D01*
X14800116Y21146773D01*
X14984447Y21146757D01*
X15189513Y21146720D01*
X15312133Y21146711D01*
X15529082Y21146735D01*
X15724642Y21146769D01*
X15899999Y21146757D01*
X16056341Y21146642D01*
X16194857Y21146370D01*
X16316734Y21145882D01*
X16423160Y21145124D01*
X16515322Y21144038D01*
X16594409Y21142569D01*
X16661608Y21140660D01*
X16718107Y21138256D01*
X16765093Y21135299D01*
X16803755Y21131734D01*
X16835280Y21127505D01*
X16860855Y21122554D01*
X16881670Y21116827D01*
X16898911Y21110267D01*
X16913765Y21102817D01*
X16927422Y21094421D01*
X16941069Y21085024D01*
X16955893Y21074568D01*
X16964783Y21068477D01*
X17022400Y21029704D01*
X17022400Y21561268D01*
X17022365Y21684517D01*
X17022215Y21787013D01*
X17021878Y21870580D01*
X17021286Y21937044D01*
X17020367Y21988229D01*
X17019051Y22025959D01*
X17017269Y22052060D01*
X17014951Y22068356D01*
X17012026Y22076672D01*
X17008424Y22078832D01*
X17004075Y22076661D01*
X17002645Y22075465D01*
X16965573Y22050315D01*
X16912772Y22024417D01*
X16850770Y22000808D01*
X16824357Y21992539D01*
X16806416Y21987922D01*
X16785355Y21984021D01*
X16759089Y21980752D01*
X16725532Y21978034D01*
X16682599Y21975785D01*
X16628204Y21973923D01*
X16560262Y21972364D01*
X16476688Y21971028D01*
X16375395Y21969831D01*
X16254300Y21968692D01*
X16209600Y21968315D01*
X16084449Y21967298D01*
X15980082Y21966540D01*
X15894707Y21966097D01*
X15826533Y21966030D01*
X15773765Y21966395D01*
X15734614Y21967252D01*
X15707285Y21968659D01*
X15689986Y21970675D01*
X15680926Y21973357D01*
X15678312Y21976764D01*
X15680351Y21980956D01*
X15684667Y21985429D01*
X15697602Y21995784D01*
X15726676Y22017842D01*
X15769759Y22050043D01*
X15824718Y22090826D01*
X15889423Y22138630D01*
X15961742Y22191895D01*
X16039544Y22249060D01*
X16120698Y22308563D01*
X16203072Y22368845D01*
X16284536Y22428345D01*
X16362957Y22485502D01*
X16436204Y22538755D01*
X16502147Y22586543D01*
X16558654Y22627307D01*
X16603593Y22659484D01*
X16634834Y22681515D01*
X16641466Y22686083D01*
X16678369Y22709004D01*
X16726359Y22735812D01*
X16775897Y22761211D01*
X16782577Y22764432D01*
X16830772Y22786110D01*
X16868334Y22798696D01*
X16904160Y22804426D01*
X16946200Y22805544D01*
X17022400Y22804910D01*
X17022400Y23959349D01*
X16928669Y23868185D01*
X16878775Y23821388D01*
X16822295Y23771101D01*
X16768026Y23725056D01*
X16742673Y23704631D01*
X16703128Y23674193D01*
X16649916Y23634138D01*
X16584667Y23585639D01*
X16509011Y23529865D01*
X16424577Y23467989D01*
X16332994Y23401181D01*
X16235892Y23330613D01*
X16134901Y23257455D01*
X16031650Y23182879D01*
X15927768Y23108056D01*
X15824885Y23034157D01*
X15724631Y22962354D01*
X15628636Y22893816D01*
X15538527Y22829716D01*
X15455936Y22771225D01*
X15382492Y22719514D01*
X15319824Y22675753D01*
X15269561Y22641115D01*
X15233334Y22616770D01*
X15212771Y22603889D01*
X15208668Y22602131D01*
X15197342Y22610090D01*
X15170162Y22630885D01*
X15128829Y22663153D01*
X15075044Y22705530D01*
X15010506Y22756653D01*
X14936918Y22815159D01*
X14855978Y22879686D01*
X14769388Y22948869D01*
X14678848Y23021347D01*
X14586060Y23095754D01*
X14511702Y23155483D01*
X14492722Y23170730D01*
X14400537Y23244910D01*
X14311204Y23316931D01*
X14226424Y23385431D01*
X14147898Y23449045D01*
X14077326Y23506412D01*
X14016409Y23556167D01*
X13966847Y23596948D01*
X13946178Y23614112D01*
X13845516Y23700404D01*
X13762259Y23777003D01*
X13694438Y23845817D01*
X13640089Y23908752D01*
X13632722Y23918133D01*
X13602117Y23957644D01*
X13601867Y22825884D01*
X12992267Y22825884D01*
X12992267Y24053600D01*
X13089054Y24053600D01*
X13202993Y24064465D01*
X13310616Y24096082D01*
X13409615Y24146985D01*
X13497684Y24215707D01*
X13572516Y24300781D01*
X13630384Y24397768D01*
X13670005Y24504036D01*
X13688573Y24611050D01*
X13687434Y24716700D01*
X13667930Y24818875D01*
X13631406Y24915466D01*
X13579205Y25004362D01*
X13534249Y25057805D01*
X14504978Y25057805D01*
X14504978Y24612147D01*
X14505142Y24514330D01*
X14505611Y24423936D01*
X14506347Y24343370D01*
X14507316Y24275038D01*
X14508480Y24221344D01*
X14509803Y24184695D01*
X14511249Y24167496D01*
X14511702Y24166489D01*
X14524659Y24172398D01*
X14546908Y24186728D01*
X14548391Y24187775D01*
X14578544Y24206562D01*
X14615375Y24226209D01*
X14623511Y24230108D01*
X14631940Y24233644D01*
X14642059Y24236770D01*
X14655260Y24239514D01*
X14672938Y24241908D01*
X14696484Y24243981D01*
X14727293Y24245765D01*
X14766757Y24247288D01*
X14816269Y24248581D01*
X14877223Y24249674D01*
X14951011Y24250597D01*
X15039028Y24251381D01*
X15142665Y24252055D01*
X15263316Y24252650D01*
X15402374Y24253195D01*
X15561232Y24253721D01*
X15740089Y24254255D01*
X15925207Y24254794D01*
X16089145Y24255228D01*
X16233303Y24255491D01*
X16359079Y24255516D01*
X16467871Y24255235D01*
X16561077Y24254581D01*
X16640097Y24253486D01*
X16706328Y24251882D01*
X16761170Y24249703D01*
X16806021Y24246881D01*
X16842278Y24243349D01*
X16871341Y24239039D01*
X16894609Y24233883D01*
X16913479Y24227815D01*
X16929351Y24220767D01*
X16943622Y24212671D01*
X16957691Y24203460D01*
X16970158Y24194960D01*
X16996452Y24177824D01*
X17014037Y24167678D01*
X17017257Y24166489D01*
X17018334Y24177396D01*
X17019335Y24208589D01*
X17020235Y24257777D01*
X17021010Y24322667D01*
X17021637Y24400970D01*
X17022091Y24490393D01*
X17022349Y24588644D01*
X17022400Y24657555D01*
X17022180Y24762548D01*
X17021548Y24859390D01*
X17020549Y24945893D01*
X17019227Y25019868D01*
X17017626Y25079126D01*
X17015791Y25121480D01*
X17013765Y25144740D01*
X17012493Y25148622D01*
X16997591Y25140924D01*
X16989560Y25132926D01*
X16972434Y25119754D01*
X16942183Y25102515D01*
X16917622Y25090593D01*
X16858711Y25063955D01*
X15681845Y25060880D01*
X14504978Y25057805D01*
X13534249Y25057805D01*
X13512673Y25083454D01*
X13433152Y25150631D01*
X13341987Y25203783D01*
X13240523Y25240801D01*
X13130102Y25259573D01*
X13080206Y25261511D01*
X12992267Y25261511D01*
X12992267Y25313440D01*
X12995111Y25349747D01*
X13006911Y25376645D01*
X13030649Y25403751D01*
X13069031Y25442133D01*
X15260602Y25442133D01*
X15522739Y25442124D01*
G36*
X15522739Y25442124D02*
G01*
X15763241Y25442092D01*
X15983048Y25442028D01*
X16183101Y25441924D01*
X16364344Y25441773D01*
X16527716Y25441566D01*
X16674160Y25441294D01*
X16804617Y25440950D01*
X16920029Y25440526D01*
X17021338Y25440013D01*
X17109484Y25439403D01*
X17185410Y25438688D01*
X17250057Y25437860D01*
X17304367Y25436911D01*
X17349280Y25435833D01*
X17385740Y25434617D01*
X17414687Y25433255D01*
X17437063Y25431739D01*
X17453809Y25430062D01*
X17465868Y25428214D01*
X17474180Y25426187D01*
X17479687Y25423975D01*
X17481537Y25422892D01*
X17488549Y25418729D01*
X17494996Y25415195D01*
X17500900Y25411365D01*
X17506286Y25406318D01*
X17511178Y25399129D01*
X17515598Y25388877D01*
X17519572Y25374636D01*
X17523121Y25355486D01*
X17526270Y25330501D01*
X17529042Y25298760D01*
X17531461Y25259338D01*
X17533551Y25211314D01*
X17535335Y25153763D01*
X17536837Y25085763D01*
X17538080Y25006390D01*
X17539089Y24914721D01*
X17539885Y24809834D01*
X17540494Y24690804D01*
X17540939Y24556710D01*
X17541243Y24406627D01*
X17541430Y24239633D01*
X17541524Y24054804D01*
X17541548Y23851217D01*
X17541525Y23627950D01*
X17541480Y23384078D01*
X17541437Y23118679D01*
X17541432Y23080296D01*
X17541389Y22813318D01*
X17541318Y22567998D01*
X17541213Y22343417D01*
X17541066Y22138655D01*
X17540869Y21952794D01*
X17540616Y21784912D01*
X17540300Y21634092D01*
X17539913Y21499413D01*
X17539447Y21379956D01*
X17538897Y21274801D01*
X17538253Y21183029D01*
X17537511Y21103721D01*
X17536661Y21035957D01*
X17535697Y20978818D01*
X17534611Y20931383D01*
X17533397Y20892734D01*
X17532047Y20861951D01*
X17530555Y20838115D01*
X17528911Y20820306D01*
X17527111Y20807605D01*
X17525145Y20799092D01*
X17523477Y20794734D01*
X17519906Y20786272D01*
X17517270Y20778503D01*
X17514634Y20771398D01*
X17511062Y20764927D01*
X17505621Y20759061D01*
X17497375Y20753771D01*
X17485390Y20749026D01*
X17468731Y20744798D01*
X17446463Y20741057D01*
X17417652Y20737773D01*
X17381363Y20734917D01*
X17336661Y20732460D01*
X17282611Y20730371D01*
X17218279Y20728622D01*
X17142730Y20727183D01*
X17055030Y20726024D01*
X16954243Y20725117D01*
X16839434Y20724431D01*
X16709670Y20723937D01*
X16564015Y20723605D01*
X16401535Y20723407D01*
X16221295Y20723313D01*
X16022360Y20723292D01*
X15803796Y20723315D01*
X15564668Y20723354D01*
X15304040Y20723378D01*
X15261889Y20723378D01*
X14998992Y20723364D01*
X14757732Y20723339D01*
X14537165Y20723329D01*
X14336352Y20723358D01*
X14154349Y20723452D01*
X13990216Y20723638D01*
X13843011Y20723941D01*
X13711792Y20724386D01*
X13601867Y20724966D01*
X13595617Y20724999D01*
X13493544Y20725805D01*
X13404633Y20726830D01*
X13327941Y20728100D01*
X13262527Y20729640D01*
X13207449Y20731476D01*
X13161765Y20733633D01*
X13124534Y20736137D01*
X13094813Y20739013D01*
X13071662Y20742287D01*
X13054139Y20745985D01*
X13041301Y20750131D01*
X13032208Y20754753D01*
X13025918Y20759874D01*
X13021488Y20765522D01*
X13017978Y20771721D01*
X13014445Y20778496D01*
X13010876Y20784492D01*
X13008300Y20789725D01*
X13005972Y20797901D01*
X13003878Y20810114D01*
X13002007Y20827459D01*
X13000347Y20851031D01*
X12998884Y20881923D01*
X12997608Y20921232D01*
X12996504Y20970050D01*
X12995561Y21029473D01*
X12994767Y21100596D01*
X12994109Y21184512D01*
X12993575Y21282317D01*
X12993153Y21395106D01*
X12992829Y21523971D01*
X12992592Y21670009D01*
X12992430Y21834314D01*
X12992330Y22017980D01*
X12992280Y22222103D01*
X12992267Y22433247D01*
X12992267Y22825884D01*
X13601867Y22825884D01*
X13649844Y22831173D01*
X13707188Y22827870D01*
X13775463Y22806339D01*
X13855212Y22766365D01*
X13927495Y22721057D01*
X13950140Y22704839D01*
X13987696Y22676786D01*
X14038021Y22638570D01*
X14098973Y22591863D01*
X14168411Y22538339D01*
X14244194Y22479669D01*
X14324180Y22417525D01*
X14406228Y22353579D01*
X14488196Y22289505D01*
X14567943Y22226973D01*
X14643327Y22167657D01*
X14712207Y22113229D01*
X14772442Y22065361D01*
X14821889Y22025725D01*
X14858408Y21995994D01*
X14879858Y21977839D01*
X14883156Y21974780D01*
X14875149Y21971921D01*
X14844855Y21969707D01*
X14792556Y21968143D01*
X14718531Y21967233D01*
X14623063Y21966980D01*
X14506434Y21967387D01*
X14386445Y21968296D01*
X14254333Y21969618D01*
X14142594Y21971143D01*
X14049025Y21973119D01*
X13971419Y21975794D01*
X13907574Y21979418D01*
X13855283Y21984239D01*
X13812344Y21990506D01*
X13776551Y21998468D01*
X13745700Y22008373D01*
X13717586Y22020469D01*
X13690005Y22035007D01*
X13664966Y22049689D01*
X13601867Y22087686D01*
X13601867Y21027803D01*
X13659711Y21067593D01*
X13675479Y21078764D01*
X13689441Y21088834D01*
X13702784Y21097862D01*
X13716693Y21105903D01*
X13732356Y21113014D01*
X13750958Y21119253D01*
X13773686Y21124675D01*
X13801727Y21129338D01*
X13836267Y21133299D01*
X13878492Y21136615D01*
X13929589Y21139341D01*
X13990744Y21141536D01*
X14063144Y21143255D01*
X14147975Y21144556D01*
X14246422Y21145495D01*
X14359674Y21146130D01*
X14488916Y21146516D01*
X14635334Y21146712D01*
X14800116Y21146773D01*
X14984447Y21146757D01*
X15189513Y21146720D01*
X15312133Y21146711D01*
X15529082Y21146735D01*
X15724642Y21146769D01*
X15899999Y21146757D01*
X16056341Y21146642D01*
X16194857Y21146370D01*
X16316734Y21145882D01*
X16423160Y21145124D01*
X16515322Y21144038D01*
X16594409Y21142569D01*
X16661608Y21140660D01*
X16718107Y21138256D01*
X16765093Y21135299D01*
X16803755Y21131734D01*
X16835280Y21127505D01*
X16860855Y21122554D01*
X16881670Y21116827D01*
X16898911Y21110267D01*
X16913765Y21102817D01*
X16927422Y21094421D01*
X16941069Y21085024D01*
X16955893Y21074568D01*
X16964783Y21068477D01*
X17022400Y21029704D01*
X17022400Y21561268D01*
X17022365Y21684517D01*
X17022215Y21787013D01*
X17021878Y21870580D01*
X17021286Y21937044D01*
X17020367Y21988229D01*
X17019051Y22025959D01*
X17017269Y22052060D01*
X17014951Y22068356D01*
X17012026Y22076672D01*
X17008424Y22078832D01*
X17004075Y22076661D01*
X17002645Y22075465D01*
X16965573Y22050315D01*
X16912772Y22024417D01*
X16850770Y22000808D01*
X16824357Y21992539D01*
X16806416Y21987922D01*
X16785355Y21984021D01*
X16759089Y21980752D01*
X16725532Y21978034D01*
X16682599Y21975785D01*
X16628204Y21973923D01*
X16560262Y21972364D01*
X16476688Y21971028D01*
X16375395Y21969831D01*
X16254300Y21968692D01*
X16209600Y21968315D01*
X16084449Y21967298D01*
X15980082Y21966540D01*
X15894707Y21966097D01*
X15826533Y21966030D01*
X15773765Y21966395D01*
X15734614Y21967252D01*
X15707285Y21968659D01*
X15689986Y21970675D01*
X15680926Y21973357D01*
X15678312Y21976764D01*
X15680351Y21980956D01*
X15684667Y21985429D01*
X15697602Y21995784D01*
X15726676Y22017842D01*
X15769759Y22050043D01*
X15824718Y22090826D01*
X15889423Y22138630D01*
X15961742Y22191895D01*
X16039544Y22249060D01*
X16120698Y22308563D01*
X16203072Y22368845D01*
X16284536Y22428345D01*
X16362957Y22485502D01*
X16436204Y22538755D01*
X16502147Y22586543D01*
X16558654Y22627307D01*
X16603593Y22659484D01*
X16634834Y22681515D01*
X16641466Y22686083D01*
X16678369Y22709004D01*
X16726359Y22735812D01*
X16775897Y22761211D01*
X16782577Y22764432D01*
X16830772Y22786110D01*
X16868334Y22798696D01*
X16904160Y22804426D01*
X16946200Y22805544D01*
X17022400Y22804910D01*
X17022400Y23959349D01*
X16928669Y23868185D01*
X16878775Y23821388D01*
X16822295Y23771101D01*
X16768026Y23725056D01*
X16742673Y23704631D01*
X16703128Y23674193D01*
X16649916Y23634138D01*
X16584667Y23585639D01*
X16509011Y23529865D01*
X16424577Y23467989D01*
X16332994Y23401181D01*
X16235892Y23330613D01*
X16134901Y23257455D01*
X16031650Y23182879D01*
X15927768Y23108056D01*
X15824885Y23034157D01*
X15724631Y22962354D01*
X15628636Y22893816D01*
X15538527Y22829716D01*
X15455936Y22771225D01*
X15382492Y22719514D01*
X15319824Y22675753D01*
X15269561Y22641115D01*
X15233334Y22616770D01*
X15212771Y22603889D01*
X15208668Y22602131D01*
X15197342Y22610090D01*
X15170162Y22630885D01*
X15128829Y22663153D01*
X15075044Y22705530D01*
X15010506Y22756653D01*
X14936918Y22815159D01*
X14855978Y22879686D01*
X14769388Y22948869D01*
X14678848Y23021347D01*
X14586060Y23095754D01*
X14511702Y23155483D01*
X14492722Y23170730D01*
X14400537Y23244910D01*
X14311204Y23316931D01*
X14226424Y23385431D01*
X14147898Y23449045D01*
X14077326Y23506412D01*
X14016409Y23556167D01*
X13966847Y23596948D01*
X13946178Y23614112D01*
X13845516Y23700404D01*
X13762259Y23777003D01*
X13694438Y23845817D01*
X13640089Y23908752D01*
X13632722Y23918133D01*
X13602117Y23957644D01*
X13601867Y22825884D01*
X12992267Y22825884D01*
X12992267Y24053600D01*
X13089054Y24053600D01*
X13202993Y24064465D01*
X13310616Y24096082D01*
X13409615Y24146985D01*
X13497684Y24215707D01*
X13572516Y24300781D01*
X13630384Y24397768D01*
X13670005Y24504036D01*
X13688573Y24611050D01*
X13687434Y24716700D01*
X13667930Y24818875D01*
X13631406Y24915466D01*
X13579205Y25004362D01*
X13534249Y25057805D01*
X14504978Y25057805D01*
X14504978Y24612147D01*
X14505142Y24514330D01*
X14505611Y24423936D01*
X14506347Y24343370D01*
X14507316Y24275038D01*
X14508480Y24221344D01*
X14509803Y24184695D01*
X14511249Y24167496D01*
X14511702Y24166489D01*
X14524659Y24172398D01*
X14546908Y24186728D01*
X14548391Y24187775D01*
X14578544Y24206562D01*
X14615375Y24226209D01*
X14623511Y24230108D01*
X14631940Y24233644D01*
X14642059Y24236770D01*
X14655260Y24239514D01*
X14672938Y24241908D01*
X14696484Y24243981D01*
X14727293Y24245765D01*
X14766757Y24247288D01*
X14816269Y24248581D01*
X14877223Y24249674D01*
X14951011Y24250597D01*
X15039028Y24251381D01*
X15142665Y24252055D01*
X15263316Y24252650D01*
X15402374Y24253195D01*
X15561232Y24253721D01*
X15740089Y24254255D01*
X15925207Y24254794D01*
X16089145Y24255228D01*
X16233303Y24255491D01*
X16359079Y24255516D01*
X16467871Y24255235D01*
X16561077Y24254581D01*
X16640097Y24253486D01*
X16706328Y24251882D01*
X16761170Y24249703D01*
X16806021Y24246881D01*
X16842278Y24243349D01*
X16871341Y24239039D01*
X16894609Y24233883D01*
X16913479Y24227815D01*
X16929351Y24220767D01*
X16943622Y24212671D01*
X16957691Y24203460D01*
X16970158Y24194960D01*
X16996452Y24177824D01*
X17014037Y24167678D01*
X17017257Y24166489D01*
X17018334Y24177396D01*
X17019335Y24208589D01*
X17020235Y24257777D01*
X17021010Y24322667D01*
X17021637Y24400970D01*
X17022091Y24490393D01*
X17022349Y24588644D01*
X17022400Y24657555D01*
X17022180Y24762548D01*
X17021548Y24859390D01*
X17020549Y24945893D01*
X17019227Y25019868D01*
X17017626Y25079126D01*
X17015791Y25121480D01*
X17013765Y25144740D01*
X17012493Y25148622D01*
X16997591Y25140924D01*
X16989560Y25132926D01*
X16972434Y25119754D01*
X16942183Y25102515D01*
X16917622Y25090593D01*
X16858711Y25063955D01*
X15681845Y25060880D01*
X14504978Y25057805D01*
X13534249Y25057805D01*
X13512673Y25083454D01*
X13433152Y25150631D01*
X13341987Y25203783D01*
X13240523Y25240801D01*
X13130102Y25259573D01*
X13080206Y25261511D01*
X12992267Y25261511D01*
X12992267Y25313440D01*
X12995111Y25349747D01*
X13006911Y25376645D01*
X13030649Y25403751D01*
X13069031Y25442133D01*
X15260602Y25442133D01*
X15522739Y25442124D01*
G37*
D12*
G04 #@! TO.C,LOGO1*
X-19064300Y25853100D02*
X-19024400Y26149000D01*
X-19064300Y25520600D02*
X-19064300Y25853100D01*
X-19027700Y25223000D02*
X-19064300Y25520600D01*
X-19024400Y26149000D02*
X-18957900Y26419300D01*
X-18967900Y30580700D02*
X-19021100Y30577100D01*
X-18961200Y24957400D02*
X-19027700Y25223000D01*
X-18957900Y26419300D02*
X-18871400Y26665700D01*
X-18871400Y26665700D02*
X-18765000Y26896800D01*
X-18868100Y24715600D02*
X-18961200Y24957400D01*
X-18765000Y26896800D02*
X-18645300Y27111900D01*
X-18755100Y24494900D02*
X-18868100Y24715600D01*
X-18645300Y27111900D02*
X-18509000Y27310700D01*
X-18642000Y30574100D02*
X-18967900Y30580700D01*
X-18622100Y24293400D02*
X-18755100Y24494900D01*
X-18509000Y27310700D02*
X-18359400Y27499200D01*
X-18472400Y24108800D02*
X-18622100Y24293400D01*
X-18359400Y27499200D02*
X-18199800Y27673500D01*
X-18356100Y30520600D02*
X-18642000Y30574100D01*
X-18302900Y23939300D02*
X-18472400Y24108800D01*
X-18233100Y23878800D02*
X-18302900Y23939300D01*
X-18199800Y27673500D02*
X-18080100Y27786200D01*
X-18153300Y25136900D02*
X-17950400Y25003600D01*
X-18103400Y30427800D02*
X-18356100Y30520600D01*
X-18080100Y27786200D02*
X-17900600Y27939800D01*
X-18043500Y23734100D02*
X-18233100Y23878800D01*
X-18020300Y26658400D02*
X-17970400Y26940700D01*
X-18000300Y26483500D02*
X-18020300Y26658400D01*
X-17970400Y26940700D02*
X-17850700Y27154100D01*
X-17950400Y25003600D02*
X-17731000Y24889500D01*
X-17907200Y26244400D02*
X-18000300Y26483500D01*
X-17900600Y27939800D02*
X-17707700Y28083100D01*
X-17887300Y30306100D02*
X-18103400Y30427800D01*
X-17850700Y27154100D02*
X-17677800Y27315000D01*
X-17837400Y23604100D02*
X-18043500Y23734100D01*
X-17757600Y26062200D02*
X-17907200Y26244400D01*
X-17741000Y27158400D02*
X-17741000Y26482100D01*
X-17731000Y24889500D02*
X-17491600Y24797400D01*
X-17707700Y28083100D02*
X-17504900Y28213400D01*
X-17701100Y30159100D02*
X-17887300Y30306100D01*
X-17677800Y27315000D02*
X-17448400Y27418100D01*
X-17614600Y23493400D02*
X-17837400Y23604100D01*
X-17601300Y26517400D02*
X-17448400Y26697300D01*
X-17551500Y25933500D02*
X-17757600Y26062200D01*
X-17538200Y29990200D02*
X-17701100Y30159100D01*
X-17504900Y28213400D02*
X-17288800Y28330800D01*
X-17494900Y27125500D02*
X-17601300Y27194000D01*
X-17491600Y24797400D02*
X-17219000Y24735300D01*
X-17448400Y27418100D02*
X-17275500Y27439100D01*
X-17448400Y26697300D02*
X-17431800Y26855500D01*
X-17435100Y26855500D02*
X-17494900Y27125500D01*
X-17391900Y29801400D02*
X-17538200Y29990200D01*
X-17375200Y23400600D02*
X-17614600Y23493400D01*
X-17288800Y28330800D02*
X-17056000Y28436500D01*
X-17275500Y27439100D02*
X-16996200Y27383200D01*
X-17275500Y25877700D02*
X-17551500Y25933500D01*
X-17265500Y29594900D02*
X-17391900Y29801400D01*
X-17219000Y24735300D02*
X-16899800Y24723600D01*
X-17155800Y29372100D02*
X-17265500Y29594900D01*
X-17115900Y23327200D02*
X-17375200Y23400600D01*
X-17102600Y25899000D02*
X-17275500Y25877700D01*
X-17059400Y29132700D02*
X-17155800Y29372100D01*
X-17056000Y28436500D02*
X-16813300Y28526300D01*
X-16996200Y27383200D02*
X-16793400Y27254500D01*
X-16976200Y28878700D02*
X-17059400Y29132700D01*
X-16909800Y28611700D02*
X-16976200Y28878700D01*
X-16899800Y24723600D02*
X-16617200Y24776500D01*
X-16869900Y26001700D02*
X-17102600Y25899000D01*
X-16856600Y28330800D02*
X-16909800Y28611700D01*
X-16833300Y23275600D02*
X-17115900Y23327200D01*
X-16816700Y28037200D02*
X-16856600Y28330800D01*
X-16813300Y28526300D02*
X-16554000Y28600100D01*
X-16793400Y27725300D02*
X-16816700Y28037200D01*
X-16793400Y27254500D02*
X-16643800Y27072000D01*
X-16700300Y26162600D02*
X-16869900Y26001700D01*
X-16643800Y27072000D02*
X-16547300Y26832600D01*
X-16617200Y24776500D02*
X-16384400Y24875900D01*
X-16580600Y26375800D02*
X-16700300Y26162600D01*
X-16554000Y28600100D02*
X-16274700Y28656000D01*
X-16547300Y26832600D02*
X-16530700Y26658400D01*
X-16530700Y26658400D02*
X-16580600Y26375800D01*
X-16524100Y23249400D02*
X-16833300Y23275600D01*
X-16384400Y24875900D02*
X-16181600Y25008200D01*
X-16274700Y28656000D02*
X-15972100Y28689200D01*
X-16264700Y26681600D02*
X-16214800Y26963900D01*
X-16248100Y26506800D02*
X-16264700Y26681600D01*
X-16214800Y26963900D02*
X-16095200Y27177400D01*
X-16194900Y23254700D02*
X-16524100Y23249400D01*
X-16181600Y25008200D02*
X-16038600Y25136900D01*
X-16151700Y26267700D02*
X-16248100Y26506800D01*
X-16095200Y27177400D02*
X-15922300Y27338300D01*
X-16002100Y26085500D02*
X-16151700Y26267700D01*
X-15972100Y28689200D02*
X-15643000Y28694200D01*
X-15972100Y27191700D02*
X-15972100Y26515400D01*
X-15922300Y27338300D02*
X-15692800Y27441000D01*
X-15895700Y23287900D02*
X-16194900Y23254700D01*
X-15839100Y26559300D02*
X-15686200Y26739200D01*
X-15795900Y25956800D02*
X-16002100Y26085500D01*
X-15732700Y27167400D02*
X-15839100Y27235900D01*
X-15692800Y27441000D02*
X-15519900Y27462300D01*
X-15686200Y26739200D02*
X-15672900Y26897800D01*
X-15672900Y26897800D02*
X-15732700Y27167400D01*
X-15643000Y28694200D02*
X-15333800Y28667900D01*
X-15616400Y23343500D02*
X-15895700Y23287900D01*
X-15519900Y27462300D02*
X-15244000Y27406500D01*
X-15519900Y25901000D02*
X-15795900Y25956800D01*
X-15510000Y27725300D02*
X-15480100Y28027200D01*
X-15480100Y28027200D02*
X-15423500Y28305500D01*
X-15423500Y28305500D02*
X-15350400Y28565500D01*
X-15357000Y23417900D02*
X-15616400Y23343500D01*
X-15350400Y28565500D02*
X-15260600Y28809600D01*
X-15347100Y25922200D02*
X-15519900Y25901000D01*
X-15333800Y28667900D02*
X-15054500Y28616100D01*
X-15260600Y28809600D02*
X-15157500Y29038700D01*
X-15244000Y27406500D02*
X-15037800Y27277800D01*
X-15157500Y29038700D02*
X-15037800Y29252800D01*
X-15117600Y26025000D02*
X-15347100Y25922200D01*
X-15114300Y23507700D02*
X-15357000Y23417900D01*
X-15054500Y28616100D02*
X-14791800Y28542600D01*
X-15037800Y29252800D02*
X-14904800Y29454900D01*
X-15037800Y27277800D02*
X-14888200Y27095300D01*
X-14944700Y26185900D02*
X-15117600Y26025000D01*
X-14904800Y29454900D02*
X-14758600Y29641800D01*
X-14888200Y27095300D02*
X-14791800Y26855900D01*
X-14884900Y23611800D02*
X-15114300Y23507700D01*
X-14825000Y26399000D02*
X-14944700Y26185900D01*
X-14791800Y28542600D02*
X-14552400Y28449100D01*
X-14791800Y26855900D02*
X-14775200Y26681600D01*
X-14775200Y26681600D02*
X-14825000Y26399000D01*
X-14758600Y29641800D02*
X-14595600Y29816700D01*
X-14668800Y23729100D02*
X-14884900Y23611800D01*
X-14595600Y29816700D02*
X-14419400Y29975900D01*
X-14552400Y28449100D02*
X-14329600Y28338100D01*
X-14462600Y23860500D02*
X-14668800Y23729100D01*
X-14419400Y29975900D02*
X-14229900Y30122200D01*
X-14329600Y28338100D02*
X-14126800Y28209800D01*
X-14269800Y24004100D02*
X-14462600Y23860500D01*
X-14229900Y30122200D02*
X-14027100Y30253200D01*
X-14126800Y28209800D02*
X-13934000Y28062800D01*
X-14090200Y24157700D02*
X-14269800Y24004100D01*
X-14027100Y30253200D02*
X-13811000Y30369300D01*
X-13967200Y24276100D02*
X-14090200Y24157700D01*
X-13934000Y28062800D02*
X-13867500Y28004300D01*
X-13867500Y28004300D02*
X-13701200Y27837400D01*
X-13811000Y30369300D02*
X-13574900Y30471700D01*
X-13804300Y24450300D02*
X-13967200Y24276100D01*
X-13701200Y27837400D02*
X-13551600Y27654500D01*
X-13658000Y24636500D02*
X-13804300Y24450300D01*
X-13574900Y30471700D02*
X-13328900Y30558100D01*
X-13551600Y27654500D02*
X-13418600Y27454000D01*
X-13521700Y24837300D02*
X-13658000Y24636500D01*
X-13418600Y27454000D02*
X-13305600Y27234600D01*
X-13402000Y25051100D02*
X-13521700Y24837300D01*
X-13328900Y30558100D02*
X-13052900Y30632600D01*
X-13305600Y27234600D02*
X-13212500Y26991500D01*
X-13298900Y25279900D02*
X-13402000Y25051100D01*
X-13212500Y26991500D02*
X-13142700Y26726500D01*
X-13212500Y25526200D02*
X-13298900Y25279900D01*
X-13146000Y25799900D02*
X-13212500Y25526200D01*
X-13142700Y26726500D02*
X-13106100Y26427300D01*
X-13106100Y26427300D02*
X-13106100Y26094500D01*
X-13106100Y26094500D02*
X-13146000Y25799900D01*
X-13052900Y30632600D02*
X-12773600Y30687100D01*
X-12773600Y30687100D02*
X-12467700Y30726000D01*
X-12467700Y30726000D02*
X-11935700Y30750600D01*
D10*
G04 #@! TO.C,F1*
X-16210000Y-26050000D02*
X-16210000Y-19950000D01*
X-12990000Y-26050000D02*
X-12990000Y-19950000D01*
G04 #@! TO.C,J2*
X9850000Y-15000000D02*
X9850000Y-16740000D01*
X9850000Y-20800000D02*
X9850000Y-19460000D01*
X11340000Y-20800000D02*
X9850000Y-20800000D01*
X14660000Y-20800000D02*
X14660000Y-22000000D01*
X14660000Y-20800000D02*
X16150000Y-20800000D01*
X16150000Y-15000000D02*
X9850000Y-15000000D01*
X16150000Y-16740000D02*
X16150000Y-15000000D01*
X16150000Y-20800000D02*
X16150000Y-19460000D01*
G04 #@! TO.C,C1*
X12288748Y-25090000D02*
X13711252Y-25090000D01*
X12288748Y-26910000D02*
X13711252Y-26910000D01*
G04 #@! TD*
%LPC*%
D13*
G04 #@! TO.C,RV1*
X-5500000Y-26650000D03*
X-5500000Y-17350000D03*
G04 #@! TD*
D14*
G04 #@! TO.C,MH3*
X21000000Y24770000D03*
G04 #@! TD*
G04 #@! TO.C,MH2*
X-21000000Y-33500000D03*
G04 #@! TD*
D15*
G04 #@! TO.C,F1*
X-14600000Y-27250000D03*
X-14600000Y-18750000D03*
G04 #@! TD*
D16*
G04 #@! TO.C,J2*
X14250000Y-21350000D03*
X13750000Y-21350000D03*
X13250000Y-21350000D03*
X12750000Y-21350000D03*
X12250000Y-21350000D03*
X11750000Y-21350000D03*
D17*
X16150000Y-18100000D03*
X9850000Y-18100000D03*
G04 #@! TD*
D14*
G04 #@! TO.C,MH4*
X21000000Y-33500000D03*
G04 #@! TD*
D18*
G04 #@! TO.C,C1*
X11525000Y-26000000D03*
X14475000Y-26000000D03*
G04 #@! TD*
D19*
G04 #@! TO.C,S1*
X-5100000Y19500000D03*
X-5100000Y26500000D03*
X5100000Y19500000D03*
X5100000Y26500000D03*
G04 #@! TD*
D14*
G04 #@! TO.C,MH1*
X-21000000Y33500000D03*
G04 #@! TD*
D20*
G04 #@! TO.C,J1*
X15500000Y-100000D03*
D21*
X15500000Y8100000D03*
D20*
X10500000Y-100000D03*
X10500000Y8100000D03*
X5500000Y-100000D03*
X5500000Y8100000D03*
X500000Y-100000D03*
X500000Y8100000D03*
X-4500000Y-100000D03*
X-4500000Y8100000D03*
X-9500000Y-100000D03*
X-9500000Y8100000D03*
G04 #@! TD*
D22*
G04 #@! TO.C,PS1*
X-15240000Y-12500000D03*
D23*
X-10160000Y-12500000D03*
X15240000Y-12500000D03*
X15240000Y-30280000D03*
X10160000Y-30280000D03*
G04 #@! TD*
%LPD*%
M02*
