G04 #@! TF.GenerationSoftware,KiCad,Pcbnew,9.0.9-9.0.9~ubuntu24.04.1*
G04 #@! TF.CreationDate,2026-10-09T05:53:30+00:00*
G04 #@! TF.ProjectId,wiring_board,77697269-6e67-45f6-926f-6172642e6b69,rev?*
G04 #@! TF.SameCoordinates,Original*
G04 #@! TF.FileFunction,Copper,L2,Bot*
G04 #@! TF.FilePolarity,Positive*
%FSLAX46Y46*%
G04 Gerber Fmt 4.6, Leading zero omitted, Abs format (unit mm)*
G04 Created by KiCad (PCBNEW 9.0.9-9.0.9~ubuntu24.04.1) date 2026-10-09 05:53:30*
%MOMM*%
%LPD*%
G01*
G04 APERTURE LIST*
G04 #@! TA.AperFunction,ComponentPad*
%ADD10C,2.400000*%
G04 #@! TD*
G04 #@! TA.AperFunction,ComponentPad*
%ADD11C,2.200000*%
G04 #@! TD*
G04 #@! TA.AperFunction,ComponentPad*
%ADD12R,2.200000X2.200000*%
G04 #@! TD*
G04 #@! TA.AperFunction,ComponentPad*
%ADD13R,2.000000X2.300000*%
G04 #@! TD*
G04 #@! TA.AperFunction,ComponentPad*
%ADD14C,2.300000*%
G04 #@! TD*
G04 #@! TA.AperFunction,ViaPad*
%ADD15C,1.000000*%
G04 #@! TD*
G04 #@! TA.AperFunction,ViaPad*
%ADD16C,0.800000*%
G04 #@! TD*
G04 APERTURE END LIST*
D10*
G04 #@! TO.P,S1,1*
G04 #@! TO.N,/L_IN*
X-5100000Y19500000D03*
G04 #@! TO.P,S1,1a*
G04 #@! TO.N,/L_SW*
X-5100000Y26500000D03*
G04 #@! TO.P,S1,2*
G04 #@! TO.N,/N_IN*
X5100000Y19500000D03*
G04 #@! TO.P,S1,2a*
G04 #@! TO.N,/N_SW*
X5100000Y26500000D03*
G04 #@! TD*
D11*
G04 #@! TO.P,J1,1*
G04 #@! TO.N,/PE*
X15500000Y-100000D03*
D12*
X15500000Y8100000D03*
D11*
G04 #@! TO.P,J1,2*
G04 #@! TO.N,/N_SW*
X10500000Y-100000D03*
X10500000Y8100000D03*
G04 #@! TO.P,J1,3*
G04 #@! TO.N,/N_IN*
X5500000Y-100000D03*
X5500000Y8100000D03*
G04 #@! TO.P,J1,4*
G04 #@! TO.N,/L_SW*
X500000Y-100000D03*
X500000Y8100000D03*
G04 #@! TO.P,J1,5*
G04 #@! TO.N,/L_IN*
X-4500000Y-100000D03*
X-4500000Y8100000D03*
G04 #@! TO.P,J1,6*
G04 #@! TO.N,/PE*
X-9500000Y-100000D03*
X-9500000Y8100000D03*
G04 #@! TD*
D13*
G04 #@! TO.P,PS1,1*
G04 #@! TO.N,/L_F*
X-15240000Y-12500000D03*
D14*
G04 #@! TO.P,PS1,3*
G04 #@! TO.N,/N_SW*
X-10160000Y-12500000D03*
G04 #@! TO.P,PS1,5*
G04 #@! TO.N,unconnected-(PS1-NC-Pad5)*
X15240000Y-12500000D03*
G04 #@! TO.P,PS1,14*
G04 #@! TO.N,GND*
X15240000Y-30280000D03*
G04 #@! TO.P,PS1,16*
G04 #@! TO.N,+5V*
X10160000Y-30280000D03*
G04 #@! TD*
D15*
G04 #@! TO.N,/L_SW*
X-9000000Y-28400000D03*
X-12000000Y-28400000D03*
D16*
G04 #@! TO.N,/PE*
X-21250000Y16875000D03*
X-21250000Y-21093750D03*
X8500000Y33750000D03*
X-12250000Y-33750000D03*
X-7750000Y-33750000D03*
X5250000Y-9900000D03*
X21250000Y20655000D03*
X1250000Y-28979999D03*
X1250000Y-19440000D03*
X21250000Y-9900000D03*
X-12750000Y33750000D03*
X1250000Y-14670000D03*
X-3250000Y-33750000D03*
X21250000Y-1170000D03*
X-4250000Y33750000D03*
X1250000Y-33750000D03*
X-21250000Y-8437500D03*
X17250000Y-9900000D03*
X-21250000Y-29531250D03*
X12750000Y33750000D03*
X-21250000Y21093750D03*
X21250000Y16290000D03*
X-21250000Y25312500D03*
X17000000Y33750000D03*
X-17000000Y33750000D03*
X-21250000Y29531250D03*
X-8500000Y33750000D03*
X-16750000Y-33750000D03*
X-21250000Y12656250D03*
X21250000Y29385000D03*
X-21250000Y-25312500D03*
X1250000Y-9900000D03*
X21250000Y-5535000D03*
X4250000Y33750000D03*
X1250000Y-24210000D03*
X9250000Y-9900000D03*
X21250000Y33750000D03*
X13250000Y-9900000D03*
X-21250000Y8437500D03*
X-21250000Y-12656250D03*
X21250000Y3195000D03*
X-21250000Y4218750D03*
X-21250000Y-16875000D03*
X-21250000Y-4218750D03*
X21250000Y7560000D03*
X0Y33750000D03*
X-21250000Y0D03*
X21250000Y11925000D03*
G04 #@! TD*
G04 #@! TA.AperFunction,Conductor*
G04 #@! TO.N,/PE*
G36*
X-16271211Y33948391D02*
G01*
X-16250503Y33569084D01*
X-16260171Y33189336D01*
X-16300153Y32811574D01*
X-16358603Y32500000D01*
X-16363477Y32474019D01*
X-16365420Y32464204D01*
X-16368774Y32448112D01*
X-16373227Y32428697D01*
X-16377226Y32412730D01*
X-16379751Y32403059D01*
X-16458041Y32115070D01*
X-16460755Y32105466D01*
X-16467799Y32081462D01*
X-16473804Y32062417D01*
X-16481794Y32038740D01*
X-16485074Y32029334D01*
X-16562783Y31813385D01*
X-16562785Y31813377D01*
X-16583228Y31756570D01*
X-16586704Y31747207D01*
X-16595654Y31723817D01*
X-16603152Y31705337D01*
X-16613009Y31682371D01*
X-16617026Y31673264D01*
X-16650661Y31599026D01*
X-16652317Y31595371D01*
X-16736668Y31409206D01*
X-16740877Y31400157D01*
X-16751654Y31377584D01*
X-16760604Y31359763D01*
X-16772291Y31337607D01*
X-16777041Y31328816D01*
X-16917375Y31075213D01*
X-16922301Y31066517D01*
X-16934850Y31044874D01*
X-16945193Y31027831D01*
X-16958633Y31006649D01*
X-16964054Y30998293D01*
X-17017907Y30917056D01*
X-17124178Y30756753D01*
X-17129768Y30748500D01*
X-17144029Y30727894D01*
X-17155727Y30711696D01*
X-17170786Y30691698D01*
X-17176859Y30683798D01*
X-17355794Y30455797D01*
X-17362024Y30448019D01*
X-17377873Y30428634D01*
X-17390827Y30413423D01*
X-17407418Y30394712D01*
X-17414107Y30387318D01*
X-17610723Y30174308D01*
X-17617566Y30167042D01*
X-17634888Y30149013D01*
X-17649002Y30134899D01*
X-17667048Y30117561D01*
X-17674311Y30110721D01*
X-17887317Y29914108D01*
X-17894709Y29907420D01*
X-17913421Y29890828D01*
X-17928634Y29877873D01*
X-17948019Y29862024D01*
X-17955797Y29855794D01*
X-18183798Y29676859D01*
X-18191698Y29670786D01*
X-18211696Y29655727D01*
X-18227894Y29644029D01*
X-18248500Y29629768D01*
X-18256753Y29624178D01*
X-18498271Y29464067D01*
X-18506649Y29458633D01*
X-18527831Y29445193D01*
X-18544874Y29434850D01*
X-18566517Y29422301D01*
X-18575213Y29417375D01*
X-18828816Y29277041D01*
X-18837591Y29272299D01*
X-18859728Y29260621D01*
X-18877595Y29251649D01*
X-18900174Y29240871D01*
X-18909192Y29236676D01*
X-19173225Y29117043D01*
X-19182366Y29113011D01*
X-19205333Y29103154D01*
X-19223818Y29095654D01*
X-19247236Y29086694D01*
X-19256547Y29083238D01*
X-19489820Y28999292D01*
X-19529298Y28985085D01*
X-19538723Y28981800D01*
X-19562432Y28973800D01*
X-19581467Y28967798D01*
X-19605482Y28960751D01*
X-19615083Y28958038D01*
X-19903077Y28879747D01*
X-19912725Y28877227D01*
X-19928677Y28873231D01*
X-19948119Y28868772D01*
X-19964257Y28865410D01*
X-19974019Y28863477D01*
X-20000000Y28858604D01*
X-20000000Y28858603D01*
X-20311574Y28800153D01*
X-20689336Y28760171D01*
X-21069084Y28750503D01*
X-21448391Y28771211D01*
X-21824829Y28822164D01*
X-21476625Y30796935D01*
X-21358953Y30773528D01*
X-21358948Y30773527D01*
X-21000000Y30750000D01*
X-20641053Y30773527D01*
X-20288248Y30843704D01*
X-19947621Y30959332D01*
X-19625000Y31118431D01*
X-19325907Y31318279D01*
X-19055457Y31555457D01*
X-18818279Y31825907D01*
X-18618431Y32125000D01*
X-18459332Y32447621D01*
X-18343704Y32788248D01*
X-18273527Y33141053D01*
X-18250000Y33500000D01*
X-18273527Y33858948D01*
X-18296935Y33976625D01*
X-16322164Y34324829D01*
X-16271211Y33948391D01*
G37*
G04 #@! TD.AperFunction*
G04 #@! TD*
G04 #@! TA.AperFunction,Conductor*
G04 #@! TO.N,/PE*
G36*
X22121525Y22169151D02*
G01*
X22253065Y22115581D01*
X22364184Y22027121D01*
X22445881Y21910939D01*
X22491535Y21776446D01*
X22500000Y21684925D01*
X22500000Y-9875486D01*
X22497597Y-9924399D01*
X22485602Y-10046180D01*
X22466520Y-10142115D01*
X22438148Y-10235648D01*
X22400710Y-10326029D01*
X22354634Y-10412230D01*
X22300289Y-10493563D01*
X22238285Y-10569115D01*
X22169115Y-10638285D01*
X22093563Y-10700289D01*
X22012230Y-10754634D01*
X21926029Y-10800710D01*
X21835650Y-10838146D01*
X21791628Y-10851500D01*
X21742115Y-10866520D01*
X21646180Y-10885602D01*
X21577882Y-10892329D01*
X21524395Y-10897597D01*
X21475487Y-10900000D01*
X5328720Y-10900000D01*
X5188135Y-10879787D01*
X5058940Y-10820786D01*
X4992944Y-10767602D01*
X4992420Y-10768217D01*
X4977508Y-10755481D01*
X4786440Y-10616662D01*
X4786438Y-10616661D01*
X4786433Y-10616657D01*
X4786430Y-10616655D01*
X4786428Y-10616654D01*
X4575996Y-10509434D01*
X4575995Y-10509433D01*
X4575992Y-10509432D01*
X4575987Y-10509430D01*
X4575979Y-10509427D01*
X4351373Y-10436448D01*
X4351367Y-10436446D01*
X4118092Y-10399500D01*
X3881908Y-10399500D01*
X3648632Y-10436446D01*
X3648626Y-10436448D01*
X3424020Y-10509427D01*
X3424003Y-10509434D01*
X3213571Y-10616654D01*
X3213559Y-10616662D01*
X3022491Y-10755481D01*
X3007580Y-10768217D01*
X3006545Y-10767006D01*
X2910425Y-10838962D01*
X2777350Y-10888596D01*
X2671280Y-10900000D01*
X2500000Y-10900000D01*
X2500000Y-11755949D01*
X2499500Y-11768675D01*
X2499500Y-33980562D01*
X2497097Y-34029475D01*
X2485602Y-34146181D01*
X2466519Y-34242117D01*
X2438147Y-34335649D01*
X2400710Y-34426029D01*
X2354634Y-34512230D01*
X2300289Y-34593563D01*
X2238285Y-34669115D01*
X2169115Y-34738285D01*
X2093563Y-34800289D01*
X2012230Y-34854634D01*
X1926029Y-34900710D01*
X1835650Y-34938146D01*
X1791628Y-34951500D01*
X1742115Y-34966520D01*
X1646180Y-34985602D01*
X1577882Y-34992329D01*
X1524395Y-34997597D01*
X1475487Y-35000000D01*
X-17914925Y-35000000D01*
X-18055510Y-34979787D01*
X-18184705Y-34920786D01*
X-18292044Y-34827776D01*
X-18368831Y-34708292D01*
X-18408846Y-34572015D01*
X-18408846Y-34429985D01*
X-18387442Y-34340600D01*
X-18343708Y-34211763D01*
X-18343704Y-34211752D01*
X-18273527Y-33858947D01*
X-18250000Y-33500000D01*
X-18273527Y-33141052D01*
X-18273528Y-33141046D01*
X-18273529Y-33141039D01*
X-18282418Y-33096352D01*
X-18290021Y-32954525D01*
X-18257359Y-32816302D01*
X-18187077Y-32692879D01*
X-18084870Y-32594257D01*
X-17959019Y-32528425D01*
X-17819718Y-32500715D01*
X-17793007Y-32500000D01*
X0Y-32500000D01*
X0Y-9924513D01*
X2403Y-9875604D01*
X14397Y-9753823D01*
X33477Y-9657893D01*
X61856Y-9564336D01*
X99289Y-9473970D01*
X145365Y-9387769D01*
X199706Y-9306441D01*
X261717Y-9230880D01*
X330880Y-9161717D01*
X406441Y-9099706D01*
X487769Y-9045365D01*
X511643Y-9032603D01*
X573973Y-8999287D01*
X664336Y-8961856D01*
X757893Y-8933477D01*
X853818Y-8914397D01*
X940809Y-8905829D01*
X975604Y-8902403D01*
X1024513Y-8900000D01*
X20000000Y-8900000D01*
X20000000Y-1200000D01*
X20500000Y-1200000D01*
X20500000Y9200000D01*
X20000000Y9200000D01*
X20000000Y20137956D01*
X20448558Y20052118D01*
X21138152Y20022010D01*
X21824828Y20092164D01*
X21476622Y22066935D01*
X21711752Y22113704D01*
X21775402Y22135311D01*
X21840600Y22157442D01*
X21980221Y22183492D01*
X22121525Y22169151D01*
G37*
G04 #@! TD.AperFunction*
G04 #@! TA.AperFunction,Conductor*
G36*
X-21840604Y30887443D02*
G01*
X-21711753Y30843704D01*
X-21476624Y30796935D01*
X-21824829Y28822164D01*
X-21448391Y28771211D01*
X-21069084Y28750503D01*
X-20689336Y28760171D01*
X-20311574Y28800153D01*
X-20000000Y28858603D01*
X-20000000Y-30293005D01*
X-20020213Y-30433590D01*
X-20079214Y-30562785D01*
X-20172224Y-30670124D01*
X-20291708Y-30746911D01*
X-20427985Y-30786926D01*
X-20570015Y-30786926D01*
X-20596343Y-30782418D01*
X-20641044Y-30773527D01*
X-20641050Y-30773526D01*
X-20641053Y-30773526D01*
X-21000000Y-30750000D01*
X-21000001Y-30750000D01*
X-21034996Y-30752293D01*
X-21358948Y-30773526D01*
X-21358953Y-30773526D01*
X-21358954Y-30773527D01*
X-21711750Y-30843702D01*
X-21711762Y-30843705D01*
X-21840602Y-30887441D01*
X-21980223Y-30913490D01*
X-22121527Y-30899148D01*
X-22253067Y-30845577D01*
X-22364186Y-30757118D01*
X-22445882Y-30640935D01*
X-22491536Y-30506442D01*
X-22500000Y-30414923D01*
X-22500000Y30414925D01*
X-22479787Y30555510D01*
X-22420786Y30684705D01*
X-22327776Y30792044D01*
X-22208292Y30868831D01*
X-22072015Y30908846D01*
X-21929985Y30908846D01*
X-21840604Y30887443D01*
G37*
G04 #@! TD.AperFunction*
G04 #@! TA.AperFunction,Conductor*
G36*
X21524396Y34997597D02*
G01*
X21566360Y34993464D01*
X21646179Y34985603D01*
X21742108Y34966523D01*
X21835659Y34938145D01*
X21926029Y34900711D01*
X22012230Y34854635D01*
X22093563Y34800290D01*
X22169115Y34738286D01*
X22238285Y34669116D01*
X22300289Y34593564D01*
X22354634Y34512231D01*
X22400710Y34426030D01*
X22438145Y34335655D01*
X22466520Y34242116D01*
X22485602Y34146181D01*
X22497597Y34024400D01*
X22500000Y33975487D01*
X22500000Y27855077D01*
X22479787Y27714492D01*
X22420786Y27585297D01*
X22327776Y27477958D01*
X22208292Y27401171D01*
X22072015Y27361156D01*
X21929985Y27361156D01*
X21840603Y27382559D01*
X21711765Y27426294D01*
X21711748Y27426298D01*
X21476622Y27473068D01*
X21824828Y29447837D01*
X21138152Y29517991D01*
X20448558Y29487883D01*
X20000000Y29402046D01*
X20000000Y32500000D01*
X-16358603Y32500000D01*
X-16300153Y32811574D01*
X-16260171Y33189336D01*
X-16250503Y33569084D01*
X-16271211Y33948391D01*
X-16322164Y34324829D01*
X-18296935Y33976624D01*
X-18343704Y34211753D01*
X-18385763Y34335655D01*
X-18387442Y34340602D01*
X-18413491Y34480223D01*
X-18399149Y34621527D01*
X-18345578Y34753067D01*
X-18257119Y34864186D01*
X-18140936Y34945882D01*
X-18006443Y34991536D01*
X-17914924Y35000000D01*
X21475487Y35000000D01*
X21524396Y34997597D01*
G37*
G04 #@! TD.AperFunction*
G04 #@! TD*
G04 #@! TA.AperFunction,Conductor*
G04 #@! TO.N,/PE*
G36*
X21824828Y29447837D02*
G01*
X21476622Y27473068D01*
X21358952Y27496474D01*
X21059824Y27516079D01*
X21000000Y27520000D01*
X20999999Y27520000D01*
X20965004Y27517707D01*
X20641052Y27496474D01*
X20641047Y27496474D01*
X20641046Y27496473D01*
X20288250Y27426298D01*
X20288243Y27426296D01*
X19947622Y27310670D01*
X19947619Y27310669D01*
X19624998Y27151570D01*
X19325905Y26951722D01*
X19055456Y26714544D01*
X18818278Y26444095D01*
X18618430Y26145002D01*
X18459331Y25822381D01*
X18459330Y25822378D01*
X18356906Y25520647D01*
X18343703Y25481753D01*
X18273526Y25128948D01*
X18255355Y24851706D01*
X18250000Y24770001D01*
X18273526Y24411048D01*
X18343702Y24058252D01*
X18343703Y24058248D01*
X18459331Y23717621D01*
X18618430Y23395000D01*
X18618432Y23394997D01*
X18618433Y23394995D01*
X18818276Y23095909D01*
X18818278Y23095907D01*
X19055456Y22825457D01*
X19325905Y22588280D01*
X19624998Y22388432D01*
X19624999Y22388432D01*
X19625000Y22388431D01*
X19947620Y22229332D01*
X20288247Y22113704D01*
X20641047Y22043528D01*
X20641052Y22043527D01*
X21000000Y22020000D01*
X21358947Y22043527D01*
X21476622Y22066934D01*
X21824828Y20092164D01*
X21138152Y20022010D01*
X20448558Y20052118D01*
X20000000Y20137956D01*
X19999999Y20137957D01*
X19864163Y20163951D01*
X19864144Y20163954D01*
X19851062Y20166458D01*
X19833336Y20170186D01*
X19788992Y20180355D01*
X19753936Y20189748D01*
X19710452Y20203112D01*
X19693214Y20208755D01*
X19195996Y20381580D01*
X19178977Y20387845D01*
X19136592Y20404327D01*
X19103288Y20418693D01*
X19062204Y20438215D01*
X19045954Y20446302D01*
X18579009Y20689379D01*
X18563098Y20698032D01*
X18523534Y20720493D01*
X18492676Y20739526D01*
X18454833Y20764811D01*
X18439940Y20775159D01*
X18013160Y21083340D01*
X17998701Y21094186D01*
X17962773Y21122171D01*
X17934991Y21145484D01*
X17901234Y21175968D01*
X17887992Y21188370D01*
X17510385Y21555150D01*
X17497639Y21567988D01*
X17466152Y21600881D01*
X17442053Y21627961D01*
X17413066Y21663020D01*
X17401757Y21677216D01*
X17081313Y22094827D01*
X17070533Y22109418D01*
X17044163Y22146501D01*
X17024236Y22176796D01*
X17000604Y22215741D01*
X16991528Y22231331D01*
X16734943Y22691064D01*
X16726419Y22707013D01*
X16705701Y22747529D01*
X16690381Y22780381D01*
X16672644Y22822335D01*
X16665903Y22839127D01*
X16478687Y23331115D01*
X16472544Y23348186D01*
X16457920Y23391267D01*
X16447516Y23426017D01*
X16436059Y23470051D01*
X16431819Y23487659D01*
X16317880Y24001611D01*
X16314278Y24019381D01*
X16307133Y24058245D01*
X16306053Y24064122D01*
X16300799Y24099990D01*
X16295845Y24145227D01*
X16294200Y24163277D01*
X16255951Y24688300D01*
X16254963Y24706403D01*
X16253309Y24751884D01*
X16253309Y24788117D01*
X16254964Y24833619D01*
X16255952Y24851706D01*
X16277980Y25154070D01*
X16294200Y25376733D01*
X16295846Y25394784D01*
X16300799Y25440016D01*
X16306052Y25475877D01*
X16314283Y25520647D01*
X16317880Y25538391D01*
X16380838Y25822378D01*
X16431824Y26052368D01*
X16436056Y26069938D01*
X16447519Y26113999D01*
X16457920Y26148735D01*
X16472544Y26191816D01*
X16478687Y26208887D01*
X16601531Y26531710D01*
X16665914Y26700905D01*
X16672636Y26717648D01*
X16690385Y26759631D01*
X16705701Y26792473D01*
X16726430Y26833012D01*
X16734931Y26848915D01*
X16991541Y27308695D01*
X17000597Y27324250D01*
X17024247Y27363224D01*
X17044143Y27393475D01*
X17070561Y27430625D01*
X17081274Y27445125D01*
X17401795Y27862836D01*
X17413038Y27876949D01*
X17442067Y27912059D01*
X17466145Y27939115D01*
X17497639Y27972013D01*
X17510348Y27984816D01*
X17888031Y28351669D01*
X17901212Y28364015D01*
X17934993Y28394521D01*
X17962756Y28417818D01*
X17998735Y28445843D01*
X18013124Y28456636D01*
X18439977Y28764869D01*
X18454795Y28775166D01*
X18492677Y28800477D01*
X18523537Y28819510D01*
X18563087Y28841963D01*
X18579000Y28850619D01*
X19046008Y29093729D01*
X19062139Y29101758D01*
X19103319Y29121325D01*
X19136562Y29135663D01*
X19179013Y29152171D01*
X19195950Y29158406D01*
X19693293Y29331276D01*
X19710400Y29336876D01*
X19753983Y29350269D01*
X19788965Y29359641D01*
X19833338Y29369818D01*
X19851065Y29373544D01*
X19936229Y29389843D01*
X20448558Y29487883D01*
X21138152Y29517991D01*
X21824828Y29447837D01*
G37*
G04 #@! TD.AperFunction*
G04 #@! TD*
G04 #@! TA.AperFunction,Conductor*
G04 #@! TO.N,/L_SW*
G36*
X-1919777Y28992099D02*
G01*
X-1853813Y28985602D01*
X-1757886Y28966521D01*
X-1664346Y28938146D01*
X-1573971Y28900711D01*
X-1487770Y28854635D01*
X-1406437Y28800290D01*
X-1330885Y28738286D01*
X-1261715Y28669116D01*
X-1199711Y28593564D01*
X-1145366Y28512231D01*
X-1099290Y28426030D01*
X-1061855Y28335655D01*
X-1048480Y28291566D01*
X-1033480Y28242116D01*
X-1014398Y28146181D01*
X-1002403Y28024400D01*
X-1000000Y27975487D01*
X-1000000Y23252203D01*
X-1020213Y23111618D01*
X-1079214Y22982423D01*
X-1172224Y22875084D01*
X-1291708Y22798297D01*
X-1427985Y22758282D01*
X-1570015Y22758282D01*
X-1706292Y22798297D01*
X-1825776Y22875084D01*
X-1851846Y22899357D01*
X-1921356Y22968867D01*
X-1921363Y22968874D01*
X-1921370Y22968880D01*
X-1921381Y22968890D01*
X-2235798Y23232716D01*
X-2466707Y23394399D01*
X-2572017Y23468138D01*
X-2927483Y23673366D01*
X-2927490Y23673370D01*
X-3299475Y23846830D01*
X-3299479Y23846832D01*
X-3685182Y23987216D01*
X-3685195Y23987220D01*
X-4081649Y24093449D01*
X-4081656Y24093451D01*
X-4485875Y24164726D01*
X-4894769Y24200500D01*
X-4894772Y24200500D01*
X-5305228Y24200500D01*
X-5305232Y24200500D01*
X-5714126Y24164726D01*
X-6118345Y24093451D01*
X-6118352Y24093449D01*
X-6514806Y23987220D01*
X-6514819Y23987216D01*
X-6900522Y23846832D01*
X-6900526Y23846830D01*
X-7272511Y23673370D01*
X-7272518Y23673366D01*
X-7627979Y23468141D01*
X-7964203Y23232716D01*
X-8278620Y22968890D01*
X-8278645Y22968867D01*
X-8568867Y22678645D01*
X-8568890Y22678620D01*
X-8832716Y22364203D01*
X-9068141Y22027979D01*
X-9273366Y21672518D01*
X-9273370Y21672511D01*
X-9446830Y21300526D01*
X-9446832Y21300522D01*
X-9587216Y20914819D01*
X-9587220Y20914806D01*
X-9693449Y20518352D01*
X-9693451Y20518345D01*
X-9764726Y20114126D01*
X-9800500Y19705232D01*
X-9800500Y19294769D01*
X-9764726Y18885875D01*
X-9693451Y18481656D01*
X-9693449Y18481649D01*
X-9587220Y18085195D01*
X-9587216Y18085182D01*
X-9446832Y17699479D01*
X-9446830Y17699475D01*
X-9273370Y17327490D01*
X-9273366Y17327483D01*
X-9068138Y16972017D01*
X-8994399Y16866707D01*
X-8832716Y16635798D01*
X-8568890Y16321381D01*
X-8568880Y16321370D01*
X-8568874Y16321363D01*
X-8278637Y16031126D01*
X-8278630Y16031120D01*
X-8278620Y16031111D01*
X-7964203Y15767285D01*
X-7796310Y15649726D01*
X-7627983Y15531862D01*
X-7272517Y15326634D01*
X-7272513Y15326633D01*
X-7272511Y15326631D01*
X-6900526Y15153171D01*
X-6900522Y15153169D01*
X-6900519Y15153168D01*
X-6900517Y15153167D01*
X-6514814Y15012783D01*
X-6118344Y14906549D01*
X-5714123Y14835274D01*
X-5305228Y14799500D01*
X-5305225Y14799500D01*
X-4894775Y14799500D01*
X-4894772Y14799500D01*
X-4485877Y14835274D01*
X-4081656Y14906549D01*
X-3685186Y15012783D01*
X-3299483Y15153167D01*
X-2927483Y15326634D01*
X-2572017Y15531862D01*
X-2235791Y15767290D01*
X-1921363Y16031126D01*
X-1851846Y16100643D01*
X-1738145Y16185759D01*
X-1605070Y16235393D01*
X-1463402Y16245526D01*
X-1324617Y16215335D01*
X-1199960Y16147267D01*
X-1099530Y16046837D01*
X-1031462Y15922180D01*
X-1001271Y15783395D01*
X-1000000Y15747797D01*
X-1000000Y12224017D01*
X-1020213Y12083432D01*
X-1079214Y11954237D01*
X-1172224Y11846898D01*
X-1291708Y11770111D01*
X-1427985Y11730096D01*
X-1570015Y11730096D01*
X-1706292Y11770111D01*
X-1785216Y11815261D01*
X-1983694Y11954237D01*
X-2025798Y11983719D01*
X-2134685Y12046585D01*
X-2373692Y12184576D01*
X-2373698Y12184579D01*
X-2373702Y12184581D01*
X-2737788Y12354357D01*
X-2737795Y12354360D01*
X-2737798Y12354361D01*
X-2737812Y12354367D01*
X-3115261Y12491748D01*
X-3115286Y12491756D01*
X-3503319Y12595729D01*
X-3898940Y12665488D01*
X-4299133Y12700500D01*
X-4299138Y12700500D01*
X-4700862Y12700500D01*
X-4700868Y12700500D01*
X-5101061Y12665488D01*
X-5496681Y12595729D01*
X-5496683Y12595729D01*
X-5884715Y12491756D01*
X-5884740Y12491748D01*
X-6262189Y12354367D01*
X-6262203Y12354361D01*
X-6626300Y12184580D01*
X-6626309Y12184575D01*
X-6750501Y12112873D01*
X-6882358Y12060086D01*
X-7023745Y12046585D01*
X-7163208Y12073465D01*
X-7249499Y12112873D01*
X-7373692Y12184575D01*
X-7373702Y12184581D01*
X-7737788Y12354357D01*
X-7737795Y12354360D01*
X-7737798Y12354361D01*
X-7737812Y12354367D01*
X-8115261Y12491748D01*
X-8115286Y12491756D01*
X-8503319Y12595729D01*
X-8898940Y12665488D01*
X-9299133Y12700500D01*
X-9299138Y12700500D01*
X-9700862Y12700500D01*
X-9700868Y12700500D01*
X-10101061Y12665488D01*
X-10496681Y12595729D01*
X-10496683Y12595729D01*
X-10884715Y12491756D01*
X-10884740Y12491748D01*
X-11262189Y12354367D01*
X-11262203Y12354361D01*
X-11626300Y12184580D01*
X-11626309Y12184576D01*
X-11974200Y11983721D01*
X-12303279Y11753297D01*
X-12611015Y11495077D01*
X-12895077Y11211015D01*
X-13153297Y10903279D01*
X-13383721Y10574200D01*
X-13584576Y10226309D01*
X-13584580Y10226300D01*
X-13754361Y9862203D01*
X-13754367Y9862189D01*
X-13891748Y9484740D01*
X-13891756Y9484715D01*
X-13995729Y9096683D01*
X-13995729Y9096681D01*
X-14065488Y8701061D01*
X-14100500Y8300868D01*
X-14100500Y7899133D01*
X-14065488Y7498940D01*
X-13995729Y7103320D01*
X-13995729Y7103318D01*
X-13891756Y6715286D01*
X-13891748Y6715261D01*
X-13754367Y6337812D01*
X-13754361Y6337798D01*
X-13754357Y6337788D01*
X-13584581Y5973702D01*
X-13584580Y5973701D01*
X-13584576Y5973692D01*
X-13383721Y5625801D01*
X-13153297Y5296722D01*
X-12895077Y4988986D01*
X-12611015Y4704924D01*
X-12303277Y4446703D01*
X-12303276Y4446702D01*
X-12249083Y4408755D01*
X-12145517Y4311561D01*
X-12073529Y4189126D01*
X-12038951Y4051369D01*
X-12044584Y3909451D01*
X-12089973Y3774868D01*
X-12171438Y3658524D01*
X-12249083Y3591245D01*
X-12303276Y3553299D01*
X-12303277Y3553298D01*
X-12611015Y3295077D01*
X-12895077Y3011015D01*
X-13153297Y2703279D01*
X-13383721Y2374200D01*
X-13584576Y2026309D01*
X-13584580Y2026300D01*
X-13754361Y1662203D01*
X-13754367Y1662189D01*
X-13891748Y1284740D01*
X-13891756Y1284715D01*
X-13995729Y896683D01*
X-13995729Y896681D01*
X-14065488Y501061D01*
X-14100500Y100868D01*
X-14100500Y-300867D01*
X-14065488Y-701060D01*
X-13995729Y-1096680D01*
X-13995729Y-1096682D01*
X-13891756Y-1484714D01*
X-13891748Y-1484739D01*
X-13754367Y-1862188D01*
X-13754361Y-1862202D01*
X-13754357Y-1862212D01*
X-13584581Y-2226298D01*
X-13584580Y-2226299D01*
X-13584576Y-2226308D01*
X-13383721Y-2574199D01*
X-13153297Y-2903278D01*
X-12895077Y-3211014D01*
X-12611015Y-3495076D01*
X-12303279Y-3753296D01*
X-12303275Y-3753299D01*
X-11974202Y-3983719D01*
X-11974200Y-3983720D01*
X-11626309Y-4184575D01*
X-11626307Y-4184576D01*
X-11626298Y-4184581D01*
X-11262212Y-4354357D01*
X-11262199Y-4354361D01*
X-11262189Y-4354366D01*
X-10884740Y-4491747D01*
X-10884715Y-4491755D01*
X-10496679Y-4595729D01*
X-10101058Y-4665488D01*
X-9700862Y-4700500D01*
X-9700858Y-4700500D01*
X-9299142Y-4700500D01*
X-9299138Y-4700500D01*
X-8898942Y-4665488D01*
X-8503321Y-4595729D01*
X-8115285Y-4491755D01*
X-8115278Y-4491752D01*
X-8115261Y-4491747D01*
X-7737812Y-4354366D01*
X-7737808Y-4354364D01*
X-7737788Y-4354357D01*
X-7373702Y-4184581D01*
X-7249498Y-4112871D01*
X-7117645Y-4060085D01*
X-6976258Y-4046584D01*
X-6836794Y-4073463D01*
X-6750505Y-4112870D01*
X-6626298Y-4184581D01*
X-6262212Y-4354357D01*
X-6262199Y-4354361D01*
X-6262189Y-4354366D01*
X-5884740Y-4491747D01*
X-5884715Y-4491755D01*
X-5496679Y-4595729D01*
X-5101058Y-4665488D01*
X-4700862Y-4700500D01*
X-4700858Y-4700500D01*
X-4299142Y-4700500D01*
X-4299138Y-4700500D01*
X-3898942Y-4665488D01*
X-3503321Y-4595729D01*
X-3115285Y-4491755D01*
X-3115278Y-4491752D01*
X-3115261Y-4491747D01*
X-2737812Y-4354366D01*
X-2737808Y-4354364D01*
X-2737788Y-4354357D01*
X-2373702Y-4184581D01*
X-2025798Y-3983719D01*
X-1696725Y-3753299D01*
X-1388986Y-3495076D01*
X-1104924Y-3211014D01*
X-846701Y-2903275D01*
X-616281Y-2574202D01*
X-415419Y-2226298D01*
X-245643Y-1862212D01*
X-245634Y-1862188D01*
X-108253Y-1484739D01*
X-108245Y-1484714D01*
X-4272Y-1096682D01*
X-4271Y-1096679D01*
X8581Y-1023789D01*
X52899Y-888852D01*
X133439Y-771865D01*
X243676Y-682308D01*
X374678Y-627435D01*
X515833Y-611693D01*
X655705Y-636357D01*
X782963Y-699428D01*
X887298Y-795797D01*
X960255Y-917656D01*
X991419Y-1023791D01*
X1004271Y-1096680D01*
X1004271Y-1096682D01*
X1108244Y-1484714D01*
X1108252Y-1484739D01*
X1245633Y-1862188D01*
X1245639Y-1862202D01*
X1245643Y-1862212D01*
X1415419Y-2226298D01*
X1415420Y-2226299D01*
X1415424Y-2226308D01*
X1616279Y-2574199D01*
X1846705Y-2903280D01*
X1846706Y-2903281D01*
X1883254Y-2946837D01*
X1958137Y-3067523D01*
X1995985Y-3204417D01*
X2000000Y-3267590D01*
X2000000Y-4895500D01*
X1995850Y-4924360D01*
X1996617Y-4953506D01*
X1985794Y-4994303D01*
X1979787Y-5036085D01*
X1967674Y-5062607D01*
X1960199Y-5090788D01*
X1938321Y-5126882D01*
X1920786Y-5165280D01*
X1901690Y-5187316D01*
X1886579Y-5212249D01*
X1855419Y-5240716D01*
X1827776Y-5272619D01*
X1803246Y-5288383D01*
X1781722Y-5308048D01*
X1743800Y-5326586D01*
X1708292Y-5349406D01*
X1680319Y-5357619D01*
X1654123Y-5370426D01*
X1616630Y-5376320D01*
X1572015Y-5389421D01*
X1514118Y-5394328D01*
X1507577Y-5394500D01*
X1024513Y-5394500D01*
X852488Y-5398723D01*
X803579Y-5401126D01*
X632105Y-5413773D01*
X597310Y-5417199D01*
X597205Y-5417209D01*
X580150Y-5418888D01*
X580140Y-5418889D01*
X510209Y-5425777D01*
X169969Y-5476246D01*
X74020Y-5495331D01*
X-259647Y-5578907D01*
X-353214Y-5607289D01*
X-677220Y-5723219D01*
X-677231Y-5723224D01*
X-767552Y-5760638D01*
X-767569Y-5760645D01*
X-1078505Y-5907709D01*
X-1140939Y-5941081D01*
X-1274452Y-5989525D01*
X-1376161Y-6000000D01*
X-3000000Y-6000000D01*
X-3000000Y-7725743D01*
X-3020213Y-7866328D01*
X-3047912Y-7939098D01*
X-3139335Y-8132388D01*
X-3139346Y-8132414D01*
X-3176778Y-8222777D01*
X-3176782Y-8222788D01*
X-3292713Y-8546788D01*
X-3321080Y-8640307D01*
X-3321091Y-8640347D01*
X-3404674Y-8974048D01*
X-3404682Y-8974081D01*
X-3423755Y-9069979D01*
X-3474223Y-9410226D01*
X-3474228Y-9410271D01*
X-3486216Y-9531989D01*
X-3498874Y-9703580D01*
X-3501277Y-9752482D01*
X-3505500Y-9924526D01*
X-3505500Y-28495500D01*
X-3525713Y-28636085D01*
X-3584714Y-28765280D01*
X-3677724Y-28872619D01*
X-3797208Y-28949406D01*
X-3933485Y-28989421D01*
X-4004500Y-28994500D01*
X-15995500Y-28994500D01*
X-16136085Y-28974287D01*
X-16265280Y-28915286D01*
X-16372619Y-28822276D01*
X-16449406Y-28702792D01*
X-16489421Y-28566515D01*
X-16494500Y-28495500D01*
X-16494500Y-14349500D01*
X-16474287Y-14208915D01*
X-16415286Y-14079720D01*
X-16322276Y-13972381D01*
X-16202792Y-13895594D01*
X-16066515Y-13855579D01*
X-15995500Y-13850500D01*
X-14966821Y-13850500D01*
X-14826236Y-13870713D01*
X-14697041Y-13929714D01*
X-14589702Y-14022724D01*
X-14512915Y-14142208D01*
X-14497914Y-14178832D01*
X-14460596Y-14281363D01*
X-14288973Y-14649407D01*
X-14288973Y-14649408D01*
X-14085928Y-15001092D01*
X-13853009Y-15333736D01*
X-13591976Y-15644823D01*
X-13304824Y-15931975D01*
X-12993737Y-16193008D01*
X-12785943Y-16338506D01*
X-12661092Y-16425928D01*
X-12309407Y-16628973D01*
X-12015559Y-16765997D01*
X-11941361Y-16800597D01*
X-11685826Y-16893603D01*
X-11559764Y-16939486D01*
X-11167511Y-17044590D01*
X-11167501Y-17044591D01*
X-11167500Y-17044592D01*
X-11167497Y-17044593D01*
X-10769463Y-17114775D01*
X-10767590Y-17115106D01*
X-10363045Y-17150500D01*
X-10363043Y-17150500D01*
X-9956957Y-17150500D01*
X-9956955Y-17150500D01*
X-9552410Y-17115106D01*
X-9418479Y-17091490D01*
X-9152504Y-17044593D01*
X-9152502Y-17044592D01*
X-9152489Y-17044590D01*
X-8760236Y-16939486D01*
X-8378635Y-16800595D01*
X-8010593Y-16628973D01*
X-7658908Y-16425928D01*
X-7326258Y-16193004D01*
X-7015175Y-15931974D01*
X-6728026Y-15644825D01*
X-6466996Y-15333742D01*
X-6234072Y-15001092D01*
X-6031027Y-14649407D01*
X-5859405Y-14281365D01*
X-5720514Y-13899764D01*
X-5615410Y-13507511D01*
X-5544894Y-13107590D01*
X-5509500Y-12703045D01*
X-5509500Y-12296955D01*
X-5544894Y-11892410D01*
X-5545225Y-11890537D01*
X-5615407Y-11492503D01*
X-5615408Y-11492500D01*
X-5615409Y-11492499D01*
X-5615410Y-11492489D01*
X-5720514Y-11100236D01*
X-5822086Y-10821168D01*
X-5859403Y-10718639D01*
X-6012746Y-10389797D01*
X-6031027Y-10350593D01*
X-6234072Y-9998908D01*
X-6406621Y-9752482D01*
X-6466992Y-9666263D01*
X-6728025Y-9355176D01*
X-7015177Y-9068024D01*
X-7326264Y-8806991D01*
X-7658908Y-8574072D01*
X-8010593Y-8371027D01*
X-8378640Y-8199402D01*
X-8760224Y-8060518D01*
X-8760245Y-8060511D01*
X-9047395Y-7983570D01*
X-9152489Y-7955410D01*
X-9152492Y-7955409D01*
X-9152501Y-7955407D01*
X-9152504Y-7955406D01*
X-9552394Y-7884896D01*
X-9552415Y-7884893D01*
X-9956954Y-7849500D01*
X-9956955Y-7849500D01*
X-10363045Y-7849500D01*
X-10363047Y-7849500D01*
X-10767586Y-7884893D01*
X-10767607Y-7884896D01*
X-11167497Y-7955406D01*
X-11167500Y-7955407D01*
X-11559756Y-8060511D01*
X-11559777Y-8060518D01*
X-11941361Y-8199402D01*
X-12309408Y-8371027D01*
X-12309409Y-8371027D01*
X-12661093Y-8574072D01*
X-12993737Y-8806991D01*
X-13304824Y-9068024D01*
X-13591976Y-9355176D01*
X-13853009Y-9666263D01*
X-14085928Y-9998907D01*
X-14288973Y-10350591D01*
X-14288973Y-10350592D01*
X-14460596Y-10718636D01*
X-14497914Y-10821168D01*
X-14564991Y-10946361D01*
X-14664621Y-11047585D01*
X-14788734Y-11116640D01*
X-14927275Y-11147931D01*
X-14966821Y-11149500D01*
X-15995500Y-11149500D01*
X-16136085Y-11129287D01*
X-16265280Y-11070286D01*
X-16372619Y-10977276D01*
X-16449406Y-10857792D01*
X-16489421Y-10721515D01*
X-16494500Y-10650500D01*
X-16494500Y26319212D01*
X-16474287Y26459797D01*
X-16415286Y26588992D01*
X-16322276Y26696331D01*
X-16277403Y26730954D01*
X-16253578Y26747266D01*
X-16232972Y26761527D01*
X-16175521Y26802147D01*
X-16159323Y26813845D01*
X-16102978Y26855399D01*
X-16082980Y26870458D01*
X-16055224Y26891576D01*
X-16047324Y26897649D01*
X-16019585Y26919195D01*
X-16019541Y26919229D01*
X-15933341Y26986880D01*
X-15791584Y27098130D01*
X-15764299Y27119763D01*
X-15756521Y27125993D01*
X-15729165Y27148131D01*
X-15709780Y27163980D01*
X-15655864Y27208969D01*
X-15640651Y27221924D01*
X-15587697Y27267941D01*
X-15568985Y27284533D01*
X-15542822Y27307966D01*
X-15535430Y27314654D01*
X-15509658Y27338207D01*
X-15296652Y27534820D01*
X-15270976Y27558759D01*
X-15263713Y27565599D01*
X-15238369Y27589706D01*
X-15220323Y27607044D01*
X-15170239Y27656136D01*
X-15156125Y27670250D01*
X-15107057Y27720310D01*
X-15089735Y27738339D01*
X-15065634Y27763675D01*
X-15058791Y27770941D01*
X-15034818Y27796653D01*
X-14838202Y28009663D01*
X-14814512Y28035588D01*
X-14807823Y28042982D01*
X-14784523Y28068997D01*
X-14767932Y28087708D01*
X-14721984Y28140582D01*
X-14709030Y28155793D01*
X-14663980Y28209780D01*
X-14648131Y28229165D01*
X-14625993Y28256521D01*
X-14619763Y28264299D01*
X-14598130Y28291584D01*
X-14424966Y28512231D01*
X-14419229Y28519541D01*
X-14397682Y28547282D01*
X-14397649Y28547324D01*
X-14391576Y28555224D01*
X-14370458Y28582980D01*
X-14355399Y28602978D01*
X-14313845Y28659323D01*
X-14309945Y28664724D01*
X-14302151Y28675515D01*
X-14293320Y28688007D01*
X-14261527Y28732972D01*
X-14247266Y28753578D01*
X-14230954Y28777404D01*
X-14134854Y28881985D01*
X-14013183Y28955257D01*
X-13875798Y28991281D01*
X-13819212Y28994500D01*
X-1968672Y28994500D01*
X-1919777Y28992099D01*
G37*
G04 #@! TD.AperFunction*
G04 #@! TA.AperFunction,Conductor*
G36*
X655705Y7563643D02*
G01*
X782963Y7500572D01*
X887298Y7404203D01*
X960255Y7282344D01*
X991419Y7176209D01*
X1004271Y7103320D01*
X1004271Y7103318D01*
X1108244Y6715286D01*
X1108252Y6715261D01*
X1245633Y6337812D01*
X1245639Y6337798D01*
X1245643Y6337788D01*
X1415419Y5973702D01*
X1415420Y5973701D01*
X1415424Y5973692D01*
X1616279Y5625801D01*
X1846705Y5296720D01*
X1846706Y5296719D01*
X1883254Y5253163D01*
X1958137Y5132477D01*
X1995985Y4995583D01*
X2000000Y4932410D01*
X2000000Y3067592D01*
X1979787Y2927007D01*
X1920786Y2797812D01*
X1883260Y2746845D01*
X1846698Y2703273D01*
X1616278Y2374198D01*
X1415424Y2026309D01*
X1415420Y2026300D01*
X1245639Y1662203D01*
X1245633Y1662189D01*
X1108252Y1284740D01*
X1108244Y1284715D01*
X1004272Y896683D01*
X991419Y823791D01*
X947100Y688852D01*
X866560Y571866D01*
X756324Y482308D01*
X625321Y427436D01*
X484166Y411694D01*
X344294Y436358D01*
X217036Y499429D01*
X112702Y595799D01*
X39745Y717658D01*
X8581Y823791D01*
X-4271Y896679D01*
X-108245Y1284715D01*
X-108253Y1284740D01*
X-245634Y1662189D01*
X-245640Y1662203D01*
X-245643Y1662212D01*
X-415419Y2026298D01*
X-616281Y2374202D01*
X-846701Y2703275D01*
X-883260Y2746845D01*
X-1104924Y3011015D01*
X-1388986Y3295077D01*
X-1696724Y3553298D01*
X-1696725Y3553299D01*
X-1750917Y3591245D01*
X-1854482Y3688436D01*
X-1926471Y3810871D01*
X-1961050Y3948627D01*
X-1955417Y4090546D01*
X-1910030Y4225129D01*
X-1828565Y4341473D01*
X-1750915Y4408757D01*
X-1696725Y4446701D01*
X-1388986Y4704924D01*
X-1104924Y4988986D01*
X-846701Y5296725D01*
X-616281Y5625798D01*
X-415419Y5973702D01*
X-245643Y6337788D01*
X-245634Y6337812D01*
X-108253Y6715261D01*
X-108245Y6715286D01*
X-4272Y7103318D01*
X-4271Y7103321D01*
X8581Y7176211D01*
X52899Y7311148D01*
X133439Y7428135D01*
X243676Y7517692D01*
X374678Y7572565D01*
X515833Y7588307D01*
X655705Y7563643D01*
G37*
G04 #@! TD.AperFunction*
G04 #@! TD*
G04 #@! TA.AperFunction,Conductor*
G04 #@! TO.N,/N_SW*
G36*
X10604707Y7173702D02*
G01*
X10725984Y7099781D01*
X10821523Y6994686D01*
X10883583Y6866932D01*
X10906736Y6738236D01*
X10909739Y6673842D01*
X10909740Y6673823D01*
X10909741Y6673819D01*
X10964184Y6304679D01*
X11057554Y5943418D01*
X11188799Y5594122D01*
X11188804Y5594110D01*
X11338340Y5296725D01*
X11356428Y5260754D01*
X11497028Y5042557D01*
X11558544Y4947091D01*
X11558545Y4947089D01*
X11792846Y4656700D01*
X11848346Y4601200D01*
X11933462Y4487499D01*
X11983096Y4354424D01*
X11994500Y4248354D01*
X11994500Y3061037D01*
X11974287Y2920452D01*
X11915286Y2791257D01*
X11877759Y2740289D01*
X11846699Y2703274D01*
X11846699Y2703273D01*
X11616278Y2374198D01*
X11415424Y2026309D01*
X11415420Y2026300D01*
X11415419Y2026298D01*
X11293199Y1764195D01*
X11245639Y1662203D01*
X11245633Y1662189D01*
X11108252Y1284740D01*
X11108244Y1284715D01*
X11034429Y1009231D01*
X11004271Y896679D01*
X10991419Y823791D01*
X10947100Y688852D01*
X10866560Y571866D01*
X10756324Y482308D01*
X10625321Y427436D01*
X10484166Y411694D01*
X10344294Y436358D01*
X10217036Y499429D01*
X10112702Y595799D01*
X10039745Y717658D01*
X10008581Y823791D01*
X9995729Y896679D01*
X9891755Y1284715D01*
X9891747Y1284740D01*
X9754366Y1662189D01*
X9754360Y1662203D01*
X9754357Y1662212D01*
X9584581Y2026298D01*
X9383719Y2374202D01*
X9153299Y2703275D01*
X9122241Y2740289D01*
X8895076Y3011015D01*
X8646154Y3259937D01*
X8614173Y3302658D01*
X8579214Y3343003D01*
X8571771Y3359300D01*
X8561038Y3373638D01*
X8542387Y3423643D01*
X8520213Y3472198D01*
X8517663Y3489931D01*
X8511404Y3506713D01*
X8500000Y3612783D01*
X8500000Y4387217D01*
X8520213Y4527802D01*
X8579214Y4656997D01*
X8646154Y4740063D01*
X8895074Y4988984D01*
X8895076Y4988986D01*
X8940027Y5042557D01*
X9153299Y5296725D01*
X9383719Y5625798D01*
X9584581Y5973702D01*
X9754357Y6337788D01*
X9876663Y6673819D01*
X9891747Y6715261D01*
X9891750Y6715273D01*
X9891755Y6715285D01*
X9926282Y6844145D01*
X9982190Y6974701D01*
X10072618Y7084224D01*
X10190240Y7163833D01*
X10325526Y7207081D01*
X10467516Y7210461D01*
X10604707Y7173702D01*
G37*
G04 #@! TD.AperFunction*
G04 #@! TA.AperFunction,Conductor*
G36*
X13080227Y28992099D02*
G01*
X13128108Y28987383D01*
X13266027Y28953491D01*
X13388819Y28882112D01*
X13486526Y28779030D01*
X13551234Y28652597D01*
X13577701Y28513055D01*
X13563782Y28371708D01*
X13530015Y28278469D01*
X13530612Y28278190D01*
X13513369Y28241216D01*
X13461577Y28124671D01*
X13443842Y28082721D01*
X13419521Y28023702D01*
X13412786Y28006927D01*
X13389624Y27947682D01*
X13202382Y27455626D01*
X13180228Y27395776D01*
X13174093Y27378725D01*
X13153080Y27318625D01*
X13138463Y27275563D01*
X13099729Y27154264D01*
X13089343Y27119578D01*
X13054942Y26996585D01*
X13043504Y26952620D01*
X13028008Y26890754D01*
X13024021Y26874203D01*
X13023791Y26873244D01*
X13018327Y26849616D01*
X13009410Y26811057D01*
X12895464Y26297074D01*
X12882258Y26234838D01*
X12878686Y26217215D01*
X12878671Y26217141D01*
X12878664Y26217103D01*
X12866567Y26154512D01*
X12866556Y26154453D01*
X12866555Y26154447D01*
X12858333Y26109728D01*
X12837572Y25983986D01*
X12837566Y25983949D01*
X12834151Y25960637D01*
X12832308Y25948056D01*
X12816130Y25821605D01*
X12811180Y25776404D01*
X12804829Y25713106D01*
X12803176Y25694984D01*
X12797964Y25631433D01*
X12781746Y25408784D01*
X12781746Y25408780D01*
X12759718Y25106417D01*
X12755671Y25042935D01*
X12754680Y25024783D01*
X12751778Y24961012D01*
X12750126Y24915584D01*
X12750125Y24915542D01*
X12750125Y24915535D01*
X12747875Y24791708D01*
X12747809Y24788095D01*
X12747809Y24751909D01*
X12750126Y24624438D01*
X12751777Y24579036D01*
X12754672Y24515370D01*
X12755660Y24497257D01*
X12759715Y24433607D01*
X12797970Y23908510D01*
X12803167Y23845121D01*
X12804812Y23827063D01*
X12811168Y23763697D01*
X12814519Y23733102D01*
X12816132Y23718377D01*
X12824040Y23656574D01*
X12832314Y23591909D01*
X12837565Y23556061D01*
X12858326Y23430316D01*
X12866556Y23385546D01*
X12878659Y23322921D01*
X12882247Y23305224D01*
X12895465Y23242921D01*
X13009400Y22728985D01*
X13023746Y22666948D01*
X13027971Y22649401D01*
X13043517Y22587331D01*
X13054961Y22543346D01*
X13089302Y22420565D01*
X13099703Y22385826D01*
X13138443Y22264500D01*
X13153115Y22221280D01*
X13174067Y22161350D01*
X13180260Y22144142D01*
X13202387Y22084363D01*
X13389604Y21592374D01*
X13412727Y21533227D01*
X13419495Y21516366D01*
X13443846Y21457271D01*
X13459330Y21420648D01*
X13461578Y21415332D01*
X13512596Y21300522D01*
X13513344Y21298840D01*
X13528674Y21265965D01*
X13584586Y21151543D01*
X13605299Y21111036D01*
X13634764Y21054682D01*
X13643301Y21038708D01*
X13673918Y20982656D01*
X13930486Y20522954D01*
X13934497Y20515919D01*
X13986566Y20383778D01*
X14000000Y20268772D01*
X14000000Y13098571D01*
X13979787Y12957986D01*
X13920786Y12828791D01*
X13827776Y12721452D01*
X13708292Y12644665D01*
X13625868Y12615447D01*
X13343415Y12542445D01*
X12994121Y12411201D01*
X12994109Y12411196D01*
X12660757Y12243574D01*
X12347090Y12041456D01*
X12347088Y12041455D01*
X12056699Y11807154D01*
X11792846Y11543301D01*
X11558545Y11252912D01*
X11558544Y11252910D01*
X11356426Y10939243D01*
X11188804Y10605891D01*
X11188799Y10605879D01*
X11057554Y10256583D01*
X10964184Y9895322D01*
X10959297Y9862189D01*
X10909740Y9526177D01*
X10909739Y9526163D01*
X10909739Y9526159D01*
X10906736Y9461765D01*
X10879996Y9322275D01*
X10815040Y9195968D01*
X10717131Y9093079D01*
X10594200Y9021941D01*
X10456207Y8988318D01*
X10314331Y8994935D01*
X10180066Y9041254D01*
X10064289Y9123524D01*
X9976381Y9235080D01*
X9926283Y9355855D01*
X9891755Y9484715D01*
X9891751Y9484726D01*
X9891747Y9484740D01*
X9754366Y9862189D01*
X9754360Y9862203D01*
X9754357Y9862212D01*
X9584581Y10226298D01*
X9383719Y10574202D01*
X9153299Y10903275D01*
X9153296Y10903279D01*
X8895076Y11211015D01*
X8646154Y11459937D01*
X8561038Y11573638D01*
X8511404Y11706713D01*
X8500000Y11812783D01*
X8500000Y16057661D01*
X8520213Y16198246D01*
X8579214Y16327441D01*
X8616737Y16378406D01*
X8832710Y16635791D01*
X9068138Y16972017D01*
X9273366Y17327483D01*
X9446833Y17699483D01*
X9587217Y18085186D01*
X9693451Y18481656D01*
X9764726Y18885877D01*
X9800500Y19294772D01*
X9800500Y19705228D01*
X9764726Y20114123D01*
X9693451Y20518344D01*
X9587217Y20914814D01*
X9446833Y21300517D01*
X9338318Y21533227D01*
X9273369Y21672511D01*
X9273365Y21672518D01*
X9079802Y22007779D01*
X9068138Y22027983D01*
X8902527Y22264500D01*
X8832715Y22364203D01*
X8616743Y22621590D01*
X8541861Y22742277D01*
X8504014Y22879172D01*
X8500000Y22942340D01*
X8500000Y24500000D01*
X7500000Y24500000D01*
X3004500Y24500000D01*
X2863915Y24520213D01*
X2734720Y24579214D01*
X2627381Y24672224D01*
X2550594Y24791708D01*
X2510579Y24927985D01*
X2505500Y24999000D01*
X2505500Y27975473D01*
X2502867Y28082721D01*
X2501277Y28147498D01*
X2498874Y28196411D01*
X2486215Y28368017D01*
X2478476Y28446589D01*
X2484812Y28588477D01*
X2530865Y28722833D01*
X2612906Y28838773D01*
X2724287Y28926902D01*
X2855986Y28980082D01*
X2975073Y28994500D01*
X13031328Y28994500D01*
X13080227Y28992099D01*
G37*
G04 #@! TD.AperFunction*
G04 #@! TD*
G04 #@! TA.AperFunction,Conductor*
G04 #@! TO.N,/PE*
G36*
X20500000Y-1200000D02*
G01*
X16524513Y-1200000D01*
X16475604Y-1197597D01*
X16409680Y-1191104D01*
X16353819Y-1185602D01*
X16257884Y-1166520D01*
X16164345Y-1138145D01*
X16073970Y-1100710D01*
X15987769Y-1054634D01*
X15906436Y-1000289D01*
X15830884Y-938285D01*
X15761714Y-869115D01*
X15699710Y-793563D01*
X15645365Y-712230D01*
X15599289Y-626029D01*
X15561855Y-535659D01*
X15533477Y-442108D01*
X15514397Y-346176D01*
X15502403Y-224395D01*
X15500000Y-175486D01*
X15500000Y8175487D01*
X15502403Y8224396D01*
X15514397Y8346177D01*
X15533477Y8442107D01*
X15561856Y8535664D01*
X15599289Y8626030D01*
X15645365Y8712231D01*
X15699706Y8793559D01*
X15761717Y8869120D01*
X15830880Y8938283D01*
X15906441Y9000294D01*
X15987769Y9054635D01*
X16011643Y9067397D01*
X16073973Y9100713D01*
X16164336Y9138144D01*
X16257893Y9166523D01*
X16353818Y9185603D01*
X16440809Y9194171D01*
X16475604Y9197597D01*
X16524513Y9200000D01*
X20000000Y9200000D01*
X20500000Y9200000D01*
X20500000Y-1200000D01*
G37*
G04 #@! TD.AperFunction*
G04 #@! TD*
M02*
