G04 #@! TF.GenerationSoftware,KiCad,Pcbnew,9.0.9-9.0.9~ubuntu24.04.1*
G04 #@! TF.CreationDate,2026-10-09T05:53:30+00:00*
G04 #@! TF.ProjectId,wiring_board,77697269-6e67-45f6-926f-6172642e6b69,rev?*
G04 #@! TF.SameCoordinates,Original*
G04 #@! TF.FileFunction,Copper,L1,Top*
G04 #@! TF.FilePolarity,Positive*
%FSLAX46Y46*%
G04 Gerber Fmt 4.6, Leading zero omitted, Abs format (unit mm)*
G04 Created by KiCad (PCBNEW 9.0.9-9.0.9~ubuntu24.04.1) date 2026-10-09 05:53:30*
%MOMM*%
%LPD*%
G01*
G04 APERTURE LIST*
G04 Aperture macros list*
%AMRoundRect*
0 Rectangle with rounded corners*
0 $1 Rounding radius*
0 $2 $3 $4 $5 $6 $7 $8 $9 X,Y pos of 4 corners*
0 Add a 4 corners polygon primitive as box body*
4,1,4,$2,$3,$4,$5,$6,$7,$8,$9,$2,$3,0*
0 Add four circle primitives for the rounded corners*
1,1,$1+$1,$2,$3*
1,1,$1+$1,$4,$5*
1,1,$1+$1,$6,$7*
1,1,$1+$1,$8,$9*
0 Add four rect primitives between the rounded corners*
20,1,$1+$1,$2,$3,$4,$5,0*
20,1,$1+$1,$4,$5,$6,$7,0*
20,1,$1+$1,$6,$7,$8,$9,0*
20,1,$1+$1,$8,$9,$2,$3,0*%
G04 Aperture macros list end*
G04 #@! TA.AperFunction,SMDPad,CuDef*
%ADD10R,3.500000X2.800000*%
G04 #@! TD*
G04 #@! TA.AperFunction,SMDPad,CuDef*
%ADD11RoundRect,0.250000X1.625000X-0.750000X1.625000X0.750000X-1.625000X0.750000X-1.625000X-0.750000X0*%
G04 #@! TD*
G04 #@! TA.AperFunction,SMDPad,CuDef*
%ADD12R,0.300000X1.300000*%
G04 #@! TD*
G04 #@! TA.AperFunction,SMDPad,CuDef*
%ADD13R,1.800000X2.200000*%
G04 #@! TD*
G04 #@! TA.AperFunction,SMDPad,CuDef*
%ADD14RoundRect,0.250000X-0.325000X-0.650000X0.325000X-0.650000X0.325000X0.650000X-0.325000X0.650000X0*%
G04 #@! TD*
G04 #@! TA.AperFunction,ComponentPad*
%ADD15C,2.400000*%
G04 #@! TD*
G04 #@! TA.AperFunction,ComponentPad*
%ADD16C,2.200000*%
G04 #@! TD*
G04 #@! TA.AperFunction,ComponentPad*
%ADD17R,2.200000X2.200000*%
G04 #@! TD*
G04 #@! TA.AperFunction,ComponentPad*
%ADD18R,2.000000X2.300000*%
G04 #@! TD*
G04 #@! TA.AperFunction,ComponentPad*
%ADD19C,2.300000*%
G04 #@! TD*
G04 #@! TA.AperFunction,ViaPad*
%ADD20C,1.000000*%
G04 #@! TD*
G04 #@! TA.AperFunction,ViaPad*
%ADD21C,0.800000*%
G04 #@! TD*
G04 #@! TA.AperFunction,Conductor*
%ADD22C,0.800000*%
G04 #@! TD*
G04 #@! TA.AperFunction,Conductor*
%ADD23C,0.500000*%
G04 #@! TD*
G04 #@! TA.AperFunction,Conductor*
%ADD24C,0.300000*%
G04 #@! TD*
G04 APERTURE END LIST*
D10*
G04 #@! TO.P,RV1,1*
G04 #@! TO.N,/L_F*
X-5500000Y-26650000D03*
G04 #@! TO.P,RV1,2*
G04 #@! TO.N,/N_SW*
X-5500000Y-17350000D03*
G04 #@! TD*
D11*
G04 #@! TO.P,F1,1*
G04 #@! TO.N,/L_SW*
X-14600000Y-27250000D03*
G04 #@! TO.P,F1,2*
G04 #@! TO.N,/L_F*
X-14600000Y-18750000D03*
G04 #@! TD*
D12*
G04 #@! TO.P,J2,1*
G04 #@! TO.N,GND*
X14250000Y-21350000D03*
G04 #@! TO.P,J2,2*
X13750000Y-21350000D03*
G04 #@! TO.P,J2,3*
X13250000Y-21350000D03*
G04 #@! TO.P,J2,4*
G04 #@! TO.N,+5V*
X12750000Y-21350000D03*
G04 #@! TO.P,J2,5*
X12250000Y-21350000D03*
G04 #@! TO.P,J2,6*
X11750000Y-21350000D03*
D13*
G04 #@! TO.P,J2,MP*
G04 #@! TO.N,N/C*
X16150000Y-18100000D03*
X9850000Y-18100000D03*
G04 #@! TD*
D14*
G04 #@! TO.P,C1,1*
G04 #@! TO.N,+5V*
X11525000Y-26000000D03*
G04 #@! TO.P,C1,2*
G04 #@! TO.N,GND*
X14475000Y-26000000D03*
G04 #@! TD*
D15*
G04 #@! TO.P,S1,1*
G04 #@! TO.N,/L_IN*
X-5100000Y19500000D03*
G04 #@! TO.P,S1,1a*
G04 #@! TO.N,/L_SW*
X-5100000Y26500000D03*
G04 #@! TO.P,S1,2*
G04 #@! TO.N,/N_IN*
X5100000Y19500000D03*
G04 #@! TO.P,S1,2a*
G04 #@! TO.N,/N_SW*
X5100000Y26500000D03*
G04 #@! TD*
D16*
G04 #@! TO.P,J1,1*
G04 #@! TO.N,/PE*
X15500000Y-100000D03*
D17*
X15500000Y8100000D03*
D16*
G04 #@! TO.P,J1,2*
G04 #@! TO.N,/N_SW*
X10500000Y-100000D03*
X10500000Y8100000D03*
G04 #@! TO.P,J1,3*
G04 #@! TO.N,/N_IN*
X5500000Y-100000D03*
X5500000Y8100000D03*
G04 #@! TO.P,J1,4*
G04 #@! TO.N,/L_SW*
X500000Y-100000D03*
X500000Y8100000D03*
G04 #@! TO.P,J1,5*
G04 #@! TO.N,/L_IN*
X-4500000Y-100000D03*
X-4500000Y8100000D03*
G04 #@! TO.P,J1,6*
G04 #@! TO.N,/PE*
X-9500000Y-100000D03*
X-9500000Y8100000D03*
G04 #@! TD*
D18*
G04 #@! TO.P,PS1,1*
G04 #@! TO.N,/L_F*
X-15240000Y-12500000D03*
D19*
G04 #@! TO.P,PS1,3*
G04 #@! TO.N,/N_SW*
X-10160000Y-12500000D03*
G04 #@! TO.P,PS1,5*
G04 #@! TO.N,unconnected-(PS1-NC-Pad5)*
X15240000Y-12500000D03*
G04 #@! TO.P,PS1,14*
G04 #@! TO.N,GND*
X15240000Y-30280000D03*
G04 #@! TO.P,PS1,16*
G04 #@! TO.N,+5V*
X10160000Y-30280000D03*
G04 #@! TD*
D20*
G04 #@! TO.N,/L_SW*
X-9000000Y-28400000D03*
X-12000000Y-28400000D03*
D21*
G04 #@! TO.N,/PE*
X-21250000Y16875000D03*
X-21250000Y-21093750D03*
X8500000Y33750000D03*
X-12250000Y-33750000D03*
X-7750000Y-33750000D03*
X5250000Y-9900000D03*
X21250000Y20655000D03*
X1250000Y-28979999D03*
X1250000Y-19440000D03*
X21250000Y-9900000D03*
X-12750000Y33750000D03*
X1250000Y-14670000D03*
X-3250000Y-33750000D03*
X21250000Y-1170000D03*
X-4250000Y33750000D03*
X1250000Y-33750000D03*
X-21250000Y-8437500D03*
X17250000Y-9900000D03*
X-21250000Y-29531250D03*
X12750000Y33750000D03*
X-21250000Y21093750D03*
X21250000Y16290000D03*
X-21250000Y25312500D03*
X17000000Y33750000D03*
X-17000000Y33750000D03*
X-21250000Y29531250D03*
X-8500000Y33750000D03*
X-16750000Y-33750000D03*
X-21250000Y12656250D03*
X21250000Y29385000D03*
X-21250000Y-25312500D03*
X1250000Y-9900000D03*
X21250000Y-5535000D03*
X4250000Y33750000D03*
X1250000Y-24210000D03*
X9250000Y-9900000D03*
X21250000Y33750000D03*
X13250000Y-9900000D03*
X-21250000Y8437500D03*
X-21250000Y-12656250D03*
X21250000Y3195000D03*
X-21250000Y4218750D03*
X-21250000Y-16875000D03*
X-21250000Y-4218750D03*
X21250000Y7560000D03*
X0Y33750000D03*
X-21250000Y0D03*
X21250000Y11925000D03*
G04 #@! TD*
D22*
G04 #@! TO.N,/L_SW*
X-14600000Y-27250000D02*
X-13418471Y-28099224D01*
X-12484653Y-28400000D02*
X-9000000Y-28400000D01*
X-13418471Y-28099224D02*
G75*
G03*
X-12484653Y-28400031I933871J1299224D01*
G01*
G04 #@! TO.N,/L_F*
X-14600000Y-18750000D02*
X-15389190Y-17368919D01*
X-14600000Y-18750000D02*
X-12455345Y-19223085D01*
X-11200000Y-20785523D02*
X-11200000Y-25050000D01*
X-15505420Y-13237277D02*
X-15240000Y-12500000D01*
X-9600000Y-26650000D02*
X-5500000Y-26650000D01*
X-15600000Y-16575096D02*
X-15600000Y-13779228D01*
X-11200000Y-25050000D02*
G75*
G03*
X-9600000Y-26650000I1600000J0D01*
G01*
X-15389190Y-17368919D02*
G75*
G02*
X-15599999Y-16575096I1389190J793819D01*
G01*
X-12455345Y-19223085D02*
G75*
G02*
X-11200023Y-20785523I-344655J-1562415D01*
G01*
X-15600000Y-13779228D02*
G75*
G02*
X-15505429Y-13237274I1600000J28D01*
G01*
G04 #@! TO.N,/N_SW*
X-5500000Y-17350000D02*
X-5500000Y-15165825D01*
X-6609751Y-13642784D02*
X-10160000Y-12500000D01*
D23*
X9000000Y-5000000D02*
X-4000000Y-5000000D01*
X10500000Y-100000D02*
X10500000Y-3500000D01*
X-5500000Y-6500000D02*
X-5500000Y-14000000D01*
X10500000Y-3500000D02*
G75*
G02*
X9000000Y-5000000I-1500000J0D01*
G01*
X-4000000Y-5000000D02*
G75*
G03*
X-5500000Y-6500000I0J-1500000D01*
G01*
D22*
X-5500000Y-15165825D02*
G75*
G03*
X-6609744Y-13642761I-1600000J25D01*
G01*
D24*
G04 #@! TO.N,+5V*
X12750000Y-22600000D02*
X12750000Y-20850000D01*
D22*
X10160000Y-30280000D02*
X10160000Y-26616500D01*
X11530000Y-26000000D02*
X11530000Y-22924000D01*
D24*
X12250000Y-22600000D02*
X12250000Y-20850000D01*
D22*
X10776500Y-26000000D02*
X11530000Y-26000000D01*
X11854000Y-22600000D02*
X12250000Y-22600000D01*
D24*
X11750000Y-22600000D02*
X11750000Y-20850000D01*
X11750000Y-22600000D02*
X12750000Y-22600000D01*
D22*
X10160000Y-26616500D02*
G75*
G02*
X10776500Y-26000000I616500J0D01*
G01*
X11530000Y-22924000D02*
G75*
G02*
X11854000Y-22600000I324000J0D01*
G01*
G04 #@! TO.N,GND*
X15240000Y-30280000D02*
X15240000Y-26346499D01*
X14893500Y-26000000D02*
X14470000Y-26000000D01*
X14470000Y-26000000D02*
X14470000Y-22924000D01*
D24*
X13750000Y-22600000D02*
X13750000Y-20850000D01*
X13250000Y-22600000D02*
X14250000Y-22600000D01*
D22*
X14146000Y-22600000D02*
X13750000Y-22600000D01*
D24*
X14250000Y-22600000D02*
X14250000Y-20850000D01*
X13250000Y-22600000D02*
X13250000Y-20850000D01*
D22*
X14470000Y-22924000D02*
G75*
G03*
X14146000Y-22600000I-324000J0D01*
G01*
X15240000Y-26346499D02*
G75*
G03*
X14893500Y-26000000I-346500J-1D01*
G01*
G04 #@! TD*
G04 #@! TA.AperFunction,Conductor*
G04 #@! TO.N,/PE*
G36*
X-10475604Y9197597D02*
G01*
X-10433640Y9193464D01*
X-10353821Y9185603D01*
X-10257892Y9166523D01*
X-10164341Y9138145D01*
X-10073971Y9100711D01*
X-9987770Y9054635D01*
X-9906437Y9000290D01*
X-9830885Y8938286D01*
X-9761715Y8869116D01*
X-9699711Y8793564D01*
X-9645366Y8712231D01*
X-9599290Y8626030D01*
X-9561855Y8535655D01*
X-9533480Y8442116D01*
X-9514398Y8346181D01*
X-9502403Y8224400D01*
X-9500000Y8175487D01*
X-9500000Y-175486D01*
X-9502403Y-224399D01*
X-9514398Y-346180D01*
X-9533480Y-442115D01*
X-9561852Y-535648D01*
X-9599290Y-626029D01*
X-9645366Y-712230D01*
X-9699711Y-793563D01*
X-9761715Y-869115D01*
X-9830885Y-938285D01*
X-9906437Y-1000289D01*
X-9987770Y-1054634D01*
X-10073971Y-1100710D01*
X-10164350Y-1138146D01*
X-10208372Y-1151500D01*
X-10257885Y-1166520D01*
X-10353820Y-1185602D01*
X-10422118Y-1192329D01*
X-10475605Y-1197597D01*
X-10524513Y-1200000D01*
X-20500000Y-1200000D01*
X-20500000Y9200000D01*
X-20000000Y9200000D01*
X-10524513Y9200000D01*
X-10475604Y9197597D01*
G37*
G04 #@! TD.AperFunction*
G04 #@! TD*
G04 #@! TA.AperFunction,Conductor*
G04 #@! TO.N,/PE*
G36*
X20500000Y-1200000D02*
G01*
X16524513Y-1200000D01*
X16475604Y-1197597D01*
X16409680Y-1191104D01*
X16353819Y-1185602D01*
X16257884Y-1166520D01*
X16164345Y-1138145D01*
X16073970Y-1100710D01*
X15987769Y-1054634D01*
X15906436Y-1000289D01*
X15830884Y-938285D01*
X15761714Y-869115D01*
X15699710Y-793563D01*
X15645365Y-712230D01*
X15599289Y-626029D01*
X15561855Y-535659D01*
X15533477Y-442108D01*
X15514397Y-346176D01*
X15502403Y-224395D01*
X15500000Y-175486D01*
X15500000Y8175487D01*
X15502403Y8224396D01*
X15514397Y8346177D01*
X15533477Y8442107D01*
X15561856Y8535664D01*
X15599289Y8626030D01*
X15645365Y8712231D01*
X15699706Y8793559D01*
X15761717Y8869120D01*
X15830880Y8938283D01*
X15906441Y9000294D01*
X15987769Y9054635D01*
X16011643Y9067397D01*
X16073973Y9100713D01*
X16164336Y9138144D01*
X16257893Y9166523D01*
X16353818Y9185603D01*
X16440809Y9194171D01*
X16475604Y9197597D01*
X16524513Y9200000D01*
X20000000Y9200000D01*
X20500000Y9200000D01*
X20500000Y-1200000D01*
G37*
G04 #@! TD.AperFunction*
G04 #@! TD*
G04 #@! TA.AperFunction,Conductor*
G04 #@! TO.N,/L_IN*
G36*
X-4344295Y7563643D02*
G01*
X-4217037Y7500572D01*
X-4112702Y7404203D01*
X-4039745Y7282344D01*
X-4008581Y7176209D01*
X-3995729Y7103320D01*
X-3995729Y7103318D01*
X-3891756Y6715286D01*
X-3891748Y6715261D01*
X-3754367Y6337812D01*
X-3754361Y6337798D01*
X-3754357Y6337788D01*
X-3584581Y5973702D01*
X-3584580Y5973701D01*
X-3584576Y5973692D01*
X-3383721Y5625801D01*
X-3153297Y5296722D01*
X-2895077Y4988986D01*
X-2611015Y4704924D01*
X-2303277Y4446703D01*
X-2303276Y4446702D01*
X-2249083Y4408755D01*
X-2145517Y4311561D01*
X-2073529Y4189126D01*
X-2038951Y4051369D01*
X-2044584Y3909451D01*
X-2089973Y3774868D01*
X-2171438Y3658524D01*
X-2249083Y3591245D01*
X-2303276Y3553299D01*
X-2303277Y3553298D01*
X-2611015Y3295077D01*
X-2895077Y3011015D01*
X-3153297Y2703279D01*
X-3383721Y2374200D01*
X-3584576Y2026309D01*
X-3584580Y2026300D01*
X-3754361Y1662203D01*
X-3754367Y1662189D01*
X-3891748Y1284740D01*
X-3891756Y1284715D01*
X-3995728Y896683D01*
X-4008581Y823791D01*
X-4052900Y688852D01*
X-4133440Y571866D01*
X-4243676Y482308D01*
X-4374679Y427436D01*
X-4515834Y411694D01*
X-4655706Y436358D01*
X-4782964Y499429D01*
X-4887298Y595799D01*
X-4960255Y717658D01*
X-4991419Y823791D01*
X-5004271Y896679D01*
X-5108245Y1284715D01*
X-5108253Y1284740D01*
X-5245634Y1662189D01*
X-5245640Y1662203D01*
X-5245643Y1662212D01*
X-5415419Y2026298D01*
X-5616281Y2374202D01*
X-5846701Y2703275D01*
X-5877759Y2740289D01*
X-5952640Y2860977D01*
X-5990486Y2997872D01*
X-5994500Y3061037D01*
X-5994500Y4938965D01*
X-5974287Y5079550D01*
X-5915286Y5208745D01*
X-5877762Y5259710D01*
X-5846701Y5296725D01*
X-5616281Y5625798D01*
X-5415419Y5973702D01*
X-5245643Y6337788D01*
X-5245634Y6337812D01*
X-5108253Y6715261D01*
X-5108245Y6715286D01*
X-5004272Y7103318D01*
X-5004271Y7103321D01*
X-4991419Y7176211D01*
X-4947101Y7311148D01*
X-4866561Y7428135D01*
X-4756324Y7517692D01*
X-4625322Y7572565D01*
X-4484167Y7588307D01*
X-4344295Y7563643D01*
G37*
G04 #@! TD.AperFunction*
G04 #@! TA.AperFunction,Conductor*
G36*
X-2475604Y21497597D02*
G01*
X-2433640Y21493464D01*
X-2353821Y21485603D01*
X-2257892Y21466523D01*
X-2164341Y21438145D01*
X-2073971Y21400711D01*
X-1987770Y21354635D01*
X-1906437Y21300290D01*
X-1830885Y21238286D01*
X-1761715Y21169116D01*
X-1699711Y21093564D01*
X-1645366Y21012231D01*
X-1599290Y20926030D01*
X-1561855Y20835655D01*
X-1533480Y20742116D01*
X-1514398Y20646181D01*
X-1502403Y20524400D01*
X-1500000Y20475487D01*
X-1500000Y12545598D01*
X-1520213Y12405013D01*
X-1579214Y12275818D01*
X-1672224Y12168479D01*
X-1749499Y12113452D01*
X-1974201Y11983721D01*
X-2303279Y11753297D01*
X-2611015Y11495077D01*
X-2895077Y11211015D01*
X-3153297Y10903279D01*
X-3383721Y10574200D01*
X-3584576Y10226309D01*
X-3584580Y10226300D01*
X-3754361Y9862203D01*
X-3754367Y9862189D01*
X-3891748Y9484740D01*
X-3891756Y9484715D01*
X-3995728Y9096683D01*
X-4008581Y9023791D01*
X-4052900Y8888852D01*
X-4133440Y8771866D01*
X-4243676Y8682308D01*
X-4374679Y8627436D01*
X-4515834Y8611694D01*
X-4655706Y8636358D01*
X-4782964Y8699429D01*
X-4887298Y8795799D01*
X-4960255Y8917658D01*
X-4991419Y9023791D01*
X-5004271Y9096679D01*
X-5108245Y9484715D01*
X-5108253Y9484740D01*
X-5245634Y9862189D01*
X-5245640Y9862203D01*
X-5245643Y9862212D01*
X-5415419Y10226298D01*
X-5616281Y10574202D01*
X-5846701Y10903275D01*
X-5846704Y10903279D01*
X-6104924Y11211015D01*
X-6388986Y11495077D01*
X-6696722Y11753297D01*
X-7025801Y11983721D01*
X-7373692Y12184576D01*
X-7373698Y12184579D01*
X-7373702Y12184581D01*
X-7737788Y12354357D01*
X-7737795Y12354360D01*
X-7737798Y12354361D01*
X-7737812Y12354367D01*
X-8115261Y12491748D01*
X-8115286Y12491756D01*
X-8503316Y12595728D01*
X-8503320Y12595729D01*
X-8503321Y12595729D01*
X-8587654Y12610600D01*
X-8722592Y12654918D01*
X-8839578Y12735459D01*
X-8929135Y12845696D01*
X-8984007Y12976698D01*
X-9000000Y13102018D01*
X-9000000Y20475487D01*
X-8997597Y20524396D01*
X-8985603Y20646177D01*
X-8985602Y20646181D01*
X-8966523Y20742107D01*
X-8938144Y20835664D01*
X-8900711Y20926030D01*
X-8854635Y21012231D01*
X-8800294Y21093559D01*
X-8738283Y21169120D01*
X-8669120Y21238283D01*
X-8593559Y21300294D01*
X-8512231Y21354635D01*
X-8488357Y21367397D01*
X-8426027Y21400713D01*
X-8335664Y21438144D01*
X-8242107Y21466523D01*
X-8146182Y21485603D01*
X-8059191Y21494171D01*
X-8024396Y21497597D01*
X-7975487Y21500000D01*
X-2524513Y21500000D01*
X-2475604Y21497597D01*
G37*
G04 #@! TD.AperFunction*
G04 #@! TD*
G04 #@! TA.AperFunction,Conductor*
G04 #@! TO.N,/N_IN*
G36*
X5655705Y7563643D02*
G01*
X5782963Y7500572D01*
X5887298Y7404203D01*
X5960255Y7282344D01*
X5991419Y7176209D01*
X6004271Y7103320D01*
X6004271Y7103318D01*
X6108244Y6715286D01*
X6108252Y6715261D01*
X6245633Y6337812D01*
X6245639Y6337798D01*
X6245643Y6337788D01*
X6415419Y5973702D01*
X6415420Y5973701D01*
X6415424Y5973692D01*
X6616279Y5625801D01*
X6846703Y5296722D01*
X7104923Y4988986D01*
X7388985Y4704924D01*
X7696723Y4446703D01*
X7696724Y4446702D01*
X7750917Y4408755D01*
X7854483Y4311561D01*
X7926471Y4189126D01*
X7961049Y4051369D01*
X7955416Y3909451D01*
X7910027Y3774868D01*
X7828562Y3658524D01*
X7750917Y3591245D01*
X7696724Y3553299D01*
X7696723Y3553298D01*
X7388985Y3295077D01*
X7104923Y3011015D01*
X6846703Y2703279D01*
X6616279Y2374200D01*
X6415424Y2026309D01*
X6415420Y2026300D01*
X6245639Y1662203D01*
X6245633Y1662189D01*
X6108252Y1284740D01*
X6108244Y1284715D01*
X6004272Y896683D01*
X5991419Y823791D01*
X5947100Y688852D01*
X5866560Y571866D01*
X5756324Y482308D01*
X5625321Y427436D01*
X5484166Y411694D01*
X5344294Y436358D01*
X5217036Y499429D01*
X5112702Y595799D01*
X5039745Y717658D01*
X5008581Y823791D01*
X4995729Y896679D01*
X4891755Y1284715D01*
X4891747Y1284740D01*
X4754366Y1662189D01*
X4754360Y1662203D01*
X4754357Y1662212D01*
X4584581Y2026298D01*
X4383719Y2374202D01*
X4153299Y2703275D01*
X4092651Y2775553D01*
X3895076Y3011015D01*
X3611014Y3295077D01*
X3303276Y3553298D01*
X3303275Y3553299D01*
X3249083Y3591245D01*
X3145518Y3688436D01*
X3073529Y3810871D01*
X3038950Y3948627D01*
X3044583Y4090546D01*
X3089970Y4225129D01*
X3171435Y4341473D01*
X3249085Y4408757D01*
X3303275Y4446701D01*
X3611014Y4704924D01*
X3895076Y4988986D01*
X4153299Y5296725D01*
X4383719Y5625798D01*
X4584581Y5973702D01*
X4754357Y6337788D01*
X4754366Y6337812D01*
X4891747Y6715261D01*
X4891755Y6715286D01*
X4995728Y7103318D01*
X4995729Y7103321D01*
X5008581Y7176211D01*
X5052899Y7311148D01*
X5133439Y7428135D01*
X5243676Y7517692D01*
X5374678Y7572565D01*
X5515833Y7588307D01*
X5655705Y7563643D01*
G37*
G04 #@! TD.AperFunction*
G04 #@! TA.AperFunction,Conductor*
G36*
X7524396Y21497597D02*
G01*
X7566360Y21493464D01*
X7646179Y21485603D01*
X7742108Y21466523D01*
X7835659Y21438145D01*
X7926029Y21400711D01*
X8012230Y21354635D01*
X8093563Y21300290D01*
X8169115Y21238286D01*
X8238285Y21169116D01*
X8300289Y21093564D01*
X8354634Y21012231D01*
X8400710Y20926030D01*
X8438144Y20835658D01*
X8466519Y20742118D01*
X8466520Y20742116D01*
X8485602Y20646181D01*
X8497597Y20524400D01*
X8500000Y20475487D01*
X8500000Y12545598D01*
X8479787Y12405013D01*
X8420786Y12275818D01*
X8327776Y12168479D01*
X8250501Y12113452D01*
X8025799Y11983721D01*
X7696721Y11753297D01*
X7388985Y11495077D01*
X7104923Y11211015D01*
X6846703Y10903279D01*
X6616279Y10574200D01*
X6415424Y10226309D01*
X6415420Y10226300D01*
X6245639Y9862203D01*
X6245633Y9862189D01*
X6108252Y9484740D01*
X6108244Y9484715D01*
X6004272Y9096683D01*
X5991419Y9023791D01*
X5947100Y8888852D01*
X5866560Y8771866D01*
X5756324Y8682308D01*
X5625321Y8627436D01*
X5484166Y8611694D01*
X5344294Y8636358D01*
X5217036Y8699429D01*
X5112702Y8795799D01*
X5039745Y8917658D01*
X5008581Y9023791D01*
X4995729Y9096679D01*
X4891755Y9484715D01*
X4891747Y9484740D01*
X4754366Y9862189D01*
X4754360Y9862203D01*
X4754357Y9862212D01*
X4584581Y10226298D01*
X4383719Y10574202D01*
X4153299Y10903275D01*
X4153296Y10903279D01*
X3895076Y11211015D01*
X3611014Y11495077D01*
X3303278Y11753297D01*
X2974199Y11983721D01*
X2626308Y12184576D01*
X2626289Y12184586D01*
X2293613Y12339715D01*
X2174743Y12417448D01*
X2082587Y12525521D01*
X2024613Y12655181D01*
X2005500Y12791962D01*
X2005500Y20475501D01*
X2004673Y20509152D01*
X2006924Y20570300D01*
X2014399Y20646195D01*
X2033480Y20742116D01*
X2061855Y20835658D01*
X2099289Y20926030D01*
X2145365Y21012231D01*
X2199706Y21093559D01*
X2261717Y21169120D01*
X2330880Y21238283D01*
X2406441Y21300294D01*
X2487769Y21354635D01*
X2511643Y21367397D01*
X2573973Y21400713D01*
X2664336Y21438144D01*
X2757893Y21466523D01*
X2853818Y21485603D01*
X2940809Y21494171D01*
X2975604Y21497597D01*
X3024513Y21500000D01*
X7475487Y21500000D01*
X7524396Y21497597D01*
G37*
G04 #@! TD.AperFunction*
G04 #@! TD*
G04 #@! TA.AperFunction,Conductor*
G04 #@! TO.N,GND*
G36*
X13820294Y-13020213D02*
G01*
X13949489Y-13079214D01*
X14056828Y-13172224D01*
X14083409Y-13205696D01*
X14084948Y-13207814D01*
X14084949Y-13207816D01*
X14209896Y-13379792D01*
X14209898Y-13379794D01*
X14209902Y-13379799D01*
X14360201Y-13530098D01*
X14360205Y-13530101D01*
X14360208Y-13530104D01*
X14532184Y-13655051D01*
X14721588Y-13751557D01*
X14721593Y-13751558D01*
X14721596Y-13751560D01*
X14923746Y-13817243D01*
X14923753Y-13817244D01*
X14923757Y-13817246D01*
X14923759Y-13817246D01*
X14923762Y-13817247D01*
X15133713Y-13850500D01*
X15346287Y-13850500D01*
X15556237Y-13817247D01*
X15556237Y-13817246D01*
X15556243Y-13817246D01*
X15556249Y-13817243D01*
X15556253Y-13817243D01*
X15758403Y-13751560D01*
X15758403Y-13751559D01*
X15758412Y-13751557D01*
X15947816Y-13655051D01*
X16119792Y-13530104D01*
X16119796Y-13530099D01*
X16119799Y-13530098D01*
X16270098Y-13379799D01*
X16270099Y-13379796D01*
X16270104Y-13379792D01*
X16395051Y-13207816D01*
X16395051Y-13207814D01*
X16396591Y-13205696D01*
X16495577Y-13103842D01*
X16619249Y-13034000D01*
X16757588Y-13001831D01*
X16800291Y-13000000D01*
X18475487Y-13000000D01*
X18524396Y-13002403D01*
X18566360Y-13006536D01*
X18646179Y-13014397D01*
X18742108Y-13033477D01*
X18835659Y-13061855D01*
X18926029Y-13099289D01*
X19012230Y-13145365D01*
X19093563Y-13199710D01*
X19169115Y-13261714D01*
X19238285Y-13330884D01*
X19300289Y-13406436D01*
X19354634Y-13487769D01*
X19400710Y-13573970D01*
X19438145Y-13664345D01*
X19464600Y-13751556D01*
X19466520Y-13757884D01*
X19485602Y-13853819D01*
X19497597Y-13975600D01*
X19500000Y-14024513D01*
X19500000Y-30939507D01*
X19479787Y-31080092D01*
X19420786Y-31209287D01*
X19330014Y-31314674D01*
X19055460Y-31555452D01*
X19055458Y-31555454D01*
X19055456Y-31555456D01*
X18989644Y-31630500D01*
X18818278Y-31825905D01*
X18618430Y-32124998D01*
X18459331Y-32447619D01*
X18459330Y-32447622D01*
X18343704Y-32788243D01*
X18343702Y-32788250D01*
X18282020Y-33098350D01*
X18234769Y-33232290D01*
X18151696Y-33347492D01*
X18039533Y-33434623D01*
X17907365Y-33486625D01*
X17792608Y-33500000D01*
X8024513Y-33500000D01*
X7975604Y-33497597D01*
X7909680Y-33491104D01*
X7853819Y-33485602D01*
X7757884Y-33466520D01*
X7664345Y-33438145D01*
X7573970Y-33400710D01*
X7487769Y-33354634D01*
X7406436Y-33300289D01*
X7330884Y-33238285D01*
X7261714Y-33169115D01*
X7199710Y-33093563D01*
X7145365Y-33012230D01*
X7099289Y-32926029D01*
X7061855Y-32835659D01*
X7033477Y-32742108D01*
X7014397Y-32646176D01*
X7002403Y-32524395D01*
X7000000Y-32475486D01*
X7000000Y-30173712D01*
X8809500Y-30173712D01*
X8809500Y-30386287D01*
X8842752Y-30596237D01*
X8842756Y-30596253D01*
X8908439Y-30798403D01*
X8908442Y-30798409D01*
X8908443Y-30798412D01*
X8911646Y-30804698D01*
X9003498Y-30984970D01*
X9004949Y-30987816D01*
X9129896Y-31159792D01*
X9129898Y-31159794D01*
X9129902Y-31159799D01*
X9280201Y-31310098D01*
X9280205Y-31310101D01*
X9280208Y-31310104D01*
X9452184Y-31435051D01*
X9641588Y-31531557D01*
X9641593Y-31531558D01*
X9641596Y-31531560D01*
X9843746Y-31597243D01*
X9843753Y-31597244D01*
X9843757Y-31597246D01*
X9843759Y-31597246D01*
X9843762Y-31597247D01*
X10053713Y-31630500D01*
X10266287Y-31630500D01*
X10476237Y-31597247D01*
X10476237Y-31597246D01*
X10476243Y-31597246D01*
X10476249Y-31597243D01*
X10476253Y-31597243D01*
X10678403Y-31531560D01*
X10678403Y-31531559D01*
X10678412Y-31531557D01*
X10867816Y-31435051D01*
X11039792Y-31310104D01*
X11039796Y-31310099D01*
X11039799Y-31310098D01*
X11190098Y-31159799D01*
X11190099Y-31159796D01*
X11190104Y-31159792D01*
X11315051Y-30987816D01*
X11411557Y-30798412D01*
X11444391Y-30697359D01*
X11477243Y-30596253D01*
X11477243Y-30596249D01*
X11477246Y-30596243D01*
X11510500Y-30386287D01*
X11510500Y-30173713D01*
X11506767Y-30150142D01*
X13590000Y-30150142D01*
X13590000Y-30409857D01*
X13630629Y-30666376D01*
X13630630Y-30666382D01*
X13710883Y-30913377D01*
X13828794Y-31144789D01*
X13981450Y-31354903D01*
X14165096Y-31538549D01*
X14375210Y-31691205D01*
X14606622Y-31809116D01*
X14853617Y-31889369D01*
X14853623Y-31889370D01*
X15110143Y-31930000D01*
X15369857Y-31930000D01*
X15626376Y-31889370D01*
X15626382Y-31889369D01*
X15873377Y-31809116D01*
X16104789Y-31691205D01*
X16314903Y-31538549D01*
X16498549Y-31354903D01*
X16651205Y-31144789D01*
X16769116Y-30913377D01*
X16849369Y-30666382D01*
X16849370Y-30666376D01*
X16890000Y-30409857D01*
X16890000Y-30150142D01*
X16849370Y-29893623D01*
X16849369Y-29893617D01*
X16769116Y-29646622D01*
X16651205Y-29415210D01*
X16498549Y-29205096D01*
X16314903Y-29021450D01*
X16104789Y-28868794D01*
X15873377Y-28750883D01*
X15626382Y-28670630D01*
X15626376Y-28670629D01*
X15369857Y-28630000D01*
X15110143Y-28630000D01*
X14853623Y-28670629D01*
X14853617Y-28670630D01*
X14606622Y-28750883D01*
X14375210Y-28868794D01*
X14165096Y-29021450D01*
X13981450Y-29205096D01*
X13828794Y-29415210D01*
X13710883Y-29646622D01*
X13630630Y-29893617D01*
X13630629Y-29893623D01*
X13590000Y-30150142D01*
X11506767Y-30150142D01*
X11477246Y-29963757D01*
X11477244Y-29963753D01*
X11477243Y-29963746D01*
X11411560Y-29761596D01*
X11411558Y-29761593D01*
X11411557Y-29761588D01*
X11315051Y-29572184D01*
X11190104Y-29400208D01*
X11190101Y-29400205D01*
X11190098Y-29400201D01*
X11039799Y-29249902D01*
X11039794Y-29249898D01*
X11039792Y-29249896D01*
X10978130Y-29205096D01*
X10966193Y-29196423D01*
X10864339Y-29097436D01*
X10794499Y-28973764D01*
X10762330Y-28835424D01*
X10760500Y-28792725D01*
X10760500Y-27599500D01*
X10780713Y-27458915D01*
X10839714Y-27329720D01*
X10932724Y-27222381D01*
X11052208Y-27145594D01*
X11188485Y-27105579D01*
X11259500Y-27100500D01*
X11904265Y-27100500D01*
X11904266Y-27100500D01*
X11934699Y-27097646D01*
X12062882Y-27052793D01*
X12172150Y-26972150D01*
X12252793Y-26862882D01*
X12297646Y-26734699D01*
X12300500Y-26704266D01*
X12300500Y-25300022D01*
X13400000Y-25300022D01*
X13400000Y-26699971D01*
X13410494Y-26802695D01*
X13410496Y-26802705D01*
X13465640Y-26969119D01*
X13557683Y-27118344D01*
X13681655Y-27242316D01*
X13830877Y-27334357D01*
X13997305Y-27389505D01*
X14100022Y-27399999D01*
X14849971Y-27399999D01*
X14952695Y-27389505D01*
X14952705Y-27389503D01*
X15119119Y-27334359D01*
X15268344Y-27242316D01*
X15392316Y-27118344D01*
X15484357Y-26969122D01*
X15539505Y-26802694D01*
X15549999Y-26699977D01*
X15549999Y-25300028D01*
X15539505Y-25197304D01*
X15539503Y-25197294D01*
X15484359Y-25030880D01*
X15392316Y-24881655D01*
X15268344Y-24757683D01*
X15119122Y-24665642D01*
X14952694Y-24610494D01*
X14849977Y-24600000D01*
X14100028Y-24600000D01*
X13997304Y-24610494D01*
X13997294Y-24610496D01*
X13830880Y-24665640D01*
X13681655Y-24757683D01*
X13557683Y-24881655D01*
X13465642Y-25030877D01*
X13410494Y-25197305D01*
X13400000Y-25300022D01*
X12300500Y-25300022D01*
X12300500Y-25295734D01*
X12297646Y-25265301D01*
X12252793Y-25137118D01*
X12252791Y-25137115D01*
X12252791Y-25137114D01*
X12228003Y-25103527D01*
X12160785Y-24978409D01*
X12131541Y-24839423D01*
X12130500Y-24807215D01*
X12130500Y-23636599D01*
X12150713Y-23496014D01*
X12209714Y-23366819D01*
X12302724Y-23259480D01*
X12368229Y-23211466D01*
X12430148Y-23173412D01*
X12481784Y-23159577D01*
X12618716Y-23080520D01*
X12678372Y-23020863D01*
X12728412Y-22990111D01*
X12740224Y-22985001D01*
X12750532Y-22977285D01*
X12851630Y-22936810D01*
X12858769Y-22933723D01*
X12859599Y-22933620D01*
X12860530Y-22933247D01*
X12885288Y-22926614D01*
X12965212Y-22880469D01*
X13030469Y-22815212D01*
X13069863Y-22746979D01*
X13099147Y-22709741D01*
X13124747Y-22669870D01*
X13142847Y-22654172D01*
X13157658Y-22635339D01*
X13196255Y-22607853D01*
X13232046Y-22576814D01*
X13253832Y-22566853D01*
X13273352Y-22552953D01*
X13318130Y-22537455D01*
X13361216Y-22517756D01*
X13379885Y-22516081D01*
X13407571Y-22506500D01*
X13501792Y-22497482D01*
X13999784Y-22497266D01*
X14019758Y-22500129D01*
X14038779Y-22500129D01*
X14038824Y-22499284D01*
X14052180Y-22500000D01*
X14447825Y-22500000D01*
X14507374Y-22493597D01*
X14642089Y-22443352D01*
X14642090Y-22443351D01*
X14757188Y-22357188D01*
X14843351Y-22242090D01*
X14843352Y-22242089D01*
X14893597Y-22107374D01*
X14900000Y-22047824D01*
X14900000Y-20652175D01*
X14893597Y-20592625D01*
X14843352Y-20457910D01*
X14843351Y-20457909D01*
X14757188Y-20342811D01*
X14642090Y-20256648D01*
X14642089Y-20256647D01*
X14507374Y-20206402D01*
X14447825Y-20200000D01*
X14052171Y-20200000D01*
X14038836Y-20200715D01*
X14038832Y-20200653D01*
X14000000Y-20202733D01*
X13500000Y-20202733D01*
X13480143Y-20199878D01*
X13461209Y-20199878D01*
X13461164Y-20200715D01*
X13447829Y-20200000D01*
X13052175Y-20200000D01*
X12992625Y-20206402D01*
X12857910Y-20256647D01*
X12857909Y-20256648D01*
X12742808Y-20342813D01*
X12732276Y-20353346D01*
X12692778Y-20382913D01*
X12656018Y-20415831D01*
X12636174Y-20425287D01*
X12618575Y-20438462D01*
X12572342Y-20455705D01*
X12527802Y-20476931D01*
X12506917Y-20480107D01*
X12485500Y-20488096D01*
X12387566Y-20499434D01*
X12383518Y-20499500D01*
X12080252Y-20499500D01*
X12053171Y-20504886D01*
X12008136Y-20505621D01*
X11981899Y-20502284D01*
X11955493Y-20503698D01*
X11940542Y-20501548D01*
X11919750Y-20499500D01*
X11919748Y-20499500D01*
X11580252Y-20499500D01*
X11580245Y-20499500D01*
X11521771Y-20511131D01*
X11521767Y-20511133D01*
X11455448Y-20555447D01*
X11455447Y-20555448D01*
X11411133Y-20621767D01*
X11411131Y-20621771D01*
X11399500Y-20680245D01*
X11399500Y-21865835D01*
X11379287Y-22006420D01*
X11320286Y-22135615D01*
X11227276Y-22242954D01*
X11221253Y-22248089D01*
X11197783Y-22267782D01*
X11197781Y-22267784D01*
X11093804Y-22391697D01*
X11093800Y-22391702D01*
X11012918Y-22531795D01*
X11012917Y-22531797D01*
X10957592Y-22683801D01*
X10957589Y-22683811D01*
X10929500Y-22843113D01*
X10929500Y-24793666D01*
X10920318Y-24857528D01*
X10912815Y-24921625D01*
X10910370Y-24926718D01*
X10909287Y-24934251D01*
X10857227Y-25052326D01*
X10845465Y-25071729D01*
X10797207Y-25137118D01*
X10785430Y-25170773D01*
X10758388Y-25215387D01*
X10746081Y-25230366D01*
X10737138Y-25247570D01*
X10701182Y-25285020D01*
X10668230Y-25325132D01*
X10652200Y-25336038D01*
X10638773Y-25350025D01*
X10593727Y-25375826D01*
X10550805Y-25405032D01*
X10532350Y-25410981D01*
X10515528Y-25420617D01*
X10485861Y-25431304D01*
X10309333Y-25488661D01*
X10138650Y-25575628D01*
X9983678Y-25688222D01*
X9983671Y-25688228D01*
X9848228Y-25823671D01*
X9848222Y-25823678D01*
X9735628Y-25978650D01*
X9648661Y-26149334D01*
X9589467Y-26331514D01*
X9589465Y-26331523D01*
X9559500Y-26520721D01*
X9559500Y-28792725D01*
X9539287Y-28933310D01*
X9480286Y-29062505D01*
X9387276Y-29169844D01*
X9353807Y-29196423D01*
X9280205Y-29249898D01*
X9129898Y-29400205D01*
X9004950Y-29572182D01*
X9004944Y-29572192D01*
X8908443Y-29761588D01*
X8908439Y-29761596D01*
X8842756Y-29963746D01*
X8842752Y-29963762D01*
X8809500Y-30173712D01*
X7000000Y-30173712D01*
X7000000Y-16980245D01*
X8749500Y-16980245D01*
X8749500Y-19219754D01*
X8761131Y-19278228D01*
X8761133Y-19278232D01*
X8805447Y-19344551D01*
X8805448Y-19344552D01*
X8871767Y-19388866D01*
X8871771Y-19388868D01*
X8930245Y-19400499D01*
X8930248Y-19400499D01*
X8930252Y-19400500D01*
X8930256Y-19400500D01*
X10769744Y-19400500D01*
X10769748Y-19400500D01*
X10769752Y-19400499D01*
X10769754Y-19400499D01*
X10828228Y-19388868D01*
X10828229Y-19388867D01*
X10828231Y-19388867D01*
X10894552Y-19344552D01*
X10938867Y-19278231D01*
X10950500Y-19219748D01*
X10950500Y-16980252D01*
X10950499Y-16980245D01*
X15049500Y-16980245D01*
X15049500Y-19219754D01*
X15061131Y-19278228D01*
X15061133Y-19278232D01*
X15105447Y-19344551D01*
X15105448Y-19344552D01*
X15171767Y-19388866D01*
X15171771Y-19388868D01*
X15230245Y-19400499D01*
X15230248Y-19400499D01*
X15230252Y-19400500D01*
X15230256Y-19400500D01*
X17069744Y-19400500D01*
X17069748Y-19400500D01*
X17069752Y-19400499D01*
X17069754Y-19400499D01*
X17128228Y-19388868D01*
X17128229Y-19388867D01*
X17128231Y-19388867D01*
X17194552Y-19344552D01*
X17238867Y-19278231D01*
X17250500Y-19219748D01*
X17250500Y-16980252D01*
X17250499Y-16980245D01*
X17238868Y-16921771D01*
X17238866Y-16921767D01*
X17194552Y-16855448D01*
X17194551Y-16855447D01*
X17128232Y-16811133D01*
X17128228Y-16811131D01*
X17069754Y-16799500D01*
X17069748Y-16799500D01*
X15230252Y-16799500D01*
X15230245Y-16799500D01*
X15171771Y-16811131D01*
X15171767Y-16811133D01*
X15105448Y-16855447D01*
X15105447Y-16855448D01*
X15061133Y-16921767D01*
X15061131Y-16921771D01*
X15049500Y-16980245D01*
X10950499Y-16980245D01*
X10938868Y-16921771D01*
X10938866Y-16921767D01*
X10894552Y-16855448D01*
X10894551Y-16855447D01*
X10828232Y-16811133D01*
X10828228Y-16811131D01*
X10769754Y-16799500D01*
X10769748Y-16799500D01*
X8930252Y-16799500D01*
X8930245Y-16799500D01*
X8871771Y-16811131D01*
X8871767Y-16811133D01*
X8805448Y-16855447D01*
X8805447Y-16855448D01*
X8761133Y-16921767D01*
X8761131Y-16921771D01*
X8749500Y-16980245D01*
X7000000Y-16980245D01*
X7000000Y-14024513D01*
X7002403Y-13975604D01*
X7014397Y-13853823D01*
X7033477Y-13757893D01*
X7061856Y-13664336D01*
X7099289Y-13573970D01*
X7131202Y-13514266D01*
X7215301Y-13399811D01*
X7328239Y-13313686D01*
X7460867Y-13262868D01*
X7571277Y-13250500D01*
X9294627Y-13250500D01*
X9294632Y-13250500D01*
X9882815Y-13214921D01*
X10467776Y-13143893D01*
X10732106Y-13095452D01*
X11047363Y-13037681D01*
X11047366Y-13037680D01*
X11047367Y-13037679D01*
X11047382Y-13037677D01*
X11141416Y-13014499D01*
X11260833Y-13000000D01*
X13679709Y-13000000D01*
X13820294Y-13020213D01*
G37*
G04 #@! TD.AperFunction*
G04 #@! TD*
G04 #@! TA.AperFunction,Conductor*
G04 #@! TO.N,/PE*
G36*
X-16271211Y33948391D02*
G01*
X-16250503Y33569084D01*
X-16260171Y33189336D01*
X-16300153Y32811574D01*
X-16358603Y32500000D01*
X-16363477Y32474019D01*
X-16365420Y32464204D01*
X-16368774Y32448112D01*
X-16373227Y32428697D01*
X-16377226Y32412730D01*
X-16379751Y32403059D01*
X-16458041Y32115070D01*
X-16460755Y32105466D01*
X-16467799Y32081462D01*
X-16473804Y32062417D01*
X-16481794Y32038740D01*
X-16485074Y32029334D01*
X-16562783Y31813385D01*
X-16562785Y31813377D01*
X-16583228Y31756570D01*
X-16586704Y31747207D01*
X-16595654Y31723817D01*
X-16603152Y31705337D01*
X-16613009Y31682371D01*
X-16617026Y31673264D01*
X-16650661Y31599026D01*
X-16652317Y31595371D01*
X-16736668Y31409206D01*
X-16740877Y31400157D01*
X-16751654Y31377584D01*
X-16760604Y31359763D01*
X-16772291Y31337607D01*
X-16777041Y31328816D01*
X-16917375Y31075213D01*
X-16922301Y31066517D01*
X-16934850Y31044874D01*
X-16945193Y31027831D01*
X-16958633Y31006649D01*
X-16964054Y30998293D01*
X-17017907Y30917056D01*
X-17124178Y30756753D01*
X-17129768Y30748500D01*
X-17144029Y30727894D01*
X-17155727Y30711696D01*
X-17170786Y30691698D01*
X-17176859Y30683798D01*
X-17355794Y30455797D01*
X-17362024Y30448019D01*
X-17377873Y30428634D01*
X-17390827Y30413423D01*
X-17407418Y30394712D01*
X-17414107Y30387318D01*
X-17610723Y30174308D01*
X-17617566Y30167042D01*
X-17634888Y30149013D01*
X-17649002Y30134899D01*
X-17667048Y30117561D01*
X-17674311Y30110721D01*
X-17887317Y29914108D01*
X-17894709Y29907420D01*
X-17913421Y29890828D01*
X-17928634Y29877873D01*
X-17948019Y29862024D01*
X-17955797Y29855794D01*
X-18183798Y29676859D01*
X-18191698Y29670786D01*
X-18211696Y29655727D01*
X-18227894Y29644029D01*
X-18248500Y29629768D01*
X-18256753Y29624178D01*
X-18498271Y29464067D01*
X-18506649Y29458633D01*
X-18527831Y29445193D01*
X-18544874Y29434850D01*
X-18566517Y29422301D01*
X-18575213Y29417375D01*
X-18828816Y29277041D01*
X-18837591Y29272299D01*
X-18859728Y29260621D01*
X-18877595Y29251649D01*
X-18900174Y29240871D01*
X-18909192Y29236676D01*
X-19173225Y29117043D01*
X-19182366Y29113011D01*
X-19205333Y29103154D01*
X-19223818Y29095654D01*
X-19247236Y29086694D01*
X-19256547Y29083238D01*
X-19489820Y28999292D01*
X-19529298Y28985085D01*
X-19538723Y28981800D01*
X-19562432Y28973800D01*
X-19581467Y28967798D01*
X-19605482Y28960751D01*
X-19615083Y28958038D01*
X-19903077Y28879747D01*
X-19912725Y28877227D01*
X-19928677Y28873231D01*
X-19948119Y28868772D01*
X-19964257Y28865410D01*
X-19974019Y28863477D01*
X-20000000Y28858604D01*
X-20000000Y28858603D01*
X-20311574Y28800153D01*
X-20689336Y28760171D01*
X-21069084Y28750503D01*
X-21448391Y28771211D01*
X-21824829Y28822164D01*
X-21476625Y30796935D01*
X-21358953Y30773528D01*
X-21358948Y30773527D01*
X-21000000Y30750000D01*
X-20641053Y30773527D01*
X-20288248Y30843704D01*
X-19947621Y30959332D01*
X-19625000Y31118431D01*
X-19325907Y31318279D01*
X-19055457Y31555457D01*
X-18818279Y31825907D01*
X-18618431Y32125000D01*
X-18459332Y32447621D01*
X-18343704Y32788248D01*
X-18273527Y33141053D01*
X-18250000Y33500000D01*
X-18273527Y33858948D01*
X-18296935Y33976625D01*
X-16322164Y34324829D01*
X-16271211Y33948391D01*
G37*
G04 #@! TD.AperFunction*
G04 #@! TD*
G04 #@! TA.AperFunction,Conductor*
G04 #@! TO.N,/PE*
G36*
X22121525Y22169151D02*
G01*
X22253065Y22115581D01*
X22364184Y22027121D01*
X22445881Y21910939D01*
X22491535Y21776446D01*
X22500000Y21684925D01*
X22500000Y-9875486D01*
X22497597Y-9924399D01*
X22485602Y-10046180D01*
X22466520Y-10142115D01*
X22438148Y-10235648D01*
X22400710Y-10326029D01*
X22354634Y-10412230D01*
X22300289Y-10493563D01*
X22238285Y-10569115D01*
X22169115Y-10638285D01*
X22093563Y-10700289D01*
X22012230Y-10754634D01*
X21926029Y-10800710D01*
X21835650Y-10838146D01*
X21791628Y-10851500D01*
X21742115Y-10866520D01*
X21646180Y-10885602D01*
X21577882Y-10892329D01*
X21524395Y-10897597D01*
X21475487Y-10900000D01*
X5328720Y-10900000D01*
X5188135Y-10879787D01*
X5058940Y-10820786D01*
X4992944Y-10767602D01*
X4992420Y-10768217D01*
X4977508Y-10755481D01*
X4786440Y-10616662D01*
X4786438Y-10616661D01*
X4786433Y-10616657D01*
X4786430Y-10616655D01*
X4786428Y-10616654D01*
X4575996Y-10509434D01*
X4575995Y-10509433D01*
X4575992Y-10509432D01*
X4575987Y-10509430D01*
X4575979Y-10509427D01*
X4351373Y-10436448D01*
X4351367Y-10436446D01*
X4118092Y-10399500D01*
X3881908Y-10399500D01*
X3648632Y-10436446D01*
X3648626Y-10436448D01*
X3424020Y-10509427D01*
X3424003Y-10509434D01*
X3213571Y-10616654D01*
X3213559Y-10616662D01*
X3022491Y-10755481D01*
X3007580Y-10768217D01*
X3006545Y-10767006D01*
X2910425Y-10838962D01*
X2777350Y-10888596D01*
X2671280Y-10900000D01*
X2500000Y-10900000D01*
X2500000Y-11755949D01*
X2499500Y-11768675D01*
X2499500Y-33980562D01*
X2497097Y-34029475D01*
X2485602Y-34146181D01*
X2466519Y-34242117D01*
X2438147Y-34335649D01*
X2400710Y-34426029D01*
X2354634Y-34512230D01*
X2300289Y-34593563D01*
X2238285Y-34669115D01*
X2169115Y-34738285D01*
X2093563Y-34800289D01*
X2012230Y-34854634D01*
X1926029Y-34900710D01*
X1835650Y-34938146D01*
X1791628Y-34951500D01*
X1742115Y-34966520D01*
X1646180Y-34985602D01*
X1577882Y-34992329D01*
X1524395Y-34997597D01*
X1475487Y-35000000D01*
X-17914925Y-35000000D01*
X-18055510Y-34979787D01*
X-18184705Y-34920786D01*
X-18292044Y-34827776D01*
X-18368831Y-34708292D01*
X-18408846Y-34572015D01*
X-18408846Y-34429985D01*
X-18387442Y-34340600D01*
X-18343708Y-34211763D01*
X-18343704Y-34211752D01*
X-18273527Y-33858947D01*
X-18250000Y-33500000D01*
X-18273527Y-33141052D01*
X-18273528Y-33141046D01*
X-18273529Y-33141039D01*
X-18282418Y-33096352D01*
X-18290021Y-32954525D01*
X-18257359Y-32816302D01*
X-18187077Y-32692879D01*
X-18084870Y-32594257D01*
X-17959019Y-32528425D01*
X-17819718Y-32500715D01*
X-17793007Y-32500000D01*
X0Y-32500000D01*
X0Y-9924513D01*
X2403Y-9875604D01*
X14397Y-9753823D01*
X33477Y-9657893D01*
X61856Y-9564336D01*
X99289Y-9473970D01*
X145365Y-9387769D01*
X199706Y-9306441D01*
X261717Y-9230880D01*
X330880Y-9161717D01*
X406441Y-9099706D01*
X487769Y-9045365D01*
X511643Y-9032603D01*
X573973Y-8999287D01*
X664336Y-8961856D01*
X757893Y-8933477D01*
X853818Y-8914397D01*
X940809Y-8905829D01*
X975604Y-8902403D01*
X1024513Y-8900000D01*
X20000000Y-8900000D01*
X20000000Y-1200000D01*
X20500000Y-1200000D01*
X20500000Y9200000D01*
X20000000Y9200000D01*
X20000000Y20137956D01*
X20448558Y20052118D01*
X21138152Y20022010D01*
X21824828Y20092164D01*
X21476622Y22066935D01*
X21711752Y22113704D01*
X21775402Y22135311D01*
X21840600Y22157442D01*
X21980221Y22183492D01*
X22121525Y22169151D01*
G37*
G04 #@! TD.AperFunction*
G04 #@! TA.AperFunction,Conductor*
G36*
X-21840604Y30887443D02*
G01*
X-21711753Y30843704D01*
X-21476624Y30796935D01*
X-21824829Y28822164D01*
X-21448391Y28771211D01*
X-21069084Y28750503D01*
X-20689336Y28760171D01*
X-20311574Y28800153D01*
X-20000000Y28858603D01*
X-20000000Y9200000D01*
X-20500000Y9200000D01*
X-20500000Y-1200000D01*
X-20000000Y-1200000D01*
X-20000000Y-30293005D01*
X-20020213Y-30433590D01*
X-20079214Y-30562785D01*
X-20172224Y-30670124D01*
X-20291708Y-30746911D01*
X-20427985Y-30786926D01*
X-20570015Y-30786926D01*
X-20596343Y-30782418D01*
X-20641044Y-30773527D01*
X-20641050Y-30773526D01*
X-20641053Y-30773526D01*
X-21000000Y-30750000D01*
X-21000001Y-30750000D01*
X-21034996Y-30752293D01*
X-21358948Y-30773526D01*
X-21358953Y-30773526D01*
X-21358954Y-30773527D01*
X-21711750Y-30843702D01*
X-21711762Y-30843705D01*
X-21840602Y-30887441D01*
X-21980223Y-30913490D01*
X-22121527Y-30899148D01*
X-22253067Y-30845577D01*
X-22364186Y-30757118D01*
X-22445882Y-30640935D01*
X-22491536Y-30506442D01*
X-22500000Y-30414923D01*
X-22500000Y30414925D01*
X-22479787Y30555510D01*
X-22420786Y30684705D01*
X-22327776Y30792044D01*
X-22208292Y30868831D01*
X-22072015Y30908846D01*
X-21929985Y30908846D01*
X-21840604Y30887443D01*
G37*
G04 #@! TD.AperFunction*
G04 #@! TA.AperFunction,Conductor*
G36*
X21524396Y34997597D02*
G01*
X21566360Y34993464D01*
X21646179Y34985603D01*
X21742108Y34966523D01*
X21835659Y34938145D01*
X21926029Y34900711D01*
X22012230Y34854635D01*
X22093563Y34800290D01*
X22169115Y34738286D01*
X22238285Y34669116D01*
X22300289Y34593564D01*
X22354634Y34512231D01*
X22400710Y34426030D01*
X22438145Y34335655D01*
X22466520Y34242116D01*
X22485602Y34146181D01*
X22497597Y34024400D01*
X22500000Y33975487D01*
X22500000Y27855077D01*
X22479787Y27714492D01*
X22420786Y27585297D01*
X22327776Y27477958D01*
X22208292Y27401171D01*
X22072015Y27361156D01*
X21929985Y27361156D01*
X21840603Y27382559D01*
X21711765Y27426294D01*
X21711748Y27426298D01*
X21476622Y27473068D01*
X21824828Y29447837D01*
X21138152Y29517991D01*
X20448558Y29487883D01*
X20000000Y29402046D01*
X20000000Y32500000D01*
X-16358603Y32500000D01*
X-16300153Y32811574D01*
X-16260171Y33189336D01*
X-16250503Y33569084D01*
X-16271211Y33948391D01*
X-16322164Y34324829D01*
X-18296935Y33976624D01*
X-18343704Y34211753D01*
X-18385763Y34335655D01*
X-18387442Y34340602D01*
X-18413491Y34480223D01*
X-18399149Y34621527D01*
X-18345578Y34753067D01*
X-18257119Y34864186D01*
X-18140936Y34945882D01*
X-18006443Y34991536D01*
X-17914924Y35000000D01*
X21475487Y35000000D01*
X21524396Y34997597D01*
G37*
G04 #@! TD.AperFunction*
G04 #@! TD*
G04 #@! TA.AperFunction,Conductor*
G04 #@! TO.N,/PE*
G36*
X21824828Y29447837D02*
G01*
X21476622Y27473068D01*
X21358952Y27496474D01*
X21059824Y27516079D01*
X21000000Y27520000D01*
X20999999Y27520000D01*
X20965004Y27517707D01*
X20641052Y27496474D01*
X20641047Y27496474D01*
X20641046Y27496473D01*
X20288250Y27426298D01*
X20288243Y27426296D01*
X19947622Y27310670D01*
X19947619Y27310669D01*
X19624998Y27151570D01*
X19325905Y26951722D01*
X19055456Y26714544D01*
X18818278Y26444095D01*
X18618430Y26145002D01*
X18459331Y25822381D01*
X18459330Y25822378D01*
X18356906Y25520647D01*
X18343703Y25481753D01*
X18273526Y25128948D01*
X18255355Y24851706D01*
X18250000Y24770001D01*
X18273526Y24411048D01*
X18343702Y24058252D01*
X18343703Y24058248D01*
X18459331Y23717621D01*
X18618430Y23395000D01*
X18618432Y23394997D01*
X18618433Y23394995D01*
X18818276Y23095909D01*
X18818278Y23095907D01*
X19055456Y22825457D01*
X19325905Y22588280D01*
X19624998Y22388432D01*
X19624999Y22388432D01*
X19625000Y22388431D01*
X19947620Y22229332D01*
X20288247Y22113704D01*
X20641047Y22043528D01*
X20641052Y22043527D01*
X21000000Y22020000D01*
X21358947Y22043527D01*
X21476622Y22066934D01*
X21824828Y20092164D01*
X21138152Y20022010D01*
X20448558Y20052118D01*
X20000000Y20137956D01*
X19999999Y20137957D01*
X19864163Y20163951D01*
X19864144Y20163954D01*
X19851062Y20166458D01*
X19833336Y20170186D01*
X19788992Y20180355D01*
X19753936Y20189748D01*
X19710452Y20203112D01*
X19693214Y20208755D01*
X19195996Y20381580D01*
X19178977Y20387845D01*
X19136592Y20404327D01*
X19103288Y20418693D01*
X19062204Y20438215D01*
X19045954Y20446302D01*
X18579009Y20689379D01*
X18563098Y20698032D01*
X18523534Y20720493D01*
X18492676Y20739526D01*
X18454833Y20764811D01*
X18439940Y20775159D01*
X18013160Y21083340D01*
X17998701Y21094186D01*
X17962773Y21122171D01*
X17934991Y21145484D01*
X17901234Y21175968D01*
X17887992Y21188370D01*
X17510385Y21555150D01*
X17497639Y21567988D01*
X17466152Y21600881D01*
X17442053Y21627961D01*
X17413066Y21663020D01*
X17401757Y21677216D01*
X17081313Y22094827D01*
X17070533Y22109418D01*
X17044163Y22146501D01*
X17024236Y22176796D01*
X17000604Y22215741D01*
X16991528Y22231331D01*
X16734943Y22691064D01*
X16726419Y22707013D01*
X16705701Y22747529D01*
X16690381Y22780381D01*
X16672644Y22822335D01*
X16665903Y22839127D01*
X16478687Y23331115D01*
X16472544Y23348186D01*
X16457920Y23391267D01*
X16447516Y23426017D01*
X16436059Y23470051D01*
X16431819Y23487659D01*
X16317880Y24001611D01*
X16314278Y24019381D01*
X16307133Y24058245D01*
X16306053Y24064122D01*
X16300799Y24099990D01*
X16295845Y24145227D01*
X16294200Y24163277D01*
X16255951Y24688300D01*
X16254963Y24706403D01*
X16253309Y24751884D01*
X16253309Y24788117D01*
X16254964Y24833619D01*
X16255952Y24851706D01*
X16277980Y25154070D01*
X16294200Y25376733D01*
X16295846Y25394784D01*
X16300799Y25440016D01*
X16306052Y25475877D01*
X16314283Y25520647D01*
X16317880Y25538391D01*
X16380838Y25822378D01*
X16431824Y26052368D01*
X16436056Y26069938D01*
X16447519Y26113999D01*
X16457920Y26148735D01*
X16472544Y26191816D01*
X16478687Y26208887D01*
X16601531Y26531710D01*
X16665914Y26700905D01*
X16672636Y26717648D01*
X16690385Y26759631D01*
X16705701Y26792473D01*
X16726430Y26833012D01*
X16734931Y26848915D01*
X16991541Y27308695D01*
X17000597Y27324250D01*
X17024247Y27363224D01*
X17044143Y27393475D01*
X17070561Y27430625D01*
X17081274Y27445125D01*
X17401795Y27862836D01*
X17413038Y27876949D01*
X17442067Y27912059D01*
X17466145Y27939115D01*
X17497639Y27972013D01*
X17510348Y27984816D01*
X17888031Y28351669D01*
X17901212Y28364015D01*
X17934993Y28394521D01*
X17962756Y28417818D01*
X17998735Y28445843D01*
X18013124Y28456636D01*
X18439977Y28764869D01*
X18454795Y28775166D01*
X18492677Y28800477D01*
X18523537Y28819510D01*
X18563087Y28841963D01*
X18579000Y28850619D01*
X19046008Y29093729D01*
X19062139Y29101758D01*
X19103319Y29121325D01*
X19136562Y29135663D01*
X19179013Y29152171D01*
X19195950Y29158406D01*
X19693293Y29331276D01*
X19710400Y29336876D01*
X19753983Y29350269D01*
X19788965Y29359641D01*
X19833338Y29369818D01*
X19851065Y29373544D01*
X19936229Y29389843D01*
X20448558Y29487883D01*
X21138152Y29517991D01*
X21824828Y29447837D01*
G37*
G04 #@! TD.AperFunction*
G04 #@! TD*
M02*
