M48
; DRILL file {KiCad 9.0.9-9.0.9~ubuntu24.04.1} date 2026-10-09T05:53:30+0000
; FORMAT={-:-/ absolute / metric / decimal}
; #@! TF.CreationDate,2026-10-09T05:53:30+00:00
; #@! TF.GenerationSoftware,Kicad,Pcbnew,9.0.9-9.0.9~ubuntu24.04.1
; #@! TF.FileFunction,Plated,1,2,PTH
FMAT,2
METRIC
; #@! TA.AperFunction,Plated,PTH,ViaDrill
T1C0.400
; #@! TA.AperFunction,Plated,PTH,ViaDrill
T2C0.500
; #@! TA.AperFunction,Plated,PTH,ComponentDrill
T3C0.760
; #@! TA.AperFunction,Plated,PTH,ComponentDrill
T4C0.800
; #@! TA.AperFunction,Plated,PTH,ComponentDrill
T5C1.300
; #@! TA.AperFunction,Plated,PTH,ComponentDrill
T6C1.400
%
G90
G05
T1
X-21.25Y29.531
X-21.25Y25.312
X-21.25Y21.094
X-21.25Y16.875
X-21.25Y12.656
X-21.25Y8.438
X-21.25Y4.219
X-21.25Y0.0
X-21.25Y-4.219
X-21.25Y-8.438
X-21.25Y-12.656
X-21.25Y-16.875
X-21.25Y-21.094
X-21.25Y-25.312
X-21.25Y-29.531
X-17.0Y33.75
X-16.75Y-33.75
X-12.75Y33.75
X-12.25Y-33.75
X-8.5Y33.75
X-7.75Y-33.75
X-4.25Y33.75
X-3.25Y-33.75
X0.0Y33.75
X1.25Y-9.9
X1.25Y-14.67
X1.25Y-19.44
X1.25Y-24.21
X1.25Y-28.98
X1.25Y-33.75
X4.25Y33.75
X5.25Y-9.9
X8.5Y33.75
X9.25Y-9.9
X12.75Y33.75
X13.25Y-9.9
X17.0Y33.75
X17.25Y-9.9
X21.25Y33.75
X21.25Y29.385
X21.25Y20.655
X21.25Y16.29
X21.25Y11.925
X21.25Y7.56
X21.25Y3.195
X21.25Y-1.17
X21.25Y-5.535
X21.25Y-9.9
T2
X-12.0Y-28.4
X-9.0Y-28.4
T3
X10.16Y-30.28
X15.24Y-12.5
X15.24Y-30.28
T4
X-15.24Y-12.5
X-10.16Y-12.5
T5
X-9.5Y8.1
X-9.5Y-0.1
X-4.5Y8.1
X-4.5Y-0.1
X0.5Y8.1
X0.5Y-0.1
X5.5Y8.1
X5.5Y-0.1
X10.5Y8.1
X10.5Y-0.1
X15.5Y8.1
X15.5Y-0.1
T6
X-5.1Y26.5
X-5.1Y19.5
X5.1Y26.5
X5.1Y19.5
M30
