G04 #@! TF.GenerationSoftware,KiCad,Pcbnew,9.0.9-9.0.9~ubuntu24.04.1*
G04 #@! TF.CreationDate,2026-10-09T06:39:32+00:00*
G04 #@! TF.ProjectId,eu_mains_board,65755f6d-6169-46e7-935f-626f6172642e,rev?*
G04 #@! TF.SameCoordinates,Original*
G04 #@! TF.FileFunction,Copper,L2,Bot*
G04 #@! TF.FilePolarity,Positive*
%FSLAX46Y46*%
G04 Gerber Fmt 4.6, Leading zero omitted, Abs format (unit mm)*
G04 Created by KiCad (PCBNEW 9.0.9-9.0.9~ubuntu24.04.1) date 2026-10-09 06:39:32*
%MOMM*%
%LPD*%
G01*
G04 APERTURE LIST*
G04 #@! TA.AperFunction,ComponentPad*
%ADD10C,2.400000*%
G04 #@! TD*
G04 #@! TA.AperFunction,ComponentPad*
%ADD11C,2.200000*%
G04 #@! TD*
G04 #@! TA.AperFunction,ComponentPad*
%ADD12R,2.200000X2.200000*%
G04 #@! TD*
G04 #@! TA.AperFunction,ComponentPad*
%ADD13R,1.500000X1.500000*%
G04 #@! TD*
G04 #@! TA.AperFunction,ComponentPad*
%ADD14C,1.500000*%
G04 #@! TD*
G04 APERTURE END LIST*
D10*
G04 #@! TO.P,S1,1*
G04 #@! TO.N,/L_IN*
X5100000Y12500000D03*
G04 #@! TO.P,S1,1a*
G04 #@! TO.N,/L_SW*
X5100000Y5500000D03*
G04 #@! TO.P,S1,2*
G04 #@! TO.N,/N_IN*
X-5100000Y12500000D03*
G04 #@! TO.P,S1,2a*
G04 #@! TO.N,/N_SW*
X-5100000Y5500000D03*
G04 #@! TD*
D11*
G04 #@! TO.P,J1,1*
G04 #@! TO.N,/L_SW*
X13150000Y5000000D03*
D12*
X21350000Y5000000D03*
D11*
G04 #@! TO.P,J1,2*
G04 #@! TO.N,/L_IN*
X13150000Y10000000D03*
X21350000Y10000000D03*
G04 #@! TD*
D13*
G04 #@! TO.P,PS1,1*
G04 #@! TO.N,/N_SW*
X-10160000Y-2340000D03*
D14*
G04 #@! TO.P,PS1,2*
G04 #@! TO.N,/L_F*
X-5080000Y-2340000D03*
G04 #@! TO.P,PS1,3*
G04 #@! TO.N,unconnected-(PS1-NC-Pad3)*
X10160000Y-22660000D03*
G04 #@! TO.P,PS1,4*
G04 #@! TO.N,GND*
X0Y-22660000D03*
G04 #@! TO.P,PS1,5*
G04 #@! TO.N,+5V*
X-10160000Y-22660000D03*
G04 #@! TD*
D11*
G04 #@! TO.P,J2,1*
G04 #@! TO.N,/N_IN*
X-13150000Y10000000D03*
D12*
X-21350000Y10000000D03*
D11*
G04 #@! TO.P,J2,2*
G04 #@! TO.N,/N_SW*
X-13150000Y5000000D03*
X-21350000Y5000000D03*
G04 #@! TD*
G04 #@! TA.AperFunction,Conductor*
G04 #@! TO.N,/N_SW*
G36*
X-5026132Y6693103D02*
G01*
X-4965563Y6687804D01*
X-4922429Y6682125D01*
X-4869371Y6672769D01*
X-4862561Y6671568D01*
X-4820084Y6662152D01*
X-4761349Y6646414D01*
X-4719848Y6633328D01*
X-4662720Y6612535D01*
X-4622505Y6595877D01*
X-4408974Y6496306D01*
X-4362095Y6474446D01*
X-4358992Y6472986D01*
X-4334120Y6461179D01*
X-4322587Y6456024D01*
X-4288923Y6440326D01*
X-4243394Y6426557D01*
X-3986858Y6328345D01*
X-3950113Y6316479D01*
X-3851691Y6284693D01*
X-3729261Y6250008D01*
X-3606836Y6215324D01*
X-3606832Y6215324D01*
X-3606831Y6215323D01*
X-3240161Y6146130D01*
X-3240162Y6146130D01*
X-3190372Y6142138D01*
X-2868215Y6116303D01*
X-2726236Y6112501D01*
X-2726233Y6112502D01*
X-2726231Y6112501D01*
X-2503758Y6114622D01*
X-2362987Y6095751D01*
X-2233235Y6037984D01*
X-2125014Y5946002D01*
X-2047091Y5827256D01*
X-2005779Y5691367D01*
X-2000000Y5615645D01*
X-2000000Y1650833D01*
X-2020213Y1510248D01*
X-2079214Y1381053D01*
X-2172224Y1273714D01*
X-2291708Y1196927D01*
X-2427985Y1156912D01*
X-2570015Y1156912D01*
X-2706292Y1196927D01*
X-2785206Y1242070D01*
X-2794033Y1248251D01*
X-3024054Y1381053D01*
X-3115468Y1433831D01*
X-3451855Y1590691D01*
X-3617094Y1650833D01*
X-3800628Y1717634D01*
X-3800641Y1717638D01*
X-4159143Y1813698D01*
X-4159144Y1813699D01*
X-4159147Y1813699D01*
X-4524670Y1878151D01*
X-4894416Y1910500D01*
X-4894419Y1910500D01*
X-5265581Y1910500D01*
X-5265585Y1910500D01*
X-5635331Y1878151D01*
X-5854047Y1839586D01*
X-6000853Y1813699D01*
X-6000855Y1813699D01*
X-6000858Y1813698D01*
X-6359360Y1717638D01*
X-6359373Y1717634D01*
X-6708143Y1590692D01*
X-7044529Y1433833D01*
X-7365969Y1248250D01*
X-7669999Y1035367D01*
X-7954339Y796778D01*
X-7954339Y796777D01*
X-8216777Y534339D01*
X-8216778Y534339D01*
X-8455367Y249999D01*
X-8668250Y-54031D01*
X-8853833Y-375471D01*
X-9010692Y-711857D01*
X-9137634Y-1060627D01*
X-9137638Y-1060640D01*
X-9233698Y-1419142D01*
X-9298151Y-1784669D01*
X-9321236Y-2048536D01*
X-9330500Y-2154419D01*
X-9330500Y-2525581D01*
X-9298151Y-2895330D01*
X-9270198Y-3053861D01*
X-9233698Y-3260857D01*
X-9137638Y-3619359D01*
X-9137636Y-3619366D01*
X-9137635Y-3619368D01*
X-9133646Y-3630330D01*
X-9104556Y-3769346D01*
X-9115810Y-3910929D01*
X-9166497Y-4043607D01*
X-9252511Y-4156630D01*
X-9366882Y-4240842D01*
X-9500347Y-4289421D01*
X-9602551Y-4300000D01*
X-26383719Y-4300000D01*
X-26524304Y-4279787D01*
X-26653499Y-4220786D01*
X-26760838Y-4127776D01*
X-26837625Y-4008292D01*
X-26877640Y-3872015D01*
X-26877640Y-3729985D01*
X-26837625Y-3593708D01*
X-26760838Y-3474224D01*
X-26721014Y-3433260D01*
X-26688744Y-3403660D01*
X-26670307Y-3391917D01*
X-26640638Y-3359538D01*
X-26625319Y-3345487D01*
X-26624670Y-3344892D01*
X-26624625Y-3344861D01*
X-26624501Y-3344737D01*
X-26608082Y-3329693D01*
X-26608078Y-3329685D01*
X-26587055Y-3304633D01*
X-26586708Y-3304924D01*
X-26566707Y-3278856D01*
X-26404891Y-3102267D01*
X-26387350Y-3088808D01*
X-26360535Y-3053861D01*
X-26330789Y-3021400D01*
X-26330787Y-3021396D01*
X-26312025Y-2994603D01*
X-26311655Y-2994862D01*
X-26294010Y-2967162D01*
X-26148185Y-2777121D01*
X-26131889Y-2762189D01*
X-26108234Y-2725054D01*
X-26094969Y-2707769D01*
X-26094969Y-2707768D01*
X-26094966Y-2707765D01*
X-26081419Y-2690110D01*
X-26081417Y-2690108D01*
X-26081415Y-2690102D01*
X-26065064Y-2661783D01*
X-26064672Y-2662009D01*
X-26049503Y-2632866D01*
X-25920804Y-2430850D01*
X-25905869Y-2414552D01*
X-25885531Y-2375481D01*
X-25861871Y-2338344D01*
X-25861869Y-2338337D01*
X-25848048Y-2308698D01*
X-25847637Y-2308889D01*
X-25835065Y-2278537D01*
X-25724462Y-2066073D01*
X-25711005Y-2048536D01*
X-25694152Y-2007848D01*
X-25673817Y-1968786D01*
X-25673816Y-1968782D01*
X-25662631Y-1938053D01*
X-25662206Y-1938207D01*
X-25652327Y-1906872D01*
X-25560660Y-1685569D01*
X-25548785Y-1666930D01*
X-25535545Y-1624935D01*
X-25518688Y-1584241D01*
X-25518687Y-1584233D01*
X-25510222Y-1552643D01*
X-25509785Y-1552760D01*
X-25502674Y-1520681D01*
X-25430649Y-1292248D01*
X-25420440Y-1272638D01*
X-25410907Y-1229633D01*
X-25397666Y-1187641D01*
X-25397666Y-1187631D01*
X-25391987Y-1155431D01*
X-25391542Y-1155509D01*
X-25387254Y-1122942D01*
X-25373439Y-1060627D01*
X-25335408Y-889080D01*
X-25326950Y-868661D01*
X-25321205Y-825010D01*
X-25316488Y-803738D01*
X-25316486Y-803726D01*
X-25311669Y-782000D01*
X-25308819Y-749419D01*
X-25308368Y-749458D01*
X-25306935Y-716627D01*
X-25306307Y-711857D01*
X-25275670Y-479154D01*
X-25269022Y-458071D01*
X-25267102Y-414071D01*
X-25261353Y-370412D01*
X-25261354Y-370408D01*
X-25261353Y-370405D01*
X-25261353Y-337695D01*
X-25260901Y-337695D01*
X-25262335Y-304877D01*
X-25251887Y-65578D01*
X-25247102Y-43999D01*
X-25249023Y0D01*
X-25247102Y43999D01*
X-25247103Y44005D01*
X-25249953Y76585D01*
X-25249502Y76625D01*
X-25253792Y109205D01*
X-25259939Y249999D01*
X-25264239Y348498D01*
X-25261353Y370412D01*
X-25267101Y414062D01*
X-25268051Y435836D01*
X-25268052Y435842D01*
X-25269022Y458071D01*
X-25269023Y458074D01*
X-25269023Y458077D01*
X-25274701Y490283D01*
X-25274257Y490362D01*
X-25281369Y522440D01*
X-25312634Y759917D01*
X-25311669Y782001D01*
X-25321203Y825003D01*
X-25326950Y868661D01*
X-25326953Y868668D01*
X-25335416Y900257D01*
X-25334980Y900375D01*
X-25344857Y931701D01*
X-25367838Y1035361D01*
X-25396702Y1165562D01*
X-25397666Y1187641D01*
X-25410905Y1229628D01*
X-25415622Y1250905D01*
X-25415623Y1250906D01*
X-25415624Y1250913D01*
X-25420440Y1272638D01*
X-25431625Y1303368D01*
X-25431201Y1303523D01*
X-25443774Y1333875D01*
X-25515803Y1562323D01*
X-25518688Y1584241D01*
X-25535545Y1624936D01*
X-25548785Y1666930D01*
X-25548790Y1666938D01*
X-25562607Y1696570D01*
X-25562197Y1696762D01*
X-25577367Y1725904D01*
X-25594510Y1767290D01*
X-25669033Y1947206D01*
X-25673817Y1968786D01*
X-25694152Y2007849D01*
X-25711005Y2048536D01*
X-25711006Y2048537D01*
X-25711006Y2048538D01*
X-25727359Y2076863D01*
X-25726968Y2077089D01*
X-25744618Y2104794D01*
X-25835065Y2278539D01*
X-25835066Y2278541D01*
X-25855227Y2317270D01*
X-25861871Y2338344D01*
X-25885531Y2375482D01*
X-25895589Y2394804D01*
X-25895590Y2394807D01*
X-25895592Y2394810D01*
X-25902432Y2407949D01*
X-25905869Y2414552D01*
X-25905875Y2414558D01*
X-25924627Y2441340D01*
X-25924257Y2441600D01*
X-25944257Y2467665D01*
X-25949206Y2475432D01*
X-26072957Y2669684D01*
X-26081417Y2690108D01*
X-26108230Y2725051D01*
X-26131889Y2762189D01*
X-26131892Y2762191D01*
X-26131895Y2762197D01*
X-26152909Y2787241D01*
X-26152564Y2787531D01*
X-26174760Y2811755D01*
X-26294008Y2967162D01*
X-26320584Y3001797D01*
X-26330789Y3021400D01*
X-26360535Y3053862D01*
X-26387350Y3088808D01*
X-26387352Y3088810D01*
X-26387356Y3088815D01*
X-26410477Y3111936D01*
X-26410159Y3112255D01*
X-26434382Y3134451D01*
X-26596205Y3311049D01*
X-26608082Y3329693D01*
X-26640559Y3359453D01*
X-26670307Y3391917D01*
X-26670308Y3391918D01*
X-26670310Y3391920D01*
X-26695365Y3412943D01*
X-26695074Y3413291D01*
X-26721134Y3433286D01*
X-26865561Y3565630D01*
X-26881200Y3580598D01*
X-26904365Y3603753D01*
X-26911191Y3612648D01*
X-26920117Y3619497D01*
X-26943204Y3642574D01*
X-26966404Y3673551D01*
X-26993435Y3701233D01*
X-27008754Y3730097D01*
X-27028345Y3756256D01*
X-27041876Y3792509D01*
X-27060016Y3826690D01*
X-27066583Y3858707D01*
X-27078009Y3889320D01*
X-27080779Y3927915D01*
X-27088554Y3965824D01*
X-27085836Y3998390D01*
X-27088174Y4030986D01*
X-27079957Y4068803D01*
X-27076737Y4107362D01*
X-27064954Y4137844D01*
X-27058014Y4169777D01*
X-27039478Y4203742D01*
X-27025524Y4239837D01*
X-27005630Y4265765D01*
X-26989975Y4294449D01*
X-26962619Y4321818D01*
X-26939062Y4352518D01*
X-26912672Y4371789D01*
X-26889567Y4394903D01*
X-26855604Y4413459D01*
X-26824356Y4436275D01*
X-26793608Y4447329D01*
X-26764925Y4462999D01*
X-26727109Y4471235D01*
X-26690700Y4484323D01*
X-26646324Y4488828D01*
X-26626148Y4493221D01*
X-26612574Y4492254D01*
X-26590437Y4494500D01*
X-25062889Y4494500D01*
X-25062782Y4494500D01*
X-25060655Y4494501D01*
X-24688055Y4514586D01*
X-24581984Y4525990D01*
X-24453614Y4542193D01*
X-24087710Y4615323D01*
X-23731652Y4726932D01*
X-23598577Y4776567D01*
X-23363532Y4874093D01*
X-23033052Y5047347D01*
X-22722860Y5254748D01*
X-22662451Y5299971D01*
X-22537794Y5368038D01*
X-22399010Y5398229D01*
X-22363411Y5399500D01*
X-20341672Y5399500D01*
X-20201087Y5379287D01*
X-20071892Y5320286D01*
X-20035793Y5294758D01*
X-20004361Y5270371D01*
X-19693918Y5063348D01*
X-19363228Y4890496D01*
X-19234033Y4831495D01*
X-18998872Y4734255D01*
X-18719559Y4647075D01*
X-18642676Y4623078D01*
X-18504983Y4595733D01*
X-18276686Y4550394D01*
X-18276666Y4550392D01*
X-18276649Y4550388D01*
X-18219647Y4542193D01*
X-18136101Y4530181D01*
X-18009830Y4514359D01*
X-17637218Y4494500D01*
X-17637205Y4494500D01*
X-16862889Y4494500D01*
X-16862782Y4494500D01*
X-16860655Y4494501D01*
X-16488055Y4514586D01*
X-16381984Y4525990D01*
X-16253512Y4542208D01*
X-16109132Y4571069D01*
X-15972887Y4595733D01*
X-15938828Y4605111D01*
X-15921347Y4608605D01*
X-15921346Y4608605D01*
X-15907458Y4611381D01*
X-15887610Y4615348D01*
X-15794705Y4644474D01*
X-15777994Y4649392D01*
X-15613132Y4694780D01*
X-15532833Y4726404D01*
X-15524377Y4729646D01*
X-15455398Y4755374D01*
X-15455385Y4755378D01*
X-15353370Y4793425D01*
X-15335992Y4802537D01*
X-15270559Y4829689D01*
X-15265943Y4831506D01*
X-15263605Y4832574D01*
X-15163369Y4874167D01*
X-15032915Y4942567D01*
X-14909253Y5004557D01*
X-14879181Y5023172D01*
X-14832898Y5047438D01*
X-14751995Y5101539D01*
X-14737351Y5110963D01*
X-14591975Y5200947D01*
X-14523787Y5253953D01*
X-14516649Y5259397D01*
X-14516646Y5259400D01*
X-14516643Y5259402D01*
X-14495001Y5275603D01*
X-14451874Y5307890D01*
X-14451873Y5307888D01*
X-14409152Y5339869D01*
X-14409054Y5339946D01*
X-14405457Y5342638D01*
X-14405455Y5342640D01*
X-14354318Y5380921D01*
X-14229662Y5448991D01*
X-14090878Y5479184D01*
X-13968627Y5472876D01*
X-13751058Y5434512D01*
X-13350862Y5399500D01*
X-13350858Y5399500D01*
X-12949142Y5399500D01*
X-12949138Y5399500D01*
X-12548942Y5434512D01*
X-12153321Y5504271D01*
X-12144495Y5506637D01*
X-12003470Y5523502D01*
X-11863405Y5499953D01*
X-11800375Y5474970D01*
X-11670855Y5413146D01*
X-11670847Y5413143D01*
X-11670839Y5413139D01*
X-11318916Y5289106D01*
X-11238822Y5265588D01*
X-11182643Y5249092D01*
X-10936018Y5186303D01*
X-10751822Y5156627D01*
X-10567627Y5126950D01*
X-10567628Y5126950D01*
X-10551948Y5126115D01*
X-10195015Y5107091D01*
X-10195002Y5107091D01*
X-10052980Y5107091D01*
X-9871327Y5113690D01*
X-9798663Y5116329D01*
X-9428474Y5163168D01*
X-9065361Y5249091D01*
X-8929084Y5289106D01*
X-8687701Y5369609D01*
X-8345702Y5518843D01*
X-8021504Y5703584D01*
X-7902020Y5780371D01*
X-7700168Y5920700D01*
X-7573201Y5984350D01*
X-7448123Y6008902D01*
X-7290335Y6019291D01*
X-7172691Y6033357D01*
X-7003363Y6057807D01*
X-6639302Y6139622D01*
X-6286000Y6259671D01*
X-6154144Y6312458D01*
X-6036862Y6361899D01*
X-5704242Y6531007D01*
X-5671166Y6550104D01*
X-5632563Y6570200D01*
X-5627701Y6572468D01*
X-5577480Y6595887D01*
X-5537308Y6612527D01*
X-5480128Y6633339D01*
X-5438673Y6646409D01*
X-5379921Y6662152D01*
X-5337440Y6671569D01*
X-5277571Y6682126D01*
X-5234427Y6687805D01*
X-5204154Y6690453D01*
X-5173884Y6693101D01*
X-5130397Y6695000D01*
X-5069606Y6695000D01*
X-5026132Y6693103D01*
G37*
G04 #@! TD.AperFunction*
G04 #@! TD*
G04 #@! TA.AperFunction,Conductor*
G04 #@! TO.N,/N_IN*
G36*
X-4765331Y28335540D02*
G01*
X-4728330Y28336391D01*
X-4695142Y28327470D01*
X-4661002Y28323545D01*
X-4626912Y28309130D01*
X-4591169Y28299522D01*
X-4561843Y28281615D01*
X-4530187Y28268229D01*
X-4501537Y28244792D01*
X-4469950Y28225504D01*
X-4446856Y28200059D01*
X-4420255Y28178298D01*
X-4399370Y28147740D01*
X-4374495Y28120333D01*
X-4356425Y28084905D01*
X-4340113Y28061038D01*
X-4326778Y28033901D01*
X-4326182Y28031213D01*
X-4313244Y28006359D01*
X-4310678Y28001137D01*
X-4297517Y27972038D01*
X-4288996Y27951466D01*
X-4272643Y27923143D01*
X-4273035Y27922917D01*
X-4255381Y27895206D01*
X-4164937Y27721465D01*
X-4164936Y27721463D01*
X-4144776Y27682735D01*
X-4138129Y27661655D01*
X-4114466Y27624510D01*
X-4104416Y27605205D01*
X-4104413Y27605199D01*
X-4094131Y27585448D01*
X-4075369Y27558654D01*
X-4075741Y27558395D01*
X-4055740Y27532330D01*
X-3950497Y27367130D01*
X-3935562Y27343686D01*
X-3927042Y27330313D01*
X-3918582Y27309890D01*
X-3891780Y27274961D01*
X-3880072Y27256583D01*
X-3880067Y27256577D01*
X-3868111Y27237810D01*
X-3847091Y27212760D01*
X-3847438Y27212470D01*
X-3825241Y27188246D01*
X-3679419Y26998208D01*
X-3669211Y26978599D01*
X-3639455Y26946126D01*
X-3614189Y26913199D01*
X-3612645Y26911187D01*
X-3589524Y26888066D01*
X-3589844Y26887747D01*
X-3565627Y26865557D01*
X-3403791Y26688946D01*
X-3391917Y26670307D01*
X-3359453Y26640559D01*
X-3329693Y26608082D01*
X-3329688Y26608079D01*
X-3304636Y26587058D01*
X-3304928Y26586711D01*
X-3278868Y26566716D01*
X-3102268Y26404891D01*
X-3088808Y26387350D01*
X-3053866Y26360538D01*
X-3037804Y26345820D01*
X-3037802Y26345819D01*
X-3021398Y26330787D01*
X-2994605Y26312026D01*
X-2994864Y26311657D01*
X-2967165Y26294010D01*
X-2777125Y26148188D01*
X-2762190Y26131889D01*
X-2725046Y26108226D01*
X-2707768Y26094968D01*
X-2707765Y26094966D01*
X-2690108Y26081417D01*
X-2661779Y26065062D01*
X-2662006Y26064669D01*
X-2632864Y26049500D01*
X-2430852Y25920804D01*
X-2414553Y25905869D01*
X-2375483Y25885531D01*
X-2338345Y25861871D01*
X-2338342Y25861871D01*
X-2308696Y25848046D01*
X-2308888Y25847635D01*
X-2278547Y25835070D01*
X-2268589Y25829886D01*
X-2153224Y25747045D01*
X-2065869Y25635055D01*
X-2013604Y25502991D01*
X-2000000Y25387267D01*
X-2000000Y10524514D01*
X-2002403Y10475601D01*
X-2014398Y10353820D01*
X-2033480Y10257885D01*
X-2061852Y10164352D01*
X-2099290Y10073971D01*
X-2145366Y9987770D01*
X-2199711Y9906437D01*
X-2261715Y9830885D01*
X-2330884Y9761715D01*
X-2373601Y9726658D01*
X-2495098Y9653097D01*
X-2632397Y9616745D01*
X-2774376Y9620547D01*
X-2909533Y9664196D01*
X-2920562Y9669764D01*
X-2927483Y9673367D01*
X-3299475Y9846830D01*
X-3299479Y9846832D01*
X-3685182Y9987216D01*
X-3685195Y9987220D01*
X-4081649Y10093449D01*
X-4081656Y10093451D01*
X-4485875Y10164726D01*
X-4894769Y10200500D01*
X-4894772Y10200500D01*
X-5305228Y10200500D01*
X-5305232Y10200500D01*
X-5714126Y10164726D01*
X-6118345Y10093451D01*
X-6118352Y10093449D01*
X-6514806Y9987220D01*
X-6514819Y9987216D01*
X-6900522Y9846832D01*
X-6900526Y9846830D01*
X-7272510Y9673371D01*
X-7272518Y9673366D01*
X-7457003Y9566853D01*
X-7588859Y9514066D01*
X-7706503Y9500000D01*
X-9625000Y9500000D01*
X-9625000Y9106512D01*
X-9645213Y8965927D01*
X-9704214Y8836732D01*
X-9797224Y8729393D01*
X-9916708Y8652606D01*
X-10052985Y8612591D01*
X-10195015Y8612591D01*
X-10331292Y8652606D01*
X-10410215Y8697756D01*
X-10675793Y8883716D01*
X-10675797Y8883719D01*
X-11023692Y9084576D01*
X-11023698Y9084579D01*
X-11023702Y9084581D01*
X-11387788Y9254357D01*
X-11387795Y9254360D01*
X-11387798Y9254361D01*
X-11387812Y9254367D01*
X-11765261Y9391748D01*
X-11765286Y9391756D01*
X-12153319Y9495729D01*
X-12548940Y9565488D01*
X-12949133Y9600500D01*
X-12949138Y9600500D01*
X-13350862Y9600500D01*
X-13350868Y9600500D01*
X-13751061Y9565488D01*
X-14146681Y9495729D01*
X-14146683Y9495729D01*
X-14534715Y9391756D01*
X-14534740Y9391748D01*
X-14912189Y9254367D01*
X-14912203Y9254361D01*
X-14912211Y9254358D01*
X-14912212Y9254357D01*
X-15168022Y9135071D01*
X-15276300Y9084580D01*
X-15276309Y9084576D01*
X-15624200Y8883721D01*
X-15953279Y8653297D01*
X-16261010Y8395081D01*
X-16325422Y8330668D01*
X-16509939Y8146152D01*
X-16552660Y8114171D01*
X-16593002Y8079214D01*
X-16609300Y8071772D01*
X-16623636Y8061039D01*
X-16673639Y8042389D01*
X-16722197Y8020213D01*
X-16739929Y8017664D01*
X-16756711Y8011404D01*
X-16862782Y8000000D01*
X-17637218Y8000000D01*
X-17777803Y8020213D01*
X-17906998Y8079214D01*
X-17990060Y8146150D01*
X-18238986Y8395076D01*
X-18238987Y8395077D01*
X-18238991Y8395081D01*
X-18546722Y8653297D01*
X-18875801Y8883721D01*
X-19223692Y9084576D01*
X-19223698Y9084579D01*
X-19223702Y9084581D01*
X-19587788Y9254357D01*
X-19587795Y9254360D01*
X-19587798Y9254361D01*
X-19587812Y9254367D01*
X-19965261Y9391748D01*
X-19965286Y9391756D01*
X-20353319Y9495729D01*
X-20748940Y9565488D01*
X-21149133Y9600500D01*
X-21149138Y9600500D01*
X-21550862Y9600500D01*
X-21550868Y9600500D01*
X-21951061Y9565488D01*
X-22346681Y9495729D01*
X-22346683Y9495729D01*
X-22734715Y9391756D01*
X-22734740Y9391748D01*
X-23112189Y9254367D01*
X-23112203Y9254361D01*
X-23112211Y9254358D01*
X-23112212Y9254357D01*
X-23368022Y9135071D01*
X-23476300Y9084580D01*
X-23476309Y9084576D01*
X-23824200Y8883721D01*
X-24153279Y8653297D01*
X-24461010Y8395081D01*
X-24525422Y8330668D01*
X-24709939Y8146152D01*
X-24823636Y8061039D01*
X-24956711Y8011404D01*
X-25062782Y8000000D01*
X-26940580Y8000000D01*
X-26980773Y8005779D01*
X-27021375Y8006584D01*
X-27050717Y8015836D01*
X-27081165Y8020213D01*
X-27118104Y8037082D01*
X-27156832Y8049293D01*
X-27182376Y8066434D01*
X-27210360Y8079214D01*
X-27241054Y8105811D01*
X-27274769Y8128435D01*
X-27294448Y8152076D01*
X-27317699Y8172224D01*
X-27339655Y8206389D01*
X-27365632Y8237597D01*
X-27377855Y8265829D01*
X-27394486Y8291708D01*
X-27405926Y8330668D01*
X-27422061Y8367937D01*
X-27425835Y8398471D01*
X-27434501Y8427985D01*
X-27434501Y8468593D01*
X-27439482Y8508895D01*
X-27434501Y8539252D01*
X-27434501Y8570015D01*
X-27416485Y8649051D01*
X-27394865Y8717624D01*
X-27343656Y8880037D01*
X-27341027Y8888129D01*
X-27184538Y9355824D01*
X-27181746Y9363934D01*
X-27017088Y9828917D01*
X-27014174Y9836920D01*
X-26841471Y10298834D01*
X-26838357Y10306946D01*
X-26721190Y10604389D01*
X-26657653Y10765690D01*
X-26654397Y10773746D01*
X-26525395Y11085186D01*
X-26465697Y11229311D01*
X-26462337Y11237229D01*
X-26265680Y11689506D01*
X-26262162Y11697406D01*
X-26103918Y12044641D01*
X-26057647Y12146174D01*
X-26054033Y12153924D01*
X-25841709Y12599073D01*
X-25837974Y12606730D01*
X-25617888Y13048156D01*
X-25614006Y13055772D01*
X-25386295Y13493201D01*
X-25382207Y13500891D01*
X-25146897Y13934278D01*
X-25142706Y13941839D01*
X-24899900Y14370995D01*
X-24895655Y14378349D01*
X-24645292Y14803381D01*
X-24640866Y14810746D01*
X-24383215Y15231195D01*
X-24378645Y15238510D01*
X-24113609Y15654535D01*
X-24108956Y15661698D01*
X-23836783Y16072905D01*
X-23831939Y16080085D01*
X-23552632Y16486482D01*
X-23547682Y16493552D01*
X-23261348Y16894977D01*
X-23256289Y16901942D01*
X-22962940Y17298381D01*
X-22957747Y17305270D01*
X-22657511Y17696545D01*
X-22652221Y17703319D01*
X-22345132Y18089381D01*
X-22339844Y18095911D01*
X-22026090Y18476522D01*
X-22020586Y18483082D01*
X-21700317Y18858070D01*
X-21694618Y18864625D01*
X-21659149Y18904715D01*
X-21367860Y19233959D01*
X-21362155Y19240295D01*
X-21028947Y19603927D01*
X-21023132Y19610164D01*
X-20683627Y19967928D01*
X-20677595Y19974173D01*
X-20645701Y20006629D01*
X-20532750Y20092731D01*
X-20400114Y20143526D01*
X-20258539Y20154896D01*
X-20119496Y20125918D01*
X-19994250Y20058942D01*
X-19892946Y19959392D01*
X-19823792Y19835334D01*
X-19792390Y19696819D01*
X-19791858Y19624244D01*
X-19792982Y19607076D01*
X-19800000Y19500001D01*
X-19780324Y19199787D01*
X-19736304Y18978486D01*
X-19721630Y18904717D01*
X-19706911Y18861357D01*
X-19624923Y18619828D01*
X-19491864Y18350009D01*
X-19491852Y18349988D01*
X-19324714Y18099851D01*
X-19324703Y18099836D01*
X-19126348Y17873657D01*
X-19126345Y17873654D01*
X-18900159Y17675293D01*
X-18900157Y17675291D01*
X-18836130Y17632510D01*
X-18650000Y17508142D01*
X-18380172Y17375078D01*
X-18095284Y17278371D01*
X-17800211Y17219677D01*
X-17500000Y17200000D01*
X-17199790Y17219677D01*
X-16904717Y17278371D01*
X-16619829Y17375078D01*
X-16350000Y17508142D01*
X-16099849Y17675288D01*
X-16071712Y17699963D01*
X-16021345Y17744135D01*
X-15873655Y17873655D01*
X-15675288Y18099849D01*
X-15508142Y18350000D01*
X-15375078Y18619829D01*
X-15278371Y18904717D01*
X-15219677Y19199790D01*
X-15200000Y19500000D01*
X-15219677Y19800211D01*
X-15278371Y20095284D01*
X-15375078Y20380172D01*
X-15508142Y20650000D01*
X-15675288Y20900152D01*
X-15675291Y20900157D01*
X-15675293Y20900159D01*
X-15873654Y21126345D01*
X-15873657Y21126348D01*
X-16099836Y21324703D01*
X-16099846Y21324711D01*
X-16099849Y21324713D01*
X-16213625Y21400736D01*
X-16349988Y21491852D01*
X-16350009Y21491864D01*
X-16619828Y21624923D01*
X-16766233Y21674621D01*
X-16904717Y21721630D01*
X-16978486Y21736304D01*
X-17199787Y21780324D01*
X-17297983Y21786760D01*
X-17387693Y21792640D01*
X-17421166Y21799713D01*
X-17455315Y21801747D01*
X-17490290Y21814320D01*
X-17526653Y21822004D01*
X-17556776Y21838221D01*
X-17588971Y21849794D01*
X-17618989Y21871713D01*
X-17651712Y21889329D01*
X-17676047Y21913376D01*
X-17703677Y21933551D01*
X-17726302Y21963036D01*
X-17752739Y21989160D01*
X-17769314Y22019091D01*
X-17790140Y22046231D01*
X-17803543Y22080899D01*
X-17821547Y22113410D01*
X-17829018Y22146793D01*
X-17841355Y22178706D01*
X-17844448Y22215746D01*
X-17852563Y22252012D01*
X-17850326Y22286151D01*
X-17853172Y22320244D01*
X-17845705Y22356651D01*
X-17843274Y22393738D01*
X-17831509Y22425865D01*
X-17824635Y22459377D01*
X-17807214Y22492206D01*
X-17794432Y22527106D01*
X-17774092Y22554618D01*
X-17758055Y22584836D01*
X-17732093Y22611424D01*
X-17709995Y22641312D01*
X-17658833Y22686449D01*
X-17305293Y22957730D01*
X-17298473Y22962871D01*
X-16901877Y23256336D01*
X-16895056Y23261290D01*
X-16493612Y23547638D01*
X-16486524Y23552603D01*
X-16080024Y23831982D01*
X-16072878Y23836801D01*
X-15661662Y24108980D01*
X-15654500Y24113632D01*
X-15238483Y24378663D01*
X-15231303Y24383150D01*
X-14810673Y24640912D01*
X-14803399Y24645282D01*
X-14378414Y24895618D01*
X-14371048Y24899871D01*
X-13941717Y25142774D01*
X-13934246Y25146915D01*
X-13500883Y25382213D01*
X-13493306Y25386243D01*
X-13055785Y25614001D01*
X-13048128Y25617902D01*
X-12606743Y25837968D01*
X-12599094Y25841699D01*
X-12153924Y26054033D01*
X-12146174Y26057647D01*
X-11697395Y26262167D01*
X-11689506Y26265680D01*
X-11237278Y26462315D01*
X-11229281Y26465709D01*
X-11193683Y26480454D01*
X-10773660Y26654434D01*
X-10765713Y26657644D01*
X-10306883Y26838381D01*
X-10298805Y26841482D01*
X-9836981Y27014151D01*
X-9828859Y27017107D01*
X-9363880Y27181765D01*
X-9355971Y27184489D01*
X-8888030Y27341060D01*
X-8880041Y27343655D01*
X-8409651Y27491969D01*
X-8401435Y27494480D01*
X-7928578Y27634547D01*
X-7920282Y27636926D01*
X-7445056Y27768718D01*
X-7436784Y27770935D01*
X-6959225Y27894439D01*
X-6950946Y27896503D01*
X-6471404Y28011631D01*
X-6463112Y28013546D01*
X-5981465Y28120324D01*
X-5973115Y28122099D01*
X-5489849Y28220421D01*
X-5481494Y28222045D01*
X-4996565Y28311921D01*
X-4988038Y28313424D01*
X-4977107Y28315254D01*
X-4870321Y28333124D01*
X-4835970Y28333914D01*
X-4802103Y28339767D01*
X-4765331Y28335540D01*
G37*
G04 #@! TD.AperFunction*
G04 #@! TD*
M02*
