G04 #@! TF.GenerationSoftware,KiCad,Pcbnew,9.0.9-9.0.9~ubuntu24.04.1*
G04 #@! TF.CreationDate,2026-10-09T06:39:32+00:00*
G04 #@! TF.ProjectId,eu_mains_board,65755f6d-6169-46e7-935f-626f6172642e,rev?*
G04 #@! TF.SameCoordinates,Original*
G04 #@! TF.FileFunction,Legend,Bot*
G04 #@! TF.FilePolarity,Positive*
%FSLAX46Y46*%
G04 Gerber Fmt 4.6, Leading zero omitted, Abs format (unit mm)*
G04 Created by KiCad (PCBNEW 9.0.9-9.0.9~ubuntu24.04.1) date 2026-10-09 06:39:32*
%MOMM*%
%LPD*%
G01*
G04 APERTURE LIST*
%ADD10C,0.120000*%
%ADD11C,0.135000*%
%ADD12C,2.200000*%
%ADD13C,2.400000*%
%ADD14R,2.200000X2.200000*%
%ADD15R,1.500000X1.500000*%
%ADD16C,1.500000*%
G04 APERTURE END LIST*
D10*
X-9838095Y15509745D02*
X-9838095Y14938317D01*
X-9838095Y14938317D02*
X-9800000Y14824031D01*
X-9800000Y14824031D02*
X-9723809Y14747840D01*
X-9723809Y14747840D02*
X-9609524Y14709745D01*
X-9609524Y14709745D02*
X-9533333Y14709745D01*
X-10180952Y15433555D02*
X-10219048Y15471650D01*
X-10219048Y15471650D02*
X-10295238Y15509745D01*
X-10295238Y15509745D02*
X-10485714Y15509745D01*
X-10485714Y15509745D02*
X-10561905Y15471650D01*
X-10561905Y15471650D02*
X-10600000Y15433555D01*
X-10600000Y15433555D02*
X-10638095Y15357364D01*
X-10638095Y15357364D02*
X-10638095Y15281174D01*
X-10638095Y15281174D02*
X-10600000Y15166888D01*
X-10600000Y15166888D02*
X-10142857Y14709745D01*
X-10142857Y14709745D02*
X-10638095Y14709745D01*
X-11514286Y15509745D02*
X-11704762Y14709745D01*
X-11704762Y14709745D02*
X-11857143Y15281174D01*
X-11857143Y15281174D02*
X-12009524Y14709745D01*
X-12009524Y14709745D02*
X-12200000Y15509745D01*
X-12466667Y14938317D02*
X-12847620Y14938317D01*
X-12390477Y14709745D02*
X-12657144Y15509745D01*
X-12657144Y15509745D02*
X-12923810Y14709745D01*
X-13609524Y15471650D02*
X-13533334Y15509745D01*
X-13533334Y15509745D02*
X-13419048Y15509745D01*
X-13419048Y15509745D02*
X-13304762Y15471650D01*
X-13304762Y15471650D02*
X-13228572Y15395460D01*
X-13228572Y15395460D02*
X-13190477Y15319269D01*
X-13190477Y15319269D02*
X-13152381Y15166888D01*
X-13152381Y15166888D02*
X-13152381Y15052602D01*
X-13152381Y15052602D02*
X-13190477Y14900221D01*
X-13190477Y14900221D02*
X-13228572Y14824031D01*
X-13228572Y14824031D02*
X-13304762Y14747840D01*
X-13304762Y14747840D02*
X-13419048Y14709745D01*
X-13419048Y14709745D02*
X-13495239Y14709745D01*
X-13495239Y14709745D02*
X-13609524Y14747840D01*
X-13609524Y14747840D02*
X-13647620Y14785936D01*
X-13647620Y14785936D02*
X-13647620Y15052602D01*
X-13647620Y15052602D02*
X-13495239Y15052602D01*
X-14142858Y15509745D02*
X-14295239Y15509745D01*
X-14295239Y15509745D02*
X-14371429Y15471650D01*
X-14371429Y15471650D02*
X-14447620Y15395460D01*
X-14447620Y15395460D02*
X-14485715Y15243079D01*
X-14485715Y15243079D02*
X-14485715Y14976412D01*
X-14485715Y14976412D02*
X-14447620Y14824031D01*
X-14447620Y14824031D02*
X-14371429Y14747840D01*
X-14371429Y14747840D02*
X-14295239Y14709745D01*
X-14295239Y14709745D02*
X-14142858Y14709745D01*
X-14142858Y14709745D02*
X-14066667Y14747840D01*
X-14066667Y14747840D02*
X-13990477Y14824031D01*
X-13990477Y14824031D02*
X-13952381Y14976412D01*
X-13952381Y14976412D02*
X-13952381Y15243079D01*
X-13952381Y15243079D02*
X-13990477Y15395460D01*
X-13990477Y15395460D02*
X-14066667Y15471650D01*
X-14066667Y15471650D02*
X-14142858Y15509745D01*
X-15400000Y15433555D02*
X-15438096Y15471650D01*
X-15438096Y15471650D02*
X-15514286Y15509745D01*
X-15514286Y15509745D02*
X-15704762Y15509745D01*
X-15704762Y15509745D02*
X-15780953Y15471650D01*
X-15780953Y15471650D02*
X-15819048Y15433555D01*
X-15819048Y15433555D02*
X-15857143Y15357364D01*
X-15857143Y15357364D02*
X-15857143Y15281174D01*
X-15857143Y15281174D02*
X-15819048Y15166888D01*
X-15819048Y15166888D02*
X-15361905Y14709745D01*
X-15361905Y14709745D02*
X-15857143Y14709745D01*
X-16542858Y15509745D02*
X-16390477Y15509745D01*
X-16390477Y15509745D02*
X-16314286Y15471650D01*
X-16314286Y15471650D02*
X-16276191Y15433555D01*
X-16276191Y15433555D02*
X-16200001Y15319269D01*
X-16200001Y15319269D02*
X-16161905Y15166888D01*
X-16161905Y15166888D02*
X-16161905Y14862126D01*
X-16161905Y14862126D02*
X-16200001Y14785936D01*
X-16200001Y14785936D02*
X-16238096Y14747840D01*
X-16238096Y14747840D02*
X-16314286Y14709745D01*
X-16314286Y14709745D02*
X-16466667Y14709745D01*
X-16466667Y14709745D02*
X-16542858Y14747840D01*
X-16542858Y14747840D02*
X-16580953Y14785936D01*
X-16580953Y14785936D02*
X-16619048Y14862126D01*
X-16619048Y14862126D02*
X-16619048Y15052602D01*
X-16619048Y15052602D02*
X-16580953Y15128793D01*
X-16580953Y15128793D02*
X-16542858Y15166888D01*
X-16542858Y15166888D02*
X-16466667Y15204983D01*
X-16466667Y15204983D02*
X-16314286Y15204983D01*
X-16314286Y15204983D02*
X-16238096Y15166888D01*
X-16238096Y15166888D02*
X-16200001Y15128793D01*
X-16200001Y15128793D02*
X-16161905Y15052602D01*
X-17114287Y15509745D02*
X-17190477Y15509745D01*
X-17190477Y15509745D02*
X-17266668Y15471650D01*
X-17266668Y15471650D02*
X-17304763Y15433555D01*
X-17304763Y15433555D02*
X-17342858Y15357364D01*
X-17342858Y15357364D02*
X-17380953Y15204983D01*
X-17380953Y15204983D02*
X-17380953Y15014507D01*
X-17380953Y15014507D02*
X-17342858Y14862126D01*
X-17342858Y14862126D02*
X-17304763Y14785936D01*
X-17304763Y14785936D02*
X-17266668Y14747840D01*
X-17266668Y14747840D02*
X-17190477Y14709745D01*
X-17190477Y14709745D02*
X-17114287Y14709745D01*
X-17114287Y14709745D02*
X-17038096Y14747840D01*
X-17038096Y14747840D02*
X-17000001Y14785936D01*
X-17000001Y14785936D02*
X-16961906Y14862126D01*
X-16961906Y14862126D02*
X-16923810Y15014507D01*
X-16923810Y15014507D02*
X-16923810Y15204983D01*
X-16923810Y15204983D02*
X-16961906Y15357364D01*
X-16961906Y15357364D02*
X-17000001Y15433555D01*
X-17000001Y15433555D02*
X-17038096Y15471650D01*
X-17038096Y15471650D02*
X-17114287Y15509745D01*
X-18066668Y15243079D02*
X-18066668Y14709745D01*
X-17876192Y15547840D02*
X-17685715Y14976412D01*
X-17685715Y14976412D02*
X-18180954Y14976412D01*
X-18485716Y15014507D02*
X-19095239Y15014507D01*
X-19400001Y15509745D02*
X-19895239Y15509745D01*
X-19895239Y15509745D02*
X-19628573Y15204983D01*
X-19628573Y15204983D02*
X-19742858Y15204983D01*
X-19742858Y15204983D02*
X-19819049Y15166888D01*
X-19819049Y15166888D02*
X-19857144Y15128793D01*
X-19857144Y15128793D02*
X-19895239Y15052602D01*
X-19895239Y15052602D02*
X-19895239Y14862126D01*
X-19895239Y14862126D02*
X-19857144Y14785936D01*
X-19857144Y14785936D02*
X-19819049Y14747840D01*
X-19819049Y14747840D02*
X-19742858Y14709745D01*
X-19742858Y14709745D02*
X-19514287Y14709745D01*
X-19514287Y14709745D02*
X-19438096Y14747840D01*
X-19438096Y14747840D02*
X-19400001Y14785936D01*
X-20657144Y14709745D02*
X-20200001Y14709745D01*
X-20428573Y14709745D02*
X-20428573Y15509745D01*
X-20428573Y15509745D02*
X-20352382Y15395460D01*
X-20352382Y15395460D02*
X-20276192Y15319269D01*
X-20276192Y15319269D02*
X-20200001Y15281174D01*
X-21152383Y15509745D02*
X-21228573Y15509745D01*
X-21228573Y15509745D02*
X-21304764Y15471650D01*
X-21304764Y15471650D02*
X-21342859Y15433555D01*
X-21342859Y15433555D02*
X-21380954Y15357364D01*
X-21380954Y15357364D02*
X-21419049Y15204983D01*
X-21419049Y15204983D02*
X-21419049Y15014507D01*
X-21419049Y15014507D02*
X-21380954Y14862126D01*
X-21380954Y14862126D02*
X-21342859Y14785936D01*
X-21342859Y14785936D02*
X-21304764Y14747840D01*
X-21304764Y14747840D02*
X-21228573Y14709745D01*
X-21228573Y14709745D02*
X-21152383Y14709745D01*
X-21152383Y14709745D02*
X-21076192Y14747840D01*
X-21076192Y14747840D02*
X-21038097Y14785936D01*
X-21038097Y14785936D02*
X-21000002Y14862126D01*
X-21000002Y14862126D02*
X-20961906Y15014507D01*
X-20961906Y15014507D02*
X-20961906Y15204983D01*
X-20961906Y15204983D02*
X-21000002Y15357364D01*
X-21000002Y15357364D02*
X-21038097Y15433555D01*
X-21038097Y15433555D02*
X-21076192Y15471650D01*
X-21076192Y15471650D02*
X-21152383Y15509745D01*
X-21723811Y15433555D02*
X-21761907Y15471650D01*
X-21761907Y15471650D02*
X-21838097Y15509745D01*
X-21838097Y15509745D02*
X-22028573Y15509745D01*
X-22028573Y15509745D02*
X-22104764Y15471650D01*
X-22104764Y15471650D02*
X-22142859Y15433555D01*
X-22142859Y15433555D02*
X-22180954Y15357364D01*
X-22180954Y15357364D02*
X-22180954Y15281174D01*
X-22180954Y15281174D02*
X-22142859Y15166888D01*
X-22142859Y15166888D02*
X-21685716Y14709745D01*
X-21685716Y14709745D02*
X-22180954Y14709745D01*
X-23133336Y14709745D02*
X-23133336Y15509745D01*
X-23133336Y15509745D02*
X-23590479Y14709745D01*
X-23590479Y14709745D02*
X-23590479Y15509745D01*
X23266667Y15509745D02*
X23266667Y14938317D01*
X23266667Y14938317D02*
X23304762Y14824031D01*
X23304762Y14824031D02*
X23380953Y14747840D01*
X23380953Y14747840D02*
X23495238Y14709745D01*
X23495238Y14709745D02*
X23571429Y14709745D01*
X22466667Y14709745D02*
X22923810Y14709745D01*
X22695238Y14709745D02*
X22695238Y15509745D01*
X22695238Y15509745D02*
X22771429Y15395460D01*
X22771429Y15395460D02*
X22847619Y15319269D01*
X22847619Y15319269D02*
X22923810Y15281174D01*
X21590476Y15509745D02*
X21400000Y14709745D01*
X21400000Y14709745D02*
X21247619Y15281174D01*
X21247619Y15281174D02*
X21095238Y14709745D01*
X21095238Y14709745D02*
X20904762Y15509745D01*
X20638095Y14938317D02*
X20257142Y14938317D01*
X20714285Y14709745D02*
X20447618Y15509745D01*
X20447618Y15509745D02*
X20180952Y14709745D01*
X19495238Y15471650D02*
X19571428Y15509745D01*
X19571428Y15509745D02*
X19685714Y15509745D01*
X19685714Y15509745D02*
X19800000Y15471650D01*
X19800000Y15471650D02*
X19876190Y15395460D01*
X19876190Y15395460D02*
X19914285Y15319269D01*
X19914285Y15319269D02*
X19952381Y15166888D01*
X19952381Y15166888D02*
X19952381Y15052602D01*
X19952381Y15052602D02*
X19914285Y14900221D01*
X19914285Y14900221D02*
X19876190Y14824031D01*
X19876190Y14824031D02*
X19800000Y14747840D01*
X19800000Y14747840D02*
X19685714Y14709745D01*
X19685714Y14709745D02*
X19609523Y14709745D01*
X19609523Y14709745D02*
X19495238Y14747840D01*
X19495238Y14747840D02*
X19457142Y14785936D01*
X19457142Y14785936D02*
X19457142Y15052602D01*
X19457142Y15052602D02*
X19609523Y15052602D01*
X18961904Y15509745D02*
X18809523Y15509745D01*
X18809523Y15509745D02*
X18733333Y15471650D01*
X18733333Y15471650D02*
X18657142Y15395460D01*
X18657142Y15395460D02*
X18619047Y15243079D01*
X18619047Y15243079D02*
X18619047Y14976412D01*
X18619047Y14976412D02*
X18657142Y14824031D01*
X18657142Y14824031D02*
X18733333Y14747840D01*
X18733333Y14747840D02*
X18809523Y14709745D01*
X18809523Y14709745D02*
X18961904Y14709745D01*
X18961904Y14709745D02*
X19038095Y14747840D01*
X19038095Y14747840D02*
X19114285Y14824031D01*
X19114285Y14824031D02*
X19152381Y14976412D01*
X19152381Y14976412D02*
X19152381Y15243079D01*
X19152381Y15243079D02*
X19114285Y15395460D01*
X19114285Y15395460D02*
X19038095Y15471650D01*
X19038095Y15471650D02*
X18961904Y15509745D01*
X17704762Y15433555D02*
X17666666Y15471650D01*
X17666666Y15471650D02*
X17590476Y15509745D01*
X17590476Y15509745D02*
X17400000Y15509745D01*
X17400000Y15509745D02*
X17323809Y15471650D01*
X17323809Y15471650D02*
X17285714Y15433555D01*
X17285714Y15433555D02*
X17247619Y15357364D01*
X17247619Y15357364D02*
X17247619Y15281174D01*
X17247619Y15281174D02*
X17285714Y15166888D01*
X17285714Y15166888D02*
X17742857Y14709745D01*
X17742857Y14709745D02*
X17247619Y14709745D01*
X16561904Y15509745D02*
X16714285Y15509745D01*
X16714285Y15509745D02*
X16790476Y15471650D01*
X16790476Y15471650D02*
X16828571Y15433555D01*
X16828571Y15433555D02*
X16904761Y15319269D01*
X16904761Y15319269D02*
X16942857Y15166888D01*
X16942857Y15166888D02*
X16942857Y14862126D01*
X16942857Y14862126D02*
X16904761Y14785936D01*
X16904761Y14785936D02*
X16866666Y14747840D01*
X16866666Y14747840D02*
X16790476Y14709745D01*
X16790476Y14709745D02*
X16638095Y14709745D01*
X16638095Y14709745D02*
X16561904Y14747840D01*
X16561904Y14747840D02*
X16523809Y14785936D01*
X16523809Y14785936D02*
X16485714Y14862126D01*
X16485714Y14862126D02*
X16485714Y15052602D01*
X16485714Y15052602D02*
X16523809Y15128793D01*
X16523809Y15128793D02*
X16561904Y15166888D01*
X16561904Y15166888D02*
X16638095Y15204983D01*
X16638095Y15204983D02*
X16790476Y15204983D01*
X16790476Y15204983D02*
X16866666Y15166888D01*
X16866666Y15166888D02*
X16904761Y15128793D01*
X16904761Y15128793D02*
X16942857Y15052602D01*
X15990475Y15509745D02*
X15914285Y15509745D01*
X15914285Y15509745D02*
X15838094Y15471650D01*
X15838094Y15471650D02*
X15799999Y15433555D01*
X15799999Y15433555D02*
X15761904Y15357364D01*
X15761904Y15357364D02*
X15723809Y15204983D01*
X15723809Y15204983D02*
X15723809Y15014507D01*
X15723809Y15014507D02*
X15761904Y14862126D01*
X15761904Y14862126D02*
X15799999Y14785936D01*
X15799999Y14785936D02*
X15838094Y14747840D01*
X15838094Y14747840D02*
X15914285Y14709745D01*
X15914285Y14709745D02*
X15990475Y14709745D01*
X15990475Y14709745D02*
X16066666Y14747840D01*
X16066666Y14747840D02*
X16104761Y14785936D01*
X16104761Y14785936D02*
X16142856Y14862126D01*
X16142856Y14862126D02*
X16180952Y15014507D01*
X16180952Y15014507D02*
X16180952Y15204983D01*
X16180952Y15204983D02*
X16142856Y15357364D01*
X16142856Y15357364D02*
X16104761Y15433555D01*
X16104761Y15433555D02*
X16066666Y15471650D01*
X16066666Y15471650D02*
X15990475Y15509745D01*
X15038094Y15243079D02*
X15038094Y14709745D01*
X15228570Y15547840D02*
X15419047Y14976412D01*
X15419047Y14976412D02*
X14923808Y14976412D01*
X14619046Y15014507D02*
X14009523Y15014507D01*
X13704761Y15509745D02*
X13209523Y15509745D01*
X13209523Y15509745D02*
X13476189Y15204983D01*
X13476189Y15204983D02*
X13361904Y15204983D01*
X13361904Y15204983D02*
X13285713Y15166888D01*
X13285713Y15166888D02*
X13247618Y15128793D01*
X13247618Y15128793D02*
X13209523Y15052602D01*
X13209523Y15052602D02*
X13209523Y14862126D01*
X13209523Y14862126D02*
X13247618Y14785936D01*
X13247618Y14785936D02*
X13285713Y14747840D01*
X13285713Y14747840D02*
X13361904Y14709745D01*
X13361904Y14709745D02*
X13590475Y14709745D01*
X13590475Y14709745D02*
X13666666Y14747840D01*
X13666666Y14747840D02*
X13704761Y14785936D01*
X12447618Y14709745D02*
X12904761Y14709745D01*
X12676189Y14709745D02*
X12676189Y15509745D01*
X12676189Y15509745D02*
X12752380Y15395460D01*
X12752380Y15395460D02*
X12828570Y15319269D01*
X12828570Y15319269D02*
X12904761Y15281174D01*
X11952379Y15509745D02*
X11876189Y15509745D01*
X11876189Y15509745D02*
X11799998Y15471650D01*
X11799998Y15471650D02*
X11761903Y15433555D01*
X11761903Y15433555D02*
X11723808Y15357364D01*
X11723808Y15357364D02*
X11685713Y15204983D01*
X11685713Y15204983D02*
X11685713Y15014507D01*
X11685713Y15014507D02*
X11723808Y14862126D01*
X11723808Y14862126D02*
X11761903Y14785936D01*
X11761903Y14785936D02*
X11799998Y14747840D01*
X11799998Y14747840D02*
X11876189Y14709745D01*
X11876189Y14709745D02*
X11952379Y14709745D01*
X11952379Y14709745D02*
X12028570Y14747840D01*
X12028570Y14747840D02*
X12066665Y14785936D01*
X12066665Y14785936D02*
X12104760Y14862126D01*
X12104760Y14862126D02*
X12142856Y15014507D01*
X12142856Y15014507D02*
X12142856Y15204983D01*
X12142856Y15204983D02*
X12104760Y15357364D01*
X12104760Y15357364D02*
X12066665Y15433555D01*
X12066665Y15433555D02*
X12028570Y15471650D01*
X12028570Y15471650D02*
X11952379Y15509745D01*
X11380951Y15433555D02*
X11342855Y15471650D01*
X11342855Y15471650D02*
X11266665Y15509745D01*
X11266665Y15509745D02*
X11076189Y15509745D01*
X11076189Y15509745D02*
X10999998Y15471650D01*
X10999998Y15471650D02*
X10961903Y15433555D01*
X10961903Y15433555D02*
X10923808Y15357364D01*
X10923808Y15357364D02*
X10923808Y15281174D01*
X10923808Y15281174D02*
X10961903Y15166888D01*
X10961903Y15166888D02*
X11419046Y14709745D01*
X11419046Y14709745D02*
X10923808Y14709745D01*
X9590474Y14709745D02*
X9971426Y14709745D01*
X9971426Y14709745D02*
X9971426Y15509745D01*
X-6586145Y11142857D02*
X-7386145Y11142857D01*
X-7386145Y11142857D02*
X-6586145Y10685714D01*
X-6586145Y10685714D02*
X-7386145Y10685714D01*
X-6586145Y9695238D02*
X-7386145Y9695238D01*
X-6586145Y9314286D02*
X-7386145Y9314286D01*
X-7386145Y9314286D02*
X-6586145Y8857143D01*
X-6586145Y8857143D02*
X-7386145Y8857143D01*
X-6586145Y7019047D02*
X-7386145Y7019047D01*
X-7386145Y7019047D02*
X-6586145Y6561904D01*
X-6586145Y6561904D02*
X-7386145Y6561904D01*
X-6586145Y5190476D02*
X-6586145Y5571428D01*
X-6586145Y5571428D02*
X-7386145Y5571428D01*
X-7386145Y4771428D02*
X-7386145Y4619047D01*
X-7386145Y4619047D02*
X-7348050Y4542857D01*
X-7348050Y4542857D02*
X-7271860Y4466666D01*
X-7271860Y4466666D02*
X-7119479Y4428571D01*
X-7119479Y4428571D02*
X-6852812Y4428571D01*
X-6852812Y4428571D02*
X-6700431Y4466666D01*
X-6700431Y4466666D02*
X-6624240Y4542857D01*
X-6624240Y4542857D02*
X-6586145Y4619047D01*
X-6586145Y4619047D02*
X-6586145Y4771428D01*
X-6586145Y4771428D02*
X-6624240Y4847619D01*
X-6624240Y4847619D02*
X-6700431Y4923809D01*
X-6700431Y4923809D02*
X-6852812Y4961905D01*
X-6852812Y4961905D02*
X-7119479Y4961905D01*
X-7119479Y4961905D02*
X-7271860Y4923809D01*
X-7271860Y4923809D02*
X-7348050Y4847619D01*
X-7348050Y4847619D02*
X-7386145Y4771428D01*
X-6814717Y4123810D02*
X-6814717Y3742857D01*
X-6586145Y4200000D02*
X-7386145Y3933333D01*
X-7386145Y3933333D02*
X-6586145Y3666667D01*
X-6586145Y3400000D02*
X-7386145Y3400000D01*
X-7386145Y3400000D02*
X-7386145Y3209524D01*
X-7386145Y3209524D02*
X-7348050Y3095238D01*
X-7348050Y3095238D02*
X-7271860Y3019048D01*
X-7271860Y3019048D02*
X-7195669Y2980953D01*
X-7195669Y2980953D02*
X-7043288Y2942857D01*
X-7043288Y2942857D02*
X-6929002Y2942857D01*
X-6929002Y2942857D02*
X-6776621Y2980953D01*
X-6776621Y2980953D02*
X-6700431Y3019048D01*
X-6700431Y3019048D02*
X-6624240Y3095238D01*
X-6624240Y3095238D02*
X-6586145Y3209524D01*
X-6586145Y3209524D02*
X-6586145Y3400000D01*
X363855Y20133098D02*
X-436145Y20133098D01*
X-436145Y20133098D02*
X-436145Y19828336D01*
X-436145Y19828336D02*
X-398050Y19752146D01*
X-398050Y19752146D02*
X-359955Y19714051D01*
X-359955Y19714051D02*
X-283764Y19675955D01*
X-283764Y19675955D02*
X-169479Y19675955D01*
X-169479Y19675955D02*
X-93288Y19714051D01*
X-93288Y19714051D02*
X-55193Y19752146D01*
X-55193Y19752146D02*
X-17098Y19828336D01*
X-17098Y19828336D02*
X-17098Y20133098D01*
X325760Y19371194D02*
X363855Y19256908D01*
X363855Y19256908D02*
X363855Y19066432D01*
X363855Y19066432D02*
X325760Y18990241D01*
X325760Y18990241D02*
X287664Y18952146D01*
X287664Y18952146D02*
X211474Y18914051D01*
X211474Y18914051D02*
X135283Y18914051D01*
X135283Y18914051D02*
X59093Y18952146D01*
X59093Y18952146D02*
X20998Y18990241D01*
X20998Y18990241D02*
X-17098Y19066432D01*
X-17098Y19066432D02*
X-55193Y19218813D01*
X-55193Y19218813D02*
X-93288Y19295003D01*
X-93288Y19295003D02*
X-131383Y19333098D01*
X-131383Y19333098D02*
X-207574Y19371194D01*
X-207574Y19371194D02*
X-283764Y19371194D01*
X-283764Y19371194D02*
X-359955Y19333098D01*
X-359955Y19333098D02*
X-398050Y19295003D01*
X-398050Y19295003D02*
X-436145Y19218813D01*
X-436145Y19218813D02*
X-436145Y19028336D01*
X-436145Y19028336D02*
X-398050Y18914051D01*
X363855Y18152146D02*
X363855Y18609289D01*
X363855Y18380717D02*
X-436145Y18380717D01*
X-436145Y18380717D02*
X-321860Y18456908D01*
X-321860Y18456908D02*
X-245669Y18533098D01*
X-245669Y18533098D02*
X-207574Y18609289D01*
X-436145Y17314050D02*
X-436145Y16856907D01*
X363855Y17085479D02*
X-436145Y17085479D01*
X363855Y16590240D02*
X-169479Y16590240D01*
X-17098Y16590240D02*
X-93288Y16552145D01*
X-93288Y16552145D02*
X-131383Y16514050D01*
X-131383Y16514050D02*
X-169479Y16437859D01*
X-169479Y16437859D02*
X-169479Y16361669D01*
X363855Y15752145D02*
X-55193Y15752145D01*
X-55193Y15752145D02*
X-131383Y15790240D01*
X-131383Y15790240D02*
X-169479Y15866431D01*
X-169479Y15866431D02*
X-169479Y16018812D01*
X-169479Y16018812D02*
X-131383Y16095002D01*
X325760Y15752145D02*
X363855Y15828336D01*
X363855Y15828336D02*
X363855Y16018812D01*
X363855Y16018812D02*
X325760Y16095002D01*
X325760Y16095002D02*
X249569Y16133098D01*
X249569Y16133098D02*
X173379Y16133098D01*
X173379Y16133098D02*
X97188Y16095002D01*
X97188Y16095002D02*
X59093Y16018812D01*
X59093Y16018812D02*
X59093Y15828336D01*
X59093Y15828336D02*
X20998Y15752145D01*
X325760Y15028335D02*
X363855Y15104526D01*
X363855Y15104526D02*
X363855Y15256907D01*
X363855Y15256907D02*
X325760Y15333097D01*
X325760Y15333097D02*
X287664Y15371192D01*
X287664Y15371192D02*
X211474Y15409288D01*
X211474Y15409288D02*
X-17098Y15409288D01*
X-17098Y15409288D02*
X-93288Y15371192D01*
X-93288Y15371192D02*
X-131383Y15333097D01*
X-131383Y15333097D02*
X-169479Y15256907D01*
X-169479Y15256907D02*
X-169479Y15104526D01*
X-169479Y15104526D02*
X-131383Y15028335D01*
X363855Y14571193D02*
X325760Y14647383D01*
X325760Y14647383D02*
X287664Y14685478D01*
X287664Y14685478D02*
X211474Y14723574D01*
X211474Y14723574D02*
X-17098Y14723574D01*
X-17098Y14723574D02*
X-93288Y14685478D01*
X-93288Y14685478D02*
X-131383Y14647383D01*
X-131383Y14647383D02*
X-169479Y14571193D01*
X-169479Y14571193D02*
X-169479Y14456907D01*
X-169479Y14456907D02*
X-131383Y14380716D01*
X-131383Y14380716D02*
X-93288Y14342621D01*
X-93288Y14342621D02*
X-17098Y14304526D01*
X-17098Y14304526D02*
X211474Y14304526D01*
X211474Y14304526D02*
X287664Y14342621D01*
X287664Y14342621D02*
X325760Y14380716D01*
X325760Y14380716D02*
X363855Y14456907D01*
X363855Y14456907D02*
X363855Y14571193D01*
X363855Y13352144D02*
X-436145Y13352144D01*
X-436145Y13352144D02*
X-436145Y13047382D01*
X-436145Y13047382D02*
X-398050Y12971192D01*
X-398050Y12971192D02*
X-359955Y12933097D01*
X-359955Y12933097D02*
X-283764Y12895001D01*
X-283764Y12895001D02*
X-169479Y12895001D01*
X-169479Y12895001D02*
X-93288Y12933097D01*
X-93288Y12933097D02*
X-55193Y12971192D01*
X-55193Y12971192D02*
X-17098Y13047382D01*
X-17098Y13047382D02*
X-17098Y13352144D01*
X363855Y12437859D02*
X325760Y12514049D01*
X325760Y12514049D02*
X287664Y12552144D01*
X287664Y12552144D02*
X211474Y12590240D01*
X211474Y12590240D02*
X-17098Y12590240D01*
X-17098Y12590240D02*
X-93288Y12552144D01*
X-93288Y12552144D02*
X-131383Y12514049D01*
X-131383Y12514049D02*
X-169479Y12437859D01*
X-169479Y12437859D02*
X-169479Y12323573D01*
X-169479Y12323573D02*
X-131383Y12247382D01*
X-131383Y12247382D02*
X-93288Y12209287D01*
X-93288Y12209287D02*
X-17098Y12171192D01*
X-17098Y12171192D02*
X211474Y12171192D01*
X211474Y12171192D02*
X287664Y12209287D01*
X287664Y12209287D02*
X325760Y12247382D01*
X325760Y12247382D02*
X363855Y12323573D01*
X363855Y12323573D02*
X363855Y12437859D01*
X-169479Y11904525D02*
X363855Y11752144D01*
X363855Y11752144D02*
X-17098Y11599763D01*
X-17098Y11599763D02*
X363855Y11447382D01*
X363855Y11447382D02*
X-169479Y11295001D01*
X325760Y10685477D02*
X363855Y10761668D01*
X363855Y10761668D02*
X363855Y10914049D01*
X363855Y10914049D02*
X325760Y10990239D01*
X325760Y10990239D02*
X249569Y11028335D01*
X249569Y11028335D02*
X-55193Y11028335D01*
X-55193Y11028335D02*
X-131383Y10990239D01*
X-131383Y10990239D02*
X-169479Y10914049D01*
X-169479Y10914049D02*
X-169479Y10761668D01*
X-169479Y10761668D02*
X-131383Y10685477D01*
X-131383Y10685477D02*
X-55193Y10647382D01*
X-55193Y10647382D02*
X20998Y10647382D01*
X20998Y10647382D02*
X97188Y11028335D01*
X363855Y10304525D02*
X-169479Y10304525D01*
X-17098Y10304525D02*
X-93288Y10266430D01*
X-93288Y10266430D02*
X-131383Y10228335D01*
X-131383Y10228335D02*
X-169479Y10152144D01*
X-169479Y10152144D02*
X-169479Y10075954D01*
X-436145Y9314049D02*
X-436145Y8856906D01*
X363855Y9085478D02*
X-436145Y9085478D01*
X363855Y8590239D02*
X-436145Y8590239D01*
X-436145Y8590239D02*
X135283Y8323573D01*
X135283Y8323573D02*
X-436145Y8056906D01*
X-436145Y8056906D02*
X363855Y8056906D01*
X363855Y7675953D02*
X-436145Y7675953D01*
X-436145Y7675953D02*
X-436145Y7371191D01*
X-436145Y7371191D02*
X-398050Y7295001D01*
X-398050Y7295001D02*
X-359955Y7256906D01*
X-359955Y7256906D02*
X-283764Y7218810D01*
X-283764Y7218810D02*
X-169479Y7218810D01*
X-169479Y7218810D02*
X-93288Y7256906D01*
X-93288Y7256906D02*
X-55193Y7295001D01*
X-55193Y7295001D02*
X-17098Y7371191D01*
X-17098Y7371191D02*
X-17098Y7675953D01*
X325760Y6914049D02*
X363855Y6799763D01*
X363855Y6799763D02*
X363855Y6609287D01*
X363855Y6609287D02*
X325760Y6533096D01*
X325760Y6533096D02*
X287664Y6495001D01*
X287664Y6495001D02*
X211474Y6456906D01*
X211474Y6456906D02*
X135283Y6456906D01*
X135283Y6456906D02*
X59093Y6495001D01*
X59093Y6495001D02*
X20998Y6533096D01*
X20998Y6533096D02*
X-17098Y6609287D01*
X-17098Y6609287D02*
X-55193Y6761668D01*
X-55193Y6761668D02*
X-93288Y6837858D01*
X-93288Y6837858D02*
X-131383Y6875953D01*
X-131383Y6875953D02*
X-207574Y6914049D01*
X-207574Y6914049D02*
X-283764Y6914049D01*
X-283764Y6914049D02*
X-359955Y6875953D01*
X-359955Y6875953D02*
X-398050Y6837858D01*
X-398050Y6837858D02*
X-436145Y6761668D01*
X-436145Y6761668D02*
X-436145Y6571191D01*
X-436145Y6571191D02*
X-398050Y6456906D01*
X-436145Y5352143D02*
X-436145Y5275953D01*
X-436145Y5275953D02*
X-398050Y5199762D01*
X-398050Y5199762D02*
X-359955Y5161667D01*
X-359955Y5161667D02*
X-283764Y5123572D01*
X-283764Y5123572D02*
X-131383Y5085477D01*
X-131383Y5085477D02*
X59093Y5085477D01*
X59093Y5085477D02*
X211474Y5123572D01*
X211474Y5123572D02*
X287664Y5161667D01*
X287664Y5161667D02*
X325760Y5199762D01*
X325760Y5199762D02*
X363855Y5275953D01*
X363855Y5275953D02*
X363855Y5352143D01*
X363855Y5352143D02*
X325760Y5428334D01*
X325760Y5428334D02*
X287664Y5466429D01*
X287664Y5466429D02*
X211474Y5504524D01*
X211474Y5504524D02*
X59093Y5542620D01*
X59093Y5542620D02*
X-131383Y5542620D01*
X-131383Y5542620D02*
X-283764Y5504524D01*
X-283764Y5504524D02*
X-359955Y5466429D01*
X-359955Y5466429D02*
X-398050Y5428334D01*
X-398050Y5428334D02*
X-436145Y5352143D01*
X-436145Y4818810D02*
X-436145Y4323572D01*
X-436145Y4323572D02*
X-131383Y4590238D01*
X-131383Y4590238D02*
X-131383Y4475953D01*
X-131383Y4475953D02*
X-93288Y4399762D01*
X-93288Y4399762D02*
X-55193Y4361667D01*
X-55193Y4361667D02*
X20998Y4323572D01*
X20998Y4323572D02*
X211474Y4323572D01*
X211474Y4323572D02*
X287664Y4361667D01*
X287664Y4361667D02*
X325760Y4399762D01*
X325760Y4399762D02*
X363855Y4475953D01*
X363855Y4475953D02*
X363855Y4704524D01*
X363855Y4704524D02*
X325760Y4780715D01*
X325760Y4780715D02*
X287664Y4818810D01*
X59093Y3980714D02*
X59093Y3371190D01*
X363855Y2571191D02*
X363855Y3028334D01*
X363855Y2799762D02*
X-436145Y2799762D01*
X-436145Y2799762D02*
X-321860Y2875953D01*
X-321860Y2875953D02*
X-245669Y2952143D01*
X-245669Y2952143D02*
X-207574Y3028334D01*
X-436145Y2075952D02*
X-436145Y1999762D01*
X-436145Y1999762D02*
X-398050Y1923571D01*
X-398050Y1923571D02*
X-359955Y1885476D01*
X-359955Y1885476D02*
X-283764Y1847381D01*
X-283764Y1847381D02*
X-131383Y1809286D01*
X-131383Y1809286D02*
X59093Y1809286D01*
X59093Y1809286D02*
X211474Y1847381D01*
X211474Y1847381D02*
X287664Y1885476D01*
X287664Y1885476D02*
X325760Y1923571D01*
X325760Y1923571D02*
X363855Y1999762D01*
X363855Y1999762D02*
X363855Y2075952D01*
X363855Y2075952D02*
X325760Y2152143D01*
X325760Y2152143D02*
X287664Y2190238D01*
X287664Y2190238D02*
X211474Y2228333D01*
X211474Y2228333D02*
X59093Y2266429D01*
X59093Y2266429D02*
X-131383Y2266429D01*
X-131383Y2266429D02*
X-283764Y2228333D01*
X-283764Y2228333D02*
X-359955Y2190238D01*
X-359955Y2190238D02*
X-398050Y2152143D01*
X-398050Y2152143D02*
X-436145Y2075952D01*
X-436145Y1085476D02*
X-436145Y1466428D01*
X-436145Y1466428D02*
X-55193Y1504524D01*
X-55193Y1504524D02*
X-93288Y1466428D01*
X-93288Y1466428D02*
X-131383Y1390238D01*
X-131383Y1390238D02*
X-131383Y1199762D01*
X-131383Y1199762D02*
X-93288Y1123571D01*
X-93288Y1123571D02*
X-55193Y1085476D01*
X-55193Y1085476D02*
X20998Y1047381D01*
X20998Y1047381D02*
X211474Y1047381D01*
X211474Y1047381D02*
X287664Y1085476D01*
X287664Y1085476D02*
X325760Y1123571D01*
X325760Y1123571D02*
X363855Y1199762D01*
X363855Y1199762D02*
X363855Y1390238D01*
X363855Y1390238D02*
X325760Y1466428D01*
X325760Y1466428D02*
X287664Y1504524D01*
X7313855Y10666667D02*
X7313855Y11047619D01*
X7313855Y11047619D02*
X6513855Y11047619D01*
X7313855Y9790476D02*
X6513855Y9790476D01*
X7313855Y9409524D02*
X6513855Y9409524D01*
X6513855Y9409524D02*
X7313855Y8952381D01*
X7313855Y8952381D02*
X6513855Y8952381D01*
X7313855Y6542857D02*
X7313855Y6923809D01*
X7313855Y6923809D02*
X6513855Y6923809D01*
X7313855Y5285714D02*
X7313855Y5666666D01*
X7313855Y5666666D02*
X6513855Y5666666D01*
X6513855Y4866666D02*
X6513855Y4714285D01*
X6513855Y4714285D02*
X6551950Y4638095D01*
X6551950Y4638095D02*
X6628140Y4561904D01*
X6628140Y4561904D02*
X6780521Y4523809D01*
X6780521Y4523809D02*
X7047188Y4523809D01*
X7047188Y4523809D02*
X7199569Y4561904D01*
X7199569Y4561904D02*
X7275760Y4638095D01*
X7275760Y4638095D02*
X7313855Y4714285D01*
X7313855Y4714285D02*
X7313855Y4866666D01*
X7313855Y4866666D02*
X7275760Y4942857D01*
X7275760Y4942857D02*
X7199569Y5019047D01*
X7199569Y5019047D02*
X7047188Y5057143D01*
X7047188Y5057143D02*
X6780521Y5057143D01*
X6780521Y5057143D02*
X6628140Y5019047D01*
X6628140Y5019047D02*
X6551950Y4942857D01*
X6551950Y4942857D02*
X6513855Y4866666D01*
X7085283Y4219048D02*
X7085283Y3838095D01*
X7313855Y4295238D02*
X6513855Y4028571D01*
X6513855Y4028571D02*
X7313855Y3761905D01*
X7313855Y3495238D02*
X6513855Y3495238D01*
X6513855Y3495238D02*
X6513855Y3304762D01*
X6513855Y3304762D02*
X6551950Y3190476D01*
X6551950Y3190476D02*
X6628140Y3114286D01*
X6628140Y3114286D02*
X6704331Y3076191D01*
X6704331Y3076191D02*
X6856712Y3038095D01*
X6856712Y3038095D02*
X6970998Y3038095D01*
X6970998Y3038095D02*
X7123379Y3076191D01*
X7123379Y3076191D02*
X7199569Y3114286D01*
X7199569Y3114286D02*
X7275760Y3190476D01*
X7275760Y3190476D02*
X7313855Y3304762D01*
X7313855Y3304762D02*
X7313855Y3495238D01*
D11*
X4992857Y-24909337D02*
X4992857Y-24009337D01*
X4992857Y-24009337D02*
X4692857Y-24652194D01*
X4692857Y-24652194D02*
X4392857Y-24009337D01*
X4392857Y-24009337D02*
X4392857Y-24909337D01*
X4007143Y-24652194D02*
X3578572Y-24652194D01*
X4092857Y-24909337D02*
X3792857Y-24009337D01*
X3792857Y-24009337D02*
X3492857Y-24909337D01*
X3192857Y-24909337D02*
X3192857Y-24009337D01*
X2764286Y-24909337D02*
X2764286Y-24009337D01*
X2764286Y-24009337D02*
X2250000Y-24909337D01*
X2250000Y-24909337D02*
X2250000Y-24009337D01*
X1864286Y-24866480D02*
X1735715Y-24909337D01*
X1735715Y-24909337D02*
X1521429Y-24909337D01*
X1521429Y-24909337D02*
X1435715Y-24866480D01*
X1435715Y-24866480D02*
X1392857Y-24823622D01*
X1392857Y-24823622D02*
X1350000Y-24737908D01*
X1350000Y-24737908D02*
X1350000Y-24652194D01*
X1350000Y-24652194D02*
X1392857Y-24566480D01*
X1392857Y-24566480D02*
X1435715Y-24523622D01*
X1435715Y-24523622D02*
X1521429Y-24480765D01*
X1521429Y-24480765D02*
X1692857Y-24437908D01*
X1692857Y-24437908D02*
X1778572Y-24395051D01*
X1778572Y-24395051D02*
X1821429Y-24352194D01*
X1821429Y-24352194D02*
X1864286Y-24266480D01*
X1864286Y-24266480D02*
X1864286Y-24180765D01*
X1864286Y-24180765D02*
X1821429Y-24095051D01*
X1821429Y-24095051D02*
X1778572Y-24052194D01*
X1778572Y-24052194D02*
X1692857Y-24009337D01*
X1692857Y-24009337D02*
X1478572Y-24009337D01*
X1478572Y-24009337D02*
X1350000Y-24052194D01*
X321429Y-24095051D02*
X278572Y-24052194D01*
X278572Y-24052194D02*
X192858Y-24009337D01*
X192858Y-24009337D02*
X-21428Y-24009337D01*
X-21428Y-24009337D02*
X-107142Y-24052194D01*
X-107142Y-24052194D02*
X-150000Y-24095051D01*
X-150000Y-24095051D02*
X-192857Y-24180765D01*
X-192857Y-24180765D02*
X-192857Y-24266480D01*
X-192857Y-24266480D02*
X-150000Y-24395051D01*
X-150000Y-24395051D02*
X364286Y-24909337D01*
X364286Y-24909337D02*
X-192857Y-24909337D01*
X-492857Y-24009337D02*
X-1050000Y-24009337D01*
X-1050000Y-24009337D02*
X-750000Y-24352194D01*
X-750000Y-24352194D02*
X-878571Y-24352194D01*
X-878571Y-24352194D02*
X-964285Y-24395051D01*
X-964285Y-24395051D02*
X-1007143Y-24437908D01*
X-1007143Y-24437908D02*
X-1050000Y-24523622D01*
X-1050000Y-24523622D02*
X-1050000Y-24737908D01*
X-1050000Y-24737908D02*
X-1007143Y-24823622D01*
X-1007143Y-24823622D02*
X-964285Y-24866480D01*
X-964285Y-24866480D02*
X-878571Y-24909337D01*
X-878571Y-24909337D02*
X-621428Y-24909337D01*
X-621428Y-24909337D02*
X-535714Y-24866480D01*
X-535714Y-24866480D02*
X-492857Y-24823622D01*
X-1607143Y-24009337D02*
X-1692857Y-24009337D01*
X-1692857Y-24009337D02*
X-1778571Y-24052194D01*
X-1778571Y-24052194D02*
X-1821428Y-24095051D01*
X-1821428Y-24095051D02*
X-1864286Y-24180765D01*
X-1864286Y-24180765D02*
X-1907143Y-24352194D01*
X-1907143Y-24352194D02*
X-1907143Y-24566480D01*
X-1907143Y-24566480D02*
X-1864286Y-24737908D01*
X-1864286Y-24737908D02*
X-1821428Y-24823622D01*
X-1821428Y-24823622D02*
X-1778571Y-24866480D01*
X-1778571Y-24866480D02*
X-1692857Y-24909337D01*
X-1692857Y-24909337D02*
X-1607143Y-24909337D01*
X-1607143Y-24909337D02*
X-1521428Y-24866480D01*
X-1521428Y-24866480D02*
X-1478571Y-24823622D01*
X-1478571Y-24823622D02*
X-1435714Y-24737908D01*
X-1435714Y-24737908D02*
X-1392857Y-24566480D01*
X-1392857Y-24566480D02*
X-1392857Y-24352194D01*
X-1392857Y-24352194D02*
X-1435714Y-24180765D01*
X-1435714Y-24180765D02*
X-1478571Y-24095051D01*
X-1478571Y-24095051D02*
X-1521428Y-24052194D01*
X-1521428Y-24052194D02*
X-1607143Y-24009337D01*
X-2850000Y-24009337D02*
X-3150000Y-24909337D01*
X-3150000Y-24909337D02*
X-3450000Y-24009337D01*
X-3707143Y-24652194D02*
X-4135714Y-24652194D01*
X-3621429Y-24909337D02*
X-3921429Y-24009337D01*
X-3921429Y-24009337D02*
X-4221429Y-24909337D01*
X-5035715Y-24823622D02*
X-4992858Y-24866480D01*
X-4992858Y-24866480D02*
X-4864286Y-24909337D01*
X-4864286Y-24909337D02*
X-4778572Y-24909337D01*
X-4778572Y-24909337D02*
X-4650001Y-24866480D01*
X-4650001Y-24866480D02*
X-4564286Y-24780765D01*
X-4564286Y-24780765D02*
X-4521429Y-24695051D01*
X-4521429Y-24695051D02*
X-4478572Y-24523622D01*
X-4478572Y-24523622D02*
X-4478572Y-24395051D01*
X-4478572Y-24395051D02*
X-4521429Y-24223622D01*
X-4521429Y-24223622D02*
X-4564286Y-24137908D01*
X-4564286Y-24137908D02*
X-4650001Y-24052194D01*
X-4650001Y-24052194D02*
X-4778572Y-24009337D01*
X-4778572Y-24009337D02*
X-4864286Y-24009337D01*
X-4864286Y-24009337D02*
X-4992858Y-24052194D01*
X-4992858Y-24052194D02*
X-5035715Y-24095051D01*
G04 #@! TO.C,J1*
D10*
X25070000Y1080000D02*
X8130000Y1080000D01*
X8130000Y13920000D01*
X25070000Y13920000D01*
X25070000Y1080000D01*
G04 #@! TO.C,J2*
X-25070000Y13920000D02*
X-8130000Y13920000D01*
X-8130000Y1080000D01*
X-25070000Y1080000D01*
X-25070000Y13920000D01*
G04 #@! TD*
%LPC*%
D12*
G04 #@! TO.C,MH1*
X-17500000Y19500000D03*
G04 #@! TD*
G04 #@! TO.C,MH2*
X17500000Y19500000D03*
G04 #@! TD*
G04 #@! TO.C,MH3*
X-20000000Y-12000000D03*
G04 #@! TD*
D13*
G04 #@! TO.C,S1*
X5100000Y12500000D03*
X5100000Y5500000D03*
X-5100000Y12500000D03*
X-5100000Y5500000D03*
G04 #@! TD*
D12*
G04 #@! TO.C,J1*
X13150000Y5000000D03*
D14*
X21350000Y5000000D03*
D12*
X13150000Y10000000D03*
X21350000Y10000000D03*
G04 #@! TD*
D15*
G04 #@! TO.C,PS1*
X-10160000Y-2340000D03*
D16*
X-5080000Y-2340000D03*
X10160000Y-22660000D03*
X0Y-22660000D03*
X-10160000Y-22660000D03*
G04 #@! TD*
D12*
G04 #@! TO.C,J2*
X-13150000Y10000000D03*
D14*
X-21350000Y10000000D03*
D12*
X-13150000Y5000000D03*
X-21350000Y5000000D03*
G04 #@! TD*
%LPD*%
M02*
