G04 #@! TF.GenerationSoftware,KiCad,Pcbnew,9.0.9-9.0.9~ubuntu24.04.1*
G04 #@! TF.CreationDate,2026-10-09T06:39:32+00:00*
G04 #@! TF.ProjectId,eu_mains_board,65755f6d-6169-46e7-935f-626f6172642e,rev?*
G04 #@! TF.SameCoordinates,Original*
G04 #@! TF.FileFunction,Legend,Top*
G04 #@! TF.FilePolarity,Positive*
%FSLAX46Y46*%
G04 Gerber Fmt 4.6, Leading zero omitted, Abs format (unit mm)*
G04 Created by KiCad (PCBNEW 9.0.9-9.0.9~ubuntu24.04.1) date 2026-10-09 06:39:32*
%MOMM*%
%LPD*%
G01*
G04 APERTURE LIST*
G04 Aperture macros list*
%AMRoundRect*
0 Rectangle with rounded corners*
0 $1 Rounding radius*
0 $2 $3 $4 $5 $6 $7 $8 $9 X,Y pos of 4 corners*
0 Add a 4 corners polygon primitive as box body*
4,1,4,$2,$3,$4,$5,$6,$7,$8,$9,$2,$3,0*
0 Add four circle primitives for the rounded corners*
1,1,$1+$1,$2,$3*
1,1,$1+$1,$4,$5*
1,1,$1+$1,$6,$7*
1,1,$1+$1,$8,$9*
0 Add four rect primitives between the rounded corners*
20,1,$1+$1,$2,$3,$4,$5,0*
20,1,$1+$1,$4,$5,$6,$7,0*
20,1,$1+$1,$6,$7,$8,$9,0*
20,1,$1+$1,$8,$9,$2,$3,0*%
G04 Aperture macros list end*
%ADD10C,0.120000*%
%ADD11C,2.200000*%
%ADD12R,3.500000X2.800000*%
%ADD13C,2.400000*%
%ADD14R,2.510000X1.000000*%
%ADD15RoundRect,0.250000X0.750000X1.625000X-0.750000X1.625000X-0.750000X-1.625000X0.750000X-1.625000X0*%
%ADD16R,2.200000X2.200000*%
%ADD17R,1.500000X1.500000*%
%ADD18C,1.500000*%
G04 APERTURE END LIST*
D10*
X-11407381Y-4563855D02*
X-11674048Y-4182902D01*
X-11864524Y-4563855D02*
X-11864524Y-3763855D01*
X-11864524Y-3763855D02*
X-11559762Y-3763855D01*
X-11559762Y-3763855D02*
X-11483572Y-3801950D01*
X-11483572Y-3801950D02*
X-11445477Y-3840045D01*
X-11445477Y-3840045D02*
X-11407381Y-3916236D01*
X-11407381Y-3916236D02*
X-11407381Y-4030521D01*
X-11407381Y-4030521D02*
X-11445477Y-4106712D01*
X-11445477Y-4106712D02*
X-11483572Y-4144807D01*
X-11483572Y-4144807D02*
X-11559762Y-4182902D01*
X-11559762Y-4182902D02*
X-11864524Y-4182902D01*
X-11178810Y-3763855D02*
X-10912143Y-4563855D01*
X-10912143Y-4563855D02*
X-10645477Y-3763855D01*
X-9959763Y-4563855D02*
X-10416906Y-4563855D01*
X-10188334Y-4563855D02*
X-10188334Y-3763855D01*
X-10188334Y-3763855D02*
X-10264525Y-3878140D01*
X-10264525Y-3878140D02*
X-10340715Y-3954331D01*
X-10340715Y-3954331D02*
X-10416906Y-3992426D01*
X-9121667Y-3763855D02*
X-8664524Y-3763855D01*
X-8893096Y-4563855D02*
X-8893096Y-3763855D01*
X-8397857Y-4563855D02*
X-8397857Y-3763855D01*
X-8397857Y-3763855D02*
X-8207381Y-3763855D01*
X-8207381Y-3763855D02*
X-8093095Y-3801950D01*
X-8093095Y-3801950D02*
X-8016905Y-3878140D01*
X-8016905Y-3878140D02*
X-7978810Y-3954331D01*
X-7978810Y-3954331D02*
X-7940714Y-4106712D01*
X-7940714Y-4106712D02*
X-7940714Y-4220998D01*
X-7940714Y-4220998D02*
X-7978810Y-4373379D01*
X-7978810Y-4373379D02*
X-8016905Y-4449569D01*
X-8016905Y-4449569D02*
X-8093095Y-4525760D01*
X-8093095Y-4525760D02*
X-8207381Y-4563855D01*
X-8207381Y-4563855D02*
X-8397857Y-4563855D01*
X-7597857Y-4563855D02*
X-7597857Y-3763855D01*
X-7140714Y-4563855D02*
X-7483572Y-4106712D01*
X-7140714Y-3763855D02*
X-7597857Y-4220998D01*
X-5731190Y-4487664D02*
X-5769286Y-4525760D01*
X-5769286Y-4525760D02*
X-5883571Y-4563855D01*
X-5883571Y-4563855D02*
X-5959762Y-4563855D01*
X-5959762Y-4563855D02*
X-6074048Y-4525760D01*
X-6074048Y-4525760D02*
X-6150238Y-4449569D01*
X-6150238Y-4449569D02*
X-6188333Y-4373379D01*
X-6188333Y-4373379D02*
X-6226429Y-4220998D01*
X-6226429Y-4220998D02*
X-6226429Y-4106712D01*
X-6226429Y-4106712D02*
X-6188333Y-3954331D01*
X-6188333Y-3954331D02*
X-6150238Y-3878140D01*
X-6150238Y-3878140D02*
X-6074048Y-3801950D01*
X-6074048Y-3801950D02*
X-5959762Y-3763855D01*
X-5959762Y-3763855D02*
X-5883571Y-3763855D01*
X-5883571Y-3763855D02*
X-5769286Y-3801950D01*
X-5769286Y-3801950D02*
X-5731190Y-3840045D01*
X-5388333Y-3763855D02*
X-5388333Y-4411474D01*
X-5388333Y-4411474D02*
X-5350238Y-4487664D01*
X-5350238Y-4487664D02*
X-5312143Y-4525760D01*
X-5312143Y-4525760D02*
X-5235952Y-4563855D01*
X-5235952Y-4563855D02*
X-5083571Y-4563855D01*
X-5083571Y-4563855D02*
X-5007381Y-4525760D01*
X-5007381Y-4525760D02*
X-4969286Y-4487664D01*
X-4969286Y-4487664D02*
X-4931190Y-4411474D01*
X-4931190Y-4411474D02*
X-4931190Y-3763855D01*
X-4207381Y-4030521D02*
X-4207381Y-4563855D01*
X-4397857Y-3725760D02*
X-4588334Y-4297188D01*
X-4588334Y-4297188D02*
X-4093095Y-4297188D01*
X-3635952Y-3763855D02*
X-3559762Y-3763855D01*
X-3559762Y-3763855D02*
X-3483571Y-3801950D01*
X-3483571Y-3801950D02*
X-3445476Y-3840045D01*
X-3445476Y-3840045D02*
X-3407381Y-3916236D01*
X-3407381Y-3916236D02*
X-3369286Y-4068617D01*
X-3369286Y-4068617D02*
X-3369286Y-4259093D01*
X-3369286Y-4259093D02*
X-3407381Y-4411474D01*
X-3407381Y-4411474D02*
X-3445476Y-4487664D01*
X-3445476Y-4487664D02*
X-3483571Y-4525760D01*
X-3483571Y-4525760D02*
X-3559762Y-4563855D01*
X-3559762Y-4563855D02*
X-3635952Y-4563855D01*
X-3635952Y-4563855D02*
X-3712143Y-4525760D01*
X-3712143Y-4525760D02*
X-3750238Y-4487664D01*
X-3750238Y-4487664D02*
X-3788333Y-4411474D01*
X-3788333Y-4411474D02*
X-3826429Y-4259093D01*
X-3826429Y-4259093D02*
X-3826429Y-4068617D01*
X-3826429Y-4068617D02*
X-3788333Y-3916236D01*
X-3788333Y-3916236D02*
X-3750238Y-3840045D01*
X-3750238Y-3840045D02*
X-3712143Y-3801950D01*
X-3712143Y-3801950D02*
X-3635952Y-3763855D01*
X-3102619Y-3763855D02*
X-2607381Y-3763855D01*
X-2607381Y-3763855D02*
X-2874047Y-4068617D01*
X-2874047Y-4068617D02*
X-2759762Y-4068617D01*
X-2759762Y-4068617D02*
X-2683571Y-4106712D01*
X-2683571Y-4106712D02*
X-2645476Y-4144807D01*
X-2645476Y-4144807D02*
X-2607381Y-4220998D01*
X-2607381Y-4220998D02*
X-2607381Y-4411474D01*
X-2607381Y-4411474D02*
X-2645476Y-4487664D01*
X-2645476Y-4487664D02*
X-2683571Y-4525760D01*
X-2683571Y-4525760D02*
X-2759762Y-4563855D01*
X-2759762Y-4563855D02*
X-2988333Y-4563855D01*
X-2988333Y-4563855D02*
X-3064524Y-4525760D01*
X-3064524Y-4525760D02*
X-3102619Y-4487664D01*
X-2302619Y-3840045D02*
X-2264523Y-3801950D01*
X-2264523Y-3801950D02*
X-2188333Y-3763855D01*
X-2188333Y-3763855D02*
X-1997857Y-3763855D01*
X-1997857Y-3763855D02*
X-1921666Y-3801950D01*
X-1921666Y-3801950D02*
X-1883571Y-3840045D01*
X-1883571Y-3840045D02*
X-1845476Y-3916236D01*
X-1845476Y-3916236D02*
X-1845476Y-3992426D01*
X-1845476Y-3992426D02*
X-1883571Y-4106712D01*
X-1883571Y-4106712D02*
X-2340714Y-4563855D01*
X-2340714Y-4563855D02*
X-1845476Y-4563855D01*
X-1502618Y-4563855D02*
X-1502618Y-3763855D01*
X-1045475Y-4563855D02*
X-1388333Y-4106712D01*
X-1045475Y-3763855D02*
X-1502618Y-4220998D01*
X-740714Y-3840045D02*
X-702618Y-3801950D01*
X-702618Y-3801950D02*
X-626428Y-3763855D01*
X-626428Y-3763855D02*
X-435952Y-3763855D01*
X-435952Y-3763855D02*
X-359761Y-3801950D01*
X-359761Y-3801950D02*
X-321666Y-3840045D01*
X-321666Y-3840045D02*
X-283571Y-3916236D01*
X-283571Y-3916236D02*
X-283571Y-3992426D01*
X-283571Y-3992426D02*
X-321666Y-4106712D01*
X-321666Y-4106712D02*
X-778809Y-4563855D01*
X-778809Y-4563855D02*
X-283571Y-4563855D01*
X-16904Y-3763855D02*
X516430Y-3763855D01*
X516430Y-3763855D02*
X173572Y-4563855D01*
X1202144Y-3763855D02*
X821192Y-3763855D01*
X821192Y-3763855D02*
X783096Y-4144807D01*
X783096Y-4144807D02*
X821192Y-4106712D01*
X821192Y-4106712D02*
X897382Y-4068617D01*
X897382Y-4068617D02*
X1087858Y-4068617D01*
X1087858Y-4068617D02*
X1164049Y-4106712D01*
X1164049Y-4106712D02*
X1202144Y-4144807D01*
X1202144Y-4144807D02*
X1240239Y-4220998D01*
X1240239Y-4220998D02*
X1240239Y-4411474D01*
X1240239Y-4411474D02*
X1202144Y-4487664D01*
X1202144Y-4487664D02*
X1164049Y-4525760D01*
X1164049Y-4525760D02*
X1087858Y-4563855D01*
X1087858Y-4563855D02*
X897382Y-4563855D01*
X897382Y-4563855D02*
X821192Y-4525760D01*
X821192Y-4525760D02*
X783096Y-4487664D01*
X2002144Y-3801950D02*
X1925954Y-3763855D01*
X1925954Y-3763855D02*
X1811668Y-3763855D01*
X1811668Y-3763855D02*
X1697382Y-3801950D01*
X1697382Y-3801950D02*
X1621192Y-3878140D01*
X1621192Y-3878140D02*
X1583097Y-3954331D01*
X1583097Y-3954331D02*
X1545001Y-4106712D01*
X1545001Y-4106712D02*
X1545001Y-4220998D01*
X1545001Y-4220998D02*
X1583097Y-4373379D01*
X1583097Y-4373379D02*
X1621192Y-4449569D01*
X1621192Y-4449569D02*
X1697382Y-4525760D01*
X1697382Y-4525760D02*
X1811668Y-4563855D01*
X1811668Y-4563855D02*
X1887859Y-4563855D01*
X1887859Y-4563855D02*
X2002144Y-4525760D01*
X2002144Y-4525760D02*
X2040240Y-4487664D01*
X2040240Y-4487664D02*
X2040240Y-4220998D01*
X2040240Y-4220998D02*
X1887859Y-4220998D01*
X2345001Y-3840045D02*
X2383097Y-3801950D01*
X2383097Y-3801950D02*
X2459287Y-3763855D01*
X2459287Y-3763855D02*
X2649763Y-3763855D01*
X2649763Y-3763855D02*
X2725954Y-3801950D01*
X2725954Y-3801950D02*
X2764049Y-3840045D01*
X2764049Y-3840045D02*
X2802144Y-3916236D01*
X2802144Y-3916236D02*
X2802144Y-3992426D01*
X2802144Y-3992426D02*
X2764049Y-4106712D01*
X2764049Y-4106712D02*
X2306906Y-4563855D01*
X2306906Y-4563855D02*
X2802144Y-4563855D01*
X-7447622Y23747840D02*
X-7333336Y23709745D01*
X-7333336Y23709745D02*
X-7142860Y23709745D01*
X-7142860Y23709745D02*
X-7066669Y23747840D01*
X-7066669Y23747840D02*
X-7028574Y23785936D01*
X-7028574Y23785936D02*
X-6990479Y23862126D01*
X-6990479Y23862126D02*
X-6990479Y23938317D01*
X-6990479Y23938317D02*
X-7028574Y24014507D01*
X-7028574Y24014507D02*
X-7066669Y24052602D01*
X-7066669Y24052602D02*
X-7142860Y24090698D01*
X-7142860Y24090698D02*
X-7295241Y24128793D01*
X-7295241Y24128793D02*
X-7371431Y24166888D01*
X-7371431Y24166888D02*
X-7409526Y24204983D01*
X-7409526Y24204983D02*
X-7447622Y24281174D01*
X-7447622Y24281174D02*
X-7447622Y24357364D01*
X-7447622Y24357364D02*
X-7409526Y24433555D01*
X-7409526Y24433555D02*
X-7371431Y24471650D01*
X-7371431Y24471650D02*
X-7295241Y24509745D01*
X-7295241Y24509745D02*
X-7104764Y24509745D01*
X-7104764Y24509745D02*
X-6990479Y24471650D01*
X-6228574Y23709745D02*
X-6685717Y23709745D01*
X-6457145Y23709745D02*
X-6457145Y24509745D01*
X-6457145Y24509745D02*
X-6533336Y24395460D01*
X-6533336Y24395460D02*
X-6609526Y24319269D01*
X-6609526Y24319269D02*
X-6685717Y24281174D01*
X-5276192Y23709745D02*
X-5276192Y24509745D01*
X-5276192Y24509745D02*
X-5009526Y23938317D01*
X-5009526Y23938317D02*
X-4742859Y24509745D01*
X-4742859Y24509745D02*
X-4742859Y23709745D01*
X-4019049Y23709745D02*
X-4019049Y24128793D01*
X-4019049Y24128793D02*
X-4057144Y24204983D01*
X-4057144Y24204983D02*
X-4133335Y24243079D01*
X-4133335Y24243079D02*
X-4285716Y24243079D01*
X-4285716Y24243079D02*
X-4361906Y24204983D01*
X-4019049Y23747840D02*
X-4095240Y23709745D01*
X-4095240Y23709745D02*
X-4285716Y23709745D01*
X-4285716Y23709745D02*
X-4361906Y23747840D01*
X-4361906Y23747840D02*
X-4400002Y23824031D01*
X-4400002Y23824031D02*
X-4400002Y23900221D01*
X-4400002Y23900221D02*
X-4361906Y23976412D01*
X-4361906Y23976412D02*
X-4285716Y24014507D01*
X-4285716Y24014507D02*
X-4095240Y24014507D01*
X-4095240Y24014507D02*
X-4019049Y24052602D01*
X-3638096Y23709745D02*
X-3638096Y24243079D01*
X-3638096Y24090698D02*
X-3600001Y24166888D01*
X-3600001Y24166888D02*
X-3561906Y24204983D01*
X-3561906Y24204983D02*
X-3485715Y24243079D01*
X-3485715Y24243079D02*
X-3409525Y24243079D01*
X-2800001Y24243079D02*
X-2800001Y23443079D01*
X-2800001Y23747840D02*
X-2876192Y23709745D01*
X-2876192Y23709745D02*
X-3028573Y23709745D01*
X-3028573Y23709745D02*
X-3104763Y23747840D01*
X-3104763Y23747840D02*
X-3142858Y23785936D01*
X-3142858Y23785936D02*
X-3180954Y23862126D01*
X-3180954Y23862126D02*
X-3180954Y24090698D01*
X-3180954Y24090698D02*
X-3142858Y24166888D01*
X-3142858Y24166888D02*
X-3104763Y24204983D01*
X-3104763Y24204983D02*
X-3028573Y24243079D01*
X-3028573Y24243079D02*
X-2876192Y24243079D01*
X-2876192Y24243079D02*
X-2800001Y24204983D01*
X-2076191Y24243079D02*
X-2076191Y23709745D01*
X-2419048Y24243079D02*
X-2419048Y23824031D01*
X-2419048Y23824031D02*
X-2380953Y23747840D01*
X-2380953Y23747840D02*
X-2304763Y23709745D01*
X-2304763Y23709745D02*
X-2190477Y23709745D01*
X-2190477Y23709745D02*
X-2114286Y23747840D01*
X-2114286Y23747840D02*
X-2076191Y23785936D01*
X-1352381Y23709745D02*
X-1352381Y24128793D01*
X-1352381Y24128793D02*
X-1390476Y24204983D01*
X-1390476Y24204983D02*
X-1466667Y24243079D01*
X-1466667Y24243079D02*
X-1619048Y24243079D01*
X-1619048Y24243079D02*
X-1695238Y24204983D01*
X-1352381Y23747840D02*
X-1428572Y23709745D01*
X-1428572Y23709745D02*
X-1619048Y23709745D01*
X-1619048Y23709745D02*
X-1695238Y23747840D01*
X-1695238Y23747840D02*
X-1733334Y23824031D01*
X-1733334Y23824031D02*
X-1733334Y23900221D01*
X-1733334Y23900221D02*
X-1695238Y23976412D01*
X-1695238Y23976412D02*
X-1619048Y24014507D01*
X-1619048Y24014507D02*
X-1428572Y24014507D01*
X-1428572Y24014507D02*
X-1352381Y24052602D01*
X-971428Y23709745D02*
X-971428Y24243079D01*
X-971428Y24090698D02*
X-933333Y24166888D01*
X-933333Y24166888D02*
X-895238Y24204983D01*
X-895238Y24204983D02*
X-819047Y24243079D01*
X-819047Y24243079D02*
X-742857Y24243079D01*
X-133333Y23709745D02*
X-133333Y24509745D01*
X-133333Y23747840D02*
X-209524Y23709745D01*
X-209524Y23709745D02*
X-361905Y23709745D01*
X-361905Y23709745D02*
X-438095Y23747840D01*
X-438095Y23747840D02*
X-476190Y23785936D01*
X-476190Y23785936D02*
X-514286Y23862126D01*
X-514286Y23862126D02*
X-514286Y24090698D01*
X-514286Y24090698D02*
X-476190Y24166888D01*
X-476190Y24166888D02*
X-438095Y24204983D01*
X-438095Y24204983D02*
X-361905Y24243079D01*
X-361905Y24243079D02*
X-209524Y24243079D01*
X-209524Y24243079D02*
X-133333Y24204983D01*
X133334Y24243079D02*
X438096Y24243079D01*
X247620Y24509745D02*
X247620Y23824031D01*
X247620Y23824031D02*
X285715Y23747840D01*
X285715Y23747840D02*
X361905Y23709745D01*
X361905Y23709745D02*
X438096Y23709745D01*
X1733334Y23709745D02*
X1276191Y23709745D01*
X1504763Y23709745D02*
X1504763Y24509745D01*
X1504763Y24509745D02*
X1428572Y24395460D01*
X1428572Y24395460D02*
X1352382Y24319269D01*
X1352382Y24319269D02*
X1276191Y24281174D01*
X2190477Y24166888D02*
X2114287Y24204983D01*
X2114287Y24204983D02*
X2076192Y24243079D01*
X2076192Y24243079D02*
X2038096Y24319269D01*
X2038096Y24319269D02*
X2038096Y24357364D01*
X2038096Y24357364D02*
X2076192Y24433555D01*
X2076192Y24433555D02*
X2114287Y24471650D01*
X2114287Y24471650D02*
X2190477Y24509745D01*
X2190477Y24509745D02*
X2342858Y24509745D01*
X2342858Y24509745D02*
X2419049Y24471650D01*
X2419049Y24471650D02*
X2457144Y24433555D01*
X2457144Y24433555D02*
X2495239Y24357364D01*
X2495239Y24357364D02*
X2495239Y24319269D01*
X2495239Y24319269D02*
X2457144Y24243079D01*
X2457144Y24243079D02*
X2419049Y24204983D01*
X2419049Y24204983D02*
X2342858Y24166888D01*
X2342858Y24166888D02*
X2190477Y24166888D01*
X2190477Y24166888D02*
X2114287Y24128793D01*
X2114287Y24128793D02*
X2076192Y24090698D01*
X2076192Y24090698D02*
X2038096Y24014507D01*
X2038096Y24014507D02*
X2038096Y23862126D01*
X2038096Y23862126D02*
X2076192Y23785936D01*
X2076192Y23785936D02*
X2114287Y23747840D01*
X2114287Y23747840D02*
X2190477Y23709745D01*
X2190477Y23709745D02*
X2342858Y23709745D01*
X2342858Y23709745D02*
X2419049Y23747840D01*
X2419049Y23747840D02*
X2457144Y23785936D01*
X2457144Y23785936D02*
X2495239Y23862126D01*
X2495239Y23862126D02*
X2495239Y24014507D01*
X2495239Y24014507D02*
X2457144Y24090698D01*
X2457144Y24090698D02*
X2419049Y24128793D01*
X2419049Y24128793D02*
X2342858Y24166888D01*
X2990478Y24509745D02*
X3066668Y24509745D01*
X3066668Y24509745D02*
X3142859Y24471650D01*
X3142859Y24471650D02*
X3180954Y24433555D01*
X3180954Y24433555D02*
X3219049Y24357364D01*
X3219049Y24357364D02*
X3257144Y24204983D01*
X3257144Y24204983D02*
X3257144Y24014507D01*
X3257144Y24014507D02*
X3219049Y23862126D01*
X3219049Y23862126D02*
X3180954Y23785936D01*
X3180954Y23785936D02*
X3142859Y23747840D01*
X3142859Y23747840D02*
X3066668Y23709745D01*
X3066668Y23709745D02*
X2990478Y23709745D01*
X2990478Y23709745D02*
X2914287Y23747840D01*
X2914287Y23747840D02*
X2876192Y23785936D01*
X2876192Y23785936D02*
X2838097Y23862126D01*
X2838097Y23862126D02*
X2800001Y24014507D01*
X2800001Y24014507D02*
X2800001Y24204983D01*
X2800001Y24204983D02*
X2838097Y24357364D01*
X2838097Y24357364D02*
X2876192Y24433555D01*
X2876192Y24433555D02*
X2914287Y24471650D01*
X2914287Y24471650D02*
X2990478Y24509745D01*
X3561906Y24433555D02*
X3600002Y24471650D01*
X3600002Y24471650D02*
X3676192Y24509745D01*
X3676192Y24509745D02*
X3866668Y24509745D01*
X3866668Y24509745D02*
X3942859Y24471650D01*
X3942859Y24471650D02*
X3980954Y24433555D01*
X3980954Y24433555D02*
X4019049Y24357364D01*
X4019049Y24357364D02*
X4019049Y24281174D01*
X4019049Y24281174D02*
X3980954Y24166888D01*
X3980954Y24166888D02*
X3523811Y23709745D01*
X3523811Y23709745D02*
X4019049Y23709745D01*
X4361907Y23785936D02*
X4400002Y23747840D01*
X4400002Y23747840D02*
X4361907Y23709745D01*
X4361907Y23709745D02*
X4323811Y23747840D01*
X4323811Y23747840D02*
X4361907Y23785936D01*
X4361907Y23785936D02*
X4361907Y23709745D01*
X4704763Y24433555D02*
X4742859Y24471650D01*
X4742859Y24471650D02*
X4819049Y24509745D01*
X4819049Y24509745D02*
X5009525Y24509745D01*
X5009525Y24509745D02*
X5085716Y24471650D01*
X5085716Y24471650D02*
X5123811Y24433555D01*
X5123811Y24433555D02*
X5161906Y24357364D01*
X5161906Y24357364D02*
X5161906Y24281174D01*
X5161906Y24281174D02*
X5123811Y24166888D01*
X5123811Y24166888D02*
X4666668Y23709745D01*
X4666668Y23709745D02*
X5161906Y23709745D01*
X5885716Y24509745D02*
X5504764Y24509745D01*
X5504764Y24509745D02*
X5466668Y24128793D01*
X5466668Y24128793D02*
X5504764Y24166888D01*
X5504764Y24166888D02*
X5580954Y24204983D01*
X5580954Y24204983D02*
X5771430Y24204983D01*
X5771430Y24204983D02*
X5847621Y24166888D01*
X5847621Y24166888D02*
X5885716Y24128793D01*
X5885716Y24128793D02*
X5923811Y24052602D01*
X5923811Y24052602D02*
X5923811Y23862126D01*
X5923811Y23862126D02*
X5885716Y23785936D01*
X5885716Y23785936D02*
X5847621Y23747840D01*
X5847621Y23747840D02*
X5771430Y23709745D01*
X5771430Y23709745D02*
X5580954Y23709745D01*
X5580954Y23709745D02*
X5504764Y23747840D01*
X5504764Y23747840D02*
X5466668Y23785936D01*
X6419050Y24509745D02*
X6495240Y24509745D01*
X6495240Y24509745D02*
X6571431Y24471650D01*
X6571431Y24471650D02*
X6609526Y24433555D01*
X6609526Y24433555D02*
X6647621Y24357364D01*
X6647621Y24357364D02*
X6685716Y24204983D01*
X6685716Y24204983D02*
X6685716Y24014507D01*
X6685716Y24014507D02*
X6647621Y23862126D01*
X6647621Y23862126D02*
X6609526Y23785936D01*
X6609526Y23785936D02*
X6571431Y23747840D01*
X6571431Y23747840D02*
X6495240Y23709745D01*
X6495240Y23709745D02*
X6419050Y23709745D01*
X6419050Y23709745D02*
X6342859Y23747840D01*
X6342859Y23747840D02*
X6304764Y23785936D01*
X6304764Y23785936D02*
X6266669Y23862126D01*
X6266669Y23862126D02*
X6228573Y24014507D01*
X6228573Y24014507D02*
X6228573Y24204983D01*
X6228573Y24204983D02*
X6266669Y24357364D01*
X6266669Y24357364D02*
X6304764Y24433555D01*
X6304764Y24433555D02*
X6342859Y24471650D01*
X6342859Y24471650D02*
X6419050Y24509745D01*
X7371431Y24243079D02*
X7371431Y23709745D01*
X7180955Y24547840D02*
X6990478Y23976412D01*
X6990478Y23976412D02*
X7485717Y23976412D01*
X-725953Y-20133855D02*
X-725953Y-20705283D01*
X-725953Y-20705283D02*
X-764048Y-20819569D01*
X-764048Y-20819569D02*
X-840239Y-20895760D01*
X-840239Y-20895760D02*
X-954524Y-20933855D01*
X-954524Y-20933855D02*
X-1030715Y-20933855D01*
X-421191Y-20133855D02*
X74047Y-20133855D01*
X74047Y-20133855D02*
X-192619Y-20438617D01*
X-192619Y-20438617D02*
X-78334Y-20438617D01*
X-78334Y-20438617D02*
X-2143Y-20476712D01*
X-2143Y-20476712D02*
X35952Y-20514807D01*
X35952Y-20514807D02*
X74047Y-20590998D01*
X74047Y-20590998D02*
X74047Y-20781474D01*
X74047Y-20781474D02*
X35952Y-20857664D01*
X35952Y-20857664D02*
X-2143Y-20895760D01*
X-2143Y-20895760D02*
X-78334Y-20933855D01*
X-78334Y-20933855D02*
X-306905Y-20933855D01*
X-306905Y-20933855D02*
X-383096Y-20895760D01*
X-383096Y-20895760D02*
X-421191Y-20857664D01*
X988333Y-20895760D02*
X1102619Y-20933855D01*
X1102619Y-20933855D02*
X1293095Y-20933855D01*
X1293095Y-20933855D02*
X1369286Y-20895760D01*
X1369286Y-20895760D02*
X1407381Y-20857664D01*
X1407381Y-20857664D02*
X1445476Y-20781474D01*
X1445476Y-20781474D02*
X1445476Y-20705283D01*
X1445476Y-20705283D02*
X1407381Y-20629093D01*
X1407381Y-20629093D02*
X1369286Y-20590998D01*
X1369286Y-20590998D02*
X1293095Y-20552902D01*
X1293095Y-20552902D02*
X1140714Y-20514807D01*
X1140714Y-20514807D02*
X1064524Y-20476712D01*
X1064524Y-20476712D02*
X1026429Y-20438617D01*
X1026429Y-20438617D02*
X988333Y-20362426D01*
X988333Y-20362426D02*
X988333Y-20286236D01*
X988333Y-20286236D02*
X1026429Y-20210045D01*
X1026429Y-20210045D02*
X1064524Y-20171950D01*
X1064524Y-20171950D02*
X1140714Y-20133855D01*
X1140714Y-20133855D02*
X1331191Y-20133855D01*
X1331191Y-20133855D02*
X1445476Y-20171950D01*
X2131191Y-20933855D02*
X2131191Y-20514807D01*
X2131191Y-20514807D02*
X2093096Y-20438617D01*
X2093096Y-20438617D02*
X2016905Y-20400521D01*
X2016905Y-20400521D02*
X1864524Y-20400521D01*
X1864524Y-20400521D02*
X1788334Y-20438617D01*
X2131191Y-20895760D02*
X2055000Y-20933855D01*
X2055000Y-20933855D02*
X1864524Y-20933855D01*
X1864524Y-20933855D02*
X1788334Y-20895760D01*
X1788334Y-20895760D02*
X1750238Y-20819569D01*
X1750238Y-20819569D02*
X1750238Y-20743379D01*
X1750238Y-20743379D02*
X1788334Y-20667188D01*
X1788334Y-20667188D02*
X1864524Y-20629093D01*
X1864524Y-20629093D02*
X2055000Y-20629093D01*
X2055000Y-20629093D02*
X2131191Y-20590998D01*
X2512144Y-20933855D02*
X2512144Y-20400521D01*
X2512144Y-20476712D02*
X2550239Y-20438617D01*
X2550239Y-20438617D02*
X2626429Y-20400521D01*
X2626429Y-20400521D02*
X2740715Y-20400521D01*
X2740715Y-20400521D02*
X2816906Y-20438617D01*
X2816906Y-20438617D02*
X2855001Y-20514807D01*
X2855001Y-20514807D02*
X2855001Y-20933855D01*
X2855001Y-20514807D02*
X2893096Y-20438617D01*
X2893096Y-20438617D02*
X2969287Y-20400521D01*
X2969287Y-20400521D02*
X3083572Y-20400521D01*
X3083572Y-20400521D02*
X3159763Y-20438617D01*
X3159763Y-20438617D02*
X3197858Y-20514807D01*
X3197858Y-20514807D02*
X3197858Y-20933855D01*
X3464525Y-20400521D02*
X3769287Y-20400521D01*
X3578811Y-20133855D02*
X3578811Y-20819569D01*
X3578811Y-20819569D02*
X3616906Y-20895760D01*
X3616906Y-20895760D02*
X3693096Y-20933855D01*
X3693096Y-20933855D02*
X3769287Y-20933855D01*
X4340716Y-20895760D02*
X4264525Y-20933855D01*
X4264525Y-20933855D02*
X4112144Y-20933855D01*
X4112144Y-20933855D02*
X4035954Y-20895760D01*
X4035954Y-20895760D02*
X3997858Y-20819569D01*
X3997858Y-20819569D02*
X3997858Y-20514807D01*
X3997858Y-20514807D02*
X4035954Y-20438617D01*
X4035954Y-20438617D02*
X4112144Y-20400521D01*
X4112144Y-20400521D02*
X4264525Y-20400521D01*
X4264525Y-20400521D02*
X4340716Y-20438617D01*
X4340716Y-20438617D02*
X4378811Y-20514807D01*
X4378811Y-20514807D02*
X4378811Y-20590998D01*
X4378811Y-20590998D02*
X3997858Y-20667188D01*
X5064525Y-20895760D02*
X4988334Y-20933855D01*
X4988334Y-20933855D02*
X4835953Y-20933855D01*
X4835953Y-20933855D02*
X4759763Y-20895760D01*
X4759763Y-20895760D02*
X4721668Y-20857664D01*
X4721668Y-20857664D02*
X4683572Y-20781474D01*
X4683572Y-20781474D02*
X4683572Y-20552902D01*
X4683572Y-20552902D02*
X4721668Y-20476712D01*
X4721668Y-20476712D02*
X4759763Y-20438617D01*
X4759763Y-20438617D02*
X4835953Y-20400521D01*
X4835953Y-20400521D02*
X4988334Y-20400521D01*
X4988334Y-20400521D02*
X5064525Y-20438617D01*
X5902620Y-20133855D02*
X6359763Y-20133855D01*
X6131191Y-20933855D02*
X6131191Y-20133855D01*
X6588334Y-20895760D02*
X6702620Y-20933855D01*
X6702620Y-20933855D02*
X6893096Y-20933855D01*
X6893096Y-20933855D02*
X6969287Y-20895760D01*
X6969287Y-20895760D02*
X7007382Y-20857664D01*
X7007382Y-20857664D02*
X7045477Y-20781474D01*
X7045477Y-20781474D02*
X7045477Y-20705283D01*
X7045477Y-20705283D02*
X7007382Y-20629093D01*
X7007382Y-20629093D02*
X6969287Y-20590998D01*
X6969287Y-20590998D02*
X6893096Y-20552902D01*
X6893096Y-20552902D02*
X6740715Y-20514807D01*
X6740715Y-20514807D02*
X6664525Y-20476712D01*
X6664525Y-20476712D02*
X6626430Y-20438617D01*
X6626430Y-20438617D02*
X6588334Y-20362426D01*
X6588334Y-20362426D02*
X6588334Y-20286236D01*
X6588334Y-20286236D02*
X6626430Y-20210045D01*
X6626430Y-20210045D02*
X6664525Y-20171950D01*
X6664525Y-20171950D02*
X6740715Y-20133855D01*
X6740715Y-20133855D02*
X6931192Y-20133855D01*
X6931192Y-20133855D02*
X7045477Y-20171950D01*
X7388335Y-20933855D02*
X7388335Y-20133855D01*
X7388335Y-20133855D02*
X7655001Y-20705283D01*
X7655001Y-20705283D02*
X7921668Y-20133855D01*
X7921668Y-20133855D02*
X7921668Y-20933855D01*
X8302621Y-20629093D02*
X8912145Y-20629093D01*
X9712144Y-20933855D02*
X9255001Y-20933855D01*
X9483573Y-20933855D02*
X9483573Y-20133855D01*
X9483573Y-20133855D02*
X9407382Y-20248140D01*
X9407382Y-20248140D02*
X9331192Y-20324331D01*
X9331192Y-20324331D02*
X9255001Y-20362426D01*
X10207383Y-20133855D02*
X10283573Y-20133855D01*
X10283573Y-20133855D02*
X10359764Y-20171950D01*
X10359764Y-20171950D02*
X10397859Y-20210045D01*
X10397859Y-20210045D02*
X10435954Y-20286236D01*
X10435954Y-20286236D02*
X10474049Y-20438617D01*
X10474049Y-20438617D02*
X10474049Y-20629093D01*
X10474049Y-20629093D02*
X10435954Y-20781474D01*
X10435954Y-20781474D02*
X10397859Y-20857664D01*
X10397859Y-20857664D02*
X10359764Y-20895760D01*
X10359764Y-20895760D02*
X10283573Y-20933855D01*
X10283573Y-20933855D02*
X10207383Y-20933855D01*
X10207383Y-20933855D02*
X10131192Y-20895760D01*
X10131192Y-20895760D02*
X10093097Y-20857664D01*
X10093097Y-20857664D02*
X10055002Y-20781474D01*
X10055002Y-20781474D02*
X10016906Y-20629093D01*
X10016906Y-20629093D02*
X10016906Y-20438617D01*
X10016906Y-20438617D02*
X10055002Y-20286236D01*
X10055002Y-20286236D02*
X10093097Y-20210045D01*
X10093097Y-20210045D02*
X10131192Y-20171950D01*
X10131192Y-20171950D02*
X10207383Y-20133855D01*
X10778811Y-20210045D02*
X10816907Y-20171950D01*
X10816907Y-20171950D02*
X10893097Y-20133855D01*
X10893097Y-20133855D02*
X11083573Y-20133855D01*
X11083573Y-20133855D02*
X11159764Y-20171950D01*
X11159764Y-20171950D02*
X11197859Y-20210045D01*
X11197859Y-20210045D02*
X11235954Y-20286236D01*
X11235954Y-20286236D02*
X11235954Y-20362426D01*
X11235954Y-20362426D02*
X11197859Y-20476712D01*
X11197859Y-20476712D02*
X10740716Y-20933855D01*
X10740716Y-20933855D02*
X11235954Y-20933855D01*
X11578812Y-20629093D02*
X12188336Y-20629093D01*
X12721669Y-20133855D02*
X12797859Y-20133855D01*
X12797859Y-20133855D02*
X12874050Y-20171950D01*
X12874050Y-20171950D02*
X12912145Y-20210045D01*
X12912145Y-20210045D02*
X12950240Y-20286236D01*
X12950240Y-20286236D02*
X12988335Y-20438617D01*
X12988335Y-20438617D02*
X12988335Y-20629093D01*
X12988335Y-20629093D02*
X12950240Y-20781474D01*
X12950240Y-20781474D02*
X12912145Y-20857664D01*
X12912145Y-20857664D02*
X12874050Y-20895760D01*
X12874050Y-20895760D02*
X12797859Y-20933855D01*
X12797859Y-20933855D02*
X12721669Y-20933855D01*
X12721669Y-20933855D02*
X12645478Y-20895760D01*
X12645478Y-20895760D02*
X12607383Y-20857664D01*
X12607383Y-20857664D02*
X12569288Y-20781474D01*
X12569288Y-20781474D02*
X12531192Y-20629093D01*
X12531192Y-20629093D02*
X12531192Y-20438617D01*
X12531192Y-20438617D02*
X12569288Y-20286236D01*
X12569288Y-20286236D02*
X12607383Y-20210045D01*
X12607383Y-20210045D02*
X12645478Y-20171950D01*
X12645478Y-20171950D02*
X12721669Y-20133855D01*
X13750240Y-20933855D02*
X13293097Y-20933855D01*
X13521669Y-20933855D02*
X13521669Y-20133855D01*
X13521669Y-20133855D02*
X13445478Y-20248140D01*
X13445478Y-20248140D02*
X13369288Y-20324331D01*
X13369288Y-20324331D02*
X13293097Y-20362426D01*
X14093098Y-20629093D02*
X14702622Y-20629093D01*
X15464526Y-20933855D02*
X15083574Y-20933855D01*
X15083574Y-20933855D02*
X15083574Y-20133855D01*
X15731193Y-20629093D02*
X16340717Y-20629093D01*
X16683573Y-20895760D02*
X16797859Y-20933855D01*
X16797859Y-20933855D02*
X16988335Y-20933855D01*
X16988335Y-20933855D02*
X17064526Y-20895760D01*
X17064526Y-20895760D02*
X17102621Y-20857664D01*
X17102621Y-20857664D02*
X17140716Y-20781474D01*
X17140716Y-20781474D02*
X17140716Y-20705283D01*
X17140716Y-20705283D02*
X17102621Y-20629093D01*
X17102621Y-20629093D02*
X17064526Y-20590998D01*
X17064526Y-20590998D02*
X16988335Y-20552902D01*
X16988335Y-20552902D02*
X16835954Y-20514807D01*
X16835954Y-20514807D02*
X16759764Y-20476712D01*
X16759764Y-20476712D02*
X16721669Y-20438617D01*
X16721669Y-20438617D02*
X16683573Y-20362426D01*
X16683573Y-20362426D02*
X16683573Y-20286236D01*
X16683573Y-20286236D02*
X16721669Y-20210045D01*
X16721669Y-20210045D02*
X16759764Y-20171950D01*
X16759764Y-20171950D02*
X16835954Y-20133855D01*
X16835954Y-20133855D02*
X17026431Y-20133855D01*
X17026431Y-20133855D02*
X17140716Y-20171950D01*
X17369288Y-20133855D02*
X17635955Y-20933855D01*
X17635955Y-20933855D02*
X17902621Y-20133855D01*
X6952379Y208793D02*
X6685713Y208793D01*
X6685713Y-210255D02*
X6685713Y589745D01*
X6685713Y589745D02*
X7066665Y589745D01*
X7790474Y-210255D02*
X7333331Y-210255D01*
X7561903Y-210255D02*
X7561903Y589745D01*
X7561903Y589745D02*
X7485712Y475460D01*
X7485712Y475460D02*
X7409522Y399269D01*
X7409522Y399269D02*
X7333331Y361174D01*
X8704760Y-172160D02*
X8819046Y-210255D01*
X8819046Y-210255D02*
X9009522Y-210255D01*
X9009522Y-210255D02*
X9085713Y-172160D01*
X9085713Y-172160D02*
X9123808Y-134064D01*
X9123808Y-134064D02*
X9161903Y-57874D01*
X9161903Y-57874D02*
X9161903Y18317D01*
X9161903Y18317D02*
X9123808Y94507D01*
X9123808Y94507D02*
X9085713Y132602D01*
X9085713Y132602D02*
X9009522Y170698D01*
X9009522Y170698D02*
X8857141Y208793D01*
X8857141Y208793D02*
X8780951Y246888D01*
X8780951Y246888D02*
X8742856Y284983D01*
X8742856Y284983D02*
X8704760Y361174D01*
X8704760Y361174D02*
X8704760Y437364D01*
X8704760Y437364D02*
X8742856Y513555D01*
X8742856Y513555D02*
X8780951Y551650D01*
X8780951Y551650D02*
X8857141Y589745D01*
X8857141Y589745D02*
X9047618Y589745D01*
X9047618Y589745D02*
X9161903Y551650D01*
X9847618Y-172160D02*
X9771427Y-210255D01*
X9771427Y-210255D02*
X9619046Y-210255D01*
X9619046Y-210255D02*
X9542856Y-172160D01*
X9542856Y-172160D02*
X9504761Y-134064D01*
X9504761Y-134064D02*
X9466665Y-57874D01*
X9466665Y-57874D02*
X9466665Y170698D01*
X9466665Y170698D02*
X9504761Y246888D01*
X9504761Y246888D02*
X9542856Y284983D01*
X9542856Y284983D02*
X9619046Y323079D01*
X9619046Y323079D02*
X9771427Y323079D01*
X9771427Y323079D02*
X9847618Y284983D01*
X10190475Y-210255D02*
X10190475Y589745D01*
X10533332Y-210255D02*
X10533332Y208793D01*
X10533332Y208793D02*
X10495237Y284983D01*
X10495237Y284983D02*
X10419046Y323079D01*
X10419046Y323079D02*
X10304760Y323079D01*
X10304760Y323079D02*
X10228570Y284983D01*
X10228570Y284983D02*
X10190475Y246888D01*
X11257142Y323079D02*
X11257142Y-210255D01*
X10914285Y323079D02*
X10914285Y-95969D01*
X10914285Y-95969D02*
X10952380Y-172160D01*
X10952380Y-172160D02*
X11028570Y-210255D01*
X11028570Y-210255D02*
X11142856Y-210255D01*
X11142856Y-210255D02*
X11219047Y-172160D01*
X11219047Y-172160D02*
X11257142Y-134064D01*
X11638095Y-210255D02*
X11638095Y323079D01*
X11638095Y170698D02*
X11676190Y246888D01*
X11676190Y246888D02*
X11714285Y284983D01*
X11714285Y284983D02*
X11790476Y323079D01*
X11790476Y323079D02*
X11866666Y323079D01*
X12019047Y323079D02*
X12323809Y323079D01*
X12133333Y589745D02*
X12133333Y-95969D01*
X12133333Y-95969D02*
X12171428Y-172160D01*
X12171428Y-172160D02*
X12247618Y-210255D01*
X12247618Y-210255D02*
X12323809Y-210255D01*
X12895238Y-172160D02*
X12819047Y-210255D01*
X12819047Y-210255D02*
X12666666Y-210255D01*
X12666666Y-210255D02*
X12590476Y-172160D01*
X12590476Y-172160D02*
X12552380Y-95969D01*
X12552380Y-95969D02*
X12552380Y208793D01*
X12552380Y208793D02*
X12590476Y284983D01*
X12590476Y284983D02*
X12666666Y323079D01*
X12666666Y323079D02*
X12819047Y323079D01*
X12819047Y323079D02*
X12895238Y284983D01*
X12895238Y284983D02*
X12933333Y208793D01*
X12933333Y208793D02*
X12933333Y132602D01*
X12933333Y132602D02*
X12552380Y56412D01*
X13276190Y-210255D02*
X13276190Y323079D01*
X13276190Y170698D02*
X13314285Y246888D01*
X13314285Y246888D02*
X13352380Y284983D01*
X13352380Y284983D02*
X13428571Y323079D01*
X13428571Y323079D02*
X13504761Y323079D01*
X14380952Y589745D02*
X14380952Y-57874D01*
X14380952Y-57874D02*
X14419047Y-134064D01*
X14419047Y-134064D02*
X14457142Y-172160D01*
X14457142Y-172160D02*
X14533333Y-210255D01*
X14533333Y-210255D02*
X14685714Y-210255D01*
X14685714Y-210255D02*
X14761904Y-172160D01*
X14761904Y-172160D02*
X14799999Y-134064D01*
X14799999Y-134064D02*
X14838095Y-57874D01*
X14838095Y-57874D02*
X14838095Y589745D01*
X15219047Y-210255D02*
X15219047Y589745D01*
X15219047Y589745D02*
X15485713Y18317D01*
X15485713Y18317D02*
X15752380Y589745D01*
X15752380Y589745D02*
X15752380Y-210255D01*
X16019047Y589745D02*
X16476190Y589745D01*
X16247618Y-210255D02*
X16247618Y589745D01*
X16704761Y513555D02*
X16742857Y551650D01*
X16742857Y551650D02*
X16819047Y589745D01*
X16819047Y589745D02*
X17009523Y589745D01*
X17009523Y589745D02*
X17085714Y551650D01*
X17085714Y551650D02*
X17123809Y513555D01*
X17123809Y513555D02*
X17161904Y437364D01*
X17161904Y437364D02*
X17161904Y361174D01*
X17161904Y361174D02*
X17123809Y246888D01*
X17123809Y246888D02*
X16666666Y-210255D01*
X16666666Y-210255D02*
X17161904Y-210255D01*
X17885714Y589745D02*
X17504762Y589745D01*
X17504762Y589745D02*
X17466666Y208793D01*
X17466666Y208793D02*
X17504762Y246888D01*
X17504762Y246888D02*
X17580952Y284983D01*
X17580952Y284983D02*
X17771428Y284983D01*
X17771428Y284983D02*
X17847619Y246888D01*
X17847619Y246888D02*
X17885714Y208793D01*
X17885714Y208793D02*
X17923809Y132602D01*
X17923809Y132602D02*
X17923809Y-57874D01*
X17923809Y-57874D02*
X17885714Y-134064D01*
X17885714Y-134064D02*
X17847619Y-172160D01*
X17847619Y-172160D02*
X17771428Y-210255D01*
X17771428Y-210255D02*
X17580952Y-210255D01*
X17580952Y-210255D02*
X17504762Y-172160D01*
X17504762Y-172160D02*
X17466666Y-134064D01*
X18419048Y589745D02*
X18495238Y589745D01*
X18495238Y589745D02*
X18571429Y551650D01*
X18571429Y551650D02*
X18609524Y513555D01*
X18609524Y513555D02*
X18647619Y437364D01*
X18647619Y437364D02*
X18685714Y284983D01*
X18685714Y284983D02*
X18685714Y94507D01*
X18685714Y94507D02*
X18647619Y-57874D01*
X18647619Y-57874D02*
X18609524Y-134064D01*
X18609524Y-134064D02*
X18571429Y-172160D01*
X18571429Y-172160D02*
X18495238Y-210255D01*
X18495238Y-210255D02*
X18419048Y-210255D01*
X18419048Y-210255D02*
X18342857Y-172160D01*
X18342857Y-172160D02*
X18304762Y-134064D01*
X18304762Y-134064D02*
X18266667Y-57874D01*
X18266667Y-57874D02*
X18228571Y94507D01*
X18228571Y94507D02*
X18228571Y284983D01*
X18228571Y284983D02*
X18266667Y437364D01*
X18266667Y437364D02*
X18304762Y513555D01*
X18304762Y513555D02*
X18342857Y551650D01*
X18342857Y551650D02*
X18419048Y589745D01*
X19523810Y589745D02*
X19980953Y589745D01*
X19752381Y-210255D02*
X19752381Y589745D01*
X20666667Y-210255D02*
X20209524Y-210255D01*
X20438096Y-210255D02*
X20438096Y589745D01*
X20438096Y589745D02*
X20361905Y475460D01*
X20361905Y475460D02*
X20285715Y399269D01*
X20285715Y399269D02*
X20209524Y361174D01*
X20971429Y18317D02*
X21352382Y18317D01*
X20895239Y-210255D02*
X21161906Y589745D01*
X21161906Y589745D02*
X21428572Y-210255D01*
G04 #@! TO.C,RV1*
X-21300000Y-9300000D02*
X-12700000Y-9300000D01*
X-12700000Y3300000D01*
X-21300000Y3300000D01*
X-21300000Y-9300000D01*
G04 #@! TO.C,J3*
X-6380000Y-19120000D02*
X-6380000Y-19690000D01*
X-6380000Y-19120000D02*
X-3620000Y-19120000D01*
X-6380000Y-19690000D02*
X-7850000Y-19690000D01*
X-6380000Y-21310000D02*
X-6380000Y-24420000D01*
X-6380000Y-24420000D02*
X-3620000Y-24420000D01*
X-3620000Y-19690000D02*
X-3620000Y-22230000D01*
X-3620000Y-23850000D02*
X-3620000Y-24420000D01*
G04 #@! TO.C,F1*
X17050000Y-1390000D02*
X10950000Y-1390000D01*
X17050000Y-4610000D02*
X10950000Y-4610000D01*
G04 #@! TD*
%LPC*%
D11*
G04 #@! TO.C,MH1*
X-17500000Y19500000D03*
G04 #@! TD*
D12*
G04 #@! TO.C,RV1*
X-17000000Y-7650000D03*
X-17000000Y1650000D03*
G04 #@! TD*
D11*
G04 #@! TO.C,MH2*
X17500000Y19500000D03*
G04 #@! TD*
G04 #@! TO.C,MH3*
X-20000000Y-12000000D03*
G04 #@! TD*
D13*
G04 #@! TO.C,S1*
X5100000Y12500000D03*
X5100000Y5500000D03*
X-5100000Y12500000D03*
X-5100000Y5500000D03*
G04 #@! TD*
D14*
G04 #@! TO.C,J3*
X-6655000Y-20500000D03*
X-3345000Y-23040000D03*
G04 #@! TD*
D15*
G04 #@! TO.C,F1*
X18250000Y-3000000D03*
X9750000Y-3000000D03*
G04 #@! TD*
D11*
G04 #@! TO.C,J1*
X13150000Y5000000D03*
D16*
X21350000Y5000000D03*
D11*
X13150000Y10000000D03*
X21350000Y10000000D03*
G04 #@! TD*
D17*
G04 #@! TO.C,PS1*
X-10160000Y-2340000D03*
D18*
X-5080000Y-2340000D03*
X10160000Y-22660000D03*
X0Y-22660000D03*
X-10160000Y-22660000D03*
G04 #@! TD*
D11*
G04 #@! TO.C,J2*
X-13150000Y10000000D03*
D16*
X-21350000Y10000000D03*
D11*
X-13150000Y5000000D03*
X-21350000Y5000000D03*
G04 #@! TD*
%LPD*%
M02*
